<svg xmlns="http://www.w3.org/2000/svg" viewBox="0 0 1600 360" width="1600" height="360" role="img" aria-label="AI domain banner">
  <defs>
    <linearGradient id="bg" x1="0" y1="0" x2="1" y2="1">
      <stop offset="0" stop-color="#060b18"/>
      <stop offset="0.55" stop-color="#0a1428"/>
      <stop offset="1" stop-color="#0c1a33"/>
    </linearGradient>
    <radialGradient id="glowA" cx="0.82" cy="0.5" r="0.5">
      <stop offset="0" stop-color="#22d3ee" stop-opacity="0.35"/>
      <stop offset="1" stop-color="#22d3ee" stop-opacity="0"/>
    </radialGradient>
    <radialGradient id="glowB" cx="0.1" cy="0.9" r="0.6">
      <stop offset="0" stop-color="#6366f1" stop-opacity="0.22"/>
      <stop offset="1" stop-color="#6366f1" stop-opacity="0"/>
    </radialGradient>
    <linearGradient id="title" x1="0" y1="0" x2="1" y2="0">
      <stop offset="0" stop-color="#ffffff"/>
      <stop offset="1" stop-color="#22d3ee"/>
    </linearGradient>
  </defs>
  <rect width="1600" height="360" fill="url(#bg)"/>
  <rect width="1600" height="360" fill="url(#glowA)"/>
  <rect width="1600" height="360" fill="url(#glowB)"/>
  <g><line x1="707.4" y1="197.5" x2="683.3" y2="179.3" stroke="#22d3ee" stroke-width="0.5" stroke-opacity="0.10"/><line x1="707.4" y1="197.5" x2="779.9" y2="119.4" stroke="#22d3ee" stroke-width="0.5" stroke-opacity="0.10"/><line x1="683.3" y1="179.3" x2="779.9" y2="119.4" stroke="#22d3ee" stroke-width="0.5" stroke-opacity="0.10"/><line x1="1006.8" y1="130.1" x2="1008.2" y2="181.7" stroke="#22d3ee" stroke-width="0.5" stroke-opacity="0.10"/><line x1="1006.8" y1="130.1" x2="946.6" y2="166.9" stroke="#22d3ee" stroke-width="0.5" stroke-opacity="0.10"/><line x1="969.6" y1="339.0" x2="1011.3" y2="267.7" stroke="#22d3ee" stroke-width="0.5" stroke-opacity="0.10"/><line x1="969.6" y1="339.0" x2="1048.8" y2="305.2" stroke="#22d3ee" stroke-width="0.5" stroke-opacity="0.10"/><line x1="517.8" y1="221.4" x2="454.7" y2="240.1" stroke="#22d3ee" stroke-width="0.5" stroke-opacity="0.10"/><line x1="517.8" y1="221.4" x2="515.1" y2="167.5" stroke="#22d3ee" stroke-width="0.5" stroke-opacity="0.10"/><line x1="517.8" y1="221.4" x2="500.4" y2="179.5" stroke="#22d3ee" stroke-width="0.5" stroke-opacity="0.10"/><line x1="300.1" y1="23.4" x2="330.5" y2="46.2" stroke="#22d3ee" stroke-width="0.5" stroke-opacity="0.10"/><line x1="566.6" y1="65.4" x2="515.1" y2="167.5" stroke="#22d3ee" stroke-width="0.5" stroke-opacity="0.10"/><line x1="318.5" y1="169.3" x2="408.0" y2="157.5" stroke="#22d3ee" stroke-width="0.5" stroke-opacity="0.10"/><line x1="318.5" y1="169.3" x2="366.3" y2="204.0" stroke="#22d3ee" stroke-width="0.5" stroke-opacity="0.10"/><line x1="318.5" y1="169.3" x2="289.2" y2="193.3" stroke="#22d3ee" stroke-width="0.5" stroke-opacity="0.10"/><line x1="318.5" y1="169.3" x2="206.7" y2="199.9" stroke="#22d3ee" stroke-width="0.5" stroke-opacity="0.10"/><line x1="428.5" y1="86.7" x2="408.0" y2="157.5" stroke="#22d3ee" stroke-width="0.5" stroke-opacity="0.10"/><line x1="428.5" y1="86.7" x2="330.5" y2="46.2" stroke="#22d3ee" stroke-width="0.5" stroke-opacity="0.10"/><line x1="428.5" y1="86.7" x2="515.1" y2="167.5" stroke="#22d3ee" stroke-width="0.5" stroke-opacity="0.10"/><line x1="428.5" y1="86.7" x2="500.4" y2="179.5" stroke="#22d3ee" stroke-width="0.5" stroke-opacity="0.10"/><line x1="1231.3" y1="219.1" x2="1249.2" y2="283.6" stroke="#22d3ee" stroke-width="0.5" stroke-opacity="0.10"/><line x1="1231.3" y1="219.1" x2="1265.3" y2="254.6" stroke="#22d3ee" stroke-width="0.5" stroke-opacity="0.10"/><line x1="1231.3" y1="219.1" x2="1152.5" y2="207.4" stroke="#22d3ee" stroke-width="0.5" stroke-opacity="0.10"/><line x1="830.0" y1="140.6" x2="779.9" y2="119.4" stroke="#22d3ee" stroke-width="0.5" stroke-opacity="0.10"/><line x1="830.0" y1="140.6" x2="946.6" y2="166.9" stroke="#22d3ee" stroke-width="0.5" stroke-opacity="0.10"/><line x1="408.0" y1="157.5" x2="454.7" y2="240.1" stroke="#22d3ee" stroke-width="0.5" stroke-opacity="0.10"/><line x1="408.0" y1="157.5" x2="366.3" y2="204.0" stroke="#22d3ee" stroke-width="0.5" stroke-opacity="0.10"/><line x1="408.0" y1="157.5" x2="515.1" y2="167.5" stroke="#22d3ee" stroke-width="0.5" stroke-opacity="0.10"/><line x1="408.0" y1="157.5" x2="500.4" y2="179.5" stroke="#22d3ee" stroke-width="0.5" stroke-opacity="0.10"/><line x1="1389.3" y1="325.6" x2="1469.7" y2="325.3" stroke="#22d3ee" stroke-width="0.5" stroke-opacity="0.10"/><line x1="1389.3" y1="325.6" x2="1453.6" y2="227.4" stroke="#22d3ee" stroke-width="0.5" stroke-opacity="0.10"/><line x1="50.3" y1="113.9" x2="92.4" y2="3.5" stroke="#22d3ee" stroke-width="0.5" stroke-opacity="0.10"/><line x1="1008.2" y1="181.7" x2="1011.3" y2="267.7" stroke="#22d3ee" stroke-width="0.5" stroke-opacity="0.10"/><line x1="1008.2" y1="181.7" x2="946.6" y2="166.9" stroke="#22d3ee" stroke-width="0.5" stroke-opacity="0.10"/><line x1="1011.3" y1="267.7" x2="946.6" y2="166.9" stroke="#22d3ee" stroke-width="0.5" stroke-opacity="0.10"/><line x1="1011.3" y1="267.7" x2="1048.8" y2="305.2" stroke="#22d3ee" stroke-width="0.5" stroke-opacity="0.10"/><line x1="454.7" y1="240.1" x2="366.3" y2="204.0" stroke="#22d3ee" stroke-width="0.5" stroke-opacity="0.10"/><line x1="454.7" y1="240.1" x2="515.1" y2="167.5" stroke="#22d3ee" stroke-width="0.5" stroke-opacity="0.10"/><line x1="454.7" y1="240.1" x2="500.4" y2="179.5" stroke="#22d3ee" stroke-width="0.5" stroke-opacity="0.10"/><line x1="1249.2" y1="283.6" x2="1265.3" y2="254.6" stroke="#22d3ee" stroke-width="0.5" stroke-opacity="0.10"/><line x1="1548.7" y1="245.9" x2="1532.6" y2="295.9" stroke="#22d3ee" stroke-width="0.5" stroke-opacity="0.10"/><line x1="1548.7" y1="245.9" x2="1540.9" y2="291.0" stroke="#22d3ee" stroke-width="0.5" stroke-opacity="0.10"/><line x1="1548.7" y1="245.9" x2="1469.7" y2="325.3" stroke="#22d3ee" stroke-width="0.5" stroke-opacity="0.10"/><line x1="1548.7" y1="245.9" x2="1538.6" y2="191.2" stroke="#22d3ee" stroke-width="0.5" stroke-opacity="0.10"/><line x1="1548.7" y1="245.9" x2="1453.6" y2="227.4" stroke="#22d3ee" stroke-width="0.5" stroke-opacity="0.10"/><line x1="92.1" y1="241.9" x2="173.2" y2="315.9" stroke="#22d3ee" stroke-width="0.5" stroke-opacity="0.10"/><line x1="92.1" y1="241.9" x2="175.4" y2="248.2" stroke="#22d3ee" stroke-width="0.5" stroke-opacity="0.10"/><line x1="173.2" y1="315.9" x2="175.4" y2="248.2" stroke="#22d3ee" stroke-width="0.5" stroke-opacity="0.10"/><line x1="366.3" y1="204.0" x2="289.2" y2="193.3" stroke="#22d3ee" stroke-width="0.5" stroke-opacity="0.10"/><line x1="175.4" y1="248.2" x2="206.7" y2="199.9" stroke="#22d3ee" stroke-width="0.5" stroke-opacity="0.10"/><line x1="175.4" y1="248.2" x2="190.5" y2="156.0" stroke="#22d3ee" stroke-width="0.5" stroke-opacity="0.10"/><line x1="1532.6" y1="295.9" x2="1540.9" y2="291.0" stroke="#22d3ee" stroke-width="0.5" stroke-opacity="0.10"/><line x1="1532.6" y1="295.9" x2="1469.7" y2="325.3" stroke="#22d3ee" stroke-width="0.5" stroke-opacity="0.10"/><line x1="1532.6" y1="295.9" x2="1538.6" y2="191.2" stroke="#22d3ee" stroke-width="0.5" stroke-opacity="0.10"/><line x1="1532.6" y1="295.9" x2="1453.6" y2="227.4" stroke="#22d3ee" stroke-width="0.5" stroke-opacity="0.10"/><line x1="289.2" y1="193.3" x2="206.7" y2="199.9" stroke="#22d3ee" stroke-width="0.5" stroke-opacity="0.10"/><line x1="289.2" y1="193.3" x2="190.5" y2="156.0" stroke="#22d3ee" stroke-width="0.5" stroke-opacity="0.10"/><line x1="1540.9" y1="291.0" x2="1469.7" y2="325.3" stroke="#22d3ee" stroke-width="0.5" stroke-opacity="0.10"/><line x1="1540.9" y1="291.0" x2="1538.6" y2="191.2" stroke="#22d3ee" stroke-width="0.5" stroke-opacity="0.10"/><line x1="1540.9" y1="291.0" x2="1453.6" y2="227.4" stroke="#22d3ee" stroke-width="0.5" stroke-opacity="0.10"/><line x1="1469.7" y1="325.3" x2="1453.6" y2="227.4" stroke="#22d3ee" stroke-width="0.5" stroke-opacity="0.10"/><line x1="691.5" y1="329.5" x2="768.7" y2="347.9" stroke="#22d3ee" stroke-width="0.5" stroke-opacity="0.10"/><line x1="206.7" y1="199.9" x2="190.5" y2="156.0" stroke="#22d3ee" stroke-width="0.5" stroke-opacity="0.10"/><line x1="1538.6" y1="191.2" x2="1453.6" y2="227.4" stroke="#22d3ee" stroke-width="0.5" stroke-opacity="0.10"/><line x1="515.1" y1="167.5" x2="500.4" y2="179.5" stroke="#22d3ee" stroke-width="0.5" stroke-opacity="0.10"/><circle cx="707.4" cy="197.5" r="1.7" fill="#22d3ee" fill-opacity="0.58"/><circle cx="683.3" cy="179.3" r="1.9" fill="#22d3ee" fill-opacity="0.50"/><circle cx="1006.8" cy="130.1" r="2.0" fill="#22d3ee" fill-opacity="0.59"/><circle cx="969.6" cy="339.0" r="1.6" fill="#22d3ee" fill-opacity="0.15"/><circle cx="517.8" cy="221.4" r="1.6" fill="#22d3ee" fill-opacity="0.30"/><circle cx="300.1" cy="23.4" r="0.9" fill="#22d3ee" fill-opacity="0.35"/><circle cx="566.6" cy="65.4" r="0.8" fill="#22d3ee" fill-opacity="0.53"/><circle cx="1145.2" cy="75.3" r="2.3" fill="#22d3ee" fill-opacity="0.53"/><circle cx="318.5" cy="169.3" r="1.7" fill="#22d3ee" fill-opacity="0.26"/><circle cx="428.5" cy="86.7" r="2.3" fill="#22d3ee" fill-opacity="0.41"/><circle cx="1231.3" cy="219.1" r="0.6" fill="#22d3ee" fill-opacity="0.58"/><circle cx="830.0" cy="140.6" r="1.5" fill="#22d3ee" fill-opacity="0.34"/><circle cx="408.0" cy="157.5" r="1.8" fill="#22d3ee" fill-opacity="0.62"/><circle cx="1389.3" cy="325.6" r="0.7" fill="#22d3ee" fill-opacity="0.20"/><circle cx="50.3" cy="113.9" r="2.0" fill="#22d3ee" fill-opacity="0.25"/><circle cx="1008.2" cy="181.7" r="2.0" fill="#22d3ee" fill-opacity="0.59"/><circle cx="1011.3" cy="267.7" r="2.0" fill="#22d3ee" fill-opacity="0.38"/><circle cx="454.7" cy="240.1" r="1.5" fill="#22d3ee" fill-opacity="0.54"/><circle cx="1249.2" cy="283.6" r="1.6" fill="#22d3ee" fill-opacity="0.44"/><circle cx="1265.3" cy="254.6" r="1.6" fill="#22d3ee" fill-opacity="0.45"/><circle cx="779.9" cy="119.4" r="2.3" fill="#22d3ee" fill-opacity="0.52"/><circle cx="1548.7" cy="245.9" r="2.1" fill="#22d3ee" fill-opacity="0.21"/><circle cx="330.5" cy="46.2" r="0.9" fill="#22d3ee" fill-opacity="0.63"/><circle cx="1488.5" cy="37.8" r="1.7" fill="#22d3ee" fill-opacity="0.38"/><circle cx="92.1" cy="241.9" r="1.4" fill="#22d3ee" fill-opacity="0.17"/><circle cx="946.6" cy="166.9" r="1.9" fill="#22d3ee" fill-opacity="0.62"/><circle cx="173.2" cy="315.9" r="1.6" fill="#22d3ee" fill-opacity="0.51"/><circle cx="366.3" cy="204.0" r="2.3" fill="#22d3ee" fill-opacity="0.26"/><circle cx="1152.5" cy="207.4" r="1.5" fill="#22d3ee" fill-opacity="0.26"/><circle cx="175.4" cy="248.2" r="1.8" fill="#22d3ee" fill-opacity="0.46"/><circle cx="1532.6" cy="295.9" r="1.3" fill="#22d3ee" fill-opacity="0.16"/><circle cx="289.2" cy="193.3" r="1.8" fill="#22d3ee" fill-opacity="0.61"/><circle cx="92.4" cy="3.5" r="2.2" fill="#22d3ee" fill-opacity="0.17"/><circle cx="1313.6" cy="7.7" r="1.0" fill="#22d3ee" fill-opacity="0.33"/><circle cx="1540.9" cy="291.0" r="1.6" fill="#22d3ee" fill-opacity="0.17"/><circle cx="1048.8" cy="305.2" r="1.4" fill="#22d3ee" fill-opacity="0.18"/><circle cx="1469.7" cy="325.3" r="1.2" fill="#22d3ee" fill-opacity="0.39"/><circle cx="691.5" cy="329.5" r="2.2" fill="#22d3ee" fill-opacity="0.45"/><circle cx="206.7" cy="199.9" r="2.2" fill="#22d3ee" fill-opacity="0.36"/><circle cx="1538.6" cy="191.2" r="2.3" fill="#22d3ee" fill-opacity="0.17"/><circle cx="768.7" cy="347.9" r="1.1" fill="#22d3ee" fill-opacity="0.18"/><circle cx="190.5" cy="156.0" r="1.6" fill="#22d3ee" fill-opacity="0.25"/><circle cx="515.1" cy="167.5" r="1.5" fill="#22d3ee" fill-opacity="0.34"/><circle cx="1453.6" cy="227.4" r="1.7" fill="#22d3ee" fill-opacity="0.31"/><circle cx="500.4" cy="179.5" r="1.1" fill="#22d3ee" fill-opacity="0.23"/><circle cx="943.9" cy="20.2" r="2.4" fill="#22d3ee" fill-opacity="0.59"/></g>
  <g opacity="0.95"><circle cx="1330" cy="180" r="18" fill="#22d3ee" fill-opacity="0.9"/><line x1="1330" y1="180" x2="1330.0" y2="102.0" stroke="#22d3ee" stroke-width="1.4" stroke-opacity="0.55"/><circle cx="1330.0" cy="102.0" r="6" fill="#22d3ee"/><line x1="1330" y1="180" x2="1397.5" y2="141.0" stroke="#22d3ee" stroke-width="1.4" stroke-opacity="0.55"/><circle cx="1397.5" cy="141.0" r="6" fill="#22d3ee"/><line x1="1330" y1="180" x2="1397.5" y2="219.0" stroke="#22d3ee" stroke-width="1.4" stroke-opacity="0.55"/><circle cx="1397.5" cy="219.0" r="6" fill="#22d3ee"/><line x1="1330" y1="180" x2="1330.0" y2="258.0" stroke="#22d3ee" stroke-width="1.4" stroke-opacity="0.55"/><circle cx="1330.0" cy="258.0" r="6" fill="#22d3ee"/><line x1="1330" y1="180" x2="1262.5" y2="219.0" stroke="#22d3ee" stroke-width="1.4" stroke-opacity="0.55"/><circle cx="1262.5" cy="219.0" r="6" fill="#22d3ee"/><line x1="1330" y1="180" x2="1262.5" y2="141.0" stroke="#22d3ee" stroke-width="1.4" stroke-opacity="0.55"/><circle cx="1262.5" cy="141.0" r="6" fill="#22d3ee"/><circle cx="1330" cy="180" r="80" fill="none" stroke="#22d3ee" stroke-opacity="0.3" stroke-width="1.5"/></g>
  <g font-family="'Segoe UI', system-ui, sans-serif">
    <text x="130" y="150" fill="#22d3ee" font-size="22" font-weight="700" letter-spacing="6">24/7 INTELLIGENCE DOMAIN</text>
    <text x="126" y="238" fill="url(#title)" font-size="92" font-weight="800" letter-spacing="1">AI</text>
    <rect x="132" y="262" width="150" height="5" rx="2.5" fill="#22d3ee"/>
  </g>
  <rect x="0" y="0" width="1600" height="360" fill="none" stroke="#22d3ee" stroke-opacity="0.18" stroke-width="2"/>
</svg>
