<svg xmlns="http://www.w3.org/2000/svg" viewBox="0 0 1600 360" width="1600" height="360" role="img" aria-label="Build domain banner">
  <defs>
    <linearGradient id="bg" x1="0" y1="0" x2="1" y2="1">
      <stop offset="0" stop-color="#060b18"/>
      <stop offset="0.55" stop-color="#0a1428"/>
      <stop offset="1" stop-color="#0c1a33"/>
    </linearGradient>
    <radialGradient id="glowA" cx="0.82" cy="0.5" r="0.5">
      <stop offset="0" stop-color="#fb923c" stop-opacity="0.35"/>
      <stop offset="1" stop-color="#fb923c" stop-opacity="0"/>
    </radialGradient>
    <radialGradient id="glowB" cx="0.1" cy="0.9" r="0.6">
      <stop offset="0" stop-color="#f59e0b" stop-opacity="0.22"/>
      <stop offset="1" stop-color="#f59e0b" stop-opacity="0"/>
    </radialGradient>
    <linearGradient id="title" x1="0" y1="0" x2="1" y2="0">
      <stop offset="0" stop-color="#ffffff"/>
      <stop offset="1" stop-color="#fb923c"/>
    </linearGradient>
  </defs>
  <rect width="1600" height="360" fill="url(#bg)"/>
  <rect width="1600" height="360" fill="url(#glowA)"/>
  <rect width="1600" height="360" fill="url(#glowB)"/>
  <g><line x1="1544.7" y1="90.7" x2="1467.4" y2="92.3" stroke="#fb923c" stroke-width="0.5" stroke-opacity="0.10"/><line x1="992.8" y1="61.0" x2="889.3" y2="87.8" stroke="#fb923c" stroke-width="0.5" stroke-opacity="0.10"/><line x1="992.8" y1="61.0" x2="1018.6" y2="1.7" stroke="#fb923c" stroke-width="0.5" stroke-opacity="0.10"/><line x1="1207.5" y1="40.0" x2="1238.2" y2="73.7" stroke="#fb923c" stroke-width="0.5" stroke-opacity="0.10"/><line x1="1207.5" y1="40.0" x2="1265.6" y2="41.3" stroke="#fb923c" stroke-width="0.5" stroke-opacity="0.10"/><line x1="1207.5" y1="40.0" x2="1256.6" y2="63.5" stroke="#fb923c" stroke-width="0.5" stroke-opacity="0.10"/><line x1="1408.0" y1="355.9" x2="1373.9" y2="271.5" stroke="#fb923c" stroke-width="0.5" stroke-opacity="0.10"/><line x1="1408.0" y1="355.9" x2="1389.8" y2="324.3" stroke="#fb923c" stroke-width="0.5" stroke-opacity="0.10"/><line x1="1408.0" y1="355.9" x2="1489.1" y2="341.8" stroke="#fb923c" stroke-width="0.5" stroke-opacity="0.10"/><line x1="1408.0" y1="355.9" x2="1489.6" y2="344.1" stroke="#fb923c" stroke-width="0.5" stroke-opacity="0.10"/><line x1="1408.0" y1="355.9" x2="1379.1" y2="311.3" stroke="#fb923c" stroke-width="0.5" stroke-opacity="0.10"/><line x1="485.0" y1="122.0" x2="473.3" y2="145.8" stroke="#fb923c" stroke-width="0.5" stroke-opacity="0.10"/><line x1="485.0" y1="122.0" x2="409.3" y2="80.8" stroke="#fb923c" stroke-width="0.5" stroke-opacity="0.10"/><line x1="1046.6" y1="333.3" x2="1078.5" y2="269.8" stroke="#fb923c" stroke-width="0.5" stroke-opacity="0.10"/><line x1="706.2" y1="196.8" x2="657.6" y2="107.5" stroke="#fb923c" stroke-width="0.5" stroke-opacity="0.10"/><line x1="706.2" y1="196.8" x2="675.2" y2="92.4" stroke="#fb923c" stroke-width="0.5" stroke-opacity="0.10"/><line x1="706.2" y1="196.8" x2="691.7" y2="294.8" stroke="#fb923c" stroke-width="0.5" stroke-opacity="0.10"/><line x1="706.2" y1="196.8" x2="631.8" y2="112.5" stroke="#fb923c" stroke-width="0.5" stroke-opacity="0.10"/><line x1="159.1" y1="269.1" x2="263.0" y2="236.5" stroke="#fb923c" stroke-width="0.5" stroke-opacity="0.10"/><line x1="159.1" y1="269.1" x2="207.7" y2="180.3" stroke="#fb923c" stroke-width="0.5" stroke-opacity="0.10"/><line x1="473.3" y1="145.8" x2="361.2" y2="118.9" stroke="#fb923c" stroke-width="0.5" stroke-opacity="0.10"/><line x1="473.3" y1="145.8" x2="409.3" y2="80.8" stroke="#fb923c" stroke-width="0.5" stroke-opacity="0.10"/><line x1="819.0" y1="134.7" x2="889.3" y2="87.8" stroke="#fb923c" stroke-width="0.5" stroke-opacity="0.10"/><line x1="263.0" y1="236.5" x2="348.5" y2="165.5" stroke="#fb923c" stroke-width="0.5" stroke-opacity="0.10"/><line x1="263.0" y1="236.5" x2="207.7" y2="180.3" stroke="#fb923c" stroke-width="0.5" stroke-opacity="0.10"/><line x1="263.0" y1="236.5" x2="335.4" y2="283.3" stroke="#fb923c" stroke-width="0.5" stroke-opacity="0.10"/><line x1="1250.8" y1="286.3" x2="1156.5" y2="284.5" stroke="#fb923c" stroke-width="0.5" stroke-opacity="0.10"/><line x1="1250.8" y1="286.3" x2="1256.2" y2="214.2" stroke="#fb923c" stroke-width="0.5" stroke-opacity="0.10"/><line x1="1250.8" y1="286.3" x2="1221.7" y2="194.2" stroke="#fb923c" stroke-width="0.5" stroke-opacity="0.10"/><line x1="657.6" y1="107.5" x2="675.2" y2="92.4" stroke="#fb923c" stroke-width="0.5" stroke-opacity="0.10"/><line x1="657.6" y1="107.5" x2="631.8" y2="112.5" stroke="#fb923c" stroke-width="0.5" stroke-opacity="0.10"/><line x1="757.0" y1="331.4" x2="691.7" y2="294.8" stroke="#fb923c" stroke-width="0.5" stroke-opacity="0.10"/><line x1="1373.9" y1="271.5" x2="1389.8" y2="324.3" stroke="#fb923c" stroke-width="0.5" stroke-opacity="0.10"/><line x1="1373.9" y1="271.5" x2="1379.1" y2="311.3" stroke="#fb923c" stroke-width="0.5" stroke-opacity="0.10"/><line x1="1156.5" y1="284.5" x2="1078.5" y2="269.8" stroke="#fb923c" stroke-width="0.5" stroke-opacity="0.10"/><line x1="1156.5" y1="284.5" x2="1165.4" y2="170.9" stroke="#fb923c" stroke-width="0.5" stroke-opacity="0.10"/><line x1="1156.5" y1="284.5" x2="1221.7" y2="194.2" stroke="#fb923c" stroke-width="0.5" stroke-opacity="0.10"/><line x1="1238.2" y1="73.7" x2="1265.6" y2="41.3" stroke="#fb923c" stroke-width="0.5" stroke-opacity="0.10"/><line x1="1238.2" y1="73.7" x2="1256.6" y2="63.5" stroke="#fb923c" stroke-width="0.5" stroke-opacity="0.10"/><line x1="1078.5" y1="269.8" x2="1042.5" y2="211.5" stroke="#fb923c" stroke-width="0.5" stroke-opacity="0.10"/><line x1="343.5" y1="136.3" x2="361.2" y2="118.9" stroke="#fb923c" stroke-width="0.5" stroke-opacity="0.10"/><line x1="343.5" y1="136.3" x2="359.2" y2="107.7" stroke="#fb923c" stroke-width="0.5" stroke-opacity="0.10"/><line x1="343.5" y1="136.3" x2="348.5" y2="165.5" stroke="#fb923c" stroke-width="0.5" stroke-opacity="0.10"/><line x1="343.5" y1="136.3" x2="409.3" y2="80.8" stroke="#fb923c" stroke-width="0.5" stroke-opacity="0.10"/><line x1="1110.2" y1="151.3" x2="1165.4" y2="170.9" stroke="#fb923c" stroke-width="0.5" stroke-opacity="0.10"/><line x1="1110.2" y1="151.3" x2="1221.7" y2="194.2" stroke="#fb923c" stroke-width="0.5" stroke-opacity="0.10"/><line x1="1110.2" y1="151.3" x2="1042.5" y2="211.5" stroke="#fb923c" stroke-width="0.5" stroke-opacity="0.10"/><line x1="361.2" y1="118.9" x2="359.2" y2="107.7" stroke="#fb923c" stroke-width="0.5" stroke-opacity="0.10"/><line x1="361.2" y1="118.9" x2="348.5" y2="165.5" stroke="#fb923c" stroke-width="0.5" stroke-opacity="0.10"/><line x1="361.2" y1="118.9" x2="409.3" y2="80.8" stroke="#fb923c" stroke-width="0.5" stroke-opacity="0.10"/><line x1="406.1" y1="253.8" x2="348.5" y2="165.5" stroke="#fb923c" stroke-width="0.5" stroke-opacity="0.10"/><line x1="406.1" y1="253.8" x2="335.4" y2="283.3" stroke="#fb923c" stroke-width="0.5" stroke-opacity="0.10"/><line x1="1389.8" y1="324.3" x2="1489.1" y2="341.8" stroke="#fb923c" stroke-width="0.5" stroke-opacity="0.10"/><line x1="1389.8" y1="324.3" x2="1489.6" y2="344.1" stroke="#fb923c" stroke-width="0.5" stroke-opacity="0.10"/><line x1="1389.8" y1="324.3" x2="1379.1" y2="311.3" stroke="#fb923c" stroke-width="0.5" stroke-opacity="0.10"/><line x1="675.2" y1="92.4" x2="631.8" y2="112.5" stroke="#fb923c" stroke-width="0.5" stroke-opacity="0.10"/><line x1="1265.6" y1="41.3" x2="1256.6" y2="63.5" stroke="#fb923c" stroke-width="0.5" stroke-opacity="0.10"/><line x1="1165.4" y1="170.9" x2="1256.2" y2="214.2" stroke="#fb923c" stroke-width="0.5" stroke-opacity="0.10"/><line x1="1165.4" y1="170.9" x2="1221.7" y2="194.2" stroke="#fb923c" stroke-width="0.5" stroke-opacity="0.10"/><line x1="359.2" y1="107.7" x2="348.5" y2="165.5" stroke="#fb923c" stroke-width="0.5" stroke-opacity="0.10"/><line x1="359.2" y1="107.7" x2="409.3" y2="80.8" stroke="#fb923c" stroke-width="0.5" stroke-opacity="0.10"/><line x1="1489.1" y1="341.8" x2="1489.6" y2="344.1" stroke="#fb923c" stroke-width="0.5" stroke-opacity="0.10"/><line x1="1489.1" y1="341.8" x2="1379.1" y2="311.3" stroke="#fb923c" stroke-width="0.5" stroke-opacity="0.10"/><line x1="1489.6" y1="344.1" x2="1379.1" y2="311.3" stroke="#fb923c" stroke-width="0.5" stroke-opacity="0.10"/><line x1="348.5" y1="165.5" x2="409.3" y2="80.8" stroke="#fb923c" stroke-width="0.5" stroke-opacity="0.10"/><line x1="348.5" y1="165.5" x2="335.4" y2="283.3" stroke="#fb923c" stroke-width="0.5" stroke-opacity="0.10"/><line x1="1256.2" y1="214.2" x2="1221.7" y2="194.2" stroke="#fb923c" stroke-width="0.5" stroke-opacity="0.10"/><circle cx="1544.7" cy="90.7" r="2.3" fill="#fb923c" fill-opacity="0.18"/><circle cx="1467.4" cy="92.3" r="2.0" fill="#fb923c" fill-opacity="0.20"/><circle cx="992.8" cy="61.0" r="1.7" fill="#fb923c" fill-opacity="0.19"/><circle cx="1207.5" cy="40.0" r="1.2" fill="#fb923c" fill-opacity="0.18"/><circle cx="1408.0" cy="355.9" r="1.2" fill="#fb923c" fill-opacity="0.65"/><circle cx="485.0" cy="122.0" r="1.3" fill="#fb923c" fill-opacity="0.57"/><circle cx="1046.6" cy="333.3" r="1.4" fill="#fb923c" fill-opacity="0.26"/><circle cx="706.2" cy="196.8" r="2.1" fill="#fb923c" fill-opacity="0.29"/><circle cx="159.1" cy="269.1" r="2.2" fill="#fb923c" fill-opacity="0.35"/><circle cx="473.3" cy="145.8" r="0.8" fill="#fb923c" fill-opacity="0.20"/><circle cx="819.0" cy="134.7" r="0.7" fill="#fb923c" fill-opacity="0.29"/><circle cx="263.0" cy="236.5" r="2.0" fill="#fb923c" fill-opacity="0.35"/><circle cx="1250.8" cy="286.3" r="1.9" fill="#fb923c" fill-opacity="0.43"/><circle cx="4.3" cy="158.3" r="1.3" fill="#fb923c" fill-opacity="0.28"/><circle cx="657.6" cy="107.5" r="0.8" fill="#fb923c" fill-opacity="0.44"/><circle cx="757.0" cy="331.4" r="2.1" fill="#fb923c" fill-opacity="0.61"/><circle cx="150.1" cy="4.2" r="1.7" fill="#fb923c" fill-opacity="0.45"/><circle cx="889.3" cy="87.8" r="1.9" fill="#fb923c" fill-opacity="0.59"/><circle cx="1373.9" cy="271.5" r="1.2" fill="#fb923c" fill-opacity="0.24"/><circle cx="1156.5" cy="284.5" r="1.8" fill="#fb923c" fill-opacity="0.56"/><circle cx="1238.2" cy="73.7" r="2.0" fill="#fb923c" fill-opacity="0.24"/><circle cx="1078.5" cy="269.8" r="2.1" fill="#fb923c" fill-opacity="0.33"/><circle cx="343.5" cy="136.3" r="1.5" fill="#fb923c" fill-opacity="0.48"/><circle cx="1018.6" cy="1.7" r="1.1" fill="#fb923c" fill-opacity="0.40"/><circle cx="1110.2" cy="151.3" r="0.7" fill="#fb923c" fill-opacity="0.40"/><circle cx="361.2" cy="118.9" r="1.9" fill="#fb923c" fill-opacity="0.64"/><circle cx="406.1" cy="253.8" r="1.5" fill="#fb923c" fill-opacity="0.63"/><circle cx="1389.8" cy="324.3" r="2.3" fill="#fb923c" fill-opacity="0.39"/><circle cx="675.2" cy="92.4" r="2.2" fill="#fb923c" fill-opacity="0.61"/><circle cx="1265.6" cy="41.3" r="1.8" fill="#fb923c" fill-opacity="0.41"/><circle cx="1165.4" cy="170.9" r="1.6" fill="#fb923c" fill-opacity="0.21"/><circle cx="905.3" cy="261.8" r="1.0" fill="#fb923c" fill-opacity="0.29"/><circle cx="1256.6" cy="63.5" r="1.8" fill="#fb923c" fill-opacity="0.61"/><circle cx="359.2" cy="107.7" r="1.2" fill="#fb923c" fill-opacity="0.23"/><circle cx="1489.1" cy="341.8" r="2.4" fill="#fb923c" fill-opacity="0.25"/><circle cx="1489.6" cy="344.1" r="0.8" fill="#fb923c" fill-opacity="0.26"/><circle cx="691.7" cy="294.8" r="1.2" fill="#fb923c" fill-opacity="0.56"/><circle cx="348.5" cy="165.5" r="2.1" fill="#fb923c" fill-opacity="0.31"/><circle cx="409.3" cy="80.8" r="1.6" fill="#fb923c" fill-opacity="0.17"/><circle cx="1256.2" cy="214.2" r="0.8" fill="#fb923c" fill-opacity="0.27"/><circle cx="631.8" cy="112.5" r="2.2" fill="#fb923c" fill-opacity="0.47"/><circle cx="1379.1" cy="311.3" r="2.0" fill="#fb923c" fill-opacity="0.35"/><circle cx="1221.7" cy="194.2" r="1.2" fill="#fb923c" fill-opacity="0.15"/><circle cx="207.7" cy="180.3" r="1.0" fill="#fb923c" fill-opacity="0.47"/><circle cx="1042.5" cy="211.5" r="0.8" fill="#fb923c" fill-opacity="0.58"/><circle cx="335.4" cy="283.3" r="1.2" fill="#fb923c" fill-opacity="0.46"/></g>
  <g opacity="0.95"><rect x="1270" y="160" width="34" height="100" fill="#fb923c" fill-opacity="0.7"/><rect x="1316" y="110" width="38" height="150" fill="#fb923c" fill-opacity="0.85"/><rect x="1364" y="180" width="30" height="80" fill="#fb923c" fill-opacity="0.6"/><line x1="1316" y1="110" x2="1370" y2="92" stroke="#fb923c" stroke-width="2"/></g>
  <g font-family="'Segoe UI', system-ui, sans-serif">
    <text x="130" y="150" fill="#fb923c" font-size="22" font-weight="700" letter-spacing="6">24/7 INTELLIGENCE DOMAIN</text>
    <text x="126" y="238" fill="url(#title)" font-size="92" font-weight="800" letter-spacing="1">Build</text>
    <rect x="132" y="262" width="150" height="5" rx="2.5" fill="#fb923c"/>
  </g>
  <rect x="0" y="0" width="1600" height="360" fill="none" stroke="#fb923c" stroke-opacity="0.18" stroke-width="2"/>
</svg>
