<svg xmlns="http://www.w3.org/2000/svg" viewBox="0 0 1600 360" width="1600" height="360" role="img" aria-label="Contact domain banner">
  <defs>
    <linearGradient id="bg" x1="0" y1="0" x2="1" y2="1">
      <stop offset="0" stop-color="#060b18"/>
      <stop offset="0.55" stop-color="#0a1428"/>
      <stop offset="1" stop-color="#0c1a33"/>
    </linearGradient>
    <radialGradient id="glowA" cx="0.82" cy="0.5" r="0.5">
      <stop offset="0" stop-color="#94a3b8" stop-opacity="0.35"/>
      <stop offset="1" stop-color="#94a3b8" stop-opacity="0"/>
    </radialGradient>
    <radialGradient id="glowB" cx="0.1" cy="0.9" r="0.6">
      <stop offset="0" stop-color="#38bdf8" stop-opacity="0.22"/>
      <stop offset="1" stop-color="#38bdf8" stop-opacity="0"/>
    </radialGradient>
    <linearGradient id="title" x1="0" y1="0" x2="1" y2="0">
      <stop offset="0" stop-color="#ffffff"/>
      <stop offset="1" stop-color="#94a3b8"/>
    </linearGradient>
  </defs>
  <rect width="1600" height="360" fill="url(#bg)"/>
  <rect width="1600" height="360" fill="url(#glowA)"/>
  <rect width="1600" height="360" fill="url(#glowB)"/>
  <g><line x1="982.8" y1="112.8" x2="889.5" y2="112.0" stroke="#94a3b8" stroke-width="0.5" stroke-opacity="0.10"/><line x1="982.8" y1="112.8" x2="929.1" y2="79.0" stroke="#94a3b8" stroke-width="0.5" stroke-opacity="0.10"/><line x1="982.8" y1="112.8" x2="993.7" y2="36.8" stroke="#94a3b8" stroke-width="0.5" stroke-opacity="0.10"/><line x1="1097.9" y1="53.3" x2="1191.6" y2="96.2" stroke="#94a3b8" stroke-width="0.5" stroke-opacity="0.10"/><line x1="1097.9" y1="53.3" x2="993.7" y2="36.8" stroke="#94a3b8" stroke-width="0.5" stroke-opacity="0.10"/><line x1="497.7" y1="242.2" x2="528.6" y2="339.2" stroke="#94a3b8" stroke-width="0.5" stroke-opacity="0.10"/><line x1="497.7" y1="242.2" x2="472.2" y2="291.1" stroke="#94a3b8" stroke-width="0.5" stroke-opacity="0.10"/><line x1="1214.1" y1="97.7" x2="1201.8" y2="124.9" stroke="#94a3b8" stroke-width="0.5" stroke-opacity="0.10"/><line x1="1214.1" y1="97.7" x2="1290.0" y2="160.4" stroke="#94a3b8" stroke-width="0.5" stroke-opacity="0.10"/><line x1="1214.1" y1="97.7" x2="1191.6" y2="96.2" stroke="#94a3b8" stroke-width="0.5" stroke-opacity="0.10"/><line x1="1214.1" y1="97.7" x2="1254.3" y2="124.2" stroke="#94a3b8" stroke-width="0.5" stroke-opacity="0.10"/><line x1="1214.1" y1="97.7" x2="1197.7" y2="141.4" stroke="#94a3b8" stroke-width="0.5" stroke-opacity="0.10"/><line x1="1387.4" y1="189.7" x2="1290.0" y2="160.4" stroke="#94a3b8" stroke-width="0.5" stroke-opacity="0.10"/><line x1="98.4" y1="297.0" x2="22.3" y2="302.3" stroke="#94a3b8" stroke-width="0.5" stroke-opacity="0.10"/><line x1="1201.8" y1="124.9" x2="1290.0" y2="160.4" stroke="#94a3b8" stroke-width="0.5" stroke-opacity="0.10"/><line x1="1201.8" y1="124.9" x2="1191.6" y2="96.2" stroke="#94a3b8" stroke-width="0.5" stroke-opacity="0.10"/><line x1="1201.8" y1="124.9" x2="1254.3" y2="124.2" stroke="#94a3b8" stroke-width="0.5" stroke-opacity="0.10"/><line x1="1201.8" y1="124.9" x2="1197.7" y2="141.4" stroke="#94a3b8" stroke-width="0.5" stroke-opacity="0.10"/><line x1="1201.8" y1="124.9" x2="1236.0" y2="225.6" stroke="#94a3b8" stroke-width="0.5" stroke-opacity="0.10"/><line x1="1587.1" y1="10.3" x2="1501.7" y2="85.9" stroke="#94a3b8" stroke-width="0.5" stroke-opacity="0.10"/><line x1="889.5" y1="112.0" x2="929.1" y2="79.0" stroke="#94a3b8" stroke-width="0.5" stroke-opacity="0.10"/><line x1="1279.2" y1="276.1" x2="1339.3" y2="311.6" stroke="#94a3b8" stroke-width="0.5" stroke-opacity="0.10"/><line x1="1279.2" y1="276.1" x2="1290.0" y2="160.4" stroke="#94a3b8" stroke-width="0.5" stroke-opacity="0.10"/><line x1="1279.2" y1="276.1" x2="1238.2" y2="344.7" stroke="#94a3b8" stroke-width="0.5" stroke-opacity="0.10"/><line x1="1279.2" y1="276.1" x2="1224.4" y2="278.2" stroke="#94a3b8" stroke-width="0.5" stroke-opacity="0.10"/><line x1="1279.2" y1="276.1" x2="1236.0" y2="225.6" stroke="#94a3b8" stroke-width="0.5" stroke-opacity="0.10"/><line x1="1550.6" y1="332.4" x2="1517.8" y2="280.2" stroke="#94a3b8" stroke-width="0.5" stroke-opacity="0.10"/><line x1="1550.6" y1="332.4" x2="1564.5" y2="317.6" stroke="#94a3b8" stroke-width="0.5" stroke-opacity="0.10"/><line x1="1339.3" y1="311.6" x2="1238.2" y2="344.7" stroke="#94a3b8" stroke-width="0.5" stroke-opacity="0.10"/><line x1="1339.3" y1="311.6" x2="1224.4" y2="278.2" stroke="#94a3b8" stroke-width="0.5" stroke-opacity="0.10"/><line x1="1290.0" y1="160.4" x2="1191.6" y2="96.2" stroke="#94a3b8" stroke-width="0.5" stroke-opacity="0.10"/><line x1="1290.0" y1="160.4" x2="1254.3" y2="124.2" stroke="#94a3b8" stroke-width="0.5" stroke-opacity="0.10"/><line x1="1290.0" y1="160.4" x2="1197.7" y2="141.4" stroke="#94a3b8" stroke-width="0.5" stroke-opacity="0.10"/><line x1="1290.0" y1="160.4" x2="1236.0" y2="225.6" stroke="#94a3b8" stroke-width="0.5" stroke-opacity="0.10"/><line x1="1401.0" y1="63.8" x2="1501.7" y2="85.9" stroke="#94a3b8" stroke-width="0.5" stroke-opacity="0.10"/><line x1="170.6" y1="50.9" x2="141.7" y2="135.5" stroke="#94a3b8" stroke-width="0.5" stroke-opacity="0.10"/><line x1="170.6" y1="50.9" x2="254.6" y2="134.8" stroke="#94a3b8" stroke-width="0.5" stroke-opacity="0.10"/><line x1="170.6" y1="50.9" x2="162.7" y2="111.2" stroke="#94a3b8" stroke-width="0.5" stroke-opacity="0.10"/><line x1="170.6" y1="50.9" x2="225.3" y2="67.4" stroke="#94a3b8" stroke-width="0.5" stroke-opacity="0.10"/><line x1="769.7" y1="174.3" x2="726.0" y2="75.3" stroke="#94a3b8" stroke-width="0.5" stroke-opacity="0.10"/><line x1="726.0" y1="75.3" x2="615.0" y2="96.8" stroke="#94a3b8" stroke-width="0.5" stroke-opacity="0.10"/><line x1="528.6" y1="339.2" x2="472.2" y2="291.1" stroke="#94a3b8" stroke-width="0.5" stroke-opacity="0.10"/><line x1="1517.8" y1="280.2" x2="1564.5" y2="317.6" stroke="#94a3b8" stroke-width="0.5" stroke-opacity="0.10"/><line x1="118.1" y1="168.2" x2="141.7" y2="135.5" stroke="#94a3b8" stroke-width="0.5" stroke-opacity="0.10"/><line x1="118.1" y1="168.2" x2="162.7" y2="111.2" stroke="#94a3b8" stroke-width="0.5" stroke-opacity="0.10"/><line x1="118.1" y1="168.2" x2="22.3" y2="99.7" stroke="#94a3b8" stroke-width="0.5" stroke-opacity="0.10"/><line x1="118.1" y1="168.2" x2="218.1" y2="183.9" stroke="#94a3b8" stroke-width="0.5" stroke-opacity="0.10"/><line x1="118.1" y1="168.2" x2="116.6" y2="160.3" stroke="#94a3b8" stroke-width="0.5" stroke-opacity="0.10"/><line x1="1238.2" y1="344.7" x2="1224.4" y2="278.2" stroke="#94a3b8" stroke-width="0.5" stroke-opacity="0.10"/><line x1="1238.2" y1="344.7" x2="1155.7" y2="258.7" stroke="#94a3b8" stroke-width="0.5" stroke-opacity="0.10"/><line x1="1238.2" y1="344.7" x2="1236.0" y2="225.6" stroke="#94a3b8" stroke-width="0.5" stroke-opacity="0.10"/><line x1="141.7" y1="135.5" x2="254.6" y2="134.8" stroke="#94a3b8" stroke-width="0.5" stroke-opacity="0.10"/><line x1="141.7" y1="135.5" x2="162.7" y2="111.2" stroke="#94a3b8" stroke-width="0.5" stroke-opacity="0.10"/><line x1="141.7" y1="135.5" x2="225.3" y2="67.4" stroke="#94a3b8" stroke-width="0.5" stroke-opacity="0.10"/><line x1="141.7" y1="135.5" x2="218.1" y2="183.9" stroke="#94a3b8" stroke-width="0.5" stroke-opacity="0.10"/><line x1="141.7" y1="135.5" x2="116.6" y2="160.3" stroke="#94a3b8" stroke-width="0.5" stroke-opacity="0.10"/><line x1="1191.6" y1="96.2" x2="1254.3" y2="124.2" stroke="#94a3b8" stroke-width="0.5" stroke-opacity="0.10"/><line x1="1191.6" y1="96.2" x2="1197.7" y2="141.4" stroke="#94a3b8" stroke-width="0.5" stroke-opacity="0.10"/><line x1="1224.4" y1="278.2" x2="1155.7" y2="258.7" stroke="#94a3b8" stroke-width="0.5" stroke-opacity="0.10"/><line x1="1224.4" y1="278.2" x2="1236.0" y2="225.6" stroke="#94a3b8" stroke-width="0.5" stroke-opacity="0.10"/><line x1="1254.3" y1="124.2" x2="1197.7" y2="141.4" stroke="#94a3b8" stroke-width="0.5" stroke-opacity="0.10"/><line x1="1254.3" y1="124.2" x2="1236.0" y2="225.6" stroke="#94a3b8" stroke-width="0.5" stroke-opacity="0.10"/><line x1="1155.7" y1="258.7" x2="1082.0" y2="340.2" stroke="#94a3b8" stroke-width="0.5" stroke-opacity="0.10"/><line x1="1155.7" y1="258.7" x2="1236.0" y2="225.6" stroke="#94a3b8" stroke-width="0.5" stroke-opacity="0.10"/><line x1="254.6" y1="134.8" x2="162.7" y2="111.2" stroke="#94a3b8" stroke-width="0.5" stroke-opacity="0.10"/><line x1="254.6" y1="134.8" x2="225.3" y2="67.4" stroke="#94a3b8" stroke-width="0.5" stroke-opacity="0.10"/><line x1="254.6" y1="134.8" x2="218.1" y2="183.9" stroke="#94a3b8" stroke-width="0.5" stroke-opacity="0.10"/><line x1="929.1" y1="79.0" x2="993.7" y2="36.8" stroke="#94a3b8" stroke-width="0.5" stroke-opacity="0.10"/><line x1="162.7" y1="111.2" x2="225.3" y2="67.4" stroke="#94a3b8" stroke-width="0.5" stroke-opacity="0.10"/><line x1="162.7" y1="111.2" x2="218.1" y2="183.9" stroke="#94a3b8" stroke-width="0.5" stroke-opacity="0.10"/><line x1="162.7" y1="111.2" x2="116.6" y2="160.3" stroke="#94a3b8" stroke-width="0.5" stroke-opacity="0.10"/><line x1="50.8" y1="16.7" x2="22.3" y2="99.7" stroke="#94a3b8" stroke-width="0.5" stroke-opacity="0.10"/><line x1="22.3" y1="99.7" x2="116.6" y2="160.3" stroke="#94a3b8" stroke-width="0.5" stroke-opacity="0.10"/><line x1="225.3" y1="67.4" x2="218.1" y2="183.9" stroke="#94a3b8" stroke-width="0.5" stroke-opacity="0.10"/><line x1="218.1" y1="183.9" x2="116.6" y2="160.3" stroke="#94a3b8" stroke-width="0.5" stroke-opacity="0.10"/><line x1="1197.7" y1="141.4" x2="1236.0" y2="225.6" stroke="#94a3b8" stroke-width="0.5" stroke-opacity="0.10"/><circle cx="982.8" cy="112.8" r="0.9" fill="#94a3b8" fill-opacity="0.27"/><circle cx="1097.9" cy="53.3" r="1.9" fill="#94a3b8" fill-opacity="0.42"/><circle cx="497.7" cy="242.2" r="0.7" fill="#94a3b8" fill-opacity="0.26"/><circle cx="1214.1" cy="97.7" r="1.7" fill="#94a3b8" fill-opacity="0.26"/><circle cx="1387.4" cy="189.7" r="0.6" fill="#94a3b8" fill-opacity="0.46"/><circle cx="98.4" cy="297.0" r="1.4" fill="#94a3b8" fill-opacity="0.64"/><circle cx="1201.8" cy="124.9" r="1.6" fill="#94a3b8" fill-opacity="0.32"/><circle cx="1587.1" cy="10.3" r="1.0" fill="#94a3b8" fill-opacity="0.31"/><circle cx="889.5" cy="112.0" r="1.7" fill="#94a3b8" fill-opacity="0.37"/><circle cx="1279.2" cy="276.1" r="1.2" fill="#94a3b8" fill-opacity="0.56"/><circle cx="1550.6" cy="332.4" r="1.6" fill="#94a3b8" fill-opacity="0.51"/><circle cx="1339.3" cy="311.6" r="0.7" fill="#94a3b8" fill-opacity="0.45"/><circle cx="1290.0" cy="160.4" r="2.3" fill="#94a3b8" fill-opacity="0.51"/><circle cx="1401.0" cy="63.8" r="2.1" fill="#94a3b8" fill-opacity="0.29"/><circle cx="170.6" cy="50.9" r="1.4" fill="#94a3b8" fill-opacity="0.63"/><circle cx="769.7" cy="174.3" r="2.0" fill="#94a3b8" fill-opacity="0.18"/><circle cx="466.3" cy="119.7" r="2.0" fill="#94a3b8" fill-opacity="0.42"/><circle cx="726.0" cy="75.3" r="1.0" fill="#94a3b8" fill-opacity="0.25"/><circle cx="615.0" cy="96.8" r="2.1" fill="#94a3b8" fill-opacity="0.15"/><circle cx="528.6" cy="339.2" r="0.9" fill="#94a3b8" fill-opacity="0.60"/><circle cx="472.2" cy="291.1" r="2.0" fill="#94a3b8" fill-opacity="0.40"/><circle cx="1517.8" cy="280.2" r="0.9" fill="#94a3b8" fill-opacity="0.29"/><circle cx="263.5" cy="329.1" r="1.2" fill="#94a3b8" fill-opacity="0.34"/><circle cx="118.1" cy="168.2" r="2.0" fill="#94a3b8" fill-opacity="0.61"/><circle cx="1238.2" cy="344.7" r="1.7" fill="#94a3b8" fill-opacity="0.60"/><circle cx="141.7" cy="135.5" r="1.4" fill="#94a3b8" fill-opacity="0.39"/><circle cx="22.3" cy="302.3" r="2.4" fill="#94a3b8" fill-opacity="0.40"/><circle cx="1191.6" cy="96.2" r="1.2" fill="#94a3b8" fill-opacity="0.55"/><circle cx="671.5" cy="332.1" r="2.4" fill="#94a3b8" fill-opacity="0.22"/><circle cx="1564.5" cy="317.6" r="1.0" fill="#94a3b8" fill-opacity="0.26"/><circle cx="1224.4" cy="278.2" r="2.4" fill="#94a3b8" fill-opacity="0.18"/><circle cx="1254.3" cy="124.2" r="1.4" fill="#94a3b8" fill-opacity="0.31"/><circle cx="1155.7" cy="258.7" r="1.5" fill="#94a3b8" fill-opacity="0.62"/><circle cx="254.6" cy="134.8" r="2.2" fill="#94a3b8" fill-opacity="0.55"/><circle cx="929.1" cy="79.0" r="0.7" fill="#94a3b8" fill-opacity="0.26"/><circle cx="162.7" cy="111.2" r="0.8" fill="#94a3b8" fill-opacity="0.57"/><circle cx="50.8" cy="16.7" r="1.1" fill="#94a3b8" fill-opacity="0.55"/><circle cx="1082.0" cy="340.2" r="1.3" fill="#94a3b8" fill-opacity="0.47"/><circle cx="22.3" cy="99.7" r="0.8" fill="#94a3b8" fill-opacity="0.18"/><circle cx="225.3" cy="67.4" r="0.9" fill="#94a3b8" fill-opacity="0.37"/><circle cx="993.7" cy="36.8" r="1.0" fill="#94a3b8" fill-opacity="0.23"/><circle cx="218.1" cy="183.9" r="2.3" fill="#94a3b8" fill-opacity="0.47"/><circle cx="116.6" cy="160.3" r="2.3" fill="#94a3b8" fill-opacity="0.52"/><circle cx="1501.7" cy="85.9" r="0.7" fill="#94a3b8" fill-opacity="0.34"/><circle cx="1197.7" cy="141.4" r="2.2" fill="#94a3b8" fill-opacity="0.55"/><circle cx="1236.0" cy="225.6" r="1.7" fill="#94a3b8" fill-opacity="0.36"/></g>
  <g opacity="0.95"><circle cx="1330" cy="210" r="10" fill="#94a3b8"/><path d="M1304 210 A26 26 0 0 1 1356 210" fill="none" stroke="#94a3b8" stroke-width="2.4" stroke-opacity="0.5499999999999999"/><path d="M1278 210 A52 52 0 0 1 1382 210" fill="none" stroke="#94a3b8" stroke-width="2.4" stroke-opacity="0.39999999999999997"/><path d="M1252 210 A78 78 0 0 1 1408 210" fill="none" stroke="#94a3b8" stroke-width="2.4" stroke-opacity="0.25"/></g>
  <g font-family="'Segoe UI', system-ui, sans-serif">
    <text x="130" y="150" fill="#94a3b8" font-size="22" font-weight="700" letter-spacing="6">24/7 INTELLIGENCE DOMAIN</text>
    <text x="126" y="238" fill="url(#title)" font-size="92" font-weight="800" letter-spacing="1">Contact</text>
    <rect x="132" y="262" width="150" height="5" rx="2.5" fill="#94a3b8"/>
  </g>
  <rect x="0" y="0" width="1600" height="360" fill="none" stroke="#94a3b8" stroke-opacity="0.18" stroke-width="2"/>
</svg>
