<svg xmlns="http://www.w3.org/2000/svg" viewBox="0 0 1600 360" width="1600" height="360" role="img" aria-label="Cosm domain banner">
  <defs>
    <linearGradient id="bg" x1="0" y1="0" x2="1" y2="1">
      <stop offset="0" stop-color="#060b18"/>
      <stop offset="0.55" stop-color="#0a1428"/>
      <stop offset="1" stop-color="#0c1a33"/>
    </linearGradient>
    <radialGradient id="glowA" cx="0.82" cy="0.5" r="0.5">
      <stop offset="0" stop-color="#c084fc" stop-opacity="0.35"/>
      <stop offset="1" stop-color="#c084fc" stop-opacity="0"/>
    </radialGradient>
    <radialGradient id="glowB" cx="0.1" cy="0.9" r="0.6">
      <stop offset="0" stop-color="#f472b6" stop-opacity="0.22"/>
      <stop offset="1" stop-color="#f472b6" stop-opacity="0"/>
    </radialGradient>
    <linearGradient id="title" x1="0" y1="0" x2="1" y2="0">
      <stop offset="0" stop-color="#ffffff"/>
      <stop offset="1" stop-color="#c084fc"/>
    </linearGradient>
  </defs>
  <rect width="1600" height="360" fill="url(#bg)"/>
  <rect width="1600" height="360" fill="url(#glowA)"/>
  <rect width="1600" height="360" fill="url(#glowB)"/>
  <g><line x1="19.8" y1="149.9" x2="11.9" y2="173.3" stroke="#c084fc" stroke-width="0.5" stroke-opacity="0.10"/><line x1="19.8" y1="149.9" x2="113.4" y2="169.3" stroke="#c084fc" stroke-width="0.5" stroke-opacity="0.10"/><line x1="856.8" y1="60.2" x2="930.0" y2="16.1" stroke="#c084fc" stroke-width="0.5" stroke-opacity="0.10"/><line x1="856.8" y1="60.2" x2="855.5" y2="134.6" stroke="#c084fc" stroke-width="0.5" stroke-opacity="0.10"/><line x1="856.8" y1="60.2" x2="809.8" y2="52.7" stroke="#c084fc" stroke-width="0.5" stroke-opacity="0.10"/><line x1="1280.9" y1="34.2" x2="1306.1" y2="88.5" stroke="#c084fc" stroke-width="0.5" stroke-opacity="0.10"/><line x1="1280.9" y1="34.2" x2="1334.2" y2="99.2" stroke="#c084fc" stroke-width="0.5" stroke-opacity="0.10"/><line x1="1280.9" y1="34.2" x2="1216.0" y2="62.9" stroke="#c084fc" stroke-width="0.5" stroke-opacity="0.10"/><line x1="11.9" y1="173.3" x2="113.4" y2="169.3" stroke="#c084fc" stroke-width="0.5" stroke-opacity="0.10"/><line x1="969.5" y1="2.1" x2="930.0" y2="16.1" stroke="#c084fc" stroke-width="0.5" stroke-opacity="0.10"/><line x1="969.5" y1="2.1" x2="1034.8" y2="27.8" stroke="#c084fc" stroke-width="0.5" stroke-opacity="0.10"/><line x1="930.0" y1="16.1" x2="1034.8" y2="27.8" stroke="#c084fc" stroke-width="0.5" stroke-opacity="0.10"/><line x1="671.3" y1="116.8" x2="728.8" y2="83.8" stroke="#c084fc" stroke-width="0.5" stroke-opacity="0.10"/><line x1="671.3" y1="116.8" x2="722.0" y2="153.7" stroke="#c084fc" stroke-width="0.5" stroke-opacity="0.10"/><line x1="113.4" y1="169.3" x2="115.0" y2="252.7" stroke="#c084fc" stroke-width="0.5" stroke-opacity="0.10"/><line x1="113.4" y1="169.3" x2="166.0" y2="113.9" stroke="#c084fc" stroke-width="0.5" stroke-opacity="0.10"/><line x1="92.6" y1="322.9" x2="132.2" y2="340.9" stroke="#c084fc" stroke-width="0.5" stroke-opacity="0.10"/><line x1="92.6" y1="322.9" x2="115.0" y2="252.7" stroke="#c084fc" stroke-width="0.5" stroke-opacity="0.10"/><line x1="92.6" y1="322.9" x2="23.1" y2="324.9" stroke="#c084fc" stroke-width="0.5" stroke-opacity="0.10"/><line x1="322.1" y1="26.3" x2="430.0" y2="28.1" stroke="#c084fc" stroke-width="0.5" stroke-opacity="0.10"/><line x1="322.1" y1="26.3" x2="356.1" y2="98.5" stroke="#c084fc" stroke-width="0.5" stroke-opacity="0.10"/><line x1="1503.5" y1="70.3" x2="1563.5" y2="98.1" stroke="#c084fc" stroke-width="0.5" stroke-opacity="0.10"/><line x1="1503.5" y1="70.3" x2="1458.8" y2="91.6" stroke="#c084fc" stroke-width="0.5" stroke-opacity="0.10"/><line x1="430.0" y1="28.1" x2="356.1" y2="98.5" stroke="#c084fc" stroke-width="0.5" stroke-opacity="0.10"/><line x1="466.5" y1="184.2" x2="495.8" y2="237.4" stroke="#c084fc" stroke-width="0.5" stroke-opacity="0.10"/><line x1="1221.0" y1="338.6" x2="1109.4" y2="323.1" stroke="#c084fc" stroke-width="0.5" stroke-opacity="0.10"/><line x1="1563.5" y1="98.1" x2="1458.8" y2="91.6" stroke="#c084fc" stroke-width="0.5" stroke-opacity="0.10"/><line x1="1563.5" y1="98.1" x2="1503.1" y2="198.1" stroke="#c084fc" stroke-width="0.5" stroke-opacity="0.10"/><line x1="728.8" y1="83.8" x2="722.0" y2="153.7" stroke="#c084fc" stroke-width="0.5" stroke-opacity="0.10"/><line x1="728.8" y1="83.8" x2="809.8" y2="52.7" stroke="#c084fc" stroke-width="0.5" stroke-opacity="0.10"/><line x1="1109.4" y1="323.1" x2="1012.5" y2="265.6" stroke="#c084fc" stroke-width="0.5" stroke-opacity="0.10"/><line x1="1109.4" y1="323.1" x2="1008.7" y2="358.6" stroke="#c084fc" stroke-width="0.5" stroke-opacity="0.10"/><line x1="1551.6" y1="294.5" x2="1595.8" y2="216.7" stroke="#c084fc" stroke-width="0.5" stroke-opacity="0.10"/><line x1="1551.6" y1="294.5" x2="1503.1" y2="198.1" stroke="#c084fc" stroke-width="0.5" stroke-opacity="0.10"/><line x1="1372.3" y1="219.3" x2="1369.2" y2="173.0" stroke="#c084fc" stroke-width="0.5" stroke-opacity="0.10"/><line x1="1372.3" y1="219.3" x2="1292.2" y2="203.0" stroke="#c084fc" stroke-width="0.5" stroke-opacity="0.10"/><line x1="329.4" y1="288.4" x2="270.0" y2="256.3" stroke="#c084fc" stroke-width="0.5" stroke-opacity="0.10"/><line x1="1306.1" y1="88.5" x2="1334.2" y2="99.2" stroke="#c084fc" stroke-width="0.5" stroke-opacity="0.10"/><line x1="1306.1" y1="88.5" x2="1369.2" y2="173.0" stroke="#c084fc" stroke-width="0.5" stroke-opacity="0.10"/><line x1="1306.1" y1="88.5" x2="1216.0" y2="62.9" stroke="#c084fc" stroke-width="0.5" stroke-opacity="0.10"/><line x1="1306.1" y1="88.5" x2="1292.2" y2="203.0" stroke="#c084fc" stroke-width="0.5" stroke-opacity="0.10"/><line x1="1334.2" y1="99.2" x2="1369.2" y2="173.0" stroke="#c084fc" stroke-width="0.5" stroke-opacity="0.10"/><line x1="1334.2" y1="99.2" x2="1292.2" y2="203.0" stroke="#c084fc" stroke-width="0.5" stroke-opacity="0.10"/><line x1="182.4" y1="26.1" x2="166.0" y2="113.9" stroke="#c084fc" stroke-width="0.5" stroke-opacity="0.10"/><line x1="182.4" y1="26.1" x2="134.5" y2="10.2" stroke="#c084fc" stroke-width="0.5" stroke-opacity="0.10"/><line x1="132.2" y1="340.9" x2="115.0" y2="252.7" stroke="#c084fc" stroke-width="0.5" stroke-opacity="0.10"/><line x1="132.2" y1="340.9" x2="23.1" y2="324.9" stroke="#c084fc" stroke-width="0.5" stroke-opacity="0.10"/><line x1="1369.2" y1="173.0" x2="1292.2" y2="203.0" stroke="#c084fc" stroke-width="0.5" stroke-opacity="0.10"/><line x1="1012.5" y1="265.6" x2="1008.7" y2="358.6" stroke="#c084fc" stroke-width="0.5" stroke-opacity="0.10"/><line x1="1012.5" y1="265.6" x2="972.3" y2="234.8" stroke="#c084fc" stroke-width="0.5" stroke-opacity="0.10"/><line x1="1012.5" y1="265.6" x2="1013.4" y2="150.6" stroke="#c084fc" stroke-width="0.5" stroke-opacity="0.10"/><line x1="115.0" y1="252.7" x2="23.1" y2="324.9" stroke="#c084fc" stroke-width="0.5" stroke-opacity="0.10"/><line x1="1595.8" y1="216.7" x2="1503.1" y2="198.1" stroke="#c084fc" stroke-width="0.5" stroke-opacity="0.10"/><line x1="1458.8" y1="91.6" x2="1503.1" y2="198.1" stroke="#c084fc" stroke-width="0.5" stroke-opacity="0.10"/><line x1="855.5" y1="134.6" x2="809.8" y2="52.7" stroke="#c084fc" stroke-width="0.5" stroke-opacity="0.10"/><line x1="166.0" y1="113.9" x2="134.5" y2="10.2" stroke="#c084fc" stroke-width="0.5" stroke-opacity="0.10"/><line x1="972.3" y1="234.8" x2="1013.4" y2="150.6" stroke="#c084fc" stroke-width="0.5" stroke-opacity="0.10"/><circle cx="19.8" cy="149.9" r="1.0" fill="#c084fc" fill-opacity="0.62"/><circle cx="856.8" cy="60.2" r="1.5" fill="#c084fc" fill-opacity="0.51"/><circle cx="1280.9" cy="34.2" r="1.1" fill="#c084fc" fill-opacity="0.17"/><circle cx="11.9" cy="173.3" r="1.8" fill="#c084fc" fill-opacity="0.47"/><circle cx="969.5" cy="2.1" r="2.0" fill="#c084fc" fill-opacity="0.57"/><circle cx="930.0" cy="16.1" r="1.6" fill="#c084fc" fill-opacity="0.28"/><circle cx="671.3" cy="116.8" r="1.0" fill="#c084fc" fill-opacity="0.27"/><circle cx="832.7" cy="313.8" r="1.6" fill="#c084fc" fill-opacity="0.46"/><circle cx="113.4" cy="169.3" r="2.2" fill="#c084fc" fill-opacity="0.37"/><circle cx="1034.8" cy="27.8" r="1.1" fill="#c084fc" fill-opacity="0.58"/><circle cx="92.6" cy="322.9" r="2.1" fill="#c084fc" fill-opacity="0.46"/><circle cx="322.1" cy="26.3" r="1.0" fill="#c084fc" fill-opacity="0.39"/><circle cx="1503.5" cy="70.3" r="1.6" fill="#c084fc" fill-opacity="0.42"/><circle cx="430.0" cy="28.1" r="1.1" fill="#c084fc" fill-opacity="0.45"/><circle cx="466.5" cy="184.2" r="0.7" fill="#c084fc" fill-opacity="0.52"/><circle cx="1221.0" cy="338.6" r="1.4" fill="#c084fc" fill-opacity="0.55"/><circle cx="356.1" cy="98.5" r="1.5" fill="#c084fc" fill-opacity="0.48"/><circle cx="1563.5" cy="98.1" r="1.8" fill="#c084fc" fill-opacity="0.17"/><circle cx="728.8" cy="83.8" r="2.1" fill="#c084fc" fill-opacity="0.49"/><circle cx="1109.4" cy="323.1" r="1.9" fill="#c084fc" fill-opacity="0.19"/><circle cx="1551.6" cy="294.5" r="0.9" fill="#c084fc" fill-opacity="0.52"/><circle cx="1372.3" cy="219.3" r="2.1" fill="#c084fc" fill-opacity="0.16"/><circle cx="329.4" cy="288.4" r="1.7" fill="#c084fc" fill-opacity="0.64"/><circle cx="1306.1" cy="88.5" r="1.9" fill="#c084fc" fill-opacity="0.39"/><circle cx="1334.2" cy="99.2" r="2.1" fill="#c084fc" fill-opacity="0.16"/><circle cx="182.4" cy="26.1" r="2.0" fill="#c084fc" fill-opacity="0.42"/><circle cx="132.2" cy="340.9" r="0.8" fill="#c084fc" fill-opacity="0.29"/><circle cx="1369.2" cy="173.0" r="2.3" fill="#c084fc" fill-opacity="0.50"/><circle cx="1012.5" cy="265.6" r="2.0" fill="#c084fc" fill-opacity="0.56"/><circle cx="1008.7" cy="358.6" r="2.0" fill="#c084fc" fill-opacity="0.37"/><circle cx="115.0" cy="252.7" r="1.5" fill="#c084fc" fill-opacity="0.28"/><circle cx="1595.8" cy="216.7" r="2.4" fill="#c084fc" fill-opacity="0.53"/><circle cx="1458.8" cy="91.6" r="0.7" fill="#c084fc" fill-opacity="0.33"/><circle cx="855.5" cy="134.6" r="0.9" fill="#c084fc" fill-opacity="0.33"/><circle cx="270.0" cy="256.3" r="1.3" fill="#c084fc" fill-opacity="0.36"/><circle cx="722.0" cy="153.7" r="1.7" fill="#c084fc" fill-opacity="0.55"/><circle cx="809.8" cy="52.7" r="2.0" fill="#c084fc" fill-opacity="0.44"/><circle cx="1216.0" cy="62.9" r="1.2" fill="#c084fc" fill-opacity="0.36"/><circle cx="1503.1" cy="198.1" r="2.4" fill="#c084fc" fill-opacity="0.57"/><circle cx="23.1" cy="324.9" r="1.9" fill="#c084fc" fill-opacity="0.63"/><circle cx="166.0" cy="113.9" r="1.2" fill="#c084fc" fill-opacity="0.63"/><circle cx="972.3" cy="234.8" r="2.4" fill="#c084fc" fill-opacity="0.23"/><circle cx="134.5" cy="10.2" r="0.8" fill="#c084fc" fill-opacity="0.20"/><circle cx="1013.4" cy="150.6" r="1.6" fill="#c084fc" fill-opacity="0.19"/><circle cx="1292.2" cy="203.0" r="2.3" fill="#c084fc" fill-opacity="0.31"/><circle cx="495.8" cy="237.4" r="0.7" fill="#c084fc" fill-opacity="0.28"/></g>
  <g opacity="0.95"><path d="M1316 110 L1316 160 L1286 250 Q1330 272 1374 250 L1344 160 L1344 110 Z" fill="none" stroke="#c084fc" stroke-width="2.4" stroke-opacity="0.85"/><line x1="1308" y1="110" x2="1352" y2="110" stroke="#c084fc" stroke-width="3"/><path d="M1300 214 Q1330 228 1360 214" fill="#c084fc" fill-opacity="0.4"/></g>
  <g font-family="'Segoe UI', system-ui, sans-serif">
    <text x="130" y="150" fill="#c084fc" font-size="22" font-weight="700" letter-spacing="6">24/7 INTELLIGENCE DOMAIN</text>
    <text x="126" y="238" fill="url(#title)" font-size="92" font-weight="800" letter-spacing="1">Cosm</text>
    <rect x="132" y="262" width="150" height="5" rx="2.5" fill="#c084fc"/>
  </g>
  <rect x="0" y="0" width="1600" height="360" fill="none" stroke="#c084fc" stroke-opacity="0.18" stroke-width="2"/>
</svg>
