<svg xmlns="http://www.w3.org/2000/svg" viewBox="0 0 1600 360" width="1600" height="360" role="img" aria-label="AI domain banner">
  <defs>
    <linearGradient id="bg" x1="0" y1="0" x2="1" y2="1">
      <stop offset="0" stop-color="#060b18"/>
      <stop offset="0.55" stop-color="#0a1428"/>
      <stop offset="1" stop-color="#0c1a33"/>
    </linearGradient>
    <radialGradient id="glowA" cx="0.82" cy="0.5" r="0.5">
      <stop offset="0" stop-color="#22d3ee" stop-opacity="0.35"/>
      <stop offset="1" stop-color="#22d3ee" stop-opacity="0"/>
    </radialGradient>
    <radialGradient id="glowB" cx="0.1" cy="0.9" r="0.6">
      <stop offset="0" stop-color="#6366f1" stop-opacity="0.22"/>
      <stop offset="1" stop-color="#6366f1" stop-opacity="0"/>
    </radialGradient>
    <linearGradient id="title" x1="0" y1="0" x2="1" y2="0">
      <stop offset="0" stop-color="#ffffff"/>
      <stop offset="1" stop-color="#22d3ee"/>
    </linearGradient>
  </defs>
  <rect width="1600" height="360" fill="url(#bg)"/>
  <rect width="1600" height="360" fill="url(#glowA)"/>
  <rect width="1600" height="360" fill="url(#glowB)"/>
  <g><line x1="862.7" y1="305.6" x2="804.4" y2="283.2" stroke="#22d3ee" stroke-width="0.5" stroke-opacity="0.10"/><line x1="862.7" y1="305.6" x2="826.6" y2="356.5" stroke="#22d3ee" stroke-width="0.5" stroke-opacity="0.10"/><line x1="862.7" y1="305.6" x2="853.2" y2="214.8" stroke="#22d3ee" stroke-width="0.5" stroke-opacity="0.10"/><line x1="1472.4" y1="261.1" x2="1546.2" y2="267.8" stroke="#22d3ee" stroke-width="0.5" stroke-opacity="0.10"/><line x1="1472.4" y1="261.1" x2="1475.0" y2="152.8" stroke="#22d3ee" stroke-width="0.5" stroke-opacity="0.10"/><line x1="1472.4" y1="261.1" x2="1442.7" y2="190.6" stroke="#22d3ee" stroke-width="0.5" stroke-opacity="0.10"/><line x1="1536.2" y1="84.0" x2="1475.0" y2="152.8" stroke="#22d3ee" stroke-width="0.5" stroke-opacity="0.10"/><line x1="1536.2" y1="84.0" x2="1498.6" y2="47.8" stroke="#22d3ee" stroke-width="0.5" stroke-opacity="0.10"/><line x1="739.2" y1="109.4" x2="762.2" y2="210.4" stroke="#22d3ee" stroke-width="0.5" stroke-opacity="0.10"/><line x1="739.2" y1="109.4" x2="798.6" y2="14.9" stroke="#22d3ee" stroke-width="0.5" stroke-opacity="0.10"/><line x1="739.2" y1="109.4" x2="791.8" y2="22.2" stroke="#22d3ee" stroke-width="0.5" stroke-opacity="0.10"/><line x1="739.2" y1="109.4" x2="637.9" y2="136.4" stroke="#22d3ee" stroke-width="0.5" stroke-opacity="0.10"/><line x1="739.2" y1="109.4" x2="797.1" y2="189.9" stroke="#22d3ee" stroke-width="0.5" stroke-opacity="0.10"/><line x1="1475.0" y1="152.8" x2="1498.6" y2="47.8" stroke="#22d3ee" stroke-width="0.5" stroke-opacity="0.10"/><line x1="1475.0" y1="152.8" x2="1442.7" y2="190.6" stroke="#22d3ee" stroke-width="0.5" stroke-opacity="0.10"/><line x1="296.6" y1="60.4" x2="315.4" y2="12.4" stroke="#22d3ee" stroke-width="0.5" stroke-opacity="0.10"/><line x1="296.6" y1="60.4" x2="406.2" y2="75.9" stroke="#22d3ee" stroke-width="0.5" stroke-opacity="0.10"/><line x1="296.6" y1="60.4" x2="216.9" y2="132.7" stroke="#22d3ee" stroke-width="0.5" stroke-opacity="0.10"/><line x1="296.6" y1="60.4" x2="246.0" y2="121.1" stroke="#22d3ee" stroke-width="0.5" stroke-opacity="0.10"/><line x1="630.7" y1="182.0" x2="582.5" y2="107.7" stroke="#22d3ee" stroke-width="0.5" stroke-opacity="0.10"/><line x1="630.7" y1="182.0" x2="728.7" y2="241.2" stroke="#22d3ee" stroke-width="0.5" stroke-opacity="0.10"/><line x1="630.7" y1="182.0" x2="637.9" y2="136.4" stroke="#22d3ee" stroke-width="0.5" stroke-opacity="0.10"/><line x1="1351.7" y1="176.2" x2="1374.9" y2="85.2" stroke="#22d3ee" stroke-width="0.5" stroke-opacity="0.10"/><line x1="1351.7" y1="176.2" x2="1442.7" y2="190.6" stroke="#22d3ee" stroke-width="0.5" stroke-opacity="0.10"/><line x1="676.7" y1="318.1" x2="731.2" y2="324.2" stroke="#22d3ee" stroke-width="0.5" stroke-opacity="0.10"/><line x1="676.7" y1="318.1" x2="621.9" y2="356.6" stroke="#22d3ee" stroke-width="0.5" stroke-opacity="0.10"/><line x1="676.7" y1="318.1" x2="728.7" y2="241.2" stroke="#22d3ee" stroke-width="0.5" stroke-opacity="0.10"/><line x1="1424.1" y1="25.4" x2="1498.6" y2="47.8" stroke="#22d3ee" stroke-width="0.5" stroke-opacity="0.10"/><line x1="1424.1" y1="25.4" x2="1374.9" y2="85.2" stroke="#22d3ee" stroke-width="0.5" stroke-opacity="0.10"/><line x1="31.6" y1="346.0" x2="109.2" y2="351.5" stroke="#22d3ee" stroke-width="0.5" stroke-opacity="0.10"/><line x1="31.6" y1="346.0" x2="11.8" y2="330.0" stroke="#22d3ee" stroke-width="0.5" stroke-opacity="0.10"/><line x1="804.4" y1="283.2" x2="762.2" y2="210.4" stroke="#22d3ee" stroke-width="0.5" stroke-opacity="0.10"/><line x1="804.4" y1="283.2" x2="826.6" y2="356.5" stroke="#22d3ee" stroke-width="0.5" stroke-opacity="0.10"/><line x1="804.4" y1="283.2" x2="731.2" y2="324.2" stroke="#22d3ee" stroke-width="0.5" stroke-opacity="0.10"/><line x1="804.4" y1="283.2" x2="853.2" y2="214.8" stroke="#22d3ee" stroke-width="0.5" stroke-opacity="0.10"/><line x1="804.4" y1="283.2" x2="728.7" y2="241.2" stroke="#22d3ee" stroke-width="0.5" stroke-opacity="0.10"/><line x1="804.4" y1="283.2" x2="797.1" y2="189.9" stroke="#22d3ee" stroke-width="0.5" stroke-opacity="0.10"/><line x1="479.1" y1="279.8" x2="487.1" y2="353.2" stroke="#22d3ee" stroke-width="0.5" stroke-opacity="0.10"/><line x1="479.1" y1="279.8" x2="462.1" y2="323.7" stroke="#22d3ee" stroke-width="0.5" stroke-opacity="0.10"/><line x1="762.2" y1="210.4" x2="731.2" y2="324.2" stroke="#22d3ee" stroke-width="0.5" stroke-opacity="0.10"/><line x1="762.2" y1="210.4" x2="853.2" y2="214.8" stroke="#22d3ee" stroke-width="0.5" stroke-opacity="0.10"/><line x1="762.2" y1="210.4" x2="728.7" y2="241.2" stroke="#22d3ee" stroke-width="0.5" stroke-opacity="0.10"/><line x1="762.2" y1="210.4" x2="797.1" y2="189.9" stroke="#22d3ee" stroke-width="0.5" stroke-opacity="0.10"/><line x1="826.6" y1="356.5" x2="731.2" y2="324.2" stroke="#22d3ee" stroke-width="0.5" stroke-opacity="0.10"/><line x1="315.4" y1="12.4" x2="406.2" y2="75.9" stroke="#22d3ee" stroke-width="0.5" stroke-opacity="0.10"/><line x1="454.8" y1="97.7" x2="522.9" y2="90.4" stroke="#22d3ee" stroke-width="0.5" stroke-opacity="0.10"/><line x1="454.8" y1="97.7" x2="406.2" y2="75.9" stroke="#22d3ee" stroke-width="0.5" stroke-opacity="0.10"/><line x1="454.8" y1="97.7" x2="414.6" y2="135.4" stroke="#22d3ee" stroke-width="0.5" stroke-opacity="0.10"/><line x1="798.6" y1="14.9" x2="791.8" y2="22.2" stroke="#22d3ee" stroke-width="0.5" stroke-opacity="0.10"/><line x1="731.2" y1="324.2" x2="621.9" y2="356.6" stroke="#22d3ee" stroke-width="0.5" stroke-opacity="0.10"/><line x1="731.2" y1="324.2" x2="728.7" y2="241.2" stroke="#22d3ee" stroke-width="0.5" stroke-opacity="0.10"/><line x1="853.2" y1="214.8" x2="797.1" y2="189.9" stroke="#22d3ee" stroke-width="0.5" stroke-opacity="0.10"/><line x1="522.9" y1="90.4" x2="406.2" y2="75.9" stroke="#22d3ee" stroke-width="0.5" stroke-opacity="0.10"/><line x1="522.9" y1="90.4" x2="582.5" y2="107.7" stroke="#22d3ee" stroke-width="0.5" stroke-opacity="0.10"/><line x1="522.9" y1="90.4" x2="414.6" y2="135.4" stroke="#22d3ee" stroke-width="0.5" stroke-opacity="0.10"/><line x1="168.9" y1="115.4" x2="95.6" y2="44.4" stroke="#22d3ee" stroke-width="0.5" stroke-opacity="0.10"/><line x1="168.9" y1="115.4" x2="78.8" y2="141.3" stroke="#22d3ee" stroke-width="0.5" stroke-opacity="0.10"/><line x1="168.9" y1="115.4" x2="137.0" y2="150.7" stroke="#22d3ee" stroke-width="0.5" stroke-opacity="0.10"/><line x1="168.9" y1="115.4" x2="216.9" y2="132.7" stroke="#22d3ee" stroke-width="0.5" stroke-opacity="0.10"/><line x1="168.9" y1="115.4" x2="61.2" y2="79.1" stroke="#22d3ee" stroke-width="0.5" stroke-opacity="0.10"/><line x1="168.9" y1="115.4" x2="246.0" y2="121.1" stroke="#22d3ee" stroke-width="0.5" stroke-opacity="0.10"/><line x1="95.6" y1="44.4" x2="78.8" y2="141.3" stroke="#22d3ee" stroke-width="0.5" stroke-opacity="0.10"/><line x1="95.6" y1="44.4" x2="137.0" y2="150.7" stroke="#22d3ee" stroke-width="0.5" stroke-opacity="0.10"/><line x1="95.6" y1="44.4" x2="61.2" y2="79.1" stroke="#22d3ee" stroke-width="0.5" stroke-opacity="0.10"/><line x1="487.1" y1="353.2" x2="462.1" y2="323.7" stroke="#22d3ee" stroke-width="0.5" stroke-opacity="0.10"/><line x1="406.2" y1="75.9" x2="414.6" y2="135.4" stroke="#22d3ee" stroke-width="0.5" stroke-opacity="0.10"/><line x1="582.5" y1="107.7" x2="637.9" y2="136.4" stroke="#22d3ee" stroke-width="0.5" stroke-opacity="0.10"/><line x1="78.8" y1="141.3" x2="137.0" y2="150.7" stroke="#22d3ee" stroke-width="0.5" stroke-opacity="0.10"/><line x1="78.8" y1="141.3" x2="61.2" y2="79.1" stroke="#22d3ee" stroke-width="0.5" stroke-opacity="0.10"/><line x1="728.7" y1="241.2" x2="797.1" y2="189.9" stroke="#22d3ee" stroke-width="0.5" stroke-opacity="0.10"/><line x1="137.0" y1="150.7" x2="216.9" y2="132.7" stroke="#22d3ee" stroke-width="0.5" stroke-opacity="0.10"/><line x1="137.0" y1="150.7" x2="61.2" y2="79.1" stroke="#22d3ee" stroke-width="0.5" stroke-opacity="0.10"/><line x1="137.0" y1="150.7" x2="246.0" y2="121.1" stroke="#22d3ee" stroke-width="0.5" stroke-opacity="0.10"/><line x1="216.9" y1="132.7" x2="246.0" y2="121.1" stroke="#22d3ee" stroke-width="0.5" stroke-opacity="0.10"/><line x1="109.2" y1="351.5" x2="11.8" y2="330.0" stroke="#22d3ee" stroke-width="0.5" stroke-opacity="0.10"/><circle cx="862.7" cy="305.6" r="0.7" fill="#22d3ee" fill-opacity="0.50"/><circle cx="1472.4" cy="261.1" r="1.8" fill="#22d3ee" fill-opacity="0.59"/><circle cx="1536.2" cy="84.0" r="1.5" fill="#22d3ee" fill-opacity="0.46"/><circle cx="1546.2" cy="267.8" r="1.4" fill="#22d3ee" fill-opacity="0.22"/><circle cx="739.2" cy="109.4" r="2.0" fill="#22d3ee" fill-opacity="0.19"/><circle cx="1475.0" cy="152.8" r="2.0" fill="#22d3ee" fill-opacity="0.39"/><circle cx="296.6" cy="60.4" r="1.5" fill="#22d3ee" fill-opacity="0.41"/><circle cx="1199.1" cy="62.0" r="2.2" fill="#22d3ee" fill-opacity="0.44"/><circle cx="630.7" cy="182.0" r="0.9" fill="#22d3ee" fill-opacity="0.42"/><circle cx="1351.7" cy="176.2" r="1.5" fill="#22d3ee" fill-opacity="0.62"/><circle cx="676.7" cy="318.1" r="1.6" fill="#22d3ee" fill-opacity="0.18"/><circle cx="1424.1" cy="25.4" r="2.2" fill="#22d3ee" fill-opacity="0.17"/><circle cx="1498.6" cy="47.8" r="1.1" fill="#22d3ee" fill-opacity="0.63"/><circle cx="31.6" cy="346.0" r="0.6" fill="#22d3ee" fill-opacity="0.16"/><circle cx="804.4" cy="283.2" r="2.3" fill="#22d3ee" fill-opacity="0.37"/><circle cx="479.1" cy="279.8" r="1.1" fill="#22d3ee" fill-opacity="0.15"/><circle cx="762.2" cy="210.4" r="0.8" fill="#22d3ee" fill-opacity="0.55"/><circle cx="826.6" cy="356.5" r="1.4" fill="#22d3ee" fill-opacity="0.16"/><circle cx="315.4" cy="12.4" r="1.0" fill="#22d3ee" fill-opacity="0.56"/><circle cx="454.8" cy="97.7" r="2.0" fill="#22d3ee" fill-opacity="0.33"/><circle cx="798.6" cy="14.9" r="1.1" fill="#22d3ee" fill-opacity="0.53"/><circle cx="731.2" cy="324.2" r="1.7" fill="#22d3ee" fill-opacity="0.43"/><circle cx="853.2" cy="214.8" r="0.8" fill="#22d3ee" fill-opacity="0.56"/><circle cx="1374.9" cy="85.2" r="1.6" fill="#22d3ee" fill-opacity="0.15"/><circle cx="1442.7" cy="190.6" r="2.2" fill="#22d3ee" fill-opacity="0.29"/><circle cx="522.9" cy="90.4" r="0.6" fill="#22d3ee" fill-opacity="0.64"/><circle cx="168.9" cy="115.4" r="0.6" fill="#22d3ee" fill-opacity="0.20"/><circle cx="95.6" cy="44.4" r="1.3" fill="#22d3ee" fill-opacity="0.33"/><circle cx="487.1" cy="353.2" r="1.1" fill="#22d3ee" fill-opacity="0.21"/><circle cx="462.1" cy="323.7" r="1.2" fill="#22d3ee" fill-opacity="0.62"/><circle cx="621.9" cy="356.6" r="1.0" fill="#22d3ee" fill-opacity="0.60"/><circle cx="406.2" cy="75.9" r="1.2" fill="#22d3ee" fill-opacity="0.16"/><circle cx="582.5" cy="107.7" r="0.7" fill="#22d3ee" fill-opacity="0.62"/><circle cx="791.8" cy="22.2" r="1.7" fill="#22d3ee" fill-opacity="0.16"/><circle cx="78.8" cy="141.3" r="1.5" fill="#22d3ee" fill-opacity="0.49"/><circle cx="728.7" cy="241.2" r="1.5" fill="#22d3ee" fill-opacity="0.26"/><circle cx="137.0" cy="150.7" r="1.7" fill="#22d3ee" fill-opacity="0.57"/><circle cx="637.9" cy="136.4" r="2.1" fill="#22d3ee" fill-opacity="0.30"/><circle cx="414.6" cy="135.4" r="2.2" fill="#22d3ee" fill-opacity="0.43"/><circle cx="1017.8" cy="225.3" r="2.3" fill="#22d3ee" fill-opacity="0.37"/><circle cx="216.9" cy="132.7" r="0.7" fill="#22d3ee" fill-opacity="0.61"/><circle cx="109.2" cy="351.5" r="1.9" fill="#22d3ee" fill-opacity="0.57"/><circle cx="11.8" cy="330.0" r="1.7" fill="#22d3ee" fill-opacity="0.16"/><circle cx="61.2" cy="79.1" r="1.2" fill="#22d3ee" fill-opacity="0.64"/><circle cx="246.0" cy="121.1" r="0.8" fill="#22d3ee" fill-opacity="0.57"/><circle cx="797.1" cy="189.9" r="1.9" fill="#22d3ee" fill-opacity="0.29"/></g>
  <g opacity="0.95"><circle cx="1330" cy="180" r="18" fill="#22d3ee" fill-opacity="0.9"/><line x1="1330" y1="180" x2="1330.0" y2="102.0" stroke="#22d3ee" stroke-width="1.4" stroke-opacity="0.55"/><circle cx="1330.0" cy="102.0" r="6" fill="#22d3ee"/><line x1="1330" y1="180" x2="1397.5" y2="141.0" stroke="#22d3ee" stroke-width="1.4" stroke-opacity="0.55"/><circle cx="1397.5" cy="141.0" r="6" fill="#22d3ee"/><line x1="1330" y1="180" x2="1397.5" y2="219.0" stroke="#22d3ee" stroke-width="1.4" stroke-opacity="0.55"/><circle cx="1397.5" cy="219.0" r="6" fill="#22d3ee"/><line x1="1330" y1="180" x2="1330.0" y2="258.0" stroke="#22d3ee" stroke-width="1.4" stroke-opacity="0.55"/><circle cx="1330.0" cy="258.0" r="6" fill="#22d3ee"/><line x1="1330" y1="180" x2="1262.5" y2="219.0" stroke="#22d3ee" stroke-width="1.4" stroke-opacity="0.55"/><circle cx="1262.5" cy="219.0" r="6" fill="#22d3ee"/><line x1="1330" y1="180" x2="1262.5" y2="141.0" stroke="#22d3ee" stroke-width="1.4" stroke-opacity="0.55"/><circle cx="1262.5" cy="141.0" r="6" fill="#22d3ee"/><circle cx="1330" cy="180" r="80" fill="none" stroke="#22d3ee" stroke-opacity="0.3" stroke-width="1.5"/></g>
  <g font-family="'Segoe UI', system-ui, sans-serif">
    <text x="130" y="150" fill="#22d3ee" font-size="22" font-weight="700" letter-spacing="6">24/7 INTELLIGENCE DOMAIN</text>
    <text x="126" y="238" fill="url(#title)" font-size="92" font-weight="800" letter-spacing="1">AI</text>
    <rect x="132" y="262" width="150" height="5" rx="2.5" fill="#22d3ee"/>
  </g>
  <rect x="0" y="0" width="1600" height="360" fill="none" stroke="#22d3ee" stroke-opacity="0.18" stroke-width="2"/>
</svg>
