<svg xmlns="http://www.w3.org/2000/svg" viewBox="0 0 1600 360" width="1600" height="360" role="img" aria-label="Security domain banner">
  <defs>
    <linearGradient id="bg" x1="0" y1="0" x2="1" y2="1">
      <stop offset="0" stop-color="#060b18"/>
      <stop offset="0.55" stop-color="#0a1428"/>
      <stop offset="1" stop-color="#0c1a33"/>
    </linearGradient>
    <radialGradient id="glowA" cx="0.82" cy="0.5" r="0.5">
      <stop offset="0" stop-color="#f87171" stop-opacity="0.35"/>
      <stop offset="1" stop-color="#f87171" stop-opacity="0"/>
    </radialGradient>
    <radialGradient id="glowB" cx="0.1" cy="0.9" r="0.6">
      <stop offset="0" stop-color="#fb923c" stop-opacity="0.22"/>
      <stop offset="1" stop-color="#fb923c" stop-opacity="0"/>
    </radialGradient>
    <linearGradient id="title" x1="0" y1="0" x2="1" y2="0">
      <stop offset="0" stop-color="#ffffff"/>
      <stop offset="1" stop-color="#f87171"/>
    </linearGradient>
  </defs>
  <rect width="1600" height="360" fill="url(#bg)"/>
  <rect width="1600" height="360" fill="url(#glowA)"/>
  <rect width="1600" height="360" fill="url(#glowB)"/>
  <g><line x1="523.3" y1="245.8" x2="623.2" y2="209.1" stroke="#f87171" stroke-width="0.5" stroke-opacity="0.10"/><line x1="523.3" y1="245.8" x2="411.3" y2="264.5" stroke="#f87171" stroke-width="0.5" stroke-opacity="0.10"/><line x1="523.3" y1="245.8" x2="490.1" y2="230.5" stroke="#f87171" stroke-width="0.5" stroke-opacity="0.10"/><line x1="523.3" y1="245.8" x2="564.9" y2="303.1" stroke="#f87171" stroke-width="0.5" stroke-opacity="0.10"/><line x1="523.3" y1="245.8" x2="413.0" y2="218.3" stroke="#f87171" stroke-width="0.5" stroke-opacity="0.10"/><line x1="1402.4" y1="15.3" x2="1386.3" y2="91.2" stroke="#f87171" stroke-width="0.5" stroke-opacity="0.10"/><line x1="1402.4" y1="15.3" x2="1385.1" y2="32.3" stroke="#f87171" stroke-width="0.5" stroke-opacity="0.10"/><line x1="1386.3" y1="91.2" x2="1361.7" y2="137.1" stroke="#f87171" stroke-width="0.5" stroke-opacity="0.10"/><line x1="1386.3" y1="91.2" x2="1335.9" y2="193.3" stroke="#f87171" stroke-width="0.5" stroke-opacity="0.10"/><line x1="1386.3" y1="91.2" x2="1385.1" y2="32.3" stroke="#f87171" stroke-width="0.5" stroke-opacity="0.10"/><line x1="836.1" y1="224.2" x2="808.2" y2="155.6" stroke="#f87171" stroke-width="0.5" stroke-opacity="0.10"/><line x1="836.1" y1="224.2" x2="853.4" y2="284.0" stroke="#f87171" stroke-width="0.5" stroke-opacity="0.10"/><line x1="836.1" y1="224.2" x2="896.9" y2="164.5" stroke="#f87171" stroke-width="0.5" stroke-opacity="0.10"/><line x1="836.1" y1="224.2" x2="745.1" y2="268.3" stroke="#f87171" stroke-width="0.5" stroke-opacity="0.10"/><line x1="836.1" y1="224.2" x2="893.1" y2="308.4" stroke="#f87171" stroke-width="0.5" stroke-opacity="0.10"/><line x1="836.1" y1="224.2" x2="723.6" y2="201.5" stroke="#f87171" stroke-width="0.5" stroke-opacity="0.10"/><line x1="1563.3" y1="232.9" x2="1489.6" y2="237.3" stroke="#f87171" stroke-width="0.5" stroke-opacity="0.10"/><line x1="1563.3" y1="232.9" x2="1556.5" y2="142.2" stroke="#f87171" stroke-width="0.5" stroke-opacity="0.10"/><line x1="1563.3" y1="232.9" x2="1480.5" y2="184.0" stroke="#f87171" stroke-width="0.5" stroke-opacity="0.10"/><line x1="295.5" y1="231.2" x2="274.0" y2="344.5" stroke="#f87171" stroke-width="0.5" stroke-opacity="0.10"/><line x1="295.5" y1="231.2" x2="263.7" y2="259.0" stroke="#f87171" stroke-width="0.5" stroke-opacity="0.10"/><line x1="295.5" y1="231.2" x2="413.0" y2="218.3" stroke="#f87171" stroke-width="0.5" stroke-opacity="0.10"/><line x1="369.9" y1="58.8" x2="255.3" y2="39.3" stroke="#f87171" stroke-width="0.5" stroke-opacity="0.10"/><line x1="623.2" y1="209.1" x2="634.1" y2="142.4" stroke="#f87171" stroke-width="0.5" stroke-opacity="0.10"/><line x1="623.2" y1="209.1" x2="723.6" y2="201.5" stroke="#f87171" stroke-width="0.5" stroke-opacity="0.10"/><line x1="623.2" y1="209.1" x2="564.9" y2="303.1" stroke="#f87171" stroke-width="0.5" stroke-opacity="0.10"/><line x1="808.2" y1="155.6" x2="896.9" y2="164.5" stroke="#f87171" stroke-width="0.5" stroke-opacity="0.10"/><line x1="808.2" y1="155.6" x2="786.0" y2="63.6" stroke="#f87171" stroke-width="0.5" stroke-opacity="0.10"/><line x1="808.2" y1="155.6" x2="723.6" y2="201.5" stroke="#f87171" stroke-width="0.5" stroke-opacity="0.10"/><line x1="1361.7" y1="137.1" x2="1335.9" y2="193.3" stroke="#f87171" stroke-width="0.5" stroke-opacity="0.10"/><line x1="1361.7" y1="137.1" x2="1385.1" y2="32.3" stroke="#f87171" stroke-width="0.5" stroke-opacity="0.10"/><line x1="1349.2" y1="310.0" x2="1335.9" y2="193.3" stroke="#f87171" stroke-width="0.5" stroke-opacity="0.10"/><line x1="411.3" y1="264.5" x2="490.1" y2="230.5" stroke="#f87171" stroke-width="0.5" stroke-opacity="0.10"/><line x1="411.3" y1="264.5" x2="413.0" y2="218.3" stroke="#f87171" stroke-width="0.5" stroke-opacity="0.10"/><line x1="683.3" y1="51.9" x2="614.3" y2="74.5" stroke="#f87171" stroke-width="0.5" stroke-opacity="0.10"/><line x1="683.3" y1="51.9" x2="634.1" y2="142.4" stroke="#f87171" stroke-width="0.5" stroke-opacity="0.10"/><line x1="683.3" y1="51.9" x2="786.0" y2="63.6" stroke="#f87171" stroke-width="0.5" stroke-opacity="0.10"/><line x1="86.4" y1="337.4" x2="100.0" y2="323.4" stroke="#f87171" stroke-width="0.5" stroke-opacity="0.10"/><line x1="853.4" y1="284.0" x2="745.1" y2="268.3" stroke="#f87171" stroke-width="0.5" stroke-opacity="0.10"/><line x1="853.4" y1="284.0" x2="893.1" y2="308.4" stroke="#f87171" stroke-width="0.5" stroke-opacity="0.10"/><line x1="614.3" y1="74.5" x2="634.1" y2="142.4" stroke="#f87171" stroke-width="0.5" stroke-opacity="0.10"/><line x1="745.1" y1="268.3" x2="723.6" y2="201.5" stroke="#f87171" stroke-width="0.5" stroke-opacity="0.10"/><line x1="1229.3" y1="284.4" x2="1145.3" y2="337.4" stroke="#f87171" stroke-width="0.5" stroke-opacity="0.10"/><line x1="1229.3" y1="284.4" x2="1194.7" y2="220.3" stroke="#f87171" stroke-width="0.5" stroke-opacity="0.10"/><line x1="1590.5" y1="77.0" x2="1556.5" y2="142.2" stroke="#f87171" stroke-width="0.5" stroke-opacity="0.10"/><line x1="1145.3" y1="337.4" x2="1104.9" y2="342.8" stroke="#f87171" stroke-width="0.5" stroke-opacity="0.10"/><line x1="78.0" y1="137.6" x2="10.6" y2="215.3" stroke="#f87171" stroke-width="0.5" stroke-opacity="0.10"/><line x1="1202.9" y1="134.5" x2="1151.1" y2="184.1" stroke="#f87171" stroke-width="0.5" stroke-opacity="0.10"/><line x1="1202.9" y1="134.5" x2="1194.7" y2="220.3" stroke="#f87171" stroke-width="0.5" stroke-opacity="0.10"/><line x1="1489.6" y1="237.3" x2="1556.5" y2="142.2" stroke="#f87171" stroke-width="0.5" stroke-opacity="0.10"/><line x1="1489.6" y1="237.3" x2="1480.5" y2="184.0" stroke="#f87171" stroke-width="0.5" stroke-opacity="0.10"/><line x1="634.1" y1="142.4" x2="723.6" y2="201.5" stroke="#f87171" stroke-width="0.5" stroke-opacity="0.10"/><line x1="1056.7" y1="170.4" x2="1151.1" y2="184.1" stroke="#f87171" stroke-width="0.5" stroke-opacity="0.10"/><line x1="1056.7" y1="170.4" x2="1016.9" y2="208.9" stroke="#f87171" stroke-width="0.5" stroke-opacity="0.10"/><line x1="1151.1" y1="184.1" x2="1194.7" y2="220.3" stroke="#f87171" stroke-width="0.5" stroke-opacity="0.10"/><line x1="490.1" y1="230.5" x2="564.9" y2="303.1" stroke="#f87171" stroke-width="0.5" stroke-opacity="0.10"/><line x1="490.1" y1="230.5" x2="413.0" y2="218.3" stroke="#f87171" stroke-width="0.5" stroke-opacity="0.10"/><line x1="274.0" y1="344.5" x2="263.7" y2="259.0" stroke="#f87171" stroke-width="0.5" stroke-opacity="0.10"/><line x1="1556.5" y1="142.2" x2="1480.5" y2="184.0" stroke="#f87171" stroke-width="0.5" stroke-opacity="0.10"/><circle cx="523.3" cy="245.8" r="1.2" fill="#f87171" fill-opacity="0.52"/><circle cx="1402.4" cy="15.3" r="1.5" fill="#f87171" fill-opacity="0.60"/><circle cx="907.4" cy="32.0" r="0.6" fill="#f87171" fill-opacity="0.43"/><circle cx="1386.3" cy="91.2" r="1.0" fill="#f87171" fill-opacity="0.15"/><circle cx="836.1" cy="224.2" r="0.7" fill="#f87171" fill-opacity="0.30"/><circle cx="1563.3" cy="232.9" r="1.5" fill="#f87171" fill-opacity="0.16"/><circle cx="295.5" cy="231.2" r="1.7" fill="#f87171" fill-opacity="0.34"/><circle cx="369.9" cy="58.8" r="1.3" fill="#f87171" fill-opacity="0.51"/><circle cx="623.2" cy="209.1" r="1.2" fill="#f87171" fill-opacity="0.52"/><circle cx="808.2" cy="155.6" r="1.7" fill="#f87171" fill-opacity="0.29"/><circle cx="1361.7" cy="137.1" r="1.3" fill="#f87171" fill-opacity="0.53"/><circle cx="1349.2" cy="310.0" r="2.0" fill="#f87171" fill-opacity="0.17"/><circle cx="411.3" cy="264.5" r="0.9" fill="#f87171" fill-opacity="0.46"/><circle cx="1335.9" cy="193.3" r="0.7" fill="#f87171" fill-opacity="0.48"/><circle cx="683.3" cy="51.9" r="1.7" fill="#f87171" fill-opacity="0.53"/><circle cx="86.4" cy="337.4" r="1.3" fill="#f87171" fill-opacity="0.50"/><circle cx="853.4" cy="284.0" r="2.2" fill="#f87171" fill-opacity="0.56"/><circle cx="896.9" cy="164.5" r="1.2" fill="#f87171" fill-opacity="0.31"/><circle cx="614.3" cy="74.5" r="2.1" fill="#f87171" fill-opacity="0.57"/><circle cx="745.1" cy="268.3" r="1.7" fill="#f87171" fill-opacity="0.34"/><circle cx="1229.3" cy="284.4" r="2.0" fill="#f87171" fill-opacity="0.55"/><circle cx="893.1" cy="308.4" r="1.9" fill="#f87171" fill-opacity="0.63"/><circle cx="1385.1" cy="32.3" r="1.0" fill="#f87171" fill-opacity="0.30"/><circle cx="1590.5" cy="77.0" r="2.2" fill="#f87171" fill-opacity="0.63"/><circle cx="1145.3" cy="337.4" r="1.7" fill="#f87171" fill-opacity="0.61"/><circle cx="78.0" cy="137.6" r="1.8" fill="#f87171" fill-opacity="0.25"/><circle cx="1202.9" cy="134.5" r="1.1" fill="#f87171" fill-opacity="0.38"/><circle cx="1489.6" cy="237.3" r="0.7" fill="#f87171" fill-opacity="0.54"/><circle cx="634.1" cy="142.4" r="1.0" fill="#f87171" fill-opacity="0.55"/><circle cx="1056.7" cy="170.4" r="1.2" fill="#f87171" fill-opacity="0.54"/><circle cx="1151.1" cy="184.1" r="1.1" fill="#f87171" fill-opacity="0.64"/><circle cx="10.6" cy="215.3" r="0.9" fill="#f87171" fill-opacity="0.21"/><circle cx="255.3" cy="39.3" r="0.7" fill="#f87171" fill-opacity="0.43"/><circle cx="786.0" cy="63.6" r="1.5" fill="#f87171" fill-opacity="0.63"/><circle cx="490.1" cy="230.5" r="0.6" fill="#f87171" fill-opacity="0.29"/><circle cx="723.6" cy="201.5" r="2.2" fill="#f87171" fill-opacity="0.30"/><circle cx="1194.7" cy="220.3" r="1.9" fill="#f87171" fill-opacity="0.24"/><circle cx="274.0" cy="344.5" r="1.9" fill="#f87171" fill-opacity="0.55"/><circle cx="1556.5" cy="142.2" r="0.8" fill="#f87171" fill-opacity="0.53"/><circle cx="100.0" cy="323.4" r="1.0" fill="#f87171" fill-opacity="0.23"/><circle cx="564.9" cy="303.1" r="1.7" fill="#f87171" fill-opacity="0.55"/><circle cx="1480.5" cy="184.0" r="0.8" fill="#f87171" fill-opacity="0.39"/><circle cx="263.7" cy="259.0" r="1.9" fill="#f87171" fill-opacity="0.22"/><circle cx="413.0" cy="218.3" r="1.9" fill="#f87171" fill-opacity="0.29"/><circle cx="1104.9" cy="342.8" r="1.3" fill="#f87171" fill-opacity="0.17"/><circle cx="1016.9" cy="208.9" r="2.1" fill="#f87171" fill-opacity="0.44"/></g>
  <g opacity="0.95"><path d="M1330 96 L1388 124 L1388 186 Q1388 242 1330 268 Q1272 242 1272 186 L1272 124 Z" fill="none" stroke="#f87171" stroke-width="2.6" stroke-opacity="0.85"/><path d="M1308 180 L1324 200 L1356 158" fill="none" stroke="#f87171" stroke-width="3" stroke-opacity="0.8"/></g>
  <g font-family="'Segoe UI', system-ui, sans-serif">
    <text x="130" y="150" fill="#f87171" font-size="22" font-weight="700" letter-spacing="6">24/7 INTELLIGENCE DOMAIN</text>
    <text x="126" y="238" fill="url(#title)" font-size="92" font-weight="800" letter-spacing="1">Security</text>
    <rect x="132" y="262" width="150" height="5" rx="2.5" fill="#f87171"/>
  </g>
  <rect x="0" y="0" width="1600" height="360" fill="none" stroke="#f87171" stroke-opacity="0.18" stroke-width="2"/>
</svg>
