<svg xmlns="http://www.w3.org/2000/svg" viewBox="0 0 1600 360" width="1600" height="360" role="img" aria-label="Cosmetics domain banner">
  <defs>
    <linearGradient id="bg" x1="0" y1="0" x2="1" y2="1">
      <stop offset="0" stop-color="#060b18"/>
      <stop offset="0.55" stop-color="#0a1428"/>
      <stop offset="1" stop-color="#0c1a33"/>
    </linearGradient>
    <radialGradient id="glowA" cx="0.82" cy="0.5" r="0.5">
      <stop offset="0" stop-color="#c084fc" stop-opacity="0.35"/>
      <stop offset="1" stop-color="#c084fc" stop-opacity="0"/>
    </radialGradient>
    <radialGradient id="glowB" cx="0.1" cy="0.9" r="0.6">
      <stop offset="0" stop-color="#f472b6" stop-opacity="0.22"/>
      <stop offset="1" stop-color="#f472b6" stop-opacity="0"/>
    </radialGradient>
    <linearGradient id="title" x1="0" y1="0" x2="1" y2="0">
      <stop offset="0" stop-color="#ffffff"/>
      <stop offset="1" stop-color="#c084fc"/>
    </linearGradient>
  </defs>
  <rect width="1600" height="360" fill="url(#bg)"/>
  <rect width="1600" height="360" fill="url(#glowA)"/>
  <rect width="1600" height="360" fill="url(#glowB)"/>
  <g><line x1="791.0" y1="212.8" x2="860.1" y2="134.8" stroke="#c084fc" stroke-width="0.5" stroke-opacity="0.10"/><line x1="791.0" y1="212.8" x2="861.1" y2="295.4" stroke="#c084fc" stroke-width="0.5" stroke-opacity="0.10"/><line x1="791.0" y1="212.8" x2="691.3" y2="199.6" stroke="#c084fc" stroke-width="0.5" stroke-opacity="0.10"/><line x1="791.0" y1="212.8" x2="801.3" y2="248.3" stroke="#c084fc" stroke-width="0.5" stroke-opacity="0.10"/><line x1="791.0" y1="212.8" x2="828.1" y2="209.2" stroke="#c084fc" stroke-width="0.5" stroke-opacity="0.10"/><line x1="791.0" y1="212.8" x2="782.7" y2="115.4" stroke="#c084fc" stroke-width="0.5" stroke-opacity="0.10"/><line x1="791.0" y1="212.8" x2="735.7" y2="173.0" stroke="#c084fc" stroke-width="0.5" stroke-opacity="0.10"/><line x1="791.0" y1="212.8" x2="802.9" y2="207.0" stroke="#c084fc" stroke-width="0.5" stroke-opacity="0.10"/><line x1="894.9" y1="357.8" x2="882.7" y2="308.9" stroke="#c084fc" stroke-width="0.5" stroke-opacity="0.10"/><line x1="894.9" y1="357.8" x2="961.2" y2="319.1" stroke="#c084fc" stroke-width="0.5" stroke-opacity="0.10"/><line x1="894.9" y1="357.8" x2="861.1" y2="295.4" stroke="#c084fc" stroke-width="0.5" stroke-opacity="0.10"/><line x1="647.0" y1="176.0" x2="558.4" y2="138.7" stroke="#c084fc" stroke-width="0.5" stroke-opacity="0.10"/><line x1="647.0" y1="176.0" x2="584.2" y2="259.4" stroke="#c084fc" stroke-width="0.5" stroke-opacity="0.10"/><line x1="647.0" y1="176.0" x2="691.3" y2="199.6" stroke="#c084fc" stroke-width="0.5" stroke-opacity="0.10"/><line x1="647.0" y1="176.0" x2="654.4" y2="86.5" stroke="#c084fc" stroke-width="0.5" stroke-opacity="0.10"/><line x1="647.0" y1="176.0" x2="735.7" y2="173.0" stroke="#c084fc" stroke-width="0.5" stroke-opacity="0.10"/><line x1="167.7" y1="143.3" x2="188.7" y2="26.3" stroke="#c084fc" stroke-width="0.5" stroke-opacity="0.10"/><line x1="167.7" y1="143.3" x2="106.5" y2="111.9" stroke="#c084fc" stroke-width="0.5" stroke-opacity="0.10"/><line x1="167.7" y1="143.3" x2="159.7" y2="61.1" stroke="#c084fc" stroke-width="0.5" stroke-opacity="0.10"/><line x1="167.7" y1="143.3" x2="77.4" y2="198.9" stroke="#c084fc" stroke-width="0.5" stroke-opacity="0.10"/><line x1="167.7" y1="143.3" x2="70.5" y2="110.1" stroke="#c084fc" stroke-width="0.5" stroke-opacity="0.10"/><line x1="882.7" y1="308.9" x2="961.2" y2="319.1" stroke="#c084fc" stroke-width="0.5" stroke-opacity="0.10"/><line x1="882.7" y1="308.9" x2="861.1" y2="295.4" stroke="#c084fc" stroke-width="0.5" stroke-opacity="0.10"/><line x1="882.7" y1="308.9" x2="801.3" y2="248.3" stroke="#c084fc" stroke-width="0.5" stroke-opacity="0.10"/><line x1="882.7" y1="308.9" x2="828.1" y2="209.2" stroke="#c084fc" stroke-width="0.5" stroke-opacity="0.10"/><line x1="188.7" y1="26.3" x2="106.5" y2="111.9" stroke="#c084fc" stroke-width="0.5" stroke-opacity="0.10"/><line x1="188.7" y1="26.3" x2="159.7" y2="61.1" stroke="#c084fc" stroke-width="0.5" stroke-opacity="0.10"/><line x1="188.7" y1="26.3" x2="115.3" y2="18.8" stroke="#c084fc" stroke-width="0.5" stroke-opacity="0.10"/><line x1="188.7" y1="26.3" x2="103.0" y2="19.1" stroke="#c084fc" stroke-width="0.5" stroke-opacity="0.10"/><line x1="558.4" y1="138.7" x2="654.4" y2="86.5" stroke="#c084fc" stroke-width="0.5" stroke-opacity="0.10"/><line x1="558.4" y1="138.7" x2="549.9" y2="36.9" stroke="#c084fc" stroke-width="0.5" stroke-opacity="0.10"/><line x1="558.4" y1="138.7" x2="444.7" y2="145.8" stroke="#c084fc" stroke-width="0.5" stroke-opacity="0.10"/><line x1="1508.9" y1="221.3" x2="1562.1" y2="200.8" stroke="#c084fc" stroke-width="0.5" stroke-opacity="0.10"/><line x1="860.1" y1="134.8" x2="828.1" y2="209.2" stroke="#c084fc" stroke-width="0.5" stroke-opacity="0.10"/><line x1="860.1" y1="134.8" x2="782.7" y2="115.4" stroke="#c084fc" stroke-width="0.5" stroke-opacity="0.10"/><line x1="860.1" y1="134.8" x2="802.9" y2="207.0" stroke="#c084fc" stroke-width="0.5" stroke-opacity="0.10"/><line x1="106.5" y1="111.9" x2="159.7" y2="61.1" stroke="#c084fc" stroke-width="0.5" stroke-opacity="0.10"/><line x1="106.5" y1="111.9" x2="77.4" y2="198.9" stroke="#c084fc" stroke-width="0.5" stroke-opacity="0.10"/><line x1="106.5" y1="111.9" x2="115.3" y2="18.8" stroke="#c084fc" stroke-width="0.5" stroke-opacity="0.10"/><line x1="106.5" y1="111.9" x2="13.3" y2="87.7" stroke="#c084fc" stroke-width="0.5" stroke-opacity="0.10"/><line x1="106.5" y1="111.9" x2="103.0" y2="19.1" stroke="#c084fc" stroke-width="0.5" stroke-opacity="0.10"/><line x1="106.5" y1="111.9" x2="70.5" y2="110.1" stroke="#c084fc" stroke-width="0.5" stroke-opacity="0.10"/><line x1="1128.0" y1="170.9" x2="1065.4" y2="99.1" stroke="#c084fc" stroke-width="0.5" stroke-opacity="0.10"/><line x1="1128.0" y1="170.9" x2="1099.1" y2="213.8" stroke="#c084fc" stroke-width="0.5" stroke-opacity="0.10"/><line x1="1128.0" y1="170.9" x2="1048.0" y2="206.0" stroke="#c084fc" stroke-width="0.5" stroke-opacity="0.10"/><line x1="1128.0" y1="170.9" x2="1125.4" y2="255.6" stroke="#c084fc" stroke-width="0.5" stroke-opacity="0.10"/><line x1="1128.0" y1="170.9" x2="1188.1" y2="219.7" stroke="#c084fc" stroke-width="0.5" stroke-opacity="0.10"/><line x1="1065.4" y1="99.1" x2="1099.1" y2="213.8" stroke="#c084fc" stroke-width="0.5" stroke-opacity="0.10"/><line x1="1065.4" y1="99.1" x2="1048.0" y2="206.0" stroke="#c084fc" stroke-width="0.5" stroke-opacity="0.10"/><line x1="584.2" y1="259.4" x2="585.7" y2="329.6" stroke="#c084fc" stroke-width="0.5" stroke-opacity="0.10"/><line x1="584.2" y1="259.4" x2="493.7" y2="299.3" stroke="#c084fc" stroke-width="0.5" stroke-opacity="0.10"/><line x1="1153.2" y1="322.5" x2="1172.7" y2="322.6" stroke="#c084fc" stroke-width="0.5" stroke-opacity="0.10"/><line x1="1153.2" y1="322.5" x2="1125.4" y2="255.6" stroke="#c084fc" stroke-width="0.5" stroke-opacity="0.10"/><line x1="1153.2" y1="322.5" x2="1188.1" y2="219.7" stroke="#c084fc" stroke-width="0.5" stroke-opacity="0.10"/><line x1="961.2" y1="319.1" x2="861.1" y2="295.4" stroke="#c084fc" stroke-width="0.5" stroke-opacity="0.10"/><line x1="961.2" y1="319.1" x2="1015.9" y2="333.2" stroke="#c084fc" stroke-width="0.5" stroke-opacity="0.10"/><line x1="1099.1" y1="213.8" x2="1048.0" y2="206.0" stroke="#c084fc" stroke-width="0.5" stroke-opacity="0.10"/><line x1="1099.1" y1="213.8" x2="1125.4" y2="255.6" stroke="#c084fc" stroke-width="0.5" stroke-opacity="0.10"/><line x1="1099.1" y1="213.8" x2="1188.1" y2="219.7" stroke="#c084fc" stroke-width="0.5" stroke-opacity="0.10"/><line x1="429.8" y1="54.8" x2="355.9" y2="77.2" stroke="#c084fc" stroke-width="0.5" stroke-opacity="0.10"/><line x1="429.8" y1="54.8" x2="444.7" y2="145.8" stroke="#c084fc" stroke-width="0.5" stroke-opacity="0.10"/><line x1="1172.7" y1="322.6" x2="1125.4" y2="255.6" stroke="#c084fc" stroke-width="0.5" stroke-opacity="0.10"/><line x1="1172.7" y1="322.6" x2="1188.1" y2="219.7" stroke="#c084fc" stroke-width="0.5" stroke-opacity="0.10"/><line x1="1227.3" y1="29.6" x2="1318.9" y2="20.0" stroke="#c084fc" stroke-width="0.5" stroke-opacity="0.10"/><line x1="861.1" y1="295.4" x2="801.3" y2="248.3" stroke="#c084fc" stroke-width="0.5" stroke-opacity="0.10"/><line x1="861.1" y1="295.4" x2="828.1" y2="209.2" stroke="#c084fc" stroke-width="0.5" stroke-opacity="0.10"/><line x1="861.1" y1="295.4" x2="802.9" y2="207.0" stroke="#c084fc" stroke-width="0.5" stroke-opacity="0.10"/><line x1="585.7" y1="329.6" x2="493.7" y2="299.3" stroke="#c084fc" stroke-width="0.5" stroke-opacity="0.10"/><line x1="1048.0" y1="206.0" x2="1125.4" y2="255.6" stroke="#c084fc" stroke-width="0.5" stroke-opacity="0.10"/><line x1="159.7" y1="61.1" x2="115.3" y2="18.8" stroke="#c084fc" stroke-width="0.5" stroke-opacity="0.10"/><line x1="159.7" y1="61.1" x2="103.0" y2="19.1" stroke="#c084fc" stroke-width="0.5" stroke-opacity="0.10"/><line x1="159.7" y1="61.1" x2="70.5" y2="110.1" stroke="#c084fc" stroke-width="0.5" stroke-opacity="0.10"/><line x1="691.3" y1="199.6" x2="654.4" y2="86.5" stroke="#c084fc" stroke-width="0.5" stroke-opacity="0.10"/><line x1="691.3" y1="199.6" x2="735.7" y2="173.0" stroke="#c084fc" stroke-width="0.5" stroke-opacity="0.10"/><line x1="691.3" y1="199.6" x2="802.9" y2="207.0" stroke="#c084fc" stroke-width="0.5" stroke-opacity="0.10"/><line x1="354.9" y1="200.7" x2="463.0" y2="244.6" stroke="#c084fc" stroke-width="0.5" stroke-opacity="0.10"/><line x1="354.9" y1="200.7" x2="444.7" y2="145.8" stroke="#c084fc" stroke-width="0.5" stroke-opacity="0.10"/><line x1="801.3" y1="248.3" x2="828.1" y2="209.2" stroke="#c084fc" stroke-width="0.5" stroke-opacity="0.10"/><line x1="801.3" y1="248.3" x2="735.7" y2="173.0" stroke="#c084fc" stroke-width="0.5" stroke-opacity="0.10"/><line x1="801.3" y1="248.3" x2="802.9" y2="207.0" stroke="#c084fc" stroke-width="0.5" stroke-opacity="0.10"/><line x1="355.9" y1="77.2" x2="444.7" y2="145.8" stroke="#c084fc" stroke-width="0.5" stroke-opacity="0.10"/><line x1="654.4" y1="86.5" x2="549.9" y2="36.9" stroke="#c084fc" stroke-width="0.5" stroke-opacity="0.10"/><line x1="654.4" y1="86.5" x2="735.7" y2="173.0" stroke="#c084fc" stroke-width="0.5" stroke-opacity="0.10"/><line x1="493.7" y1="299.3" x2="463.0" y2="244.6" stroke="#c084fc" stroke-width="0.5" stroke-opacity="0.10"/><line x1="77.4" y1="198.9" x2="70.5" y2="110.1" stroke="#c084fc" stroke-width="0.5" stroke-opacity="0.10"/><line x1="115.3" y1="18.8" x2="103.0" y2="19.1" stroke="#c084fc" stroke-width="0.5" stroke-opacity="0.10"/><line x1="115.3" y1="18.8" x2="70.5" y2="110.1" stroke="#c084fc" stroke-width="0.5" stroke-opacity="0.10"/><line x1="1125.4" y1="255.6" x2="1188.1" y2="219.7" stroke="#c084fc" stroke-width="0.5" stroke-opacity="0.10"/><line x1="828.1" y1="209.2" x2="782.7" y2="115.4" stroke="#c084fc" stroke-width="0.5" stroke-opacity="0.10"/><line x1="828.1" y1="209.2" x2="735.7" y2="173.0" stroke="#c084fc" stroke-width="0.5" stroke-opacity="0.10"/><line x1="828.1" y1="209.2" x2="802.9" y2="207.0" stroke="#c084fc" stroke-width="0.5" stroke-opacity="0.10"/><line x1="782.7" y1="115.4" x2="735.7" y2="173.0" stroke="#c084fc" stroke-width="0.5" stroke-opacity="0.10"/><line x1="782.7" y1="115.4" x2="802.9" y2="207.0" stroke="#c084fc" stroke-width="0.5" stroke-opacity="0.10"/><line x1="735.7" y1="173.0" x2="802.9" y2="207.0" stroke="#c084fc" stroke-width="0.5" stroke-opacity="0.10"/><line x1="463.0" y1="244.6" x2="444.7" y2="145.8" stroke="#c084fc" stroke-width="0.5" stroke-opacity="0.10"/><line x1="13.3" y1="87.7" x2="103.0" y2="19.1" stroke="#c084fc" stroke-width="0.5" stroke-opacity="0.10"/><line x1="13.3" y1="87.7" x2="70.5" y2="110.1" stroke="#c084fc" stroke-width="0.5" stroke-opacity="0.10"/><line x1="103.0" y1="19.1" x2="70.5" y2="110.1" stroke="#c084fc" stroke-width="0.5" stroke-opacity="0.10"/><circle cx="791.0" cy="212.8" r="1.4" fill="#c084fc" fill-opacity="0.47"/><circle cx="894.9" cy="357.8" r="1.3" fill="#c084fc" fill-opacity="0.55"/><circle cx="647.0" cy="176.0" r="1.4" fill="#c084fc" fill-opacity="0.21"/><circle cx="167.7" cy="143.3" r="2.3" fill="#c084fc" fill-opacity="0.29"/><circle cx="882.7" cy="308.9" r="1.2" fill="#c084fc" fill-opacity="0.27"/><circle cx="188.7" cy="26.3" r="1.5" fill="#c084fc" fill-opacity="0.54"/><circle cx="558.4" cy="138.7" r="2.0" fill="#c084fc" fill-opacity="0.60"/><circle cx="1508.9" cy="221.3" r="2.3" fill="#c084fc" fill-opacity="0.22"/><circle cx="860.1" cy="134.8" r="2.1" fill="#c084fc" fill-opacity="0.33"/><circle cx="106.5" cy="111.9" r="2.3" fill="#c084fc" fill-opacity="0.25"/><circle cx="1128.0" cy="170.9" r="1.8" fill="#c084fc" fill-opacity="0.35"/><circle cx="1065.4" cy="99.1" r="0.7" fill="#c084fc" fill-opacity="0.52"/><circle cx="584.2" cy="259.4" r="1.9" fill="#c084fc" fill-opacity="0.27"/><circle cx="1153.2" cy="322.5" r="1.1" fill="#c084fc" fill-opacity="0.61"/><circle cx="961.2" cy="319.1" r="1.9" fill="#c084fc" fill-opacity="0.27"/><circle cx="1099.1" cy="213.8" r="2.3" fill="#c084fc" fill-opacity="0.56"/><circle cx="429.8" cy="54.8" r="0.7" fill="#c084fc" fill-opacity="0.40"/><circle cx="1172.7" cy="322.6" r="2.3" fill="#c084fc" fill-opacity="0.41"/><circle cx="1227.3" cy="29.6" r="1.6" fill="#c084fc" fill-opacity="0.28"/><circle cx="861.1" cy="295.4" r="1.0" fill="#c084fc" fill-opacity="0.27"/><circle cx="585.7" cy="329.6" r="1.2" fill="#c084fc" fill-opacity="0.65"/><circle cx="1048.0" cy="206.0" r="1.4" fill="#c084fc" fill-opacity="0.19"/><circle cx="159.7" cy="61.1" r="1.6" fill="#c084fc" fill-opacity="0.38"/><circle cx="691.3" cy="199.6" r="1.6" fill="#c084fc" fill-opacity="0.53"/><circle cx="354.9" cy="200.7" r="1.2" fill="#c084fc" fill-opacity="0.40"/><circle cx="801.3" cy="248.3" r="1.3" fill="#c084fc" fill-opacity="0.16"/><circle cx="355.9" cy="77.2" r="2.3" fill="#c084fc" fill-opacity="0.49"/><circle cx="1318.9" cy="20.0" r="1.8" fill="#c084fc" fill-opacity="0.60"/><circle cx="654.4" cy="86.5" r="1.4" fill="#c084fc" fill-opacity="0.49"/><circle cx="493.7" cy="299.3" r="1.4" fill="#c084fc" fill-opacity="0.59"/><circle cx="77.4" cy="198.9" r="0.9" fill="#c084fc" fill-opacity="0.42"/><circle cx="1562.1" cy="200.8" r="1.4" fill="#c084fc" fill-opacity="0.50"/><circle cx="115.3" cy="18.8" r="1.6" fill="#c084fc" fill-opacity="0.52"/><circle cx="1125.4" cy="255.6" r="1.5" fill="#c084fc" fill-opacity="0.22"/><circle cx="549.9" cy="36.9" r="1.8" fill="#c084fc" fill-opacity="0.20"/><circle cx="828.1" cy="209.2" r="0.7" fill="#c084fc" fill-opacity="0.42"/><circle cx="782.7" cy="115.4" r="0.9" fill="#c084fc" fill-opacity="0.34"/><circle cx="735.7" cy="173.0" r="1.9" fill="#c084fc" fill-opacity="0.20"/><circle cx="463.0" cy="244.6" r="0.6" fill="#c084fc" fill-opacity="0.58"/><circle cx="13.3" cy="87.7" r="2.2" fill="#c084fc" fill-opacity="0.16"/><circle cx="1015.9" cy="333.2" r="1.5" fill="#c084fc" fill-opacity="0.42"/><circle cx="103.0" cy="19.1" r="1.5" fill="#c084fc" fill-opacity="0.43"/><circle cx="70.5" cy="110.1" r="2.3" fill="#c084fc" fill-opacity="0.35"/><circle cx="802.9" cy="207.0" r="1.9" fill="#c084fc" fill-opacity="0.49"/><circle cx="1188.1" cy="219.7" r="1.2" fill="#c084fc" fill-opacity="0.24"/><circle cx="444.7" cy="145.8" r="1.9" fill="#c084fc" fill-opacity="0.52"/></g>
  <g opacity="0.95"><path d="M1316 110 L1316 160 L1286 250 Q1330 272 1374 250 L1344 160 L1344 110 Z" fill="none" stroke="#c084fc" stroke-width="2.4" stroke-opacity="0.85"/><line x1="1308" y1="110" x2="1352" y2="110" stroke="#c084fc" stroke-width="3"/><path d="M1300 214 Q1330 228 1360 214" fill="#c084fc" fill-opacity="0.4"/></g>
  <g font-family="'Segoe UI', system-ui, sans-serif">
    <text x="130" y="150" fill="#c084fc" font-size="22" font-weight="700" letter-spacing="6">24/7 INTELLIGENCE DOMAIN</text>
    <text x="126" y="238" fill="url(#title)" font-size="92" font-weight="800" letter-spacing="1">Cosmetics</text>
    <rect x="132" y="262" width="150" height="5" rx="2.5" fill="#c084fc"/>
  </g>
  <rect x="0" y="0" width="1600" height="360" fill="none" stroke="#c084fc" stroke-opacity="0.18" stroke-width="2"/>
</svg>
