<svg xmlns="http://www.w3.org/2000/svg" viewBox="0 0 1600 360" width="1600" height="360" role="img" aria-label="Smart Systems domain banner">
  <defs>
    <linearGradient id="bg" x1="0" y1="0" x2="1" y2="1">
      <stop offset="0" stop-color="#060b18"/>
      <stop offset="0.55" stop-color="#0a1428"/>
      <stop offset="1" stop-color="#0c1a33"/>
    </linearGradient>
    <radialGradient id="glowA" cx="0.82" cy="0.5" r="0.5">
      <stop offset="0" stop-color="#4ade80" stop-opacity="0.35"/>
      <stop offset="1" stop-color="#4ade80" stop-opacity="0"/>
    </radialGradient>
    <radialGradient id="glowB" cx="0.1" cy="0.9" r="0.6">
      <stop offset="0" stop-color="#22d3ee" stop-opacity="0.22"/>
      <stop offset="1" stop-color="#22d3ee" stop-opacity="0"/>
    </radialGradient>
    <linearGradient id="title" x1="0" y1="0" x2="1" y2="0">
      <stop offset="0" stop-color="#ffffff"/>
      <stop offset="1" stop-color="#4ade80"/>
    </linearGradient>
  </defs>
  <rect width="1600" height="360" fill="url(#bg)"/>
  <rect width="1600" height="360" fill="url(#glowA)"/>
  <rect width="1600" height="360" fill="url(#glowB)"/>
  <g><line x1="687.6" y1="258.9" x2="703.2" y2="172.5" stroke="#4ade80" stroke-width="0.5" stroke-opacity="0.10"/><line x1="784.0" y1="66.9" x2="795.6" y2="94.5" stroke="#4ade80" stroke-width="0.5" stroke-opacity="0.10"/><line x1="784.0" y1="66.9" x2="884.8" y2="80.9" stroke="#4ade80" stroke-width="0.5" stroke-opacity="0.10"/><line x1="784.0" y1="66.9" x2="851.1" y2="78.9" stroke="#4ade80" stroke-width="0.5" stroke-opacity="0.10"/><line x1="602.6" y1="112.6" x2="596.4" y2="3.8" stroke="#4ade80" stroke-width="0.5" stroke-opacity="0.10"/><line x1="602.6" y1="112.6" x2="703.2" y2="172.5" stroke="#4ade80" stroke-width="0.5" stroke-opacity="0.10"/><line x1="602.6" y1="112.6" x2="563.5" y2="211.4" stroke="#4ade80" stroke-width="0.5" stroke-opacity="0.10"/><line x1="1175.4" y1="174.6" x2="1203.7" y2="186.4" stroke="#4ade80" stroke-width="0.5" stroke-opacity="0.10"/><line x1="1175.4" y1="174.6" x2="1208.7" y2="135.4" stroke="#4ade80" stroke-width="0.5" stroke-opacity="0.10"/><line x1="1175.4" y1="174.6" x2="1154.0" y2="260.5" stroke="#4ade80" stroke-width="0.5" stroke-opacity="0.10"/><line x1="1175.4" y1="174.6" x2="1163.2" y2="160.1" stroke="#4ade80" stroke-width="0.5" stroke-opacity="0.10"/><line x1="1175.4" y1="174.6" x2="1108.6" y2="88.9" stroke="#4ade80" stroke-width="0.5" stroke-opacity="0.10"/><line x1="173.5" y1="234.3" x2="184.2" y2="286.8" stroke="#4ade80" stroke-width="0.5" stroke-opacity="0.10"/><line x1="173.5" y1="234.3" x2="124.2" y2="139.3" stroke="#4ade80" stroke-width="0.5" stroke-opacity="0.10"/><line x1="173.5" y1="234.3" x2="209.4" y2="320.8" stroke="#4ade80" stroke-width="0.5" stroke-opacity="0.10"/><line x1="173.5" y1="234.3" x2="211.9" y2="304.0" stroke="#4ade80" stroke-width="0.5" stroke-opacity="0.10"/><line x1="173.5" y1="234.3" x2="200.8" y2="211.6" stroke="#4ade80" stroke-width="0.5" stroke-opacity="0.10"/><line x1="173.5" y1="234.3" x2="274.5" y2="204.7" stroke="#4ade80" stroke-width="0.5" stroke-opacity="0.10"/><line x1="184.2" y1="286.8" x2="209.4" y2="320.8" stroke="#4ade80" stroke-width="0.5" stroke-opacity="0.10"/><line x1="184.2" y1="286.8" x2="211.9" y2="304.0" stroke="#4ade80" stroke-width="0.5" stroke-opacity="0.10"/><line x1="184.2" y1="286.8" x2="200.8" y2="211.6" stroke="#4ade80" stroke-width="0.5" stroke-opacity="0.10"/><line x1="472.1" y1="259.9" x2="563.5" y2="211.4" stroke="#4ade80" stroke-width="0.5" stroke-opacity="0.10"/><line x1="1347.6" y1="270.4" x2="1416.4" y2="225.0" stroke="#4ade80" stroke-width="0.5" stroke-opacity="0.10"/><line x1="1347.6" y1="270.4" x2="1376.6" y2="163.8" stroke="#4ade80" stroke-width="0.5" stroke-opacity="0.10"/><line x1="1347.6" y1="270.4" x2="1307.2" y2="206.2" stroke="#4ade80" stroke-width="0.5" stroke-opacity="0.10"/><line x1="1347.6" y1="270.4" x2="1306.1" y2="285.7" stroke="#4ade80" stroke-width="0.5" stroke-opacity="0.10"/><line x1="1067.7" y1="99.0" x2="1024.0" y2="77.1" stroke="#4ade80" stroke-width="0.5" stroke-opacity="0.10"/><line x1="1067.7" y1="99.0" x2="1163.2" y2="160.1" stroke="#4ade80" stroke-width="0.5" stroke-opacity="0.10"/><line x1="1067.7" y1="99.0" x2="966.3" y2="66.6" stroke="#4ade80" stroke-width="0.5" stroke-opacity="0.10"/><line x1="1067.7" y1="99.0" x2="1108.6" y2="88.9" stroke="#4ade80" stroke-width="0.5" stroke-opacity="0.10"/><line x1="795.6" y1="94.5" x2="884.8" y2="80.9" stroke="#4ade80" stroke-width="0.5" stroke-opacity="0.10"/><line x1="795.6" y1="94.5" x2="851.1" y2="78.9" stroke="#4ade80" stroke-width="0.5" stroke-opacity="0.10"/><line x1="1542.3" y1="47.6" x2="1436.7" y2="72.4" stroke="#4ade80" stroke-width="0.5" stroke-opacity="0.10"/><line x1="1416.4" y1="225.0" x2="1376.6" y2="163.8" stroke="#4ade80" stroke-width="0.5" stroke-opacity="0.10"/><line x1="1416.4" y1="225.0" x2="1307.2" y2="206.2" stroke="#4ade80" stroke-width="0.5" stroke-opacity="0.10"/><line x1="306.7" y1="204.4" x2="322.3" y2="241.5" stroke="#4ade80" stroke-width="0.5" stroke-opacity="0.10"/><line x1="306.7" y1="204.4" x2="315.9" y2="268.6" stroke="#4ade80" stroke-width="0.5" stroke-opacity="0.10"/><line x1="306.7" y1="204.4" x2="200.8" y2="211.6" stroke="#4ade80" stroke-width="0.5" stroke-opacity="0.10"/><line x1="306.7" y1="204.4" x2="274.5" y2="204.7" stroke="#4ade80" stroke-width="0.5" stroke-opacity="0.10"/><line x1="306.7" y1="204.4" x2="283.8" y2="167.5" stroke="#4ade80" stroke-width="0.5" stroke-opacity="0.10"/><line x1="322.3" y1="241.5" x2="315.9" y2="268.6" stroke="#4ade80" stroke-width="0.5" stroke-opacity="0.10"/><line x1="322.3" y1="241.5" x2="274.5" y2="204.7" stroke="#4ade80" stroke-width="0.5" stroke-opacity="0.10"/><line x1="322.3" y1="241.5" x2="283.8" y2="167.5" stroke="#4ade80" stroke-width="0.5" stroke-opacity="0.10"/><line x1="315.9" y1="268.6" x2="209.4" y2="320.8" stroke="#4ade80" stroke-width="0.5" stroke-opacity="0.10"/><line x1="315.9" y1="268.6" x2="211.9" y2="304.0" stroke="#4ade80" stroke-width="0.5" stroke-opacity="0.10"/><line x1="315.9" y1="268.6" x2="274.5" y2="204.7" stroke="#4ade80" stroke-width="0.5" stroke-opacity="0.10"/><line x1="315.9" y1="268.6" x2="283.8" y2="167.5" stroke="#4ade80" stroke-width="0.5" stroke-opacity="0.10"/><line x1="884.8" y1="80.9" x2="851.1" y2="78.9" stroke="#4ade80" stroke-width="0.5" stroke-opacity="0.10"/><line x1="884.8" y1="80.9" x2="923.0" y2="48.1" stroke="#4ade80" stroke-width="0.5" stroke-opacity="0.10"/><line x1="884.8" y1="80.9" x2="966.3" y2="66.6" stroke="#4ade80" stroke-width="0.5" stroke-opacity="0.10"/><line x1="851.1" y1="78.9" x2="923.0" y2="48.1" stroke="#4ade80" stroke-width="0.5" stroke-opacity="0.10"/><line x1="851.1" y1="78.9" x2="966.3" y2="66.6" stroke="#4ade80" stroke-width="0.5" stroke-opacity="0.10"/><line x1="1203.7" y1="186.4" x2="1208.7" y2="135.4" stroke="#4ade80" stroke-width="0.5" stroke-opacity="0.10"/><line x1="1203.7" y1="186.4" x2="1154.0" y2="260.5" stroke="#4ade80" stroke-width="0.5" stroke-opacity="0.10"/><line x1="1203.7" y1="186.4" x2="1163.2" y2="160.1" stroke="#4ade80" stroke-width="0.5" stroke-opacity="0.10"/><line x1="1203.7" y1="186.4" x2="1307.2" y2="206.2" stroke="#4ade80" stroke-width="0.5" stroke-opacity="0.10"/><line x1="1208.7" y1="135.4" x2="1163.2" y2="160.1" stroke="#4ade80" stroke-width="0.5" stroke-opacity="0.10"/><line x1="1208.7" y1="135.4" x2="1108.6" y2="88.9" stroke="#4ade80" stroke-width="0.5" stroke-opacity="0.10"/><line x1="1154.0" y1="260.5" x2="1163.2" y2="160.1" stroke="#4ade80" stroke-width="0.5" stroke-opacity="0.10"/><line x1="1351.7" y1="100.3" x2="1376.6" y2="163.8" stroke="#4ade80" stroke-width="0.5" stroke-opacity="0.10"/><line x1="1351.7" y1="100.3" x2="1296.4" y2="34.5" stroke="#4ade80" stroke-width="0.5" stroke-opacity="0.10"/><line x1="1351.7" y1="100.3" x2="1282.7" y2="15.0" stroke="#4ade80" stroke-width="0.5" stroke-opacity="0.10"/><line x1="1351.7" y1="100.3" x2="1307.2" y2="206.2" stroke="#4ade80" stroke-width="0.5" stroke-opacity="0.10"/><line x1="1351.7" y1="100.3" x2="1436.7" y2="72.4" stroke="#4ade80" stroke-width="0.5" stroke-opacity="0.10"/><line x1="1024.0" y1="77.1" x2="923.0" y2="48.1" stroke="#4ade80" stroke-width="0.5" stroke-opacity="0.10"/><line x1="1024.0" y1="77.1" x2="966.3" y2="66.6" stroke="#4ade80" stroke-width="0.5" stroke-opacity="0.10"/><line x1="1024.0" y1="77.1" x2="1108.6" y2="88.9" stroke="#4ade80" stroke-width="0.5" stroke-opacity="0.10"/><line x1="124.2" y1="139.3" x2="200.8" y2="211.6" stroke="#4ade80" stroke-width="0.5" stroke-opacity="0.10"/><line x1="1376.6" y1="163.8" x2="1307.2" y2="206.2" stroke="#4ade80" stroke-width="0.5" stroke-opacity="0.10"/><line x1="1376.6" y1="163.8" x2="1436.7" y2="72.4" stroke="#4ade80" stroke-width="0.5" stroke-opacity="0.10"/><line x1="209.4" y1="320.8" x2="211.9" y2="304.0" stroke="#4ade80" stroke-width="0.5" stroke-opacity="0.10"/><line x1="209.4" y1="320.8" x2="200.8" y2="211.6" stroke="#4ade80" stroke-width="0.5" stroke-opacity="0.10"/><line x1="1163.2" y1="160.1" x2="1108.6" y2="88.9" stroke="#4ade80" stroke-width="0.5" stroke-opacity="0.10"/><line x1="975.5" y1="321.8" x2="897.8" y2="233.1" stroke="#4ade80" stroke-width="0.5" stroke-opacity="0.10"/><line x1="211.9" y1="304.0" x2="200.8" y2="211.6" stroke="#4ade80" stroke-width="0.5" stroke-opacity="0.10"/><line x1="211.9" y1="304.0" x2="274.5" y2="204.7" stroke="#4ade80" stroke-width="0.5" stroke-opacity="0.10"/><line x1="1296.4" y1="34.5" x2="1282.7" y2="15.0" stroke="#4ade80" stroke-width="0.5" stroke-opacity="0.10"/><line x1="923.0" y1="48.1" x2="966.3" y2="66.6" stroke="#4ade80" stroke-width="0.5" stroke-opacity="0.10"/><line x1="200.8" y1="211.6" x2="274.5" y2="204.7" stroke="#4ade80" stroke-width="0.5" stroke-opacity="0.10"/><line x1="200.8" y1="211.6" x2="283.8" y2="167.5" stroke="#4ade80" stroke-width="0.5" stroke-opacity="0.10"/><line x1="1307.2" y1="206.2" x2="1306.1" y2="285.7" stroke="#4ade80" stroke-width="0.5" stroke-opacity="0.10"/><line x1="274.5" y1="204.7" x2="283.8" y2="167.5" stroke="#4ade80" stroke-width="0.5" stroke-opacity="0.10"/><line x1="290.2" y1="54.1" x2="283.8" y2="167.5" stroke="#4ade80" stroke-width="0.5" stroke-opacity="0.10"/><circle cx="687.6" cy="258.9" r="2.0" fill="#4ade80" fill-opacity="0.42"/><circle cx="784.0" cy="66.9" r="1.9" fill="#4ade80" fill-opacity="0.50"/><circle cx="602.6" cy="112.6" r="1.1" fill="#4ade80" fill-opacity="0.16"/><circle cx="1175.4" cy="174.6" r="2.0" fill="#4ade80" fill-opacity="0.41"/><circle cx="173.5" cy="234.3" r="0.9" fill="#4ade80" fill-opacity="0.30"/><circle cx="184.2" cy="286.8" r="0.8" fill="#4ade80" fill-opacity="0.16"/><circle cx="472.1" cy="259.9" r="1.4" fill="#4ade80" fill-opacity="0.48"/><circle cx="1347.6" cy="270.4" r="0.8" fill="#4ade80" fill-opacity="0.57"/><circle cx="1067.7" cy="99.0" r="1.7" fill="#4ade80" fill-opacity="0.28"/><circle cx="795.6" cy="94.5" r="1.8" fill="#4ade80" fill-opacity="0.21"/><circle cx="1542.3" cy="47.6" r="1.8" fill="#4ade80" fill-opacity="0.28"/><circle cx="1416.4" cy="225.0" r="2.3" fill="#4ade80" fill-opacity="0.47"/><circle cx="306.7" cy="204.4" r="0.8" fill="#4ade80" fill-opacity="0.38"/><circle cx="322.3" cy="241.5" r="0.8" fill="#4ade80" fill-opacity="0.46"/><circle cx="315.9" cy="268.6" r="1.6" fill="#4ade80" fill-opacity="0.51"/><circle cx="814.9" cy="356.8" r="1.1" fill="#4ade80" fill-opacity="0.58"/><circle cx="884.8" cy="80.9" r="1.4" fill="#4ade80" fill-opacity="0.44"/><circle cx="851.1" cy="78.9" r="0.9" fill="#4ade80" fill-opacity="0.55"/><circle cx="1203.7" cy="186.4" r="0.8" fill="#4ade80" fill-opacity="0.58"/><circle cx="1208.7" cy="135.4" r="1.9" fill="#4ade80" fill-opacity="0.55"/><circle cx="1154.0" cy="260.5" r="0.8" fill="#4ade80" fill-opacity="0.38"/><circle cx="1351.7" cy="100.3" r="1.1" fill="#4ade80" fill-opacity="0.24"/><circle cx="1024.0" cy="77.1" r="1.0" fill="#4ade80" fill-opacity="0.64"/><circle cx="596.4" cy="3.8" r="1.9" fill="#4ade80" fill-opacity="0.53"/><circle cx="124.2" cy="139.3" r="0.7" fill="#4ade80" fill-opacity="0.51"/><circle cx="1376.6" cy="163.8" r="1.5" fill="#4ade80" fill-opacity="0.15"/><circle cx="703.2" cy="172.5" r="2.1" fill="#4ade80" fill-opacity="0.35"/><circle cx="209.4" cy="320.8" r="0.9" fill="#4ade80" fill-opacity="0.46"/><circle cx="1163.2" cy="160.1" r="1.6" fill="#4ade80" fill-opacity="0.30"/><circle cx="1561.0" cy="234.7" r="1.0" fill="#4ade80" fill-opacity="0.59"/><circle cx="975.5" cy="321.8" r="1.5" fill="#4ade80" fill-opacity="0.18"/><circle cx="211.9" cy="304.0" r="0.9" fill="#4ade80" fill-opacity="0.33"/><circle cx="1296.4" cy="34.5" r="2.4" fill="#4ade80" fill-opacity="0.16"/><circle cx="923.0" cy="48.1" r="0.6" fill="#4ade80" fill-opacity="0.31"/><circle cx="1282.7" cy="15.0" r="1.2" fill="#4ade80" fill-opacity="0.18"/><circle cx="200.8" cy="211.6" r="2.4" fill="#4ade80" fill-opacity="0.47"/><circle cx="1307.2" cy="206.2" r="1.7" fill="#4ade80" fill-opacity="0.22"/><circle cx="563.5" cy="211.4" r="1.5" fill="#4ade80" fill-opacity="0.30"/><circle cx="274.5" cy="204.7" r="2.1" fill="#4ade80" fill-opacity="0.27"/><circle cx="1306.1" cy="285.7" r="1.8" fill="#4ade80" fill-opacity="0.34"/><circle cx="1436.7" cy="72.4" r="1.4" fill="#4ade80" fill-opacity="0.62"/><circle cx="966.3" cy="66.6" r="2.4" fill="#4ade80" fill-opacity="0.54"/><circle cx="1108.6" cy="88.9" r="1.4" fill="#4ade80" fill-opacity="0.49"/><circle cx="290.2" cy="54.1" r="0.9" fill="#4ade80" fill-opacity="0.29"/><circle cx="283.8" cy="167.5" r="0.8" fill="#4ade80" fill-opacity="0.29"/><circle cx="897.8" cy="233.1" r="1.6" fill="#4ade80" fill-opacity="0.33"/></g>
  <g opacity="0.95"><rect x="1314" y="164" width="32" height="32" rx="6" fill="#4ade80" fill-opacity="0.9"/><line x1="1330" y1="180" x2="1330.0" y2="106.0" stroke="#4ade80" stroke-width="1.4" stroke-opacity="0.55"/><circle cx="1330.0" cy="106.0" r="6" fill="#4ade80"/><line x1="1330" y1="180" x2="1400.4" y2="157.1" stroke="#4ade80" stroke-width="1.4" stroke-opacity="0.55"/><circle cx="1400.4" cy="157.1" r="6" fill="#4ade80"/><line x1="1330" y1="180" x2="1373.5" y2="239.9" stroke="#4ade80" stroke-width="1.4" stroke-opacity="0.55"/><circle cx="1373.5" cy="239.9" r="6" fill="#4ade80"/><line x1="1330" y1="180" x2="1286.5" y2="239.9" stroke="#4ade80" stroke-width="1.4" stroke-opacity="0.55"/><circle cx="1286.5" cy="239.9" r="6" fill="#4ade80"/><line x1="1330" y1="180" x2="1259.6" y2="157.1" stroke="#4ade80" stroke-width="1.4" stroke-opacity="0.55"/><circle cx="1259.6" cy="157.1" r="6" fill="#4ade80"/></g>
  <g font-family="'Segoe UI', system-ui, sans-serif">
    <text x="130" y="150" fill="#4ade80" font-size="22" font-weight="700" letter-spacing="6">24/7 INTELLIGENCE DOMAIN</text>
    <text x="126" y="238" fill="url(#title)" font-size="92" font-weight="800" letter-spacing="1">Smart Systems</text>
    <rect x="132" y="262" width="150" height="5" rx="2.5" fill="#4ade80"/>
  </g>
  <rect x="0" y="0" width="1600" height="360" fill="none" stroke="#4ade80" stroke-opacity="0.18" stroke-width="2"/>
</svg>
