<svg xmlns="http://www.w3.org/2000/svg" viewBox="0 0 1600 360" width="1600" height="360" role="img" aria-label="Space domain banner">
  <defs>
    <linearGradient id="bg" x1="0" y1="0" x2="1" y2="1">
      <stop offset="0" stop-color="#060b18"/>
      <stop offset="0.55" stop-color="#0a1428"/>
      <stop offset="1" stop-color="#0c1a33"/>
    </linearGradient>
    <radialGradient id="glowA" cx="0.82" cy="0.5" r="0.5">
      <stop offset="0" stop-color="#818cf8" stop-opacity="0.35"/>
      <stop offset="1" stop-color="#818cf8" stop-opacity="0"/>
    </radialGradient>
    <radialGradient id="glowB" cx="0.1" cy="0.9" r="0.6">
      <stop offset="0" stop-color="#22d3ee" stop-opacity="0.22"/>
      <stop offset="1" stop-color="#22d3ee" stop-opacity="0"/>
    </radialGradient>
    <linearGradient id="title" x1="0" y1="0" x2="1" y2="0">
      <stop offset="0" stop-color="#ffffff"/>
      <stop offset="1" stop-color="#818cf8"/>
    </linearGradient>
  </defs>
  <rect width="1600" height="360" fill="url(#bg)"/>
  <rect width="1600" height="360" fill="url(#glowA)"/>
  <rect width="1600" height="360" fill="url(#glowB)"/>
  <g><line x1="734.8" y1="220.6" x2="625.7" y2="240.1" stroke="#818cf8" stroke-width="0.5" stroke-opacity="0.10"/><line x1="734.8" y1="220.6" x2="746.7" y2="292.0" stroke="#818cf8" stroke-width="0.5" stroke-opacity="0.10"/><line x1="734.8" y1="220.6" x2="776.9" y2="275.9" stroke="#818cf8" stroke-width="0.5" stroke-opacity="0.10"/><line x1="734.8" y1="220.6" x2="634.5" y2="214.1" stroke="#818cf8" stroke-width="0.5" stroke-opacity="0.10"/><line x1="226.3" y1="4.3" x2="174.3" y2="24.1" stroke="#818cf8" stroke-width="0.5" stroke-opacity="0.10"/><line x1="62.3" y1="244.4" x2="112.6" y2="275.0" stroke="#818cf8" stroke-width="0.5" stroke-opacity="0.10"/><line x1="62.3" y1="244.4" x2="92.0" y2="133.3" stroke="#818cf8" stroke-width="0.5" stroke-opacity="0.10"/><line x1="62.3" y1="244.4" x2="181.4" y2="231.9" stroke="#818cf8" stroke-width="0.5" stroke-opacity="0.10"/><line x1="1561.8" y1="296.3" x2="1491.8" y2="348.8" stroke="#818cf8" stroke-width="0.5" stroke-opacity="0.10"/><line x1="1561.8" y1="296.3" x2="1461.7" y2="344.4" stroke="#818cf8" stroke-width="0.5" stroke-opacity="0.10"/><line x1="1197.0" y1="290.1" x2="1254.6" y2="200.6" stroke="#818cf8" stroke-width="0.5" stroke-opacity="0.10"/><line x1="1197.0" y1="290.1" x2="1198.2" y2="210.9" stroke="#818cf8" stroke-width="0.5" stroke-opacity="0.10"/><line x1="1020.4" y1="205.8" x2="955.0" y2="264.5" stroke="#818cf8" stroke-width="0.5" stroke-opacity="0.10"/><line x1="1020.4" y1="205.8" x2="1014.5" y2="267.8" stroke="#818cf8" stroke-width="0.5" stroke-opacity="0.10"/><line x1="1020.4" y1="205.8" x2="1090.2" y2="162.7" stroke="#818cf8" stroke-width="0.5" stroke-opacity="0.10"/><line x1="1020.4" y1="205.8" x2="1023.7" y2="261.8" stroke="#818cf8" stroke-width="0.5" stroke-opacity="0.10"/><line x1="347.7" y1="107.9" x2="356.4" y2="90.6" stroke="#818cf8" stroke-width="0.5" stroke-opacity="0.10"/><line x1="347.7" y1="107.9" x2="319.1" y2="174.9" stroke="#818cf8" stroke-width="0.5" stroke-opacity="0.10"/><line x1="625.7" y1="240.1" x2="634.5" y2="214.1" stroke="#818cf8" stroke-width="0.5" stroke-opacity="0.10"/><line x1="1406.5" y1="129.9" x2="1327.3" y2="172.2" stroke="#818cf8" stroke-width="0.5" stroke-opacity="0.10"/><line x1="1406.5" y1="129.9" x2="1488.6" y2="167.5" stroke="#818cf8" stroke-width="0.5" stroke-opacity="0.10"/><line x1="1406.5" y1="129.9" x2="1391.0" y2="110.2" stroke="#818cf8" stroke-width="0.5" stroke-opacity="0.10"/><line x1="955.0" y1="264.5" x2="1014.5" y2="267.8" stroke="#818cf8" stroke-width="0.5" stroke-opacity="0.10"/><line x1="955.0" y1="264.5" x2="880.7" y2="234.3" stroke="#818cf8" stroke-width="0.5" stroke-opacity="0.10"/><line x1="955.0" y1="264.5" x2="1023.7" y2="261.8" stroke="#818cf8" stroke-width="0.5" stroke-opacity="0.10"/><line x1="955.0" y1="264.5" x2="901.0" y2="288.0" stroke="#818cf8" stroke-width="0.5" stroke-opacity="0.10"/><line x1="955.0" y1="264.5" x2="915.1" y2="271.6" stroke="#818cf8" stroke-width="0.5" stroke-opacity="0.10"/><line x1="955.0" y1="264.5" x2="1032.4" y2="333.2" stroke="#818cf8" stroke-width="0.5" stroke-opacity="0.10"/><line x1="1014.5" y1="267.8" x2="1023.7" y2="261.8" stroke="#818cf8" stroke-width="0.5" stroke-opacity="0.10"/><line x1="1014.5" y1="267.8" x2="901.0" y2="288.0" stroke="#818cf8" stroke-width="0.5" stroke-opacity="0.10"/><line x1="1014.5" y1="267.8" x2="915.1" y2="271.6" stroke="#818cf8" stroke-width="0.5" stroke-opacity="0.10"/><line x1="1014.5" y1="267.8" x2="1032.4" y2="333.2" stroke="#818cf8" stroke-width="0.5" stroke-opacity="0.10"/><line x1="1254.6" y1="200.6" x2="1327.3" y2="172.2" stroke="#818cf8" stroke-width="0.5" stroke-opacity="0.10"/><line x1="1254.6" y1="200.6" x2="1198.2" y2="210.9" stroke="#818cf8" stroke-width="0.5" stroke-opacity="0.10"/><line x1="1254.6" y1="200.6" x2="1244.8" y2="166.3" stroke="#818cf8" stroke-width="0.5" stroke-opacity="0.10"/><line x1="1327.3" y1="172.2" x2="1244.8" y2="166.3" stroke="#818cf8" stroke-width="0.5" stroke-opacity="0.10"/><line x1="1327.3" y1="172.2" x2="1391.0" y2="110.2" stroke="#818cf8" stroke-width="0.5" stroke-opacity="0.10"/><line x1="1327.3" y1="172.2" x2="1295.8" y2="75.1" stroke="#818cf8" stroke-width="0.5" stroke-opacity="0.10"/><line x1="55.7" y1="27.1" x2="174.3" y2="24.1" stroke="#818cf8" stroke-width="0.5" stroke-opacity="0.10"/><line x1="55.7" y1="27.1" x2="40.7" y2="68.7" stroke="#818cf8" stroke-width="0.5" stroke-opacity="0.10"/><line x1="55.7" y1="27.1" x2="92.0" y2="133.3" stroke="#818cf8" stroke-width="0.5" stroke-opacity="0.10"/><line x1="880.7" y1="234.3" x2="776.9" y2="275.9" stroke="#818cf8" stroke-width="0.5" stroke-opacity="0.10"/><line x1="880.7" y1="234.3" x2="901.0" y2="288.0" stroke="#818cf8" stroke-width="0.5" stroke-opacity="0.10"/><line x1="880.7" y1="234.3" x2="915.1" y2="271.6" stroke="#818cf8" stroke-width="0.5" stroke-opacity="0.10"/><line x1="1090.2" y1="162.7" x2="1023.7" y2="261.8" stroke="#818cf8" stroke-width="0.5" stroke-opacity="0.10"/><line x1="1090.2" y1="162.7" x2="1198.2" y2="210.9" stroke="#818cf8" stroke-width="0.5" stroke-opacity="0.10"/><line x1="1090.2" y1="162.7" x2="1053.5" y2="52.0" stroke="#818cf8" stroke-width="0.5" stroke-opacity="0.10"/><line x1="356.4" y1="90.6" x2="319.1" y2="174.9" stroke="#818cf8" stroke-width="0.5" stroke-opacity="0.10"/><line x1="505.9" y1="72.1" x2="499.6" y2="92.3" stroke="#818cf8" stroke-width="0.5" stroke-opacity="0.10"/><line x1="847.4" y1="29.6" x2="856.1" y2="42.8" stroke="#818cf8" stroke-width="0.5" stroke-opacity="0.10"/><line x1="182.4" y1="134.0" x2="174.3" y2="24.1" stroke="#818cf8" stroke-width="0.5" stroke-opacity="0.10"/><line x1="182.4" y1="134.0" x2="178.8" y2="151.3" stroke="#818cf8" stroke-width="0.5" stroke-opacity="0.10"/><line x1="182.4" y1="134.0" x2="92.0" y2="133.3" stroke="#818cf8" stroke-width="0.5" stroke-opacity="0.10"/><line x1="182.4" y1="134.0" x2="181.4" y2="231.9" stroke="#818cf8" stroke-width="0.5" stroke-opacity="0.10"/><line x1="1023.7" y1="261.8" x2="915.1" y2="271.6" stroke="#818cf8" stroke-width="0.5" stroke-opacity="0.10"/><line x1="1023.7" y1="261.8" x2="1032.4" y2="333.2" stroke="#818cf8" stroke-width="0.5" stroke-opacity="0.10"/><line x1="746.7" y1="292.0" x2="776.9" y2="275.9" stroke="#818cf8" stroke-width="0.5" stroke-opacity="0.10"/><line x1="1198.2" y1="210.9" x2="1244.8" y2="166.3" stroke="#818cf8" stroke-width="0.5" stroke-opacity="0.10"/><line x1="1488.6" y1="167.5" x2="1391.0" y2="110.2" stroke="#818cf8" stroke-width="0.5" stroke-opacity="0.10"/><line x1="1488.6" y1="167.5" x2="1584.5" y2="164.3" stroke="#818cf8" stroke-width="0.5" stroke-opacity="0.10"/><line x1="1491.8" y1="348.8" x2="1461.7" y2="344.4" stroke="#818cf8" stroke-width="0.5" stroke-opacity="0.10"/><line x1="1491.8" y1="348.8" x2="1372.7" y2="340.5" stroke="#818cf8" stroke-width="0.5" stroke-opacity="0.10"/><line x1="901.0" y1="288.0" x2="915.1" y2="271.6" stroke="#818cf8" stroke-width="0.5" stroke-opacity="0.10"/><line x1="112.6" y1="275.0" x2="181.4" y2="231.9" stroke="#818cf8" stroke-width="0.5" stroke-opacity="0.10"/><line x1="1244.8" y1="166.3" x2="1295.8" y2="75.1" stroke="#818cf8" stroke-width="0.5" stroke-opacity="0.10"/><line x1="1391.0" y1="110.2" x2="1295.8" y2="75.1" stroke="#818cf8" stroke-width="0.5" stroke-opacity="0.10"/><line x1="1461.7" y1="344.4" x2="1372.7" y2="340.5" stroke="#818cf8" stroke-width="0.5" stroke-opacity="0.10"/><line x1="178.8" y1="151.3" x2="92.0" y2="133.3" stroke="#818cf8" stroke-width="0.5" stroke-opacity="0.10"/><line x1="178.8" y1="151.3" x2="181.4" y2="231.9" stroke="#818cf8" stroke-width="0.5" stroke-opacity="0.10"/><line x1="40.7" y1="68.7" x2="92.0" y2="133.3" stroke="#818cf8" stroke-width="0.5" stroke-opacity="0.10"/><circle cx="734.8" cy="220.6" r="2.0" fill="#818cf8" fill-opacity="0.33"/><circle cx="226.3" cy="4.3" r="1.4" fill="#818cf8" fill-opacity="0.31"/><circle cx="62.3" cy="244.4" r="1.9" fill="#818cf8" fill-opacity="0.19"/><circle cx="1561.8" cy="296.3" r="0.8" fill="#818cf8" fill-opacity="0.62"/><circle cx="1197.0" cy="290.1" r="2.1" fill="#818cf8" fill-opacity="0.50"/><circle cx="1020.4" cy="205.8" r="0.7" fill="#818cf8" fill-opacity="0.38"/><circle cx="347.7" cy="107.9" r="0.6" fill="#818cf8" fill-opacity="0.63"/><circle cx="625.7" cy="240.1" r="2.0" fill="#818cf8" fill-opacity="0.46"/><circle cx="1406.5" cy="129.9" r="2.1" fill="#818cf8" fill-opacity="0.34"/><circle cx="955.0" cy="264.5" r="2.3" fill="#818cf8" fill-opacity="0.27"/><circle cx="1014.5" cy="267.8" r="1.0" fill="#818cf8" fill-opacity="0.43"/><circle cx="1254.6" cy="200.6" r="0.8" fill="#818cf8" fill-opacity="0.17"/><circle cx="1327.3" cy="172.2" r="1.9" fill="#818cf8" fill-opacity="0.56"/><circle cx="55.7" cy="27.1" r="1.3" fill="#818cf8" fill-opacity="0.58"/><circle cx="880.7" cy="234.3" r="2.0" fill="#818cf8" fill-opacity="0.52"/><circle cx="1090.2" cy="162.7" r="1.0" fill="#818cf8" fill-opacity="0.49"/><circle cx="356.4" cy="90.6" r="1.8" fill="#818cf8" fill-opacity="0.16"/><circle cx="505.9" cy="72.1" r="1.4" fill="#818cf8" fill-opacity="0.62"/><circle cx="847.4" cy="29.6" r="1.0" fill="#818cf8" fill-opacity="0.59"/><circle cx="182.4" cy="134.0" r="1.2" fill="#818cf8" fill-opacity="0.51"/><circle cx="1023.7" cy="261.8" r="1.8" fill="#818cf8" fill-opacity="0.28"/><circle cx="746.7" cy="292.0" r="0.7" fill="#818cf8" fill-opacity="0.23"/><circle cx="1198.2" cy="210.9" r="2.0" fill="#818cf8" fill-opacity="0.31"/><circle cx="1488.6" cy="167.5" r="2.1" fill="#818cf8" fill-opacity="0.50"/><circle cx="1491.8" cy="348.8" r="1.4" fill="#818cf8" fill-opacity="0.48"/><circle cx="776.9" cy="275.9" r="1.9" fill="#818cf8" fill-opacity="0.51"/><circle cx="499.6" cy="92.3" r="1.2" fill="#818cf8" fill-opacity="0.17"/><circle cx="174.3" cy="24.1" r="1.0" fill="#818cf8" fill-opacity="0.61"/><circle cx="856.1" cy="42.8" r="1.0" fill="#818cf8" fill-opacity="0.48"/><circle cx="1053.5" cy="52.0" r="0.8" fill="#818cf8" fill-opacity="0.65"/><circle cx="901.0" cy="288.0" r="1.0" fill="#818cf8" fill-opacity="0.20"/><circle cx="112.6" cy="275.0" r="1.7" fill="#818cf8" fill-opacity="0.23"/><circle cx="1244.8" cy="166.3" r="1.7" fill="#818cf8" fill-opacity="0.47"/><circle cx="1391.0" cy="110.2" r="1.2" fill="#818cf8" fill-opacity="0.16"/><circle cx="634.5" cy="214.1" r="2.4" fill="#818cf8" fill-opacity="0.32"/><circle cx="1584.5" cy="164.3" r="1.8" fill="#818cf8" fill-opacity="0.22"/><circle cx="319.1" cy="174.9" r="1.3" fill="#818cf8" fill-opacity="0.40"/><circle cx="1461.7" cy="344.4" r="1.0" fill="#818cf8" fill-opacity="0.20"/><circle cx="915.1" cy="271.6" r="1.0" fill="#818cf8" fill-opacity="0.58"/><circle cx="178.8" cy="151.3" r="1.6" fill="#818cf8" fill-opacity="0.23"/><circle cx="1372.7" cy="340.5" r="1.0" fill="#818cf8" fill-opacity="0.24"/><circle cx="1295.8" cy="75.1" r="1.5" fill="#818cf8" fill-opacity="0.35"/><circle cx="40.7" cy="68.7" r="1.6" fill="#818cf8" fill-opacity="0.43"/><circle cx="92.0" cy="133.3" r="1.6" fill="#818cf8" fill-opacity="0.44"/><circle cx="1032.4" cy="333.2" r="1.7" fill="#818cf8" fill-opacity="0.25"/><circle cx="181.4" cy="231.9" r="1.7" fill="#818cf8" fill-opacity="0.36"/></g>
  <g opacity="0.95"><circle cx="1330" cy="180" r="26" fill="#818cf8" fill-opacity="0.9"/><ellipse cx="1330" cy="180" rx="82" ry="30" fill="none" stroke="#818cf8" stroke-width="2" stroke-opacity="0.6" transform="rotate(-20 1330 180)"/><ellipse cx="1330" cy="180" rx="82" ry="30" fill="none" stroke="#818cf8" stroke-width="1.4" stroke-opacity="0.4" transform="rotate(35 1330 180)"/><circle cx="1407" cy="158" r="6" fill="#818cf8"/></g>
  <g font-family="'Segoe UI', system-ui, sans-serif">
    <text x="130" y="150" fill="#818cf8" font-size="22" font-weight="700" letter-spacing="6">24/7 INTELLIGENCE DOMAIN</text>
    <text x="126" y="238" fill="url(#title)" font-size="92" font-weight="800" letter-spacing="1">Space</text>
    <rect x="132" y="262" width="150" height="5" rx="2.5" fill="#818cf8"/>
  </g>
  <rect x="0" y="0" width="1600" height="360" fill="none" stroke="#818cf8" stroke-opacity="0.18" stroke-width="2"/>
</svg>
