<svg xmlns="http://www.w3.org/2000/svg" viewBox="0 0 1600 360" width="1600" height="360" role="img" aria-label="Energy domain banner">
  <defs>
    <linearGradient id="bg" x1="0" y1="0" x2="1" y2="1">
      <stop offset="0" stop-color="#060b18"/>
      <stop offset="0.55" stop-color="#0a1428"/>
      <stop offset="1" stop-color="#0c1a33"/>
    </linearGradient>
    <radialGradient id="glowA" cx="0.82" cy="0.5" r="0.5">
      <stop offset="0" stop-color="#f59e0b" stop-opacity="0.35"/>
      <stop offset="1" stop-color="#f59e0b" stop-opacity="0"/>
    </radialGradient>
    <radialGradient id="glowB" cx="0.1" cy="0.9" r="0.6">
      <stop offset="0" stop-color="#f43f5e" stop-opacity="0.22"/>
      <stop offset="1" stop-color="#f43f5e" stop-opacity="0"/>
    </radialGradient>
    <linearGradient id="title" x1="0" y1="0" x2="1" y2="0">
      <stop offset="0" stop-color="#ffffff"/>
      <stop offset="1" stop-color="#f59e0b"/>
    </linearGradient>
  </defs>
  <rect width="1600" height="360" fill="url(#bg)"/>
  <rect width="1600" height="360" fill="url(#glowA)"/>
  <rect width="1600" height="360" fill="url(#glowB)"/>
  <g><line x1="996.2" y1="276.3" x2="1072.3" y2="327.3" stroke="#f59e0b" stroke-width="0.5" stroke-opacity="0.10"/><line x1="996.2" y1="276.3" x2="1085.5" y2="354.8" stroke="#f59e0b" stroke-width="0.5" stroke-opacity="0.10"/><line x1="1212.6" y1="219.7" x2="1186.4" y2="240.1" stroke="#f59e0b" stroke-width="0.5" stroke-opacity="0.10"/><line x1="1212.6" y1="219.7" x2="1200.2" y2="281.2" stroke="#f59e0b" stroke-width="0.5" stroke-opacity="0.10"/><line x1="1212.6" y1="219.7" x2="1283.7" y2="157.9" stroke="#f59e0b" stroke-width="0.5" stroke-opacity="0.10"/><line x1="1212.6" y1="219.7" x2="1285.5" y2="128.8" stroke="#f59e0b" stroke-width="0.5" stroke-opacity="0.10"/><line x1="1212.6" y1="219.7" x2="1242.1" y2="139.4" stroke="#f59e0b" stroke-width="0.5" stroke-opacity="0.10"/><line x1="1212.6" y1="219.7" x2="1168.0" y2="192.6" stroke="#f59e0b" stroke-width="0.5" stroke-opacity="0.10"/><line x1="380.7" y1="154.9" x2="468.4" y2="97.2" stroke="#f59e0b" stroke-width="0.5" stroke-opacity="0.10"/><line x1="380.7" y1="154.9" x2="383.8" y2="165.1" stroke="#f59e0b" stroke-width="0.5" stroke-opacity="0.10"/><line x1="380.7" y1="154.9" x2="376.5" y2="265.6" stroke="#f59e0b" stroke-width="0.5" stroke-opacity="0.10"/><line x1="1009.1" y1="57.4" x2="922.4" y2="117.3" stroke="#f59e0b" stroke-width="0.5" stroke-opacity="0.10"/><line x1="1009.1" y1="57.4" x2="966.7" y2="114.3" stroke="#f59e0b" stroke-width="0.5" stroke-opacity="0.10"/><line x1="1009.1" y1="57.4" x2="990.9" y2="107.6" stroke="#f59e0b" stroke-width="0.5" stroke-opacity="0.10"/><line x1="1520.5" y1="277.8" x2="1491.9" y2="292.7" stroke="#f59e0b" stroke-width="0.5" stroke-opacity="0.10"/><line x1="1520.5" y1="277.8" x2="1421.7" y2="305.0" stroke="#f59e0b" stroke-width="0.5" stroke-opacity="0.10"/><line x1="1520.5" y1="277.8" x2="1452.4" y2="229.1" stroke="#f59e0b" stroke-width="0.5" stroke-opacity="0.10"/><line x1="922.4" y1="117.3" x2="966.7" y2="114.3" stroke="#f59e0b" stroke-width="0.5" stroke-opacity="0.10"/><line x1="922.4" y1="117.3" x2="990.9" y2="107.6" stroke="#f59e0b" stroke-width="0.5" stroke-opacity="0.10"/><line x1="922.4" y1="117.3" x2="883.4" y2="177.6" stroke="#f59e0b" stroke-width="0.5" stroke-opacity="0.10"/><line x1="922.4" y1="117.3" x2="807.4" y2="142.3" stroke="#f59e0b" stroke-width="0.5" stroke-opacity="0.10"/><line x1="1391.2" y1="200.5" x2="1283.7" y2="157.9" stroke="#f59e0b" stroke-width="0.5" stroke-opacity="0.10"/><line x1="1391.2" y1="200.5" x2="1421.7" y2="305.0" stroke="#f59e0b" stroke-width="0.5" stroke-opacity="0.10"/><line x1="1391.2" y1="200.5" x2="1452.4" y2="229.1" stroke="#f59e0b" stroke-width="0.5" stroke-opacity="0.10"/><line x1="1391.2" y1="200.5" x2="1327.2" y2="109.1" stroke="#f59e0b" stroke-width="0.5" stroke-opacity="0.10"/><line x1="796.1" y1="80.8" x2="701.9" y2="20.1" stroke="#f59e0b" stroke-width="0.5" stroke-opacity="0.10"/><line x1="796.1" y1="80.8" x2="698.1" y2="105.8" stroke="#f59e0b" stroke-width="0.5" stroke-opacity="0.10"/><line x1="796.1" y1="80.8" x2="807.4" y2="142.3" stroke="#f59e0b" stroke-width="0.5" stroke-opacity="0.10"/><line x1="796.1" y1="80.8" x2="721.5" y2="56.3" stroke="#f59e0b" stroke-width="0.5" stroke-opacity="0.10"/><line x1="1186.4" y1="240.1" x2="1200.2" y2="281.2" stroke="#f59e0b" stroke-width="0.5" stroke-opacity="0.10"/><line x1="1186.4" y1="240.1" x2="1242.1" y2="139.4" stroke="#f59e0b" stroke-width="0.5" stroke-opacity="0.10"/><line x1="1186.4" y1="240.1" x2="1168.0" y2="192.6" stroke="#f59e0b" stroke-width="0.5" stroke-opacity="0.10"/><line x1="468.4" y1="97.2" x2="383.8" y2="165.1" stroke="#f59e0b" stroke-width="0.5" stroke-opacity="0.10"/><line x1="468.4" y1="97.2" x2="513.6" y2="189.9" stroke="#f59e0b" stroke-width="0.5" stroke-opacity="0.10"/><line x1="495.9" y1="286.4" x2="513.6" y2="189.9" stroke="#f59e0b" stroke-width="0.5" stroke-opacity="0.10"/><line x1="495.9" y1="286.4" x2="610.1" y2="282.5" stroke="#f59e0b" stroke-width="0.5" stroke-opacity="0.10"/><line x1="1200.2" y1="281.2" x2="1168.0" y2="192.6" stroke="#f59e0b" stroke-width="0.5" stroke-opacity="0.10"/><line x1="383.8" y1="165.1" x2="376.5" y2="265.6" stroke="#f59e0b" stroke-width="0.5" stroke-opacity="0.10"/><line x1="966.7" y1="114.3" x2="990.9" y2="107.6" stroke="#f59e0b" stroke-width="0.5" stroke-opacity="0.10"/><line x1="966.7" y1="114.3" x2="883.4" y2="177.6" stroke="#f59e0b" stroke-width="0.5" stroke-opacity="0.10"/><line x1="868.8" y1="288.5" x2="883.4" y2="177.6" stroke="#f59e0b" stroke-width="0.5" stroke-opacity="0.10"/><line x1="1491.9" y1="292.7" x2="1421.7" y2="305.0" stroke="#f59e0b" stroke-width="0.5" stroke-opacity="0.10"/><line x1="1491.9" y1="292.7" x2="1452.4" y2="229.1" stroke="#f59e0b" stroke-width="0.5" stroke-opacity="0.10"/><line x1="1294.5" y1="98.1" x2="1315.0" y2="40.5" stroke="#f59e0b" stroke-width="0.5" stroke-opacity="0.10"/><line x1="1294.5" y1="98.1" x2="1283.7" y2="157.9" stroke="#f59e0b" stroke-width="0.5" stroke-opacity="0.10"/><line x1="1294.5" y1="98.1" x2="1285.5" y2="128.8" stroke="#f59e0b" stroke-width="0.5" stroke-opacity="0.10"/><line x1="1294.5" y1="98.1" x2="1327.2" y2="109.1" stroke="#f59e0b" stroke-width="0.5" stroke-opacity="0.10"/><line x1="1294.5" y1="98.1" x2="1242.1" y2="139.4" stroke="#f59e0b" stroke-width="0.5" stroke-opacity="0.10"/><line x1="1294.5" y1="98.1" x2="1317.5" y2="44.5" stroke="#f59e0b" stroke-width="0.5" stroke-opacity="0.10"/><line x1="1315.0" y1="40.5" x2="1285.5" y2="128.8" stroke="#f59e0b" stroke-width="0.5" stroke-opacity="0.10"/><line x1="1315.0" y1="40.5" x2="1327.2" y2="109.1" stroke="#f59e0b" stroke-width="0.5" stroke-opacity="0.10"/><line x1="1315.0" y1="40.5" x2="1317.5" y2="44.5" stroke="#f59e0b" stroke-width="0.5" stroke-opacity="0.10"/><line x1="1315.0" y1="40.5" x2="1399.5" y2="38.5" stroke="#f59e0b" stroke-width="0.5" stroke-opacity="0.10"/><line x1="513.6" y1="189.9" x2="622.8" y2="141.7" stroke="#f59e0b" stroke-width="0.5" stroke-opacity="0.10"/><line x1="178.8" y1="133.2" x2="97.1" y2="84.5" stroke="#f59e0b" stroke-width="0.5" stroke-opacity="0.10"/><line x1="622.8" y1="141.7" x2="698.1" y2="105.8" stroke="#f59e0b" stroke-width="0.5" stroke-opacity="0.10"/><line x1="622.8" y1="141.7" x2="644.0" y2="84.1" stroke="#f59e0b" stroke-width="0.5" stroke-opacity="0.10"/><line x1="610.1" y1="282.5" x2="630.7" y2="296.6" stroke="#f59e0b" stroke-width="0.5" stroke-opacity="0.10"/><line x1="701.9" y1="20.1" x2="698.1" y2="105.8" stroke="#f59e0b" stroke-width="0.5" stroke-opacity="0.10"/><line x1="701.9" y1="20.1" x2="721.5" y2="56.3" stroke="#f59e0b" stroke-width="0.5" stroke-opacity="0.10"/><line x1="701.9" y1="20.1" x2="644.0" y2="84.1" stroke="#f59e0b" stroke-width="0.5" stroke-opacity="0.10"/><line x1="883.4" y1="177.6" x2="807.4" y2="142.3" stroke="#f59e0b" stroke-width="0.5" stroke-opacity="0.10"/><line x1="1283.7" y1="157.9" x2="1285.5" y2="128.8" stroke="#f59e0b" stroke-width="0.5" stroke-opacity="0.10"/><line x1="1283.7" y1="157.9" x2="1327.2" y2="109.1" stroke="#f59e0b" stroke-width="0.5" stroke-opacity="0.10"/><line x1="1283.7" y1="157.9" x2="1242.1" y2="139.4" stroke="#f59e0b" stroke-width="0.5" stroke-opacity="0.10"/><line x1="1283.7" y1="157.9" x2="1317.5" y2="44.5" stroke="#f59e0b" stroke-width="0.5" stroke-opacity="0.10"/><line x1="698.1" y1="105.8" x2="807.4" y2="142.3" stroke="#f59e0b" stroke-width="0.5" stroke-opacity="0.10"/><line x1="698.1" y1="105.8" x2="721.5" y2="56.3" stroke="#f59e0b" stroke-width="0.5" stroke-opacity="0.10"/><line x1="698.1" y1="105.8" x2="644.0" y2="84.1" stroke="#f59e0b" stroke-width="0.5" stroke-opacity="0.10"/><line x1="1285.5" y1="128.8" x2="1327.2" y2="109.1" stroke="#f59e0b" stroke-width="0.5" stroke-opacity="0.10"/><line x1="1285.5" y1="128.8" x2="1242.1" y2="139.4" stroke="#f59e0b" stroke-width="0.5" stroke-opacity="0.10"/><line x1="1285.5" y1="128.8" x2="1317.5" y2="44.5" stroke="#f59e0b" stroke-width="0.5" stroke-opacity="0.10"/><line x1="1421.7" y1="305.0" x2="1452.4" y2="229.1" stroke="#f59e0b" stroke-width="0.5" stroke-opacity="0.10"/><line x1="1072.3" y1="327.3" x2="1085.5" y2="354.8" stroke="#f59e0b" stroke-width="0.5" stroke-opacity="0.10"/><line x1="1327.2" y1="109.1" x2="1242.1" y2="139.4" stroke="#f59e0b" stroke-width="0.5" stroke-opacity="0.10"/><line x1="1327.2" y1="109.1" x2="1317.5" y2="44.5" stroke="#f59e0b" stroke-width="0.5" stroke-opacity="0.10"/><line x1="1327.2" y1="109.1" x2="1399.5" y2="38.5" stroke="#f59e0b" stroke-width="0.5" stroke-opacity="0.10"/><line x1="721.5" y1="56.3" x2="644.0" y2="84.1" stroke="#f59e0b" stroke-width="0.5" stroke-opacity="0.10"/><line x1="1242.1" y1="139.4" x2="1168.0" y2="192.6" stroke="#f59e0b" stroke-width="0.5" stroke-opacity="0.10"/><line x1="1317.5" y1="44.5" x2="1399.5" y2="38.5" stroke="#f59e0b" stroke-width="0.5" stroke-opacity="0.10"/><circle cx="996.2" cy="276.3" r="2.3" fill="#f59e0b" fill-opacity="0.62"/><circle cx="1212.6" cy="219.7" r="2.0" fill="#f59e0b" fill-opacity="0.48"/><circle cx="380.7" cy="154.9" r="1.6" fill="#f59e0b" fill-opacity="0.52"/><circle cx="1009.1" cy="57.4" r="0.7" fill="#f59e0b" fill-opacity="0.21"/><circle cx="1520.5" cy="277.8" r="2.2" fill="#f59e0b" fill-opacity="0.27"/><circle cx="922.4" cy="117.3" r="2.1" fill="#f59e0b" fill-opacity="0.47"/><circle cx="1391.2" cy="200.5" r="2.0" fill="#f59e0b" fill-opacity="0.54"/><circle cx="796.1" cy="80.8" r="0.8" fill="#f59e0b" fill-opacity="0.40"/><circle cx="1186.4" cy="240.1" r="1.8" fill="#f59e0b" fill-opacity="0.39"/><circle cx="468.4" cy="97.2" r="1.0" fill="#f59e0b" fill-opacity="0.60"/><circle cx="495.9" cy="286.4" r="1.2" fill="#f59e0b" fill-opacity="0.64"/><circle cx="1200.2" cy="281.2" r="2.0" fill="#f59e0b" fill-opacity="0.62"/><circle cx="383.8" cy="165.1" r="1.2" fill="#f59e0b" fill-opacity="0.20"/><circle cx="3.4" cy="322.6" r="1.6" fill="#f59e0b" fill-opacity="0.37"/><circle cx="966.7" cy="114.3" r="0.6" fill="#f59e0b" fill-opacity="0.34"/><circle cx="868.8" cy="288.5" r="1.1" fill="#f59e0b" fill-opacity="0.40"/><circle cx="1491.9" cy="292.7" r="2.1" fill="#f59e0b" fill-opacity="0.28"/><circle cx="1294.5" cy="98.1" r="2.3" fill="#f59e0b" fill-opacity="0.17"/><circle cx="1315.0" cy="40.5" r="2.0" fill="#f59e0b" fill-opacity="0.25"/><circle cx="513.6" cy="189.9" r="1.9" fill="#f59e0b" fill-opacity="0.61"/><circle cx="178.8" cy="133.2" r="1.4" fill="#f59e0b" fill-opacity="0.47"/><circle cx="622.8" cy="141.7" r="0.8" fill="#f59e0b" fill-opacity="0.19"/><circle cx="990.9" cy="107.6" r="2.1" fill="#f59e0b" fill-opacity="0.45"/><circle cx="610.1" cy="282.5" r="1.2" fill="#f59e0b" fill-opacity="0.37"/><circle cx="701.9" cy="20.1" r="1.5" fill="#f59e0b" fill-opacity="0.31"/><circle cx="883.4" cy="177.6" r="1.2" fill="#f59e0b" fill-opacity="0.37"/><circle cx="1283.7" cy="157.9" r="1.6" fill="#f59e0b" fill-opacity="0.40"/><circle cx="698.1" cy="105.8" r="1.4" fill="#f59e0b" fill-opacity="0.49"/><circle cx="807.4" cy="142.3" r="2.0" fill="#f59e0b" fill-opacity="0.41"/><circle cx="1285.5" cy="128.8" r="1.5" fill="#f59e0b" fill-opacity="0.22"/><circle cx="1421.7" cy="305.0" r="1.8" fill="#f59e0b" fill-opacity="0.34"/><circle cx="281.1" cy="354.0" r="1.7" fill="#f59e0b" fill-opacity="0.35"/><circle cx="630.7" cy="296.6" r="0.9" fill="#f59e0b" fill-opacity="0.37"/><circle cx="1452.4" cy="229.1" r="1.3" fill="#f59e0b" fill-opacity="0.34"/><circle cx="1072.3" cy="327.3" r="1.2" fill="#f59e0b" fill-opacity="0.20"/><circle cx="1327.2" cy="109.1" r="1.9" fill="#f59e0b" fill-opacity="0.31"/><circle cx="396.2" cy="0.6" r="1.0" fill="#f59e0b" fill-opacity="0.20"/><circle cx="721.5" cy="56.3" r="1.4" fill="#f59e0b" fill-opacity="0.23"/><circle cx="1242.1" cy="139.4" r="0.6" fill="#f59e0b" fill-opacity="0.54"/><circle cx="1168.0" cy="192.6" r="2.2" fill="#f59e0b" fill-opacity="0.64"/><circle cx="1317.5" cy="44.5" r="2.1" fill="#f59e0b" fill-opacity="0.20"/><circle cx="644.0" cy="84.1" r="2.4" fill="#f59e0b" fill-opacity="0.23"/><circle cx="376.5" cy="265.6" r="2.1" fill="#f59e0b" fill-opacity="0.40"/><circle cx="1399.5" cy="38.5" r="1.9" fill="#f59e0b" fill-opacity="0.37"/><circle cx="97.1" cy="84.5" r="1.3" fill="#f59e0b" fill-opacity="0.39"/><circle cx="1085.5" cy="354.8" r="1.2" fill="#f59e0b" fill-opacity="0.45"/></g>
  <g opacity="0.95"><path d="M1344 98 L1300 188 L1328 188 L1314 262 L1364 166 L1334 166 Z" fill="#f59e0b" fill-opacity="0.92" stroke="#f59e0b" stroke-width="2"/></g>
  <g font-family="'Segoe UI', system-ui, sans-serif">
    <text x="130" y="150" fill="#f59e0b" font-size="22" font-weight="700" letter-spacing="6">24/7 INTELLIGENCE DOMAIN</text>
    <text x="126" y="238" fill="url(#title)" font-size="92" font-weight="800" letter-spacing="1">Energy</text>
    <rect x="132" y="262" width="150" height="5" rx="2.5" fill="#f59e0b"/>
  </g>
  <rect x="0" y="0" width="1600" height="360" fill="none" stroke="#f59e0b" stroke-opacity="0.18" stroke-width="2"/>
</svg>
