<svg xmlns="http://www.w3.org/2000/svg" viewBox="0 0 1600 360" width="1600" height="360" role="img" aria-label="Future Tech domain banner">
  <defs>
    <linearGradient id="bg" x1="0" y1="0" x2="1" y2="1">
      <stop offset="0" stop-color="#060b18"/>
      <stop offset="0.55" stop-color="#0a1428"/>
      <stop offset="1" stop-color="#0c1a33"/>
    </linearGradient>
    <radialGradient id="glowA" cx="0.82" cy="0.5" r="0.5">
      <stop offset="0" stop-color="#818cf8" stop-opacity="0.35"/>
      <stop offset="1" stop-color="#818cf8" stop-opacity="0"/>
    </radialGradient>
    <radialGradient id="glowB" cx="0.1" cy="0.9" r="0.6">
      <stop offset="0" stop-color="#22d3ee" stop-opacity="0.22"/>
      <stop offset="1" stop-color="#22d3ee" stop-opacity="0"/>
    </radialGradient>
    <linearGradient id="title" x1="0" y1="0" x2="1" y2="0">
      <stop offset="0" stop-color="#ffffff"/>
      <stop offset="1" stop-color="#818cf8"/>
    </linearGradient>
  </defs>
  <rect width="1600" height="360" fill="url(#bg)"/>
  <rect width="1600" height="360" fill="url(#glowA)"/>
  <rect width="1600" height="360" fill="url(#glowB)"/>
  <g><line x1="1094.7" y1="18.6" x2="1082.1" y2="3.6" stroke="#818cf8" stroke-width="0.5" stroke-opacity="0.10"/><line x1="1094.7" y1="18.6" x2="1047.5" y2="111.7" stroke="#818cf8" stroke-width="0.5" stroke-opacity="0.10"/><line x1="1094.7" y1="18.6" x2="1188.3" y2="81.2" stroke="#818cf8" stroke-width="0.5" stroke-opacity="0.10"/><line x1="977.1" y1="167.9" x2="911.9" y2="188.0" stroke="#818cf8" stroke-width="0.5" stroke-opacity="0.10"/><line x1="977.1" y1="167.9" x2="1047.5" y2="111.7" stroke="#818cf8" stroke-width="0.5" stroke-opacity="0.10"/><line x1="977.1" y1="167.9" x2="1039.0" y2="219.6" stroke="#818cf8" stroke-width="0.5" stroke-opacity="0.10"/><line x1="977.1" y1="167.9" x2="1047.9" y2="202.2" stroke="#818cf8" stroke-width="0.5" stroke-opacity="0.10"/><line x1="977.1" y1="167.9" x2="940.7" y2="157.8" stroke="#818cf8" stroke-width="0.5" stroke-opacity="0.10"/><line x1="977.1" y1="167.9" x2="908.1" y2="85.3" stroke="#818cf8" stroke-width="0.5" stroke-opacity="0.10"/><line x1="255.7" y1="308.1" x2="307.0" y2="274.8" stroke="#818cf8" stroke-width="0.5" stroke-opacity="0.10"/><line x1="255.7" y1="308.1" x2="212.9" y2="279.3" stroke="#818cf8" stroke-width="0.5" stroke-opacity="0.10"/><line x1="1176.2" y1="188.3" x2="1216.0" y2="268.3" stroke="#818cf8" stroke-width="0.5" stroke-opacity="0.10"/><line x1="1176.2" y1="188.3" x2="1179.7" y2="194.0" stroke="#818cf8" stroke-width="0.5" stroke-opacity="0.10"/><line x1="1176.2" y1="188.3" x2="1188.3" y2="81.2" stroke="#818cf8" stroke-width="0.5" stroke-opacity="0.10"/><line x1="1176.2" y1="188.3" x2="1141.7" y2="238.5" stroke="#818cf8" stroke-width="0.5" stroke-opacity="0.10"/><line x1="1208.0" y1="344.7" x2="1216.0" y2="268.3" stroke="#818cf8" stroke-width="0.5" stroke-opacity="0.10"/><line x1="1208.0" y1="344.7" x2="1198.0" y2="307.9" stroke="#818cf8" stroke-width="0.5" stroke-opacity="0.10"/><line x1="1208.0" y1="344.7" x2="1304.8" y2="276.7" stroke="#818cf8" stroke-width="0.5" stroke-opacity="0.10"/><line x1="1208.0" y1="344.7" x2="1276.3" y2="350.8" stroke="#818cf8" stroke-width="0.5" stroke-opacity="0.10"/><line x1="1216.0" y1="268.3" x2="1198.0" y2="307.9" stroke="#818cf8" stroke-width="0.5" stroke-opacity="0.10"/><line x1="1216.0" y1="268.3" x2="1179.7" y2="194.0" stroke="#818cf8" stroke-width="0.5" stroke-opacity="0.10"/><line x1="1216.0" y1="268.3" x2="1304.8" y2="276.7" stroke="#818cf8" stroke-width="0.5" stroke-opacity="0.10"/><line x1="1216.0" y1="268.3" x2="1276.3" y2="350.8" stroke="#818cf8" stroke-width="0.5" stroke-opacity="0.10"/><line x1="1216.0" y1="268.3" x2="1294.8" y2="238.9" stroke="#818cf8" stroke-width="0.5" stroke-opacity="0.10"/><line x1="1216.0" y1="268.3" x2="1141.7" y2="238.5" stroke="#818cf8" stroke-width="0.5" stroke-opacity="0.10"/><line x1="307.0" y1="274.8" x2="212.9" y2="279.3" stroke="#818cf8" stroke-width="0.5" stroke-opacity="0.10"/><line x1="307.0" y1="274.8" x2="331.3" y2="188.5" stroke="#818cf8" stroke-width="0.5" stroke-opacity="0.10"/><line x1="1450.8" y1="359.8" x2="1384.6" y2="330.2" stroke="#818cf8" stroke-width="0.5" stroke-opacity="0.10"/><line x1="1198.0" y1="307.9" x2="1179.7" y2="194.0" stroke="#818cf8" stroke-width="0.5" stroke-opacity="0.10"/><line x1="1198.0" y1="307.9" x2="1304.8" y2="276.7" stroke="#818cf8" stroke-width="0.5" stroke-opacity="0.10"/><line x1="1198.0" y1="307.9" x2="1276.3" y2="350.8" stroke="#818cf8" stroke-width="0.5" stroke-opacity="0.10"/><line x1="1198.0" y1="307.9" x2="1294.8" y2="238.9" stroke="#818cf8" stroke-width="0.5" stroke-opacity="0.10"/><line x1="1198.0" y1="307.9" x2="1141.7" y2="238.5" stroke="#818cf8" stroke-width="0.5" stroke-opacity="0.10"/><line x1="774.9" y1="228.1" x2="688.7" y2="225.6" stroke="#818cf8" stroke-width="0.5" stroke-opacity="0.10"/><line x1="1179.7" y1="194.0" x2="1188.3" y2="81.2" stroke="#818cf8" stroke-width="0.5" stroke-opacity="0.10"/><line x1="1179.7" y1="194.0" x2="1141.7" y2="238.5" stroke="#818cf8" stroke-width="0.5" stroke-opacity="0.10"/><line x1="1304.8" y1="276.7" x2="1276.3" y2="350.8" stroke="#818cf8" stroke-width="0.5" stroke-opacity="0.10"/><line x1="1304.8" y1="276.7" x2="1294.8" y2="238.9" stroke="#818cf8" stroke-width="0.5" stroke-opacity="0.10"/><line x1="1304.8" y1="276.7" x2="1384.6" y2="330.2" stroke="#818cf8" stroke-width="0.5" stroke-opacity="0.10"/><line x1="1304.8" y1="276.7" x2="1331.3" y2="331.5" stroke="#818cf8" stroke-width="0.5" stroke-opacity="0.10"/><line x1="911.9" y1="188.0" x2="940.7" y2="157.8" stroke="#818cf8" stroke-width="0.5" stroke-opacity="0.10"/><line x1="911.9" y1="188.0" x2="908.1" y2="85.3" stroke="#818cf8" stroke-width="0.5" stroke-opacity="0.10"/><line x1="1082.1" y1="3.6" x2="1047.5" y2="111.7" stroke="#818cf8" stroke-width="0.5" stroke-opacity="0.10"/><line x1="1568.7" y1="282.3" x2="1491.3" y2="221.0" stroke="#818cf8" stroke-width="0.5" stroke-opacity="0.10"/><line x1="1568.7" y1="282.3" x2="1577.2" y2="348.6" stroke="#818cf8" stroke-width="0.5" stroke-opacity="0.10"/><line x1="1276.3" y1="350.8" x2="1294.8" y2="238.9" stroke="#818cf8" stroke-width="0.5" stroke-opacity="0.10"/><line x1="1276.3" y1="350.8" x2="1384.6" y2="330.2" stroke="#818cf8" stroke-width="0.5" stroke-opacity="0.10"/><line x1="1276.3" y1="350.8" x2="1331.3" y2="331.5" stroke="#818cf8" stroke-width="0.5" stroke-opacity="0.10"/><line x1="491.3" y1="92.3" x2="481.0" y2="154.7" stroke="#818cf8" stroke-width="0.5" stroke-opacity="0.10"/><line x1="688.7" y1="225.6" x2="614.8" y2="140.5" stroke="#818cf8" stroke-width="0.5" stroke-opacity="0.10"/><line x1="688.7" y1="225.6" x2="680.8" y2="116.3" stroke="#818cf8" stroke-width="0.5" stroke-opacity="0.10"/><line x1="1341.3" y1="114.5" x2="1399.4" y2="187.5" stroke="#818cf8" stroke-width="0.5" stroke-opacity="0.10"/><line x1="1341.3" y1="114.5" x2="1343.2" y2="63.4" stroke="#818cf8" stroke-width="0.5" stroke-opacity="0.10"/><line x1="1554.7" y1="154.8" x2="1491.3" y2="221.0" stroke="#818cf8" stroke-width="0.5" stroke-opacity="0.10"/><line x1="354.1" y1="36.7" x2="370.1" y2="85.5" stroke="#818cf8" stroke-width="0.5" stroke-opacity="0.10"/><line x1="1047.5" y1="111.7" x2="1039.0" y2="219.6" stroke="#818cf8" stroke-width="0.5" stroke-opacity="0.10"/><line x1="1047.5" y1="111.7" x2="1047.9" y2="202.2" stroke="#818cf8" stroke-width="0.5" stroke-opacity="0.10"/><line x1="1047.5" y1="111.7" x2="940.7" y2="157.8" stroke="#818cf8" stroke-width="0.5" stroke-opacity="0.10"/><line x1="1491.3" y1="221.0" x2="1399.4" y2="187.5" stroke="#818cf8" stroke-width="0.5" stroke-opacity="0.10"/><line x1="1294.8" y1="238.9" x2="1399.4" y2="187.5" stroke="#818cf8" stroke-width="0.5" stroke-opacity="0.10"/><line x1="1294.8" y1="238.9" x2="1331.3" y2="331.5" stroke="#818cf8" stroke-width="0.5" stroke-opacity="0.10"/><line x1="1039.0" y1="219.6" x2="1047.9" y2="202.2" stroke="#818cf8" stroke-width="0.5" stroke-opacity="0.10"/><line x1="1039.0" y1="219.6" x2="940.7" y2="157.8" stroke="#818cf8" stroke-width="0.5" stroke-opacity="0.10"/><line x1="1039.0" y1="219.6" x2="1141.7" y2="238.5" stroke="#818cf8" stroke-width="0.5" stroke-opacity="0.10"/><line x1="1047.9" y1="202.2" x2="940.7" y2="157.8" stroke="#818cf8" stroke-width="0.5" stroke-opacity="0.10"/><line x1="1047.9" y1="202.2" x2="1141.7" y2="238.5" stroke="#818cf8" stroke-width="0.5" stroke-opacity="0.10"/><line x1="1384.6" y1="330.2" x2="1331.3" y2="331.5" stroke="#818cf8" stroke-width="0.5" stroke-opacity="0.10"/><line x1="940.7" y1="157.8" x2="908.1" y2="85.3" stroke="#818cf8" stroke-width="0.5" stroke-opacity="0.10"/><line x1="331.3" y1="188.5" x2="370.1" y2="85.5" stroke="#818cf8" stroke-width="0.5" stroke-opacity="0.10"/><line x1="871.2" y1="8.5" x2="791.0" y2="38.6" stroke="#818cf8" stroke-width="0.5" stroke-opacity="0.10"/><line x1="871.2" y1="8.5" x2="908.1" y2="85.3" stroke="#818cf8" stroke-width="0.5" stroke-opacity="0.10"/><line x1="678.7" y1="50.8" x2="614.8" y2="140.5" stroke="#818cf8" stroke-width="0.5" stroke-opacity="0.10"/><line x1="678.7" y1="50.8" x2="791.0" y2="38.6" stroke="#818cf8" stroke-width="0.5" stroke-opacity="0.10"/><line x1="678.7" y1="50.8" x2="680.8" y2="116.3" stroke="#818cf8" stroke-width="0.5" stroke-opacity="0.10"/><line x1="614.8" y1="140.5" x2="680.8" y2="116.3" stroke="#818cf8" stroke-width="0.5" stroke-opacity="0.10"/><circle cx="1094.7" cy="18.6" r="1.5" fill="#818cf8" fill-opacity="0.29"/><circle cx="977.1" cy="167.9" r="1.8" fill="#818cf8" fill-opacity="0.35"/><circle cx="255.7" cy="308.1" r="1.3" fill="#818cf8" fill-opacity="0.40"/><circle cx="110.1" cy="172.1" r="2.2" fill="#818cf8" fill-opacity="0.24"/><circle cx="1176.2" cy="188.3" r="2.4" fill="#818cf8" fill-opacity="0.48"/><circle cx="1208.0" cy="344.7" r="0.8" fill="#818cf8" fill-opacity="0.62"/><circle cx="1216.0" cy="268.3" r="1.9" fill="#818cf8" fill-opacity="0.56"/><circle cx="307.0" cy="274.8" r="2.2" fill="#818cf8" fill-opacity="0.33"/><circle cx="1450.8" cy="359.8" r="2.0" fill="#818cf8" fill-opacity="0.25"/><circle cx="1198.0" cy="307.9" r="1.0" fill="#818cf8" fill-opacity="0.15"/><circle cx="774.9" cy="228.1" r="1.6" fill="#818cf8" fill-opacity="0.18"/><circle cx="1179.7" cy="194.0" r="2.1" fill="#818cf8" fill-opacity="0.40"/><circle cx="1304.8" cy="276.7" r="0.9" fill="#818cf8" fill-opacity="0.60"/><circle cx="911.9" cy="188.0" r="2.4" fill="#818cf8" fill-opacity="0.22"/><circle cx="1082.1" cy="3.6" r="1.8" fill="#818cf8" fill-opacity="0.57"/><circle cx="1568.7" cy="282.3" r="1.7" fill="#818cf8" fill-opacity="0.51"/><circle cx="1276.3" cy="350.8" r="0.7" fill="#818cf8" fill-opacity="0.41"/><circle cx="491.3" cy="92.3" r="1.1" fill="#818cf8" fill-opacity="0.54"/><circle cx="688.7" cy="225.6" r="1.6" fill="#818cf8" fill-opacity="0.22"/><circle cx="1341.3" cy="114.5" r="1.7" fill="#818cf8" fill-opacity="0.22"/><circle cx="1554.7" cy="154.8" r="1.6" fill="#818cf8" fill-opacity="0.59"/><circle cx="354.1" cy="36.7" r="0.8" fill="#818cf8" fill-opacity="0.48"/><circle cx="1047.5" cy="111.7" r="1.1" fill="#818cf8" fill-opacity="0.49"/><circle cx="1491.3" cy="221.0" r="0.7" fill="#818cf8" fill-opacity="0.35"/><circle cx="481.0" cy="154.7" r="1.7" fill="#818cf8" fill-opacity="0.23"/><circle cx="1294.8" cy="238.9" r="1.1" fill="#818cf8" fill-opacity="0.17"/><circle cx="212.9" cy="279.3" r="2.4" fill="#818cf8" fill-opacity="0.22"/><circle cx="1039.0" cy="219.6" r="2.3" fill="#818cf8" fill-opacity="0.53"/><circle cx="1047.9" cy="202.2" r="1.3" fill="#818cf8" fill-opacity="0.25"/><circle cx="1384.6" cy="330.2" r="2.2" fill="#818cf8" fill-opacity="0.21"/><circle cx="940.7" cy="157.8" r="1.2" fill="#818cf8" fill-opacity="0.46"/><circle cx="331.3" cy="188.5" r="1.0" fill="#818cf8" fill-opacity="0.44"/><circle cx="1399.4" cy="187.5" r="2.4" fill="#818cf8" fill-opacity="0.56"/><circle cx="871.2" cy="8.5" r="2.2" fill="#818cf8" fill-opacity="0.25"/><circle cx="1188.3" cy="81.2" r="0.9" fill="#818cf8" fill-opacity="0.56"/><circle cx="1141.7" cy="238.5" r="1.6" fill="#818cf8" fill-opacity="0.44"/><circle cx="1331.3" cy="331.5" r="2.2" fill="#818cf8" fill-opacity="0.25"/><circle cx="678.7" cy="50.8" r="2.2" fill="#818cf8" fill-opacity="0.24"/><circle cx="614.8" cy="140.5" r="0.9" fill="#818cf8" fill-opacity="0.33"/><circle cx="370.1" cy="85.5" r="2.2" fill="#818cf8" fill-opacity="0.19"/><circle cx="791.0" cy="38.6" r="1.9" fill="#818cf8" fill-opacity="0.18"/><circle cx="908.1" cy="85.3" r="1.2" fill="#818cf8" fill-opacity="0.52"/><circle cx="680.8" cy="116.3" r="0.8" fill="#818cf8" fill-opacity="0.25"/><circle cx="1343.2" cy="63.4" r="2.3" fill="#818cf8" fill-opacity="0.35"/><circle cx="1577.2" cy="348.6" r="1.5" fill="#818cf8" fill-opacity="0.20"/><circle cx="936.7" cy="324.2" r="1.1" fill="#818cf8" fill-opacity="0.48"/></g>
  <g opacity="0.95"><circle cx="1330" cy="180" r="26" fill="#818cf8" fill-opacity="0.9"/><ellipse cx="1330" cy="180" rx="82" ry="30" fill="none" stroke="#818cf8" stroke-width="2" stroke-opacity="0.6" transform="rotate(-20 1330 180)"/><ellipse cx="1330" cy="180" rx="82" ry="30" fill="none" stroke="#818cf8" stroke-width="1.4" stroke-opacity="0.4" transform="rotate(35 1330 180)"/><circle cx="1407" cy="158" r="6" fill="#818cf8"/></g>
  <g font-family="'Segoe UI', system-ui, sans-serif">
    <text x="130" y="150" fill="#818cf8" font-size="22" font-weight="700" letter-spacing="6">24/7 INTELLIGENCE DOMAIN</text>
    <text x="126" y="238" fill="url(#title)" font-size="92" font-weight="800" letter-spacing="1">Future Tech</text>
    <rect x="132" y="262" width="150" height="5" rx="2.5" fill="#818cf8"/>
  </g>
  <rect x="0" y="0" width="1600" height="360" fill="none" stroke="#818cf8" stroke-opacity="0.18" stroke-width="2"/>
</svg>
