<svg xmlns="http://www.w3.org/2000/svg" viewBox="0 0 1600 360" width="1600" height="360" role="img" aria-label="Medicine domain banner">
  <defs>
    <linearGradient id="bg" x1="0" y1="0" x2="1" y2="1">
      <stop offset="0" stop-color="#060b18"/>
      <stop offset="0.55" stop-color="#0a1428"/>
      <stop offset="1" stop-color="#0c1a33"/>
    </linearGradient>
    <radialGradient id="glowA" cx="0.82" cy="0.5" r="0.5">
      <stop offset="0" stop-color="#34d399" stop-opacity="0.35"/>
      <stop offset="1" stop-color="#34d399" stop-opacity="0"/>
    </radialGradient>
    <radialGradient id="glowB" cx="0.1" cy="0.9" r="0.6">
      <stop offset="0" stop-color="#22d3ee" stop-opacity="0.22"/>
      <stop offset="1" stop-color="#22d3ee" stop-opacity="0"/>
    </radialGradient>
    <linearGradient id="title" x1="0" y1="0" x2="1" y2="0">
      <stop offset="0" stop-color="#ffffff"/>
      <stop offset="1" stop-color="#34d399"/>
    </linearGradient>
  </defs>
  <rect width="1600" height="360" fill="url(#bg)"/>
  <rect width="1600" height="360" fill="url(#glowA)"/>
  <rect width="1600" height="360" fill="url(#glowB)"/>
  <g><line x1="148.5" y1="279.2" x2="139.4" y2="192.8" stroke="#34d399" stroke-width="0.5" stroke-opacity="0.10"/><line x1="148.5" y1="279.2" x2="129.8" y2="243.7" stroke="#34d399" stroke-width="0.5" stroke-opacity="0.10"/><line x1="1117.6" y1="176.2" x2="1079.5" y2="145.9" stroke="#34d399" stroke-width="0.5" stroke-opacity="0.10"/><line x1="1319.0" y1="323.4" x2="1377.0" y2="338.0" stroke="#34d399" stroke-width="0.5" stroke-opacity="0.10"/><line x1="1319.0" y1="323.4" x2="1372.8" y2="348.6" stroke="#34d399" stroke-width="0.5" stroke-opacity="0.10"/><line x1="418.2" y1="8.9" x2="426.7" y2="103.3" stroke="#34d399" stroke-width="0.5" stroke-opacity="0.10"/><line x1="941.6" y1="357.4" x2="937.5" y2="271.0" stroke="#34d399" stroke-width="0.5" stroke-opacity="0.10"/><line x1="1377.0" y1="338.0" x2="1429.5" y2="262.2" stroke="#34d399" stroke-width="0.5" stroke-opacity="0.10"/><line x1="1377.0" y1="338.0" x2="1372.8" y2="348.6" stroke="#34d399" stroke-width="0.5" stroke-opacity="0.10"/><line x1="618.9" y1="216.4" x2="685.5" y2="129.1" stroke="#34d399" stroke-width="0.5" stroke-opacity="0.10"/><line x1="618.9" y1="216.4" x2="569.7" y2="213.8" stroke="#34d399" stroke-width="0.5" stroke-opacity="0.10"/><line x1="618.9" y1="216.4" x2="531.2" y2="163.5" stroke="#34d399" stroke-width="0.5" stroke-opacity="0.10"/><line x1="618.9" y1="216.4" x2="543.2" y2="138.2" stroke="#34d399" stroke-width="0.5" stroke-opacity="0.10"/><line x1="618.9" y1="216.4" x2="666.7" y2="141.2" stroke="#34d399" stroke-width="0.5" stroke-opacity="0.10"/><line x1="685.5" y1="129.1" x2="745.8" y2="103.3" stroke="#34d399" stroke-width="0.5" stroke-opacity="0.10"/><line x1="685.5" y1="129.1" x2="666.7" y2="141.2" stroke="#34d399" stroke-width="0.5" stroke-opacity="0.10"/><line x1="1429.5" y1="262.2" x2="1519.2" y2="324.7" stroke="#34d399" stroke-width="0.5" stroke-opacity="0.10"/><line x1="1429.5" y1="262.2" x2="1372.8" y2="348.6" stroke="#34d399" stroke-width="0.5" stroke-opacity="0.10"/><line x1="1429.5" y1="262.2" x2="1416.0" y2="189.3" stroke="#34d399" stroke-width="0.5" stroke-opacity="0.10"/><line x1="569.7" y1="213.8" x2="531.2" y2="163.5" stroke="#34d399" stroke-width="0.5" stroke-opacity="0.10"/><line x1="569.7" y1="213.8" x2="543.2" y2="138.2" stroke="#34d399" stroke-width="0.5" stroke-opacity="0.10"/><line x1="569.7" y1="213.8" x2="462.7" y2="196.9" stroke="#34d399" stroke-width="0.5" stroke-opacity="0.10"/><line x1="1568.8" y1="242.5" x2="1519.2" y2="324.7" stroke="#34d399" stroke-width="0.5" stroke-opacity="0.10"/><line x1="280.0" y1="359.8" x2="321.7" y2="355.5" stroke="#34d399" stroke-width="0.5" stroke-opacity="0.10"/><line x1="90.0" y1="151.6" x2="82.1" y2="143.3" stroke="#34d399" stroke-width="0.5" stroke-opacity="0.10"/><line x1="90.0" y1="151.6" x2="139.4" y2="192.8" stroke="#34d399" stroke-width="0.5" stroke-opacity="0.10"/><line x1="90.0" y1="151.6" x2="129.8" y2="243.7" stroke="#34d399" stroke-width="0.5" stroke-opacity="0.10"/><line x1="82.1" y1="143.3" x2="139.4" y2="192.8" stroke="#34d399" stroke-width="0.5" stroke-opacity="0.10"/><line x1="82.1" y1="143.3" x2="129.8" y2="243.7" stroke="#34d399" stroke-width="0.5" stroke-opacity="0.10"/><line x1="344.3" y1="215.2" x2="291.5" y2="221.3" stroke="#34d399" stroke-width="0.5" stroke-opacity="0.10"/><line x1="344.3" y1="215.2" x2="337.7" y2="190.9" stroke="#34d399" stroke-width="0.5" stroke-opacity="0.10"/><line x1="344.3" y1="215.2" x2="434.9" y2="187.7" stroke="#34d399" stroke-width="0.5" stroke-opacity="0.10"/><line x1="344.3" y1="215.2" x2="308.1" y2="199.6" stroke="#34d399" stroke-width="0.5" stroke-opacity="0.10"/><line x1="344.3" y1="215.2" x2="380.4" y2="259.1" stroke="#34d399" stroke-width="0.5" stroke-opacity="0.10"/><line x1="344.3" y1="215.2" x2="396.5" y2="313.9" stroke="#34d399" stroke-width="0.5" stroke-opacity="0.10"/><line x1="344.3" y1="215.2" x2="462.7" y2="196.9" stroke="#34d399" stroke-width="0.5" stroke-opacity="0.10"/><line x1="148.0" y1="24.1" x2="86.8" y2="3.9" stroke="#34d399" stroke-width="0.5" stroke-opacity="0.10"/><line x1="321.7" y1="355.5" x2="380.4" y2="259.1" stroke="#34d399" stroke-width="0.5" stroke-opacity="0.10"/><line x1="321.7" y1="355.5" x2="396.5" y2="313.9" stroke="#34d399" stroke-width="0.5" stroke-opacity="0.10"/><line x1="745.8" y1="103.3" x2="666.7" y2="141.2" stroke="#34d399" stroke-width="0.5" stroke-opacity="0.10"/><line x1="291.5" y1="221.3" x2="337.7" y2="190.9" stroke="#34d399" stroke-width="0.5" stroke-opacity="0.10"/><line x1="291.5" y1="221.3" x2="308.1" y2="199.6" stroke="#34d399" stroke-width="0.5" stroke-opacity="0.10"/><line x1="291.5" y1="221.3" x2="380.4" y2="259.1" stroke="#34d399" stroke-width="0.5" stroke-opacity="0.10"/><line x1="531.2" y1="163.5" x2="543.2" y2="138.2" stroke="#34d399" stroke-width="0.5" stroke-opacity="0.10"/><line x1="531.2" y1="163.5" x2="434.9" y2="187.7" stroke="#34d399" stroke-width="0.5" stroke-opacity="0.10"/><line x1="531.2" y1="163.5" x2="462.7" y2="196.9" stroke="#34d399" stroke-width="0.5" stroke-opacity="0.10"/><line x1="543.2" y1="138.2" x2="434.9" y2="187.7" stroke="#34d399" stroke-width="0.5" stroke-opacity="0.10"/><line x1="543.2" y1="138.2" x2="462.7" y2="196.9" stroke="#34d399" stroke-width="0.5" stroke-opacity="0.10"/><line x1="937.5" y1="271.0" x2="878.2" y2="176.7" stroke="#34d399" stroke-width="0.5" stroke-opacity="0.10"/><line x1="937.5" y1="271.0" x2="986.9" y2="245.6" stroke="#34d399" stroke-width="0.5" stroke-opacity="0.10"/><line x1="426.7" y1="103.3" x2="434.9" y2="187.7" stroke="#34d399" stroke-width="0.5" stroke-opacity="0.10"/><line x1="426.7" y1="103.3" x2="462.7" y2="196.9" stroke="#34d399" stroke-width="0.5" stroke-opacity="0.10"/><line x1="1079.5" y1="145.9" x2="1011.4" y2="107.7" stroke="#34d399" stroke-width="0.5" stroke-opacity="0.10"/><line x1="1079.5" y1="145.9" x2="1009.0" y2="60.9" stroke="#34d399" stroke-width="0.5" stroke-opacity="0.10"/><line x1="1536.5" y1="21.8" x2="1531.7" y2="24.3" stroke="#34d399" stroke-width="0.5" stroke-opacity="0.10"/><line x1="139.4" y1="192.8" x2="129.8" y2="243.7" stroke="#34d399" stroke-width="0.5" stroke-opacity="0.10"/><line x1="1077.9" y1="298.1" x2="986.9" y2="245.6" stroke="#34d399" stroke-width="0.5" stroke-opacity="0.10"/><line x1="337.7" y1="190.9" x2="434.9" y2="187.7" stroke="#34d399" stroke-width="0.5" stroke-opacity="0.10"/><line x1="337.7" y1="190.9" x2="308.1" y2="199.6" stroke="#34d399" stroke-width="0.5" stroke-opacity="0.10"/><line x1="337.7" y1="190.9" x2="380.4" y2="259.1" stroke="#34d399" stroke-width="0.5" stroke-opacity="0.10"/><line x1="1011.4" y1="107.7" x2="1009.0" y2="60.9" stroke="#34d399" stroke-width="0.5" stroke-opacity="0.10"/><line x1="434.9" y1="187.7" x2="380.4" y2="259.1" stroke="#34d399" stroke-width="0.5" stroke-opacity="0.10"/><line x1="434.9" y1="187.7" x2="462.7" y2="196.9" stroke="#34d399" stroke-width="0.5" stroke-opacity="0.10"/><line x1="308.1" y1="199.6" x2="380.4" y2="259.1" stroke="#34d399" stroke-width="0.5" stroke-opacity="0.10"/><line x1="380.4" y1="259.1" x2="396.5" y2="313.9" stroke="#34d399" stroke-width="0.5" stroke-opacity="0.10"/><line x1="380.4" y1="259.1" x2="462.7" y2="196.9" stroke="#34d399" stroke-width="0.5" stroke-opacity="0.10"/><circle cx="148.5" cy="279.2" r="2.3" fill="#34d399" fill-opacity="0.32"/><circle cx="1117.6" cy="176.2" r="1.6" fill="#34d399" fill-opacity="0.29"/><circle cx="1319.0" cy="323.4" r="1.1" fill="#34d399" fill-opacity="0.46"/><circle cx="418.2" cy="8.9" r="2.3" fill="#34d399" fill-opacity="0.63"/><circle cx="941.6" cy="357.4" r="1.9" fill="#34d399" fill-opacity="0.15"/><circle cx="1377.0" cy="338.0" r="1.7" fill="#34d399" fill-opacity="0.45"/><circle cx="618.9" cy="216.4" r="1.5" fill="#34d399" fill-opacity="0.25"/><circle cx="685.5" cy="129.1" r="2.1" fill="#34d399" fill-opacity="0.37"/><circle cx="1429.5" cy="262.2" r="1.4" fill="#34d399" fill-opacity="0.19"/><circle cx="569.7" cy="213.8" r="0.7" fill="#34d399" fill-opacity="0.46"/><circle cx="1568.8" cy="242.5" r="1.3" fill="#34d399" fill-opacity="0.22"/><circle cx="280.0" cy="359.8" r="0.8" fill="#34d399" fill-opacity="0.50"/><circle cx="90.0" cy="151.6" r="1.4" fill="#34d399" fill-opacity="0.51"/><circle cx="82.1" cy="143.3" r="2.2" fill="#34d399" fill-opacity="0.35"/><circle cx="344.3" cy="215.2" r="1.3" fill="#34d399" fill-opacity="0.38"/><circle cx="148.0" cy="24.1" r="2.2" fill="#34d399" fill-opacity="0.23"/><circle cx="321.7" cy="355.5" r="1.4" fill="#34d399" fill-opacity="0.53"/><circle cx="745.8" cy="103.3" r="1.7" fill="#34d399" fill-opacity="0.62"/><circle cx="291.5" cy="221.3" r="1.2" fill="#34d399" fill-opacity="0.33"/><circle cx="531.2" cy="163.5" r="2.2" fill="#34d399" fill-opacity="0.18"/><circle cx="543.2" cy="138.2" r="1.5" fill="#34d399" fill-opacity="0.58"/><circle cx="937.5" cy="271.0" r="1.6" fill="#34d399" fill-opacity="0.18"/><circle cx="426.7" cy="103.3" r="2.0" fill="#34d399" fill-opacity="0.35"/><circle cx="666.7" cy="141.2" r="1.8" fill="#34d399" fill-opacity="0.46"/><circle cx="293.4" cy="60.9" r="1.8" fill="#34d399" fill-opacity="0.37"/><circle cx="1079.5" cy="145.9" r="2.2" fill="#34d399" fill-opacity="0.45"/><circle cx="1536.5" cy="21.8" r="1.1" fill="#34d399" fill-opacity="0.37"/><circle cx="86.8" cy="3.9" r="0.6" fill="#34d399" fill-opacity="0.18"/><circle cx="1531.7" cy="24.3" r="2.3" fill="#34d399" fill-opacity="0.57"/><circle cx="139.4" cy="192.8" r="1.0" fill="#34d399" fill-opacity="0.36"/><circle cx="1077.9" cy="298.1" r="1.6" fill="#34d399" fill-opacity="0.56"/><circle cx="1519.2" cy="324.7" r="1.0" fill="#34d399" fill-opacity="0.46"/><circle cx="337.7" cy="190.9" r="0.9" fill="#34d399" fill-opacity="0.34"/><circle cx="129.8" cy="243.7" r="2.3" fill="#34d399" fill-opacity="0.37"/><circle cx="878.2" cy="176.7" r="0.7" fill="#34d399" fill-opacity="0.31"/><circle cx="986.9" cy="245.6" r="1.3" fill="#34d399" fill-opacity="0.52"/><circle cx="1011.4" cy="107.7" r="1.2" fill="#34d399" fill-opacity="0.33"/><circle cx="1009.0" cy="60.9" r="0.9" fill="#34d399" fill-opacity="0.56"/><circle cx="434.9" cy="187.7" r="0.9" fill="#34d399" fill-opacity="0.29"/><circle cx="308.1" cy="199.6" r="1.9" fill="#34d399" fill-opacity="0.63"/><circle cx="1372.8" cy="348.6" r="1.0" fill="#34d399" fill-opacity="0.23"/><circle cx="380.4" cy="259.1" r="1.5" fill="#34d399" fill-opacity="0.57"/><circle cx="1416.0" cy="189.3" r="1.5" fill="#34d399" fill-opacity="0.48"/><circle cx="396.5" cy="313.9" r="2.2" fill="#34d399" fill-opacity="0.22"/><circle cx="462.7" cy="196.9" r="1.2" fill="#34d399" fill-opacity="0.32"/><circle cx="1192.7" cy="348.2" r="0.7" fill="#34d399" fill-opacity="0.22"/></g>
  <g opacity="0.95"><line x1="1330.0" y1="100.0" x2="1330.0" y2="100.0" stroke="#34d399" stroke-width="1.2" stroke-opacity="0.5"/><circle cx="1330.0" cy="100.0" r="4.5" fill="#34d399"/><circle cx="1330.0" cy="100.0" r="4.5" fill="#34d399" fill-opacity="0.7"/><line x1="1357.5" y1="116.0" x2="1302.5" y2="116.0" stroke="#34d399" stroke-width="1.2" stroke-opacity="0.5"/><circle cx="1357.5" cy="116.0" r="4.5" fill="#34d399"/><circle cx="1302.5" cy="116.0" r="4.5" fill="#34d399" fill-opacity="0.7"/><line x1="1362.3" y1="132.0" x2="1297.7" y2="132.0" stroke="#34d399" stroke-width="1.2" stroke-opacity="0.5"/><circle cx="1362.3" cy="132.0" r="4.5" fill="#34d399"/><circle cx="1297.7" cy="132.0" r="4.5" fill="#34d399" fill-opacity="0.7"/><line x1="1340.5" y1="148.0" x2="1319.5" y2="148.0" stroke="#34d399" stroke-width="1.2" stroke-opacity="0.5"/><circle cx="1340.5" cy="148.0" r="4.5" fill="#34d399"/><circle cx="1319.5" cy="148.0" r="4.5" fill="#34d399" fill-opacity="0.7"/><line x1="1310.0" y1="164.0" x2="1350.0" y2="164.0" stroke="#34d399" stroke-width="1.2" stroke-opacity="0.5"/><circle cx="1310.0" cy="164.0" r="4.5" fill="#34d399"/><circle cx="1350.0" cy="164.0" r="4.5" fill="#34d399" fill-opacity="0.7"/><line x1="1296.0" y1="180.0" x2="1364.0" y2="180.0" stroke="#34d399" stroke-width="1.2" stroke-opacity="0.5"/><circle cx="1296.0" cy="180.0" r="4.5" fill="#34d399"/><circle cx="1364.0" cy="180.0" r="4.5" fill="#34d399" fill-opacity="0.7"/><line x1="1310.0" y1="196.0" x2="1350.0" y2="196.0" stroke="#34d399" stroke-width="1.2" stroke-opacity="0.5"/><circle cx="1310.0" cy="196.0" r="4.5" fill="#34d399"/><circle cx="1350.0" cy="196.0" r="4.5" fill="#34d399" fill-opacity="0.7"/><line x1="1340.5" y1="212.0" x2="1319.5" y2="212.0" stroke="#34d399" stroke-width="1.2" stroke-opacity="0.5"/><circle cx="1340.5" cy="212.0" r="4.5" fill="#34d399"/><circle cx="1319.5" cy="212.0" r="4.5" fill="#34d399" fill-opacity="0.7"/><line x1="1362.3" y1="228.0" x2="1297.7" y2="228.0" stroke="#34d399" stroke-width="1.2" stroke-opacity="0.5"/><circle cx="1362.3" cy="228.0" r="4.5" fill="#34d399"/><circle cx="1297.7" cy="228.0" r="4.5" fill="#34d399" fill-opacity="0.7"/><line x1="1357.5" y1="244.0" x2="1302.5" y2="244.0" stroke="#34d399" stroke-width="1.2" stroke-opacity="0.5"/><circle cx="1357.5" cy="244.0" r="4.5" fill="#34d399"/><circle cx="1302.5" cy="244.0" r="4.5" fill="#34d399" fill-opacity="0.7"/><line x1="1330.0" y1="260.0" x2="1330.0" y2="260.0" stroke="#34d399" stroke-width="1.2" stroke-opacity="0.5"/><circle cx="1330.0" cy="260.0" r="4.5" fill="#34d399"/><circle cx="1330.0" cy="260.0" r="4.5" fill="#34d399" fill-opacity="0.7"/></g>
  <g font-family="'Segoe UI', system-ui, sans-serif">
    <text x="130" y="150" fill="#34d399" font-size="22" font-weight="700" letter-spacing="6">24/7 INTELLIGENCE DOMAIN</text>
    <text x="126" y="238" fill="url(#title)" font-size="92" font-weight="800" letter-spacing="1">Medicine</text>
    <rect x="132" y="262" width="150" height="5" rx="2.5" fill="#34d399"/>
  </g>
  <rect x="0" y="0" width="1600" height="360" fill="none" stroke="#34d399" stroke-opacity="0.18" stroke-width="2"/>
</svg>
