<svg xmlns="http://www.w3.org/2000/svg" viewBox="0 0 1600 360" width="1600" height="360" role="img" aria-label="Current Tech domain banner">
  <defs>
    <linearGradient id="bg" x1="0" y1="0" x2="1" y2="1">
      <stop offset="0" stop-color="#060b18"/>
      <stop offset="0.55" stop-color="#0a1428"/>
      <stop offset="1" stop-color="#0c1a33"/>
    </linearGradient>
    <radialGradient id="glowA" cx="0.82" cy="0.5" r="0.5">
      <stop offset="0" stop-color="#38bdf8" stop-opacity="0.35"/>
      <stop offset="1" stop-color="#38bdf8" stop-opacity="0"/>
    </radialGradient>
    <radialGradient id="glowB" cx="0.1" cy="0.9" r="0.6">
      <stop offset="0" stop-color="#22d3ee" stop-opacity="0.22"/>
      <stop offset="1" stop-color="#22d3ee" stop-opacity="0"/>
    </radialGradient>
    <linearGradient id="title" x1="0" y1="0" x2="1" y2="0">
      <stop offset="0" stop-color="#ffffff"/>
      <stop offset="1" stop-color="#38bdf8"/>
    </linearGradient>
  </defs>
  <rect width="1600" height="360" fill="url(#bg)"/>
  <rect width="1600" height="360" fill="url(#glowA)"/>
  <rect width="1600" height="360" fill="url(#glowB)"/>
  <g><line x1="905.8" y1="133.7" x2="852.4" y2="137.2" stroke="#38bdf8" stroke-width="0.5" stroke-opacity="0.10"/><line x1="905.8" y1="133.7" x2="912.7" y2="29.0" stroke="#38bdf8" stroke-width="0.5" stroke-opacity="0.10"/><line x1="1368.9" y1="115.4" x2="1318.6" y2="174.4" stroke="#38bdf8" stroke-width="0.5" stroke-opacity="0.10"/><line x1="1368.9" y1="115.4" x2="1294.9" y2="178.4" stroke="#38bdf8" stroke-width="0.5" stroke-opacity="0.10"/><line x1="826.6" y1="42.1" x2="852.4" y2="137.2" stroke="#38bdf8" stroke-width="0.5" stroke-opacity="0.10"/><line x1="826.6" y1="42.1" x2="752.8" y2="81.6" stroke="#38bdf8" stroke-width="0.5" stroke-opacity="0.10"/><line x1="826.6" y1="42.1" x2="912.7" y2="29.0" stroke="#38bdf8" stroke-width="0.5" stroke-opacity="0.10"/><line x1="1318.6" y1="174.4" x2="1416.3" y2="241.2" stroke="#38bdf8" stroke-width="0.5" stroke-opacity="0.10"/><line x1="1318.6" y1="174.4" x2="1294.9" y2="178.4" stroke="#38bdf8" stroke-width="0.5" stroke-opacity="0.10"/><line x1="1416.3" y1="241.2" x2="1435.3" y2="294.1" stroke="#38bdf8" stroke-width="0.5" stroke-opacity="0.10"/><line x1="1416.3" y1="241.2" x2="1459.4" y2="250.2" stroke="#38bdf8" stroke-width="0.5" stroke-opacity="0.10"/><line x1="1550.5" y1="70.7" x2="1518.0" y2="60.2" stroke="#38bdf8" stroke-width="0.5" stroke-opacity="0.10"/><line x1="1550.5" y1="70.7" x2="1506.8" y2="132.8" stroke="#38bdf8" stroke-width="0.5" stroke-opacity="0.10"/><line x1="1550.5" y1="70.7" x2="1511.4" y2="32.5" stroke="#38bdf8" stroke-width="0.5" stroke-opacity="0.10"/><line x1="1225.4" y1="294.3" x2="1200.6" y2="200.6" stroke="#38bdf8" stroke-width="0.5" stroke-opacity="0.10"/><line x1="1225.4" y1="294.3" x2="1321.8" y2="358.0" stroke="#38bdf8" stroke-width="0.5" stroke-opacity="0.10"/><line x1="1225.4" y1="294.3" x2="1217.2" y2="250.9" stroke="#38bdf8" stroke-width="0.5" stroke-opacity="0.10"/><line x1="1225.4" y1="294.3" x2="1190.9" y2="326.3" stroke="#38bdf8" stroke-width="0.5" stroke-opacity="0.10"/><line x1="1225.4" y1="294.3" x2="1113.1" y2="283.4" stroke="#38bdf8" stroke-width="0.5" stroke-opacity="0.10"/><line x1="1200.6" y1="200.6" x2="1217.2" y2="250.9" stroke="#38bdf8" stroke-width="0.5" stroke-opacity="0.10"/><line x1="1200.6" y1="200.6" x2="1294.9" y2="178.4" stroke="#38bdf8" stroke-width="0.5" stroke-opacity="0.10"/><line x1="852.4" y1="137.2" x2="752.8" y2="81.6" stroke="#38bdf8" stroke-width="0.5" stroke-opacity="0.10"/><line x1="348.5" y1="20.1" x2="336.4" y2="28.5" stroke="#38bdf8" stroke-width="0.5" stroke-opacity="0.10"/><line x1="629.3" y1="39.7" x2="541.5" y2="78.8" stroke="#38bdf8" stroke-width="0.5" stroke-opacity="0.10"/><line x1="629.3" y1="39.7" x2="553.3" y2="115.7" stroke="#38bdf8" stroke-width="0.5" stroke-opacity="0.10"/><line x1="629.3" y1="39.7" x2="589.3" y2="25.4" stroke="#38bdf8" stroke-width="0.5" stroke-opacity="0.10"/><line x1="83.3" y1="179.5" x2="166.9" y2="153.1" stroke="#38bdf8" stroke-width="0.5" stroke-opacity="0.10"/><line x1="251.9" y1="117.1" x2="289.0" y2="137.5" stroke="#38bdf8" stroke-width="0.5" stroke-opacity="0.10"/><line x1="251.9" y1="117.1" x2="244.0" y2="207.4" stroke="#38bdf8" stroke-width="0.5" stroke-opacity="0.10"/><line x1="251.9" y1="117.1" x2="166.9" y2="153.1" stroke="#38bdf8" stroke-width="0.5" stroke-opacity="0.10"/><line x1="251.9" y1="117.1" x2="252.6" y2="97.3" stroke="#38bdf8" stroke-width="0.5" stroke-opacity="0.10"/><line x1="611.5" y1="342.8" x2="512.1" y2="334.1" stroke="#38bdf8" stroke-width="0.5" stroke-opacity="0.10"/><line x1="512.1" y1="334.1" x2="443.5" y2="274.7" stroke="#38bdf8" stroke-width="0.5" stroke-opacity="0.10"/><line x1="1518.0" y1="60.2" x2="1506.8" y2="132.8" stroke="#38bdf8" stroke-width="0.5" stroke-opacity="0.10"/><line x1="1518.0" y1="60.2" x2="1511.4" y2="32.5" stroke="#38bdf8" stroke-width="0.5" stroke-opacity="0.10"/><line x1="973.4" y1="12.4" x2="912.7" y2="29.0" stroke="#38bdf8" stroke-width="0.5" stroke-opacity="0.10"/><line x1="563.3" y1="190.6" x2="541.5" y2="78.8" stroke="#38bdf8" stroke-width="0.5" stroke-opacity="0.10"/><line x1="563.3" y1="190.6" x2="553.3" y2="115.7" stroke="#38bdf8" stroke-width="0.5" stroke-opacity="0.10"/><line x1="1217.2" y1="250.9" x2="1294.9" y2="178.4" stroke="#38bdf8" stroke-width="0.5" stroke-opacity="0.10"/><line x1="1217.2" y1="250.9" x2="1190.9" y2="326.3" stroke="#38bdf8" stroke-width="0.5" stroke-opacity="0.10"/><line x1="1217.2" y1="250.9" x2="1113.1" y2="283.4" stroke="#38bdf8" stroke-width="0.5" stroke-opacity="0.10"/><line x1="541.5" y1="78.8" x2="553.3" y2="115.7" stroke="#38bdf8" stroke-width="0.5" stroke-opacity="0.10"/><line x1="541.5" y1="78.8" x2="589.3" y2="25.4" stroke="#38bdf8" stroke-width="0.5" stroke-opacity="0.10"/><line x1="1536.9" y1="257.2" x2="1435.3" y2="294.1" stroke="#38bdf8" stroke-width="0.5" stroke-opacity="0.10"/><line x1="1536.9" y1="257.2" x2="1459.4" y2="250.2" stroke="#38bdf8" stroke-width="0.5" stroke-opacity="0.10"/><line x1="1536.9" y1="257.2" x2="1533.9" y2="199.3" stroke="#38bdf8" stroke-width="0.5" stroke-opacity="0.10"/><line x1="1536.9" y1="257.2" x2="1562.5" y2="357.2" stroke="#38bdf8" stroke-width="0.5" stroke-opacity="0.10"/><line x1="336.4" y1="28.5" x2="289.0" y2="137.5" stroke="#38bdf8" stroke-width="0.5" stroke-opacity="0.10"/><line x1="336.4" y1="28.5" x2="252.6" y2="97.3" stroke="#38bdf8" stroke-width="0.5" stroke-opacity="0.10"/><line x1="289.0" y1="137.5" x2="244.0" y2="207.4" stroke="#38bdf8" stroke-width="0.5" stroke-opacity="0.10"/><line x1="289.0" y1="137.5" x2="252.6" y2="97.3" stroke="#38bdf8" stroke-width="0.5" stroke-opacity="0.10"/><line x1="244.0" y1="207.4" x2="166.9" y2="153.1" stroke="#38bdf8" stroke-width="0.5" stroke-opacity="0.10"/><line x1="244.0" y1="207.4" x2="252.6" y2="97.3" stroke="#38bdf8" stroke-width="0.5" stroke-opacity="0.10"/><line x1="1506.8" y1="132.8" x2="1511.4" y2="32.5" stroke="#38bdf8" stroke-width="0.5" stroke-opacity="0.10"/><line x1="1506.8" y1="132.8" x2="1533.9" y2="199.3" stroke="#38bdf8" stroke-width="0.5" stroke-opacity="0.10"/><line x1="1190.9" y1="326.3" x2="1113.1" y2="283.4" stroke="#38bdf8" stroke-width="0.5" stroke-opacity="0.10"/><line x1="1435.3" y1="294.1" x2="1459.4" y2="250.2" stroke="#38bdf8" stroke-width="0.5" stroke-opacity="0.10"/><line x1="1459.4" y1="250.2" x2="1533.9" y2="199.3" stroke="#38bdf8" stroke-width="0.5" stroke-opacity="0.10"/><line x1="166.9" y1="153.1" x2="252.6" y2="97.3" stroke="#38bdf8" stroke-width="0.5" stroke-opacity="0.10"/><line x1="553.3" y1="115.7" x2="589.3" y2="25.4" stroke="#38bdf8" stroke-width="0.5" stroke-opacity="0.10"/><line x1="1113.1" y1="283.4" x2="995.5" y2="285.0" stroke="#38bdf8" stroke-width="0.5" stroke-opacity="0.10"/><circle cx="905.8" cy="133.7" r="0.8" fill="#38bdf8" fill-opacity="0.40"/><circle cx="1368.9" cy="115.4" r="0.8" fill="#38bdf8" fill-opacity="0.30"/><circle cx="826.6" cy="42.1" r="1.3" fill="#38bdf8" fill-opacity="0.56"/><circle cx="1318.6" cy="174.4" r="0.9" fill="#38bdf8" fill-opacity="0.40"/><circle cx="1416.3" cy="241.2" r="1.6" fill="#38bdf8" fill-opacity="0.30"/><circle cx="1550.5" cy="70.7" r="1.5" fill="#38bdf8" fill-opacity="0.18"/><circle cx="108.1" cy="43.3" r="1.8" fill="#38bdf8" fill-opacity="0.55"/><circle cx="1225.4" cy="294.3" r="1.8" fill="#38bdf8" fill-opacity="0.56"/><circle cx="1200.6" cy="200.6" r="1.2" fill="#38bdf8" fill-opacity="0.18"/><circle cx="852.4" cy="137.2" r="0.9" fill="#38bdf8" fill-opacity="0.30"/><circle cx="348.5" cy="20.1" r="0.9" fill="#38bdf8" fill-opacity="0.33"/><circle cx="629.3" cy="39.7" r="1.5" fill="#38bdf8" fill-opacity="0.65"/><circle cx="752.8" cy="81.6" r="1.2" fill="#38bdf8" fill-opacity="0.30"/><circle cx="83.3" cy="179.5" r="2.3" fill="#38bdf8" fill-opacity="0.64"/><circle cx="251.9" cy="117.1" r="1.1" fill="#38bdf8" fill-opacity="0.44"/><circle cx="611.5" cy="342.8" r="2.2" fill="#38bdf8" fill-opacity="0.43"/><circle cx="512.1" cy="334.1" r="1.5" fill="#38bdf8" fill-opacity="0.61"/><circle cx="1321.8" cy="358.0" r="1.9" fill="#38bdf8" fill-opacity="0.55"/><circle cx="1518.0" cy="60.2" r="1.7" fill="#38bdf8" fill-opacity="0.64"/><circle cx="973.4" cy="12.4" r="1.9" fill="#38bdf8" fill-opacity="0.36"/><circle cx="563.3" cy="190.6" r="1.7" fill="#38bdf8" fill-opacity="0.32"/><circle cx="1217.2" cy="250.9" r="0.8" fill="#38bdf8" fill-opacity="0.33"/><circle cx="541.5" cy="78.8" r="1.7" fill="#38bdf8" fill-opacity="0.45"/><circle cx="1536.9" cy="257.2" r="0.8" fill="#38bdf8" fill-opacity="0.58"/><circle cx="336.4" cy="28.5" r="0.7" fill="#38bdf8" fill-opacity="0.39"/><circle cx="289.0" cy="137.5" r="1.2" fill="#38bdf8" fill-opacity="0.23"/><circle cx="912.7" cy="29.0" r="1.8" fill="#38bdf8" fill-opacity="0.17"/><circle cx="244.0" cy="207.4" r="1.7" fill="#38bdf8" fill-opacity="0.47"/><circle cx="1506.8" cy="132.8" r="1.4" fill="#38bdf8" fill-opacity="0.58"/><circle cx="1026.8" cy="120.0" r="2.1" fill="#38bdf8" fill-opacity="0.50"/><circle cx="317.0" cy="315.4" r="1.3" fill="#38bdf8" fill-opacity="0.39"/><circle cx="857.3" cy="357.8" r="1.5" fill="#38bdf8" fill-opacity="0.15"/><circle cx="1294.9" cy="178.4" r="2.2" fill="#38bdf8" fill-opacity="0.48"/><circle cx="1190.9" cy="326.3" r="1.4" fill="#38bdf8" fill-opacity="0.41"/><circle cx="1435.3" cy="294.1" r="1.0" fill="#38bdf8" fill-opacity="0.58"/><circle cx="1459.4" cy="250.2" r="1.2" fill="#38bdf8" fill-opacity="0.54"/><circle cx="166.9" cy="153.1" r="1.2" fill="#38bdf8" fill-opacity="0.53"/><circle cx="1511.4" cy="32.5" r="1.8" fill="#38bdf8" fill-opacity="0.27"/><circle cx="443.5" cy="274.7" r="1.2" fill="#38bdf8" fill-opacity="0.56"/><circle cx="553.3" cy="115.7" r="2.0" fill="#38bdf8" fill-opacity="0.39"/><circle cx="1533.9" cy="199.3" r="1.9" fill="#38bdf8" fill-opacity="0.59"/><circle cx="589.3" cy="25.4" r="0.9" fill="#38bdf8" fill-opacity="0.51"/><circle cx="1113.1" cy="283.4" r="1.2" fill="#38bdf8" fill-opacity="0.57"/><circle cx="1562.5" cy="357.2" r="1.3" fill="#38bdf8" fill-opacity="0.28"/><circle cx="252.6" cy="97.3" r="1.4" fill="#38bdf8" fill-opacity="0.40"/><circle cx="995.5" cy="285.0" r="2.4" fill="#38bdf8" fill-opacity="0.16"/></g>
  <g opacity="0.95"><circle cx="1330" cy="180" r="80" fill="none" stroke="#38bdf8" stroke-width="2.2" stroke-opacity="0.8"/><ellipse cx="1330" cy="180" rx="30" ry="80" fill="none" stroke="#38bdf8" stroke-width="1.3" stroke-opacity="0.5"/><ellipse cx="1330" cy="180" rx="62" ry="80" fill="none" stroke="#38bdf8" stroke-width="1.1" stroke-opacity="0.35"/><line x1="1250" y1="180" x2="1410" y2="180" stroke="#38bdf8" stroke-width="1.3" stroke-opacity="0.5"/><line x1="1260" y1="140" x2="1400" y2="140" stroke="#38bdf8" stroke-width="1" stroke-opacity="0.35"/><line x1="1260" y1="220" x2="1400" y2="220" stroke="#38bdf8" stroke-width="1" stroke-opacity="0.35"/></g>
  <g font-family="'Segoe UI', system-ui, sans-serif">
    <text x="130" y="150" fill="#38bdf8" font-size="22" font-weight="700" letter-spacing="6">24/7 INTELLIGENCE DOMAIN</text>
    <text x="126" y="238" fill="url(#title)" font-size="92" font-weight="800" letter-spacing="1">Current Tech</text>
    <rect x="132" y="262" width="150" height="5" rx="2.5" fill="#38bdf8"/>
  </g>
  <rect x="0" y="0" width="1600" height="360" fill="none" stroke="#38bdf8" stroke-opacity="0.18" stroke-width="2"/>
</svg>
