<svg xmlns="http://www.w3.org/2000/svg" viewBox="0 0 1600 360" width="1600" height="360" role="img" aria-label="Construction domain banner">
  <defs>
    <linearGradient id="bg" x1="0" y1="0" x2="1" y2="1">
      <stop offset="0" stop-color="#060b18"/>
      <stop offset="0.55" stop-color="#0a1428"/>
      <stop offset="1" stop-color="#0c1a33"/>
    </linearGradient>
    <radialGradient id="glowA" cx="0.82" cy="0.5" r="0.5">
      <stop offset="0" stop-color="#fb923c" stop-opacity="0.35"/>
      <stop offset="1" stop-color="#fb923c" stop-opacity="0"/>
    </radialGradient>
    <radialGradient id="glowB" cx="0.1" cy="0.9" r="0.6">
      <stop offset="0" stop-color="#f59e0b" stop-opacity="0.22"/>
      <stop offset="1" stop-color="#f59e0b" stop-opacity="0"/>
    </radialGradient>
    <linearGradient id="title" x1="0" y1="0" x2="1" y2="0">
      <stop offset="0" stop-color="#ffffff"/>
      <stop offset="1" stop-color="#fb923c"/>
    </linearGradient>
  </defs>
  <rect width="1600" height="360" fill="url(#bg)"/>
  <rect width="1600" height="360" fill="url(#glowA)"/>
  <rect width="1600" height="360" fill="url(#glowB)"/>
  <g><line x1="128.2" y1="226.4" x2="171.0" y2="248.8" stroke="#fb923c" stroke-width="0.5" stroke-opacity="0.10"/><line x1="128.2" y1="226.4" x2="68.4" y2="126.0" stroke="#fb923c" stroke-width="0.5" stroke-opacity="0.10"/><line x1="128.2" y1="226.4" x2="196.3" y2="306.3" stroke="#fb923c" stroke-width="0.5" stroke-opacity="0.10"/><line x1="128.2" y1="226.4" x2="174.4" y2="266.8" stroke="#fb923c" stroke-width="0.5" stroke-opacity="0.10"/><line x1="128.2" y1="226.4" x2="130.1" y2="250.0" stroke="#fb923c" stroke-width="0.5" stroke-opacity="0.10"/><line x1="171.0" y1="248.8" x2="196.3" y2="306.3" stroke="#fb923c" stroke-width="0.5" stroke-opacity="0.10"/><line x1="171.0" y1="248.8" x2="174.4" y2="266.8" stroke="#fb923c" stroke-width="0.5" stroke-opacity="0.10"/><line x1="171.0" y1="248.8" x2="130.1" y2="250.0" stroke="#fb923c" stroke-width="0.5" stroke-opacity="0.10"/><line x1="171.0" y1="248.8" x2="273.1" y2="251.8" stroke="#fb923c" stroke-width="0.5" stroke-opacity="0.10"/><line x1="940.6" y1="27.6" x2="895.1" y2="115.0" stroke="#fb923c" stroke-width="0.5" stroke-opacity="0.10"/><line x1="940.6" y1="27.6" x2="988.9" y2="96.6" stroke="#fb923c" stroke-width="0.5" stroke-opacity="0.10"/><line x1="1344.2" y1="325.8" x2="1327.7" y2="219.2" stroke="#fb923c" stroke-width="0.5" stroke-opacity="0.10"/><line x1="1344.2" y1="325.8" x2="1417.7" y2="291.4" stroke="#fb923c" stroke-width="0.5" stroke-opacity="0.10"/><line x1="1344.2" y1="325.8" x2="1383.0" y2="267.8" stroke="#fb923c" stroke-width="0.5" stroke-opacity="0.10"/><line x1="1344.2" y1="325.8" x2="1399.9" y2="253.5" stroke="#fb923c" stroke-width="0.5" stroke-opacity="0.10"/><line x1="1344.2" y1="325.8" x2="1270.8" y2="308.5" stroke="#fb923c" stroke-width="0.5" stroke-opacity="0.10"/><line x1="1327.7" y1="219.2" x2="1281.5" y2="117.2" stroke="#fb923c" stroke-width="0.5" stroke-opacity="0.10"/><line x1="1327.7" y1="219.2" x2="1332.4" y2="143.3" stroke="#fb923c" stroke-width="0.5" stroke-opacity="0.10"/><line x1="1327.7" y1="219.2" x2="1417.7" y2="291.4" stroke="#fb923c" stroke-width="0.5" stroke-opacity="0.10"/><line x1="1327.7" y1="219.2" x2="1383.0" y2="267.8" stroke="#fb923c" stroke-width="0.5" stroke-opacity="0.10"/><line x1="1327.7" y1="219.2" x2="1399.9" y2="253.5" stroke="#fb923c" stroke-width="0.5" stroke-opacity="0.10"/><line x1="1327.7" y1="219.2" x2="1270.8" y2="308.5" stroke="#fb923c" stroke-width="0.5" stroke-opacity="0.10"/><line x1="553.5" y1="147.2" x2="622.4" y2="212.9" stroke="#fb923c" stroke-width="0.5" stroke-opacity="0.10"/><line x1="553.5" y1="147.2" x2="546.3" y2="164.4" stroke="#fb923c" stroke-width="0.5" stroke-opacity="0.10"/><line x1="1361.3" y1="32.1" x2="1281.5" y2="117.2" stroke="#fb923c" stroke-width="0.5" stroke-opacity="0.10"/><line x1="1361.3" y1="32.1" x2="1332.4" y2="143.3" stroke="#fb923c" stroke-width="0.5" stroke-opacity="0.10"/><line x1="336.3" y1="254.9" x2="307.1" y2="216.0" stroke="#fb923c" stroke-width="0.5" stroke-opacity="0.10"/><line x1="336.3" y1="254.9" x2="292.2" y2="358.0" stroke="#fb923c" stroke-width="0.5" stroke-opacity="0.10"/><line x1="336.3" y1="254.9" x2="273.1" y2="251.8" stroke="#fb923c" stroke-width="0.5" stroke-opacity="0.10"/><line x1="1210.6" y1="50.8" x2="1281.5" y2="117.2" stroke="#fb923c" stroke-width="0.5" stroke-opacity="0.10"/><line x1="622.4" y1="212.9" x2="546.3" y2="164.4" stroke="#fb923c" stroke-width="0.5" stroke-opacity="0.10"/><line x1="622.4" y1="212.9" x2="669.3" y2="201.1" stroke="#fb923c" stroke-width="0.5" stroke-opacity="0.10"/><line x1="1057.6" y1="166.3" x2="1112.9" y2="169.1" stroke="#fb923c" stroke-width="0.5" stroke-opacity="0.10"/><line x1="1057.6" y1="166.3" x2="971.8" y2="172.3" stroke="#fb923c" stroke-width="0.5" stroke-opacity="0.10"/><line x1="1057.6" y1="166.3" x2="1073.3" y2="91.2" stroke="#fb923c" stroke-width="0.5" stroke-opacity="0.10"/><line x1="1057.6" y1="166.3" x2="1029.0" y2="131.5" stroke="#fb923c" stroke-width="0.5" stroke-opacity="0.10"/><line x1="1057.6" y1="166.3" x2="988.9" y2="96.6" stroke="#fb923c" stroke-width="0.5" stroke-opacity="0.10"/><line x1="100.0" y1="82.1" x2="68.4" y2="126.0" stroke="#fb923c" stroke-width="0.5" stroke-opacity="0.10"/><line x1="100.0" y1="82.1" x2="0.8" y2="148.9" stroke="#fb923c" stroke-width="0.5" stroke-opacity="0.10"/><line x1="100.0" y1="82.1" x2="22.7" y2="62.3" stroke="#fb923c" stroke-width="0.5" stroke-opacity="0.10"/><line x1="1513.3" y1="72.4" x2="1546.7" y2="154.0" stroke="#fb923c" stroke-width="0.5" stroke-opacity="0.10"/><line x1="1513.3" y1="72.4" x2="1499.7" y2="62.9" stroke="#fb923c" stroke-width="0.5" stroke-opacity="0.10"/><line x1="1281.5" y1="117.2" x2="1332.4" y2="143.3" stroke="#fb923c" stroke-width="0.5" stroke-opacity="0.10"/><line x1="68.4" y1="126.0" x2="0.8" y2="148.9" stroke="#fb923c" stroke-width="0.5" stroke-opacity="0.10"/><line x1="68.4" y1="126.0" x2="22.7" y2="62.3" stroke="#fb923c" stroke-width="0.5" stroke-opacity="0.10"/><line x1="430.0" y1="174.5" x2="414.8" y2="75.1" stroke="#fb923c" stroke-width="0.5" stroke-opacity="0.10"/><line x1="430.0" y1="174.5" x2="546.3" y2="164.4" stroke="#fb923c" stroke-width="0.5" stroke-opacity="0.10"/><line x1="1417.7" y1="291.4" x2="1383.0" y2="267.8" stroke="#fb923c" stroke-width="0.5" stroke-opacity="0.10"/><line x1="1417.7" y1="291.4" x2="1399.9" y2="253.5" stroke="#fb923c" stroke-width="0.5" stroke-opacity="0.10"/><line x1="196.3" y1="306.3" x2="174.4" y2="266.8" stroke="#fb923c" stroke-width="0.5" stroke-opacity="0.10"/><line x1="196.3" y1="306.3" x2="130.1" y2="250.0" stroke="#fb923c" stroke-width="0.5" stroke-opacity="0.10"/><line x1="196.3" y1="306.3" x2="292.2" y2="358.0" stroke="#fb923c" stroke-width="0.5" stroke-opacity="0.10"/><line x1="196.3" y1="306.3" x2="273.1" y2="251.8" stroke="#fb923c" stroke-width="0.5" stroke-opacity="0.10"/><line x1="307.1" y1="216.0" x2="273.1" y2="251.8" stroke="#fb923c" stroke-width="0.5" stroke-opacity="0.10"/><line x1="1112.9" y1="169.1" x2="1073.3" y2="91.2" stroke="#fb923c" stroke-width="0.5" stroke-opacity="0.10"/><line x1="1112.9" y1="169.1" x2="1029.0" y2="131.5" stroke="#fb923c" stroke-width="0.5" stroke-opacity="0.10"/><line x1="0.8" y1="148.9" x2="22.7" y2="62.3" stroke="#fb923c" stroke-width="0.5" stroke-opacity="0.10"/><line x1="867.9" y1="211.8" x2="971.8" y2="172.3" stroke="#fb923c" stroke-width="0.5" stroke-opacity="0.10"/><line x1="867.9" y1="211.8" x2="895.1" y2="115.0" stroke="#fb923c" stroke-width="0.5" stroke-opacity="0.10"/><line x1="867.9" y1="211.8" x2="833.2" y2="309.9" stroke="#fb923c" stroke-width="0.5" stroke-opacity="0.10"/><line x1="867.9" y1="211.8" x2="816.4" y2="305.0" stroke="#fb923c" stroke-width="0.5" stroke-opacity="0.10"/><line x1="414.8" y1="75.1" x2="333.3" y2="77.6" stroke="#fb923c" stroke-width="0.5" stroke-opacity="0.10"/><line x1="971.8" y1="172.3" x2="895.1" y2="115.0" stroke="#fb923c" stroke-width="0.5" stroke-opacity="0.10"/><line x1="971.8" y1="172.3" x2="1029.0" y2="131.5" stroke="#fb923c" stroke-width="0.5" stroke-opacity="0.10"/><line x1="971.8" y1="172.3" x2="988.9" y2="96.6" stroke="#fb923c" stroke-width="0.5" stroke-opacity="0.10"/><line x1="1383.0" y1="267.8" x2="1399.9" y2="253.5" stroke="#fb923c" stroke-width="0.5" stroke-opacity="0.10"/><line x1="1383.0" y1="267.8" x2="1270.8" y2="308.5" stroke="#fb923c" stroke-width="0.5" stroke-opacity="0.10"/><line x1="1073.3" y1="91.2" x2="1029.0" y2="131.5" stroke="#fb923c" stroke-width="0.5" stroke-opacity="0.10"/><line x1="1073.3" y1="91.2" x2="988.9" y2="96.6" stroke="#fb923c" stroke-width="0.5" stroke-opacity="0.10"/><line x1="174.4" y1="266.8" x2="130.1" y2="250.0" stroke="#fb923c" stroke-width="0.5" stroke-opacity="0.10"/><line x1="174.4" y1="266.8" x2="273.1" y2="251.8" stroke="#fb923c" stroke-width="0.5" stroke-opacity="0.10"/><line x1="1546.7" y1="154.0" x2="1499.7" y2="62.9" stroke="#fb923c" stroke-width="0.5" stroke-opacity="0.10"/><line x1="895.1" y1="115.0" x2="988.9" y2="96.6" stroke="#fb923c" stroke-width="0.5" stroke-opacity="0.10"/><line x1="1029.0" y1="131.5" x2="988.9" y2="96.6" stroke="#fb923c" stroke-width="0.5" stroke-opacity="0.10"/><line x1="292.2" y1="358.0" x2="273.1" y2="251.8" stroke="#fb923c" stroke-width="0.5" stroke-opacity="0.10"/><line x1="833.2" y1="309.9" x2="816.4" y2="305.0" stroke="#fb923c" stroke-width="0.5" stroke-opacity="0.10"/><circle cx="128.2" cy="226.4" r="1.5" fill="#fb923c" fill-opacity="0.19"/><circle cx="171.0" cy="248.8" r="1.7" fill="#fb923c" fill-opacity="0.37"/><circle cx="940.6" cy="27.6" r="1.4" fill="#fb923c" fill-opacity="0.18"/><circle cx="1344.2" cy="325.8" r="2.1" fill="#fb923c" fill-opacity="0.16"/><circle cx="1327.7" cy="219.2" r="0.9" fill="#fb923c" fill-opacity="0.29"/><circle cx="553.5" cy="147.2" r="0.7" fill="#fb923c" fill-opacity="0.21"/><circle cx="1361.3" cy="32.1" r="0.8" fill="#fb923c" fill-opacity="0.60"/><circle cx="336.3" cy="254.9" r="2.0" fill="#fb923c" fill-opacity="0.30"/><circle cx="1210.6" cy="50.8" r="0.7" fill="#fb923c" fill-opacity="0.62"/><circle cx="622.4" cy="212.9" r="1.6" fill="#fb923c" fill-opacity="0.44"/><circle cx="1057.6" cy="166.3" r="1.4" fill="#fb923c" fill-opacity="0.36"/><circle cx="100.0" cy="82.1" r="1.8" fill="#fb923c" fill-opacity="0.44"/><circle cx="1513.3" cy="72.4" r="0.8" fill="#fb923c" fill-opacity="0.19"/><circle cx="1281.5" cy="117.2" r="2.1" fill="#fb923c" fill-opacity="0.35"/><circle cx="1332.4" cy="143.3" r="0.9" fill="#fb923c" fill-opacity="0.43"/><circle cx="68.4" cy="126.0" r="1.4" fill="#fb923c" fill-opacity="0.53"/><circle cx="430.0" cy="174.5" r="1.0" fill="#fb923c" fill-opacity="0.33"/><circle cx="1417.7" cy="291.4" r="1.8" fill="#fb923c" fill-opacity="0.61"/><circle cx="196.3" cy="306.3" r="0.9" fill="#fb923c" fill-opacity="0.21"/><circle cx="307.1" cy="216.0" r="2.0" fill="#fb923c" fill-opacity="0.21"/><circle cx="1112.9" cy="169.1" r="2.1" fill="#fb923c" fill-opacity="0.47"/><circle cx="0.8" cy="148.9" r="1.5" fill="#fb923c" fill-opacity="0.44"/><circle cx="867.9" cy="211.8" r="1.4" fill="#fb923c" fill-opacity="0.34"/><circle cx="414.8" cy="75.1" r="0.7" fill="#fb923c" fill-opacity="0.15"/><circle cx="971.8" cy="172.3" r="2.2" fill="#fb923c" fill-opacity="0.41"/><circle cx="1383.0" cy="267.8" r="1.2" fill="#fb923c" fill-opacity="0.50"/><circle cx="1073.3" cy="91.2" r="2.1" fill="#fb923c" fill-opacity="0.49"/><circle cx="22.7" cy="62.3" r="1.0" fill="#fb923c" fill-opacity="0.28"/><circle cx="174.4" cy="266.8" r="1.9" fill="#fb923c" fill-opacity="0.64"/><circle cx="1399.9" cy="253.5" r="1.7" fill="#fb923c" fill-opacity="0.57"/><circle cx="1546.7" cy="154.0" r="0.7" fill="#fb923c" fill-opacity="0.62"/><circle cx="895.1" cy="115.0" r="1.3" fill="#fb923c" fill-opacity="0.59"/><circle cx="546.3" cy="164.4" r="1.7" fill="#fb923c" fill-opacity="0.55"/><circle cx="669.3" cy="201.1" r="2.2" fill="#fb923c" fill-opacity="0.42"/><circle cx="130.1" cy="250.0" r="0.7" fill="#fb923c" fill-opacity="0.29"/><circle cx="1029.0" cy="131.5" r="1.9" fill="#fb923c" fill-opacity="0.42"/><circle cx="1270.8" cy="308.5" r="2.1" fill="#fb923c" fill-opacity="0.27"/><circle cx="292.2" cy="358.0" r="1.9" fill="#fb923c" fill-opacity="0.52"/><circle cx="273.1" cy="251.8" r="1.3" fill="#fb923c" fill-opacity="0.42"/><circle cx="1554.1" cy="353.9" r="1.3" fill="#fb923c" fill-opacity="0.22"/><circle cx="988.9" cy="96.6" r="1.5" fill="#fb923c" fill-opacity="0.46"/><circle cx="752.4" cy="66.2" r="1.6" fill="#fb923c" fill-opacity="0.38"/><circle cx="333.3" cy="77.6" r="1.5" fill="#fb923c" fill-opacity="0.54"/><circle cx="833.2" cy="309.9" r="1.1" fill="#fb923c" fill-opacity="0.34"/><circle cx="1499.7" cy="62.9" r="0.8" fill="#fb923c" fill-opacity="0.53"/><circle cx="816.4" cy="305.0" r="1.2" fill="#fb923c" fill-opacity="0.28"/></g>
  <g opacity="0.95"><rect x="1270" y="160" width="34" height="100" fill="#fb923c" fill-opacity="0.7"/><rect x="1316" y="110" width="38" height="150" fill="#fb923c" fill-opacity="0.85"/><rect x="1364" y="180" width="30" height="80" fill="#fb923c" fill-opacity="0.6"/><line x1="1316" y1="110" x2="1370" y2="92" stroke="#fb923c" stroke-width="2"/></g>
  <g font-family="'Segoe UI', system-ui, sans-serif">
    <text x="130" y="150" fill="#fb923c" font-size="22" font-weight="700" letter-spacing="6">24/7 INTELLIGENCE DOMAIN</text>
    <text x="126" y="238" fill="url(#title)" font-size="92" font-weight="800" letter-spacing="1">Construction</text>
    <rect x="132" y="262" width="150" height="5" rx="2.5" fill="#fb923c"/>
  </g>
  <rect x="0" y="0" width="1600" height="360" fill="none" stroke="#fb923c" stroke-opacity="0.18" stroke-width="2"/>
</svg>
