<svg xmlns="http://www.w3.org/2000/svg" viewBox="0 0 1600 360" width="1600" height="360" role="img" aria-label="Automation &amp; Jobs domain banner">
  <defs>
    <linearGradient id="bg" x1="0" y1="0" x2="1" y2="1">
      <stop offset="0" stop-color="#060b18"/>
      <stop offset="0.55" stop-color="#0a1428"/>
      <stop offset="1" stop-color="#0c1a33"/>
    </linearGradient>
    <radialGradient id="glowA" cx="0.82" cy="0.5" r="0.5">
      <stop offset="0" stop-color="#60a5fa" stop-opacity="0.35"/>
      <stop offset="1" stop-color="#60a5fa" stop-opacity="0"/>
    </radialGradient>
    <radialGradient id="glowB" cx="0.1" cy="0.9" r="0.6">
      <stop offset="0" stop-color="#818cf8" stop-opacity="0.22"/>
      <stop offset="1" stop-color="#818cf8" stop-opacity="0"/>
    </radialGradient>
    <linearGradient id="title" x1="0" y1="0" x2="1" y2="0">
      <stop offset="0" stop-color="#ffffff"/>
      <stop offset="1" stop-color="#60a5fa"/>
    </linearGradient>
  </defs>
  <rect width="1600" height="360" fill="url(#bg)"/>
  <rect width="1600" height="360" fill="url(#glowA)"/>
  <rect width="1600" height="360" fill="url(#glowB)"/>
  <g><line x1="863.3" y1="200.4" x2="815.6" y2="305.2" stroke="#60a5fa" stroke-width="0.5" stroke-opacity="0.10"/><line x1="863.3" y1="200.4" x2="813.1" y2="227.9" stroke="#60a5fa" stroke-width="0.5" stroke-opacity="0.10"/><line x1="863.3" y1="200.4" x2="879.0" y2="209.9" stroke="#60a5fa" stroke-width="0.5" stroke-opacity="0.10"/><line x1="863.3" y1="200.4" x2="970.3" y2="194.3" stroke="#60a5fa" stroke-width="0.5" stroke-opacity="0.10"/><line x1="606.4" y1="249.4" x2="689.3" y2="233.8" stroke="#60a5fa" stroke-width="0.5" stroke-opacity="0.10"/><line x1="606.4" y1="249.4" x2="644.0" y2="352.1" stroke="#60a5fa" stroke-width="0.5" stroke-opacity="0.10"/><line x1="606.4" y1="249.4" x2="624.2" y2="180.7" stroke="#60a5fa" stroke-width="0.5" stroke-opacity="0.10"/><line x1="224.3" y1="294.7" x2="200.8" y2="187.6" stroke="#60a5fa" stroke-width="0.5" stroke-opacity="0.10"/><line x1="224.3" y1="294.7" x2="117.1" y2="276.1" stroke="#60a5fa" stroke-width="0.5" stroke-opacity="0.10"/><line x1="224.3" y1="294.7" x2="213.8" y2="273.5" stroke="#60a5fa" stroke-width="0.5" stroke-opacity="0.10"/><line x1="520.0" y1="109.5" x2="439.0" y2="125.4" stroke="#60a5fa" stroke-width="0.5" stroke-opacity="0.10"/><line x1="520.0" y1="109.5" x2="541.5" y2="78.4" stroke="#60a5fa" stroke-width="0.5" stroke-opacity="0.10"/><line x1="1491.7" y1="9.6" x2="1561.9" y2="25.7" stroke="#60a5fa" stroke-width="0.5" stroke-opacity="0.10"/><line x1="200.8" y1="187.6" x2="188.2" y2="102.5" stroke="#60a5fa" stroke-width="0.5" stroke-opacity="0.10"/><line x1="200.8" y1="187.6" x2="138.8" y2="89.5" stroke="#60a5fa" stroke-width="0.5" stroke-opacity="0.10"/><line x1="200.8" y1="187.6" x2="213.8" y2="273.5" stroke="#60a5fa" stroke-width="0.5" stroke-opacity="0.10"/><line x1="1270.8" y1="214.6" x2="1272.7" y2="170.9" stroke="#60a5fa" stroke-width="0.5" stroke-opacity="0.10"/><line x1="1270.8" y1="214.6" x2="1166.2" y2="157.5" stroke="#60a5fa" stroke-width="0.5" stroke-opacity="0.10"/><line x1="1270.8" y1="214.6" x2="1258.8" y2="149.2" stroke="#60a5fa" stroke-width="0.5" stroke-opacity="0.10"/><line x1="416.2" y1="238.6" x2="439.0" y2="125.4" stroke="#60a5fa" stroke-width="0.5" stroke-opacity="0.10"/><line x1="416.2" y1="238.6" x2="403.7" y2="156.5" stroke="#60a5fa" stroke-width="0.5" stroke-opacity="0.10"/><line x1="1022.6" y1="315.6" x2="905.9" y2="315.7" stroke="#60a5fa" stroke-width="0.5" stroke-opacity="0.10"/><line x1="1022.6" y1="315.6" x2="1006.1" y2="236.0" stroke="#60a5fa" stroke-width="0.5" stroke-opacity="0.10"/><line x1="1022.6" y1="315.6" x2="1049.2" y2="264.7" stroke="#60a5fa" stroke-width="0.5" stroke-opacity="0.10"/><line x1="1272.7" y1="170.9" x2="1166.2" y2="157.5" stroke="#60a5fa" stroke-width="0.5" stroke-opacity="0.10"/><line x1="1272.7" y1="170.9" x2="1258.8" y2="149.2" stroke="#60a5fa" stroke-width="0.5" stroke-opacity="0.10"/><line x1="821.0" y1="353.3" x2="815.6" y2="305.2" stroke="#60a5fa" stroke-width="0.5" stroke-opacity="0.10"/><line x1="821.0" y1="353.3" x2="905.9" y2="315.7" stroke="#60a5fa" stroke-width="0.5" stroke-opacity="0.10"/><line x1="815.6" y1="305.2" x2="905.9" y2="315.7" stroke="#60a5fa" stroke-width="0.5" stroke-opacity="0.10"/><line x1="815.6" y1="305.2" x2="813.1" y2="227.9" stroke="#60a5fa" stroke-width="0.5" stroke-opacity="0.10"/><line x1="815.6" y1="305.2" x2="879.0" y2="209.9" stroke="#60a5fa" stroke-width="0.5" stroke-opacity="0.10"/><line x1="188.2" y1="102.5" x2="138.8" y2="89.5" stroke="#60a5fa" stroke-width="0.5" stroke-opacity="0.10"/><line x1="1141.5" y1="111.1" x2="1208.5" y2="61.6" stroke="#60a5fa" stroke-width="0.5" stroke-opacity="0.10"/><line x1="1141.5" y1="111.1" x2="1166.2" y2="157.5" stroke="#60a5fa" stroke-width="0.5" stroke-opacity="0.10"/><line x1="355.3" y1="95.6" x2="439.0" y2="125.4" stroke="#60a5fa" stroke-width="0.5" stroke-opacity="0.10"/><line x1="355.3" y1="95.6" x2="403.7" y2="156.5" stroke="#60a5fa" stroke-width="0.5" stroke-opacity="0.10"/><line x1="355.3" y1="95.6" x2="325.3" y2="90.6" stroke="#60a5fa" stroke-width="0.5" stroke-opacity="0.10"/><line x1="439.0" y1="125.4" x2="403.7" y2="156.5" stroke="#60a5fa" stroke-width="0.5" stroke-opacity="0.10"/><line x1="439.0" y1="125.4" x2="541.5" y2="78.4" stroke="#60a5fa" stroke-width="0.5" stroke-opacity="0.10"/><line x1="439.0" y1="125.4" x2="325.3" y2="90.6" stroke="#60a5fa" stroke-width="0.5" stroke-opacity="0.10"/><line x1="729.1" y1="114.1" x2="677.5" y2="7.9" stroke="#60a5fa" stroke-width="0.5" stroke-opacity="0.10"/><line x1="729.1" y1="114.1" x2="658.9" y2="53.9" stroke="#60a5fa" stroke-width="0.5" stroke-opacity="0.10"/><line x1="403.7" y1="156.5" x2="325.3" y2="90.6" stroke="#60a5fa" stroke-width="0.5" stroke-opacity="0.10"/><line x1="905.9" y1="315.7" x2="879.0" y2="209.9" stroke="#60a5fa" stroke-width="0.5" stroke-opacity="0.10"/><line x1="1208.5" y1="61.6" x2="1166.2" y2="157.5" stroke="#60a5fa" stroke-width="0.5" stroke-opacity="0.10"/><line x1="1208.5" y1="61.6" x2="1258.8" y2="149.2" stroke="#60a5fa" stroke-width="0.5" stroke-opacity="0.10"/><line x1="677.5" y1="7.9" x2="658.9" y2="53.9" stroke="#60a5fa" stroke-width="0.5" stroke-opacity="0.10"/><line x1="541.5" y1="78.4" x2="658.9" y2="53.9" stroke="#60a5fa" stroke-width="0.5" stroke-opacity="0.10"/><line x1="1006.1" y1="236.0" x2="1049.2" y2="264.7" stroke="#60a5fa" stroke-width="0.5" stroke-opacity="0.10"/><line x1="1006.1" y1="236.0" x2="970.3" y2="194.3" stroke="#60a5fa" stroke-width="0.5" stroke-opacity="0.10"/><line x1="138.8" y1="89.5" x2="96.2" y2="2.3" stroke="#60a5fa" stroke-width="0.5" stroke-opacity="0.10"/><line x1="1049.2" y1="264.7" x2="970.3" y2="194.3" stroke="#60a5fa" stroke-width="0.5" stroke-opacity="0.10"/><line x1="689.3" y1="233.8" x2="624.2" y2="180.7" stroke="#60a5fa" stroke-width="0.5" stroke-opacity="0.10"/><line x1="813.1" y1="227.9" x2="879.0" y2="209.9" stroke="#60a5fa" stroke-width="0.5" stroke-opacity="0.10"/><line x1="117.1" y1="276.1" x2="213.8" y2="273.5" stroke="#60a5fa" stroke-width="0.5" stroke-opacity="0.10"/><line x1="1166.2" y1="157.5" x2="1258.8" y2="149.2" stroke="#60a5fa" stroke-width="0.5" stroke-opacity="0.10"/><line x1="1533.0" y1="254.8" x2="1479.5" y2="273.1" stroke="#60a5fa" stroke-width="0.5" stroke-opacity="0.10"/><line x1="879.0" y1="209.9" x2="970.3" y2="194.3" stroke="#60a5fa" stroke-width="0.5" stroke-opacity="0.10"/><circle cx="863.3" cy="200.4" r="1.8" fill="#60a5fa" fill-opacity="0.23"/><circle cx="606.4" cy="249.4" r="0.7" fill="#60a5fa" fill-opacity="0.56"/><circle cx="224.3" cy="294.7" r="1.7" fill="#60a5fa" fill-opacity="0.61"/><circle cx="520.0" cy="109.5" r="2.2" fill="#60a5fa" fill-opacity="0.37"/><circle cx="1491.7" cy="9.6" r="1.7" fill="#60a5fa" fill-opacity="0.27"/><circle cx="1561.9" cy="25.7" r="1.7" fill="#60a5fa" fill-opacity="0.22"/><circle cx="200.8" cy="187.6" r="1.8" fill="#60a5fa" fill-opacity="0.38"/><circle cx="1270.8" cy="214.6" r="1.3" fill="#60a5fa" fill-opacity="0.26"/><circle cx="416.2" cy="238.6" r="1.0" fill="#60a5fa" fill-opacity="0.25"/><circle cx="1022.6" cy="315.6" r="1.3" fill="#60a5fa" fill-opacity="0.56"/><circle cx="1272.7" cy="170.9" r="2.1" fill="#60a5fa" fill-opacity="0.17"/><circle cx="821.0" cy="353.3" r="1.4" fill="#60a5fa" fill-opacity="0.56"/><circle cx="815.6" cy="305.2" r="1.7" fill="#60a5fa" fill-opacity="0.24"/><circle cx="188.2" cy="102.5" r="1.2" fill="#60a5fa" fill-opacity="0.54"/><circle cx="1141.5" cy="111.1" r="1.1" fill="#60a5fa" fill-opacity="0.17"/><circle cx="355.3" cy="95.6" r="2.2" fill="#60a5fa" fill-opacity="0.16"/><circle cx="439.0" cy="125.4" r="1.4" fill="#60a5fa" fill-opacity="0.26"/><circle cx="1353.4" cy="313.3" r="0.6" fill="#60a5fa" fill-opacity="0.42"/><circle cx="729.1" cy="114.1" r="1.1" fill="#60a5fa" fill-opacity="0.23"/><circle cx="403.7" cy="156.5" r="1.3" fill="#60a5fa" fill-opacity="0.26"/><circle cx="905.9" cy="315.7" r="1.1" fill="#60a5fa" fill-opacity="0.27"/><circle cx="1208.5" cy="61.6" r="2.3" fill="#60a5fa" fill-opacity="0.18"/><circle cx="677.5" cy="7.9" r="1.6" fill="#60a5fa" fill-opacity="0.45"/><circle cx="541.5" cy="78.4" r="1.8" fill="#60a5fa" fill-opacity="0.34"/><circle cx="1006.1" cy="236.0" r="1.7" fill="#60a5fa" fill-opacity="0.25"/><circle cx="138.8" cy="89.5" r="0.8" fill="#60a5fa" fill-opacity="0.18"/><circle cx="1049.2" cy="264.7" r="1.9" fill="#60a5fa" fill-opacity="0.16"/><circle cx="689.3" cy="233.8" r="0.7" fill="#60a5fa" fill-opacity="0.19"/><circle cx="1199.7" cy="351.6" r="1.5" fill="#60a5fa" fill-opacity="0.18"/><circle cx="325.3" cy="90.6" r="2.3" fill="#60a5fa" fill-opacity="0.57"/><circle cx="1026.9" cy="43.7" r="1.1" fill="#60a5fa" fill-opacity="0.51"/><circle cx="813.1" cy="227.9" r="1.8" fill="#60a5fa" fill-opacity="0.50"/><circle cx="117.1" cy="276.1" r="1.9" fill="#60a5fa" fill-opacity="0.61"/><circle cx="644.0" cy="352.1" r="2.3" fill="#60a5fa" fill-opacity="0.41"/><circle cx="213.8" cy="273.5" r="1.0" fill="#60a5fa" fill-opacity="0.46"/><circle cx="624.2" cy="180.7" r="1.8" fill="#60a5fa" fill-opacity="0.32"/><circle cx="658.9" cy="53.9" r="0.7" fill="#60a5fa" fill-opacity="0.17"/><circle cx="1166.2" cy="157.5" r="2.1" fill="#60a5fa" fill-opacity="0.15"/><circle cx="1533.0" cy="254.8" r="1.2" fill="#60a5fa" fill-opacity="0.31"/><circle cx="879.0" cy="209.9" r="1.7" fill="#60a5fa" fill-opacity="0.63"/><circle cx="96.2" cy="2.3" r="1.9" fill="#60a5fa" fill-opacity="0.61"/><circle cx="1258.8" cy="149.2" r="2.1" fill="#60a5fa" fill-opacity="0.18"/><circle cx="1328.4" cy="22.3" r="1.0" fill="#60a5fa" fill-opacity="0.27"/><circle cx="1479.5" cy="273.1" r="2.0" fill="#60a5fa" fill-opacity="0.37"/><circle cx="970.3" cy="194.3" r="1.6" fill="#60a5fa" fill-opacity="0.31"/><circle cx="883.7" cy="10.9" r="0.9" fill="#60a5fa" fill-opacity="0.36"/></g>
  <g opacity="0.95"><rect x="1314" y="164" width="32" height="32" rx="6" fill="#60a5fa" fill-opacity="0.9"/><line x1="1330" y1="180" x2="1330.0" y2="106.0" stroke="#60a5fa" stroke-width="1.4" stroke-opacity="0.55"/><circle cx="1330.0" cy="106.0" r="6" fill="#60a5fa"/><line x1="1330" y1="180" x2="1400.4" y2="157.1" stroke="#60a5fa" stroke-width="1.4" stroke-opacity="0.55"/><circle cx="1400.4" cy="157.1" r="6" fill="#60a5fa"/><line x1="1330" y1="180" x2="1373.5" y2="239.9" stroke="#60a5fa" stroke-width="1.4" stroke-opacity="0.55"/><circle cx="1373.5" cy="239.9" r="6" fill="#60a5fa"/><line x1="1330" y1="180" x2="1286.5" y2="239.9" stroke="#60a5fa" stroke-width="1.4" stroke-opacity="0.55"/><circle cx="1286.5" cy="239.9" r="6" fill="#60a5fa"/><line x1="1330" y1="180" x2="1259.6" y2="157.1" stroke="#60a5fa" stroke-width="1.4" stroke-opacity="0.55"/><circle cx="1259.6" cy="157.1" r="6" fill="#60a5fa"/></g>
  <g font-family="'Segoe UI', system-ui, sans-serif">
    <text x="130" y="150" fill="#60a5fa" font-size="22" font-weight="700" letter-spacing="6">24/7 INTELLIGENCE DOMAIN</text>
    <text x="126" y="238" fill="url(#title)" font-size="92" font-weight="800" letter-spacing="1">Automation &amp; Jobs</text>
    <rect x="132" y="262" width="150" height="5" rx="2.5" fill="#60a5fa"/>
  </g>
  <rect x="0" y="0" width="1600" height="360" fill="none" stroke="#60a5fa" stroke-opacity="0.18" stroke-width="2"/>
</svg>
