<svg xmlns="http://www.w3.org/2000/svg" viewBox="0 0 1600 360" width="1600" height="360" role="img" aria-label="Governance domain banner">
  <defs>
    <linearGradient id="bg" x1="0" y1="0" x2="1" y2="1">
      <stop offset="0" stop-color="#060b18"/>
      <stop offset="0.55" stop-color="#0a1428"/>
      <stop offset="1" stop-color="#0c1a33"/>
    </linearGradient>
    <radialGradient id="glowA" cx="0.82" cy="0.5" r="0.5">
      <stop offset="0" stop-color="#60a5fa" stop-opacity="0.35"/>
      <stop offset="1" stop-color="#60a5fa" stop-opacity="0"/>
    </radialGradient>
    <radialGradient id="glowB" cx="0.1" cy="0.9" r="0.6">
      <stop offset="0" stop-color="#22d3ee" stop-opacity="0.22"/>
      <stop offset="1" stop-color="#22d3ee" stop-opacity="0"/>
    </radialGradient>
    <linearGradient id="title" x1="0" y1="0" x2="1" y2="0">
      <stop offset="0" stop-color="#ffffff"/>
      <stop offset="1" stop-color="#60a5fa"/>
    </linearGradient>
  </defs>
  <rect width="1600" height="360" fill="url(#bg)"/>
  <rect width="1600" height="360" fill="url(#glowA)"/>
  <rect width="1600" height="360" fill="url(#glowB)"/>
  <g><line x1="1576.5" y1="190.2" x2="1588.0" y2="304.7" stroke="#60a5fa" stroke-width="0.5" stroke-opacity="0.10"/><line x1="728.0" y1="157.6" x2="690.3" y2="177.6" stroke="#60a5fa" stroke-width="0.5" stroke-opacity="0.10"/><line x1="728.0" y1="157.6" x2="716.3" y2="149.3" stroke="#60a5fa" stroke-width="0.5" stroke-opacity="0.10"/><line x1="728.0" y1="157.6" x2="743.2" y2="205.5" stroke="#60a5fa" stroke-width="0.5" stroke-opacity="0.10"/><line x1="728.0" y1="157.6" x2="743.9" y2="225.1" stroke="#60a5fa" stroke-width="0.5" stroke-opacity="0.10"/><line x1="728.0" y1="157.6" x2="718.4" y2="203.2" stroke="#60a5fa" stroke-width="0.5" stroke-opacity="0.10"/><line x1="728.0" y1="157.6" x2="726.8" y2="268.4" stroke="#60a5fa" stroke-width="0.5" stroke-opacity="0.10"/><line x1="690.3" y1="177.6" x2="716.3" y2="149.3" stroke="#60a5fa" stroke-width="0.5" stroke-opacity="0.10"/><line x1="690.3" y1="177.6" x2="743.2" y2="205.5" stroke="#60a5fa" stroke-width="0.5" stroke-opacity="0.10"/><line x1="690.3" y1="177.6" x2="743.9" y2="225.1" stroke="#60a5fa" stroke-width="0.5" stroke-opacity="0.10"/><line x1="690.3" y1="177.6" x2="593.0" y2="194.9" stroke="#60a5fa" stroke-width="0.5" stroke-opacity="0.10"/><line x1="690.3" y1="177.6" x2="718.4" y2="203.2" stroke="#60a5fa" stroke-width="0.5" stroke-opacity="0.10"/><line x1="690.3" y1="177.6" x2="726.8" y2="268.4" stroke="#60a5fa" stroke-width="0.5" stroke-opacity="0.10"/><line x1="144.0" y1="14.6" x2="83.5" y2="79.4" stroke="#60a5fa" stroke-width="0.5" stroke-opacity="0.10"/><line x1="1177.5" y1="120.1" x2="1167.3" y2="99.2" stroke="#60a5fa" stroke-width="0.5" stroke-opacity="0.10"/><line x1="1177.5" y1="120.1" x2="1107.8" y2="36.5" stroke="#60a5fa" stroke-width="0.5" stroke-opacity="0.10"/><line x1="1167.3" y1="99.2" x2="1107.8" y2="36.5" stroke="#60a5fa" stroke-width="0.5" stroke-opacity="0.10"/><line x1="716.3" y1="149.3" x2="640.8" y2="59.9" stroke="#60a5fa" stroke-width="0.5" stroke-opacity="0.10"/><line x1="716.3" y1="149.3" x2="743.2" y2="205.5" stroke="#60a5fa" stroke-width="0.5" stroke-opacity="0.10"/><line x1="716.3" y1="149.3" x2="743.9" y2="225.1" stroke="#60a5fa" stroke-width="0.5" stroke-opacity="0.10"/><line x1="716.3" y1="149.3" x2="718.4" y2="203.2" stroke="#60a5fa" stroke-width="0.5" stroke-opacity="0.10"/><line x1="716.3" y1="149.3" x2="726.8" y2="268.4" stroke="#60a5fa" stroke-width="0.5" stroke-opacity="0.10"/><line x1="490.7" y1="198.1" x2="477.8" y2="168.8" stroke="#60a5fa" stroke-width="0.5" stroke-opacity="0.10"/><line x1="490.7" y1="198.1" x2="533.1" y2="294.1" stroke="#60a5fa" stroke-width="0.5" stroke-opacity="0.10"/><line x1="490.7" y1="198.1" x2="593.0" y2="194.9" stroke="#60a5fa" stroke-width="0.5" stroke-opacity="0.10"/><line x1="490.7" y1="198.1" x2="532.9" y2="122.8" stroke="#60a5fa" stroke-width="0.5" stroke-opacity="0.10"/><line x1="1020.6" y1="314.9" x2="982.9" y2="235.5" stroke="#60a5fa" stroke-width="0.5" stroke-opacity="0.10"/><line x1="1020.6" y1="314.9" x2="1120.5" y2="320.1" stroke="#60a5fa" stroke-width="0.5" stroke-opacity="0.10"/><line x1="1020.6" y1="314.9" x2="1066.9" y2="297.2" stroke="#60a5fa" stroke-width="0.5" stroke-opacity="0.10"/><line x1="1218.3" y1="307.6" x2="1120.5" y2="320.1" stroke="#60a5fa" stroke-width="0.5" stroke-opacity="0.10"/><line x1="1218.3" y1="307.6" x2="1202.9" y2="246.8" stroke="#60a5fa" stroke-width="0.5" stroke-opacity="0.10"/><line x1="1218.3" y1="307.6" x2="1211.2" y2="271.8" stroke="#60a5fa" stroke-width="0.5" stroke-opacity="0.10"/><line x1="1218.3" y1="307.6" x2="1168.1" y2="266.6" stroke="#60a5fa" stroke-width="0.5" stroke-opacity="0.10"/><line x1="982.9" y1="235.5" x2="1066.9" y2="297.2" stroke="#60a5fa" stroke-width="0.5" stroke-opacity="0.10"/><line x1="1120.5" y1="320.1" x2="1202.9" y2="246.8" stroke="#60a5fa" stroke-width="0.5" stroke-opacity="0.10"/><line x1="1120.5" y1="320.1" x2="1211.2" y2="271.8" stroke="#60a5fa" stroke-width="0.5" stroke-opacity="0.10"/><line x1="1120.5" y1="320.1" x2="1066.9" y2="297.2" stroke="#60a5fa" stroke-width="0.5" stroke-opacity="0.10"/><line x1="1120.5" y1="320.1" x2="1168.1" y2="266.6" stroke="#60a5fa" stroke-width="0.5" stroke-opacity="0.10"/><line x1="21.9" y1="156.0" x2="104.9" y2="153.4" stroke="#60a5fa" stroke-width="0.5" stroke-opacity="0.10"/><line x1="21.9" y1="156.0" x2="91.3" y2="186.1" stroke="#60a5fa" stroke-width="0.5" stroke-opacity="0.10"/><line x1="21.9" y1="156.0" x2="83.5" y2="79.4" stroke="#60a5fa" stroke-width="0.5" stroke-opacity="0.10"/><line x1="21.9" y1="156.0" x2="53.5" y2="262.4" stroke="#60a5fa" stroke-width="0.5" stroke-opacity="0.10"/><line x1="477.8" y1="168.8" x2="364.7" y2="142.4" stroke="#60a5fa" stroke-width="0.5" stroke-opacity="0.10"/><line x1="477.8" y1="168.8" x2="593.0" y2="194.9" stroke="#60a5fa" stroke-width="0.5" stroke-opacity="0.10"/><line x1="477.8" y1="168.8" x2="532.9" y2="122.8" stroke="#60a5fa" stroke-width="0.5" stroke-opacity="0.10"/><line x1="477.8" y1="168.8" x2="370.1" y2="188.6" stroke="#60a5fa" stroke-width="0.5" stroke-opacity="0.10"/><line x1="309.5" y1="210.0" x2="364.7" y2="142.4" stroke="#60a5fa" stroke-width="0.5" stroke-opacity="0.10"/><line x1="309.5" y1="210.0" x2="347.2" y2="143.3" stroke="#60a5fa" stroke-width="0.5" stroke-opacity="0.10"/><line x1="309.5" y1="210.0" x2="345.0" y2="201.7" stroke="#60a5fa" stroke-width="0.5" stroke-opacity="0.10"/><line x1="309.5" y1="210.0" x2="370.1" y2="188.6" stroke="#60a5fa" stroke-width="0.5" stroke-opacity="0.10"/><line x1="533.1" y1="294.1" x2="593.0" y2="194.9" stroke="#60a5fa" stroke-width="0.5" stroke-opacity="0.10"/><line x1="104.9" y1="153.4" x2="91.3" y2="186.1" stroke="#60a5fa" stroke-width="0.5" stroke-opacity="0.10"/><line x1="104.9" y1="153.4" x2="83.5" y2="79.4" stroke="#60a5fa" stroke-width="0.5" stroke-opacity="0.10"/><line x1="91.3" y1="186.1" x2="83.5" y2="79.4" stroke="#60a5fa" stroke-width="0.5" stroke-opacity="0.10"/><line x1="91.3" y1="186.1" x2="53.5" y2="262.4" stroke="#60a5fa" stroke-width="0.5" stroke-opacity="0.10"/><line x1="1202.9" y1="246.8" x2="1211.2" y2="271.8" stroke="#60a5fa" stroke-width="0.5" stroke-opacity="0.10"/><line x1="1202.9" y1="246.8" x2="1168.1" y2="266.6" stroke="#60a5fa" stroke-width="0.5" stroke-opacity="0.10"/><line x1="743.2" y1="205.5" x2="743.9" y2="225.1" stroke="#60a5fa" stroke-width="0.5" stroke-opacity="0.10"/><line x1="743.2" y1="205.5" x2="718.4" y2="203.2" stroke="#60a5fa" stroke-width="0.5" stroke-opacity="0.10"/><line x1="743.2" y1="205.5" x2="726.8" y2="268.4" stroke="#60a5fa" stroke-width="0.5" stroke-opacity="0.10"/><line x1="951.7" y1="4.8" x2="914.0" y2="66.2" stroke="#60a5fa" stroke-width="0.5" stroke-opacity="0.10"/><line x1="364.7" y1="142.4" x2="347.2" y2="143.3" stroke="#60a5fa" stroke-width="0.5" stroke-opacity="0.10"/><line x1="364.7" y1="142.4" x2="345.0" y2="201.7" stroke="#60a5fa" stroke-width="0.5" stroke-opacity="0.10"/><line x1="364.7" y1="142.4" x2="370.1" y2="188.6" stroke="#60a5fa" stroke-width="0.5" stroke-opacity="0.10"/><line x1="743.9" y1="225.1" x2="718.4" y2="203.2" stroke="#60a5fa" stroke-width="0.5" stroke-opacity="0.10"/><line x1="743.9" y1="225.1" x2="726.8" y2="268.4" stroke="#60a5fa" stroke-width="0.5" stroke-opacity="0.10"/><line x1="347.2" y1="143.3" x2="345.0" y2="201.7" stroke="#60a5fa" stroke-width="0.5" stroke-opacity="0.10"/><line x1="347.2" y1="143.3" x2="370.1" y2="188.6" stroke="#60a5fa" stroke-width="0.5" stroke-opacity="0.10"/><line x1="1211.2" y1="271.8" x2="1168.1" y2="266.6" stroke="#60a5fa" stroke-width="0.5" stroke-opacity="0.10"/><line x1="1466.1" y1="89.6" x2="1376.8" y2="36.9" stroke="#60a5fa" stroke-width="0.5" stroke-opacity="0.10"/><line x1="1066.9" y1="297.2" x2="1168.1" y2="266.6" stroke="#60a5fa" stroke-width="0.5" stroke-opacity="0.10"/><line x1="593.0" y1="194.9" x2="532.9" y2="122.8" stroke="#60a5fa" stroke-width="0.5" stroke-opacity="0.10"/><line x1="345.0" y1="201.7" x2="370.1" y2="188.6" stroke="#60a5fa" stroke-width="0.5" stroke-opacity="0.10"/><line x1="718.4" y1="203.2" x2="726.8" y2="268.4" stroke="#60a5fa" stroke-width="0.5" stroke-opacity="0.10"/><circle cx="1576.5" cy="190.2" r="1.6" fill="#60a5fa" fill-opacity="0.17"/><circle cx="728.0" cy="157.6" r="1.6" fill="#60a5fa" fill-opacity="0.27"/><circle cx="690.3" cy="177.6" r="2.3" fill="#60a5fa" fill-opacity="0.45"/><circle cx="144.0" cy="14.6" r="1.2" fill="#60a5fa" fill-opacity="0.32"/><circle cx="1177.5" cy="120.1" r="2.4" fill="#60a5fa" fill-opacity="0.50"/><circle cx="1167.3" cy="99.2" r="2.2" fill="#60a5fa" fill-opacity="0.48"/><circle cx="1564.8" cy="11.7" r="1.3" fill="#60a5fa" fill-opacity="0.57"/><circle cx="716.3" cy="149.3" r="1.4" fill="#60a5fa" fill-opacity="0.59"/><circle cx="640.8" cy="59.9" r="1.6" fill="#60a5fa" fill-opacity="0.24"/><circle cx="490.7" cy="198.1" r="1.1" fill="#60a5fa" fill-opacity="0.58"/><circle cx="1020.6" cy="314.9" r="1.3" fill="#60a5fa" fill-opacity="0.41"/><circle cx="1588.0" cy="304.7" r="1.1" fill="#60a5fa" fill-opacity="0.15"/><circle cx="412.6" cy="322.0" r="1.7" fill="#60a5fa" fill-opacity="0.64"/><circle cx="1218.3" cy="307.6" r="2.3" fill="#60a5fa" fill-opacity="0.45"/><circle cx="982.9" cy="235.5" r="0.7" fill="#60a5fa" fill-opacity="0.21"/><circle cx="1120.5" cy="320.1" r="1.1" fill="#60a5fa" fill-opacity="0.36"/><circle cx="21.9" cy="156.0" r="1.8" fill="#60a5fa" fill-opacity="0.51"/><circle cx="477.8" cy="168.8" r="1.6" fill="#60a5fa" fill-opacity="0.65"/><circle cx="309.5" cy="210.0" r="1.6" fill="#60a5fa" fill-opacity="0.65"/><circle cx="533.1" cy="294.1" r="2.0" fill="#60a5fa" fill-opacity="0.39"/><circle cx="180.7" cy="291.3" r="1.2" fill="#60a5fa" fill-opacity="0.44"/><circle cx="104.9" cy="153.4" r="0.6" fill="#60a5fa" fill-opacity="0.18"/><circle cx="91.3" cy="186.1" r="2.2" fill="#60a5fa" fill-opacity="0.60"/><circle cx="1202.9" cy="246.8" r="1.9" fill="#60a5fa" fill-opacity="0.54"/><circle cx="83.5" cy="79.4" r="1.9" fill="#60a5fa" fill-opacity="0.18"/><circle cx="743.2" cy="205.5" r="1.3" fill="#60a5fa" fill-opacity="0.29"/><circle cx="951.7" cy="4.8" r="2.0" fill="#60a5fa" fill-opacity="0.44"/><circle cx="364.7" cy="142.4" r="1.8" fill="#60a5fa" fill-opacity="0.47"/><circle cx="1107.8" cy="36.5" r="1.9" fill="#60a5fa" fill-opacity="0.33"/><circle cx="743.9" cy="225.1" r="1.6" fill="#60a5fa" fill-opacity="0.24"/><circle cx="347.2" cy="143.3" r="1.2" fill="#60a5fa" fill-opacity="0.35"/><circle cx="1211.2" cy="271.8" r="1.2" fill="#60a5fa" fill-opacity="0.48"/><circle cx="914.0" cy="66.2" r="1.3" fill="#60a5fa" fill-opacity="0.17"/><circle cx="1466.1" cy="89.6" r="0.9" fill="#60a5fa" fill-opacity="0.62"/><circle cx="1066.9" cy="297.2" r="2.2" fill="#60a5fa" fill-opacity="0.54"/><circle cx="593.0" cy="194.9" r="1.7" fill="#60a5fa" fill-opacity="0.35"/><circle cx="345.0" cy="201.7" r="0.9" fill="#60a5fa" fill-opacity="0.43"/><circle cx="1376.8" cy="36.9" r="1.1" fill="#60a5fa" fill-opacity="0.56"/><circle cx="532.9" cy="122.8" r="0.6" fill="#60a5fa" fill-opacity="0.56"/><circle cx="718.4" cy="203.2" r="1.2" fill="#60a5fa" fill-opacity="0.55"/><circle cx="726.8" cy="268.4" r="1.3" fill="#60a5fa" fill-opacity="0.57"/><circle cx="1350.6" cy="327.9" r="1.2" fill="#60a5fa" fill-opacity="0.58"/><circle cx="899.9" cy="340.3" r="0.7" fill="#60a5fa" fill-opacity="0.60"/><circle cx="53.5" cy="262.4" r="0.7" fill="#60a5fa" fill-opacity="0.59"/><circle cx="1168.1" cy="266.6" r="0.8" fill="#60a5fa" fill-opacity="0.56"/><circle cx="370.1" cy="188.6" r="2.3" fill="#60a5fa" fill-opacity="0.34"/></g>
  <g opacity="0.95"><path d="M1252 140 L1330 106 L1408 140 Z" fill="#60a5fa" fill-opacity="0.85"/><rect x="1273" y="150" width="10" height="66" fill="#60a5fa" fill-opacity="0.75"/><rect x="1299" y="150" width="10" height="66" fill="#60a5fa" fill-opacity="0.75"/><rect x="1325" y="150" width="10" height="66" fill="#60a5fa" fill-opacity="0.75"/><rect x="1351" y="150" width="10" height="66" fill="#60a5fa" fill-opacity="0.75"/><rect x="1377" y="150" width="10" height="66" fill="#60a5fa" fill-opacity="0.75"/><rect x="1248" y="220" width="164" height="12" fill="#60a5fa" fill-opacity="0.8"/></g>
  <g font-family="'Segoe UI', system-ui, sans-serif">
    <text x="130" y="150" fill="#60a5fa" font-size="22" font-weight="700" letter-spacing="6">24/7 INTELLIGENCE DOMAIN</text>
    <text x="126" y="238" fill="url(#title)" font-size="92" font-weight="800" letter-spacing="1">Governance</text>
    <rect x="132" y="262" width="150" height="5" rx="2.5" fill="#60a5fa"/>
  </g>
  <rect x="0" y="0" width="1600" height="360" fill="none" stroke="#60a5fa" stroke-opacity="0.18" stroke-width="2"/>
</svg>
