<svg xmlns="http://www.w3.org/2000/svg" viewBox="0 0 1600 360" width="1600" height="360" role="img" aria-label="Neuro domain banner">
  <defs>
    <linearGradient id="bg" x1="0" y1="0" x2="1" y2="1">
      <stop offset="0" stop-color="#060b18"/>
      <stop offset="0.55" stop-color="#0a1428"/>
      <stop offset="1" stop-color="#0c1a33"/>
    </linearGradient>
    <radialGradient id="glowA" cx="0.82" cy="0.5" r="0.5">
      <stop offset="0" stop-color="#f472b6" stop-opacity="0.35"/>
      <stop offset="1" stop-color="#f472b6" stop-opacity="0"/>
    </radialGradient>
    <radialGradient id="glowB" cx="0.1" cy="0.9" r="0.6">
      <stop offset="0" stop-color="#a78bfa" stop-opacity="0.22"/>
      <stop offset="1" stop-color="#a78bfa" stop-opacity="0"/>
    </radialGradient>
    <linearGradient id="title" x1="0" y1="0" x2="1" y2="0">
      <stop offset="0" stop-color="#ffffff"/>
      <stop offset="1" stop-color="#f472b6"/>
    </linearGradient>
  </defs>
  <rect width="1600" height="360" fill="url(#bg)"/>
  <rect width="1600" height="360" fill="url(#glowA)"/>
  <rect width="1600" height="360" fill="url(#glowB)"/>
  <g><line x1="755.0" y1="174.2" x2="804.0" y2="270.2" stroke="#f472b6" stroke-width="0.5" stroke-opacity="0.10"/><line x1="755.0" y1="174.2" x2="856.5" y2="165.2" stroke="#f472b6" stroke-width="0.5" stroke-opacity="0.10"/><line x1="755.0" y1="174.2" x2="779.4" y2="259.1" stroke="#f472b6" stroke-width="0.5" stroke-opacity="0.10"/><line x1="755.0" y1="174.2" x2="684.3" y2="124.3" stroke="#f472b6" stroke-width="0.5" stroke-opacity="0.10"/><line x1="755.0" y1="174.2" x2="804.5" y2="162.2" stroke="#f472b6" stroke-width="0.5" stroke-opacity="0.10"/><line x1="755.0" y1="174.2" x2="663.6" y2="123.2" stroke="#f472b6" stroke-width="0.5" stroke-opacity="0.10"/><line x1="755.0" y1="174.2" x2="720.9" y2="62.5" stroke="#f472b6" stroke-width="0.5" stroke-opacity="0.10"/><line x1="804.0" y1="270.2" x2="856.5" y2="165.2" stroke="#f472b6" stroke-width="0.5" stroke-opacity="0.10"/><line x1="804.0" y1="270.2" x2="779.4" y2="259.1" stroke="#f472b6" stroke-width="0.5" stroke-opacity="0.10"/><line x1="804.0" y1="270.2" x2="804.5" y2="162.2" stroke="#f472b6" stroke-width="0.5" stroke-opacity="0.10"/><line x1="804.0" y1="270.2" x2="789.0" y2="339.3" stroke="#f472b6" stroke-width="0.5" stroke-opacity="0.10"/><line x1="1010.7" y1="324.8" x2="1059.4" y2="271.6" stroke="#f472b6" stroke-width="0.5" stroke-opacity="0.10"/><line x1="1010.7" y1="324.8" x2="1056.2" y2="230.7" stroke="#f472b6" stroke-width="0.5" stroke-opacity="0.10"/><line x1="1010.7" y1="324.8" x2="961.0" y2="260.4" stroke="#f472b6" stroke-width="0.5" stroke-opacity="0.10"/><line x1="597.4" y1="309.2" x2="587.0" y2="262.8" stroke="#f472b6" stroke-width="0.5" stroke-opacity="0.10"/><line x1="597.4" y1="309.2" x2="591.6" y2="258.7" stroke="#f472b6" stroke-width="0.5" stroke-opacity="0.10"/><line x1="597.4" y1="309.2" x2="609.8" y2="302.1" stroke="#f472b6" stroke-width="0.5" stroke-opacity="0.10"/><line x1="597.4" y1="309.2" x2="545.5" y2="306.2" stroke="#f472b6" stroke-width="0.5" stroke-opacity="0.10"/><line x1="597.4" y1="309.2" x2="518.7" y2="308.9" stroke="#f472b6" stroke-width="0.5" stroke-opacity="0.10"/><line x1="1189.9" y1="138.7" x2="1222.7" y2="108.5" stroke="#f472b6" stroke-width="0.5" stroke-opacity="0.10"/><line x1="1189.9" y1="138.7" x2="1235.5" y2="93.9" stroke="#f472b6" stroke-width="0.5" stroke-opacity="0.10"/><line x1="322.9" y1="249.3" x2="244.2" y2="256.8" stroke="#f472b6" stroke-width="0.5" stroke-opacity="0.10"/><line x1="322.9" y1="249.3" x2="346.1" y2="173.1" stroke="#f472b6" stroke-width="0.5" stroke-opacity="0.10"/><line x1="322.9" y1="249.3" x2="369.7" y2="260.2" stroke="#f472b6" stroke-width="0.5" stroke-opacity="0.10"/><line x1="322.9" y1="249.3" x2="329.9" y2="168.2" stroke="#f472b6" stroke-width="0.5" stroke-opacity="0.10"/><line x1="743.6" y1="32.4" x2="684.3" y2="124.3" stroke="#f472b6" stroke-width="0.5" stroke-opacity="0.10"/><line x1="743.6" y1="32.4" x2="720.9" y2="62.5" stroke="#f472b6" stroke-width="0.5" stroke-opacity="0.10"/><line x1="136.7" y1="184.1" x2="57.9" y2="101.2" stroke="#f472b6" stroke-width="0.5" stroke-opacity="0.10"/><line x1="136.7" y1="184.1" x2="145.5" y2="124.0" stroke="#f472b6" stroke-width="0.5" stroke-opacity="0.10"/><line x1="587.0" y1="262.8" x2="591.6" y2="258.7" stroke="#f472b6" stroke-width="0.5" stroke-opacity="0.10"/><line x1="587.0" y1="262.8" x2="609.8" y2="302.1" stroke="#f472b6" stroke-width="0.5" stroke-opacity="0.10"/><line x1="587.0" y1="262.8" x2="545.5" y2="306.2" stroke="#f472b6" stroke-width="0.5" stroke-opacity="0.10"/><line x1="587.0" y1="262.8" x2="518.7" y2="308.9" stroke="#f472b6" stroke-width="0.5" stroke-opacity="0.10"/><line x1="1312.9" y1="46.0" x2="1222.7" y2="108.5" stroke="#f472b6" stroke-width="0.5" stroke-opacity="0.10"/><line x1="1312.9" y1="46.0" x2="1235.5" y2="93.9" stroke="#f472b6" stroke-width="0.5" stroke-opacity="0.10"/><line x1="1312.9" y1="46.0" x2="1358.2" y2="14.0" stroke="#f472b6" stroke-width="0.5" stroke-opacity="0.10"/><line x1="591.6" y1="258.7" x2="609.8" y2="302.1" stroke="#f472b6" stroke-width="0.5" stroke-opacity="0.10"/><line x1="591.6" y1="258.7" x2="545.5" y2="306.2" stroke="#f472b6" stroke-width="0.5" stroke-opacity="0.10"/><line x1="591.6" y1="258.7" x2="518.7" y2="308.9" stroke="#f472b6" stroke-width="0.5" stroke-opacity="0.10"/><line x1="609.8" y1="302.1" x2="545.5" y2="306.2" stroke="#f472b6" stroke-width="0.5" stroke-opacity="0.10"/><line x1="609.8" y1="302.1" x2="518.7" y2="308.9" stroke="#f472b6" stroke-width="0.5" stroke-opacity="0.10"/><line x1="1375.3" y1="169.0" x2="1482.5" y2="119.1" stroke="#f472b6" stroke-width="0.5" stroke-opacity="0.10"/><line x1="1375.3" y1="169.0" x2="1381.0" y2="197.8" stroke="#f472b6" stroke-width="0.5" stroke-opacity="0.10"/><line x1="1375.3" y1="169.0" x2="1363.0" y2="256.8" stroke="#f472b6" stroke-width="0.5" stroke-opacity="0.10"/><line x1="1059.4" y1="271.6" x2="1056.2" y2="230.7" stroke="#f472b6" stroke-width="0.5" stroke-opacity="0.10"/><line x1="1059.4" y1="271.6" x2="961.0" y2="260.4" stroke="#f472b6" stroke-width="0.5" stroke-opacity="0.10"/><line x1="1482.5" y1="119.1" x2="1495.9" y2="126.4" stroke="#f472b6" stroke-width="0.5" stroke-opacity="0.10"/><line x1="1222.7" y1="108.5" x2="1235.5" y2="93.9" stroke="#f472b6" stroke-width="0.5" stroke-opacity="0.10"/><line x1="545.5" y1="306.2" x2="518.7" y2="308.9" stroke="#f472b6" stroke-width="0.5" stroke-opacity="0.10"/><line x1="1056.2" y1="230.7" x2="961.0" y2="260.4" stroke="#f472b6" stroke-width="0.5" stroke-opacity="0.10"/><line x1="983.7" y1="128.8" x2="915.5" y2="47.3" stroke="#f472b6" stroke-width="0.5" stroke-opacity="0.10"/><line x1="57.9" y1="101.2" x2="145.5" y2="124.0" stroke="#f472b6" stroke-width="0.5" stroke-opacity="0.10"/><line x1="1020.9" y1="4.3" x2="915.5" y2="47.3" stroke="#f472b6" stroke-width="0.5" stroke-opacity="0.10"/><line x1="856.5" y1="165.2" x2="804.5" y2="162.2" stroke="#f472b6" stroke-width="0.5" stroke-opacity="0.10"/><line x1="779.4" y1="259.1" x2="804.5" y2="162.2" stroke="#f472b6" stroke-width="0.5" stroke-opacity="0.10"/><line x1="779.4" y1="259.1" x2="789.0" y2="339.3" stroke="#f472b6" stroke-width="0.5" stroke-opacity="0.10"/><line x1="346.1" y1="173.1" x2="369.7" y2="260.2" stroke="#f472b6" stroke-width="0.5" stroke-opacity="0.10"/><line x1="346.1" y1="173.1" x2="297.4" y2="65.2" stroke="#f472b6" stroke-width="0.5" stroke-opacity="0.10"/><line x1="346.1" y1="173.1" x2="329.9" y2="168.2" stroke="#f472b6" stroke-width="0.5" stroke-opacity="0.10"/><line x1="684.3" y1="124.3" x2="663.6" y2="123.2" stroke="#f472b6" stroke-width="0.5" stroke-opacity="0.10"/><line x1="684.3" y1="124.3" x2="720.9" y2="62.5" stroke="#f472b6" stroke-width="0.5" stroke-opacity="0.10"/><line x1="663.6" y1="123.2" x2="720.9" y2="62.5" stroke="#f472b6" stroke-width="0.5" stroke-opacity="0.10"/><line x1="1474.9" y1="293.1" x2="1363.0" y2="256.8" stroke="#f472b6" stroke-width="0.5" stroke-opacity="0.10"/><line x1="369.7" y1="260.2" x2="329.9" y2="168.2" stroke="#f472b6" stroke-width="0.5" stroke-opacity="0.10"/><line x1="297.4" y1="65.2" x2="329.9" y2="168.2" stroke="#f472b6" stroke-width="0.5" stroke-opacity="0.10"/><line x1="1381.0" y1="197.8" x2="1363.0" y2="256.8" stroke="#f472b6" stroke-width="0.5" stroke-opacity="0.10"/><circle cx="755.0" cy="174.2" r="1.7" fill="#f472b6" fill-opacity="0.42"/><circle cx="804.0" cy="270.2" r="0.8" fill="#f472b6" fill-opacity="0.29"/><circle cx="556.4" cy="29.8" r="0.7" fill="#f472b6" fill-opacity="0.33"/><circle cx="1010.7" cy="324.8" r="1.0" fill="#f472b6" fill-opacity="0.56"/><circle cx="597.4" cy="309.2" r="1.9" fill="#f472b6" fill-opacity="0.29"/><circle cx="1189.9" cy="138.7" r="0.8" fill="#f472b6" fill-opacity="0.52"/><circle cx="322.9" cy="249.3" r="1.8" fill="#f472b6" fill-opacity="0.35"/><circle cx="743.6" cy="32.4" r="1.5" fill="#f472b6" fill-opacity="0.23"/><circle cx="20.7" cy="280.9" r="0.8" fill="#f472b6" fill-opacity="0.42"/><circle cx="136.7" cy="184.1" r="1.9" fill="#f472b6" fill-opacity="0.60"/><circle cx="587.0" cy="262.8" r="1.8" fill="#f472b6" fill-opacity="0.38"/><circle cx="1312.9" cy="46.0" r="1.3" fill="#f472b6" fill-opacity="0.32"/><circle cx="591.6" cy="258.7" r="1.5" fill="#f472b6" fill-opacity="0.46"/><circle cx="609.8" cy="302.1" r="0.9" fill="#f472b6" fill-opacity="0.40"/><circle cx="244.2" cy="256.8" r="0.9" fill="#f472b6" fill-opacity="0.36"/><circle cx="1375.3" cy="169.0" r="1.4" fill="#f472b6" fill-opacity="0.19"/><circle cx="1059.4" cy="271.6" r="0.9" fill="#f472b6" fill-opacity="0.17"/><circle cx="1482.5" cy="119.1" r="1.5" fill="#f472b6" fill-opacity="0.49"/><circle cx="1222.7" cy="108.5" r="1.8" fill="#f472b6" fill-opacity="0.65"/><circle cx="545.5" cy="306.2" r="1.8" fill="#f472b6" fill-opacity="0.56"/><circle cx="1056.2" cy="230.7" r="1.5" fill="#f472b6" fill-opacity="0.64"/><circle cx="1235.5" cy="93.9" r="1.1" fill="#f472b6" fill-opacity="0.41"/><circle cx="983.7" cy="128.8" r="1.9" fill="#f472b6" fill-opacity="0.39"/><circle cx="1495.9" cy="126.4" r="1.9" fill="#f472b6" fill-opacity="0.28"/><circle cx="1596.9" cy="312.2" r="0.7" fill="#f472b6" fill-opacity="0.59"/><circle cx="57.9" cy="101.2" r="1.6" fill="#f472b6" fill-opacity="0.50"/><circle cx="1020.9" cy="4.3" r="2.3" fill="#f472b6" fill-opacity="0.23"/><circle cx="856.5" cy="165.2" r="1.1" fill="#f472b6" fill-opacity="0.59"/><circle cx="779.4" cy="259.1" r="0.8" fill="#f472b6" fill-opacity="0.18"/><circle cx="346.1" cy="173.1" r="1.4" fill="#f472b6" fill-opacity="0.63"/><circle cx="961.0" cy="260.4" r="2.0" fill="#f472b6" fill-opacity="0.64"/><circle cx="915.5" cy="47.3" r="1.7" fill="#f472b6" fill-opacity="0.44"/><circle cx="684.3" cy="124.3" r="2.1" fill="#f472b6" fill-opacity="0.26"/><circle cx="804.5" cy="162.2" r="1.0" fill="#f472b6" fill-opacity="0.52"/><circle cx="663.6" cy="123.2" r="0.7" fill="#f472b6" fill-opacity="0.17"/><circle cx="518.7" cy="308.9" r="1.1" fill="#f472b6" fill-opacity="0.26"/><circle cx="1474.9" cy="293.1" r="1.9" fill="#f472b6" fill-opacity="0.16"/><circle cx="145.5" cy="124.0" r="2.1" fill="#f472b6" fill-opacity="0.48"/><circle cx="720.9" cy="62.5" r="1.0" fill="#f472b6" fill-opacity="0.25"/><circle cx="369.7" cy="260.2" r="1.0" fill="#f472b6" fill-opacity="0.20"/><circle cx="297.4" cy="65.2" r="1.8" fill="#f472b6" fill-opacity="0.47"/><circle cx="789.0" cy="339.3" r="0.6" fill="#f472b6" fill-opacity="0.23"/><circle cx="1358.2" cy="14.0" r="2.1" fill="#f472b6" fill-opacity="0.46"/><circle cx="329.9" cy="168.2" r="1.1" fill="#f472b6" fill-opacity="0.49"/><circle cx="1381.0" cy="197.8" r="1.7" fill="#f472b6" fill-opacity="0.33"/><circle cx="1363.0" cy="256.8" r="2.1" fill="#f472b6" fill-opacity="0.18"/></g>
  <g opacity="0.95"><circle cx="1330" cy="180" r="20" fill="#f472b6" fill-opacity="0.9"/><path d="M1330 180 Q1336.6224992093262 133.0439931162011 1323.2 106.1" fill="none" stroke="#f472b6" stroke-width="1.4" stroke-opacity="0.5"/><circle cx="1323.2" cy="106.1" r="3.5" fill="#f472b6"/><path d="M1330 180 Q1351.6661754890908 210.3610089681353 1353.3 260.7" fill="none" stroke="#f472b6" stroke-width="1.4" stroke-opacity="0.5"/><circle cx="1353.3" cy="260.7" r="3.5" fill="#f472b6"/><path d="M1330 180 Q1346.1283423258337 134.76219910144303 1342.3 109.5" fill="none" stroke="#f472b6" stroke-width="1.4" stroke-opacity="0.5"/><circle cx="1342.3" cy="109.5" r="3.5" fill="#f472b6"/><path d="M1330 180 Q1379.7708822493164 183.23432821798383 1409.5 206.5" fill="none" stroke="#f472b6" stroke-width="1.4" stroke-opacity="0.5"/><circle cx="1409.5" cy="206.5" r="3.5" fill="#f472b6"/><path d="M1330 180 Q1305.482843207777 164.67335492837293 1261.0 169.3" fill="none" stroke="#f472b6" stroke-width="1.4" stroke-opacity="0.5"/><circle cx="1261.0" cy="169.3" r="3.5" fill="#f472b6"/><path d="M1330 180 Q1331.3698577277196 203.06804422414152 1312.7 246.1" fill="none" stroke="#f472b6" stroke-width="1.4" stroke-opacity="0.5"/><circle cx="1312.7" cy="246.1" r="3.5" fill="#f472b6"/><path d="M1330 180 Q1368.0215334355667 169.31252974193285 1386.0 178.6" fill="none" stroke="#f472b6" stroke-width="1.4" stroke-opacity="0.5"/><circle cx="1386.0" cy="178.6" r="3.5" fill="#f472b6"/><path d="M1330 180 Q1366.2399761425922 145.58864500092608 1382.5 131.2" fill="none" stroke="#f472b6" stroke-width="1.4" stroke-opacity="0.5"/><circle cx="1382.5" cy="131.2" r="3.5" fill="#f472b6"/><path d="M1330 180 Q1373.8245580053222 153.28416473341252 1397.6 146.6" fill="none" stroke="#f472b6" stroke-width="1.4" stroke-opacity="0.5"/><circle cx="1397.6" cy="146.6" r="3.5" fill="#f472b6"/></g>
  <g font-family="'Segoe UI', system-ui, sans-serif">
    <text x="130" y="150" fill="#f472b6" font-size="22" font-weight="700" letter-spacing="6">24/7 INTELLIGENCE DOMAIN</text>
    <text x="126" y="238" fill="url(#title)" font-size="92" font-weight="800" letter-spacing="1">Neuro</text>
    <rect x="132" y="262" width="150" height="5" rx="2.5" fill="#f472b6"/>
  </g>
  <rect x="0" y="0" width="1600" height="360" fill="none" stroke="#f472b6" stroke-opacity="0.18" stroke-width="2"/>
</svg>
