<svg xmlns="http://www.w3.org/2000/svg" viewBox="0 0 1600 360" width="1600" height="360" role="img" aria-label="Materials domain banner">
  <defs>
    <linearGradient id="bg" x1="0" y1="0" x2="1" y2="1">
      <stop offset="0" stop-color="#060b18"/>
      <stop offset="0.55" stop-color="#0a1428"/>
      <stop offset="1" stop-color="#0c1a33"/>
    </linearGradient>
    <radialGradient id="glowA" cx="0.82" cy="0.5" r="0.5">
      <stop offset="0" stop-color="#a78bfa" stop-opacity="0.35"/>
      <stop offset="1" stop-color="#a78bfa" stop-opacity="0"/>
    </radialGradient>
    <radialGradient id="glowB" cx="0.1" cy="0.9" r="0.6">
      <stop offset="0" stop-color="#6366f1" stop-opacity="0.22"/>
      <stop offset="1" stop-color="#6366f1" stop-opacity="0"/>
    </radialGradient>
    <linearGradient id="title" x1="0" y1="0" x2="1" y2="0">
      <stop offset="0" stop-color="#ffffff"/>
      <stop offset="1" stop-color="#a78bfa"/>
    </linearGradient>
  </defs>
  <rect width="1600" height="360" fill="url(#bg)"/>
  <rect width="1600" height="360" fill="url(#glowA)"/>
  <rect width="1600" height="360" fill="url(#glowB)"/>
  <g><line x1="81.6" y1="352.6" x2="54.6" y2="306.9" stroke="#a78bfa" stroke-width="0.5" stroke-opacity="0.10"/><line x1="1152.2" y1="265.2" x2="1132.6" y2="318.8" stroke="#a78bfa" stroke-width="0.5" stroke-opacity="0.10"/><line x1="1152.2" y1="265.2" x2="1084.7" y2="268.9" stroke="#a78bfa" stroke-width="0.5" stroke-opacity="0.10"/><line x1="1152.2" y1="265.2" x2="1233.2" y2="288.0" stroke="#a78bfa" stroke-width="0.5" stroke-opacity="0.10"/><line x1="1152.2" y1="265.2" x2="1068.1" y2="303.6" stroke="#a78bfa" stroke-width="0.5" stroke-opacity="0.10"/><line x1="1152.2" y1="265.2" x2="1091.1" y2="228.2" stroke="#a78bfa" stroke-width="0.5" stroke-opacity="0.10"/><line x1="1413.0" y1="249.8" x2="1353.7" y2="294.4" stroke="#a78bfa" stroke-width="0.5" stroke-opacity="0.10"/><line x1="1413.0" y1="249.8" x2="1392.6" y2="213.7" stroke="#a78bfa" stroke-width="0.5" stroke-opacity="0.10"/><line x1="1413.0" y1="249.8" x2="1489.0" y2="302.5" stroke="#a78bfa" stroke-width="0.5" stroke-opacity="0.10"/><line x1="1413.0" y1="249.8" x2="1484.0" y2="198.1" stroke="#a78bfa" stroke-width="0.5" stroke-opacity="0.10"/><line x1="1216.6" y1="82.2" x2="1189.7" y2="102.7" stroke="#a78bfa" stroke-width="0.5" stroke-opacity="0.10"/><line x1="1216.6" y1="82.2" x2="1295.3" y2="119.2" stroke="#a78bfa" stroke-width="0.5" stroke-opacity="0.10"/><line x1="1216.6" y1="82.2" x2="1267.7" y2="144.4" stroke="#a78bfa" stroke-width="0.5" stroke-opacity="0.10"/><line x1="76.6" y1="126.4" x2="136.9" y2="32.9" stroke="#a78bfa" stroke-width="0.5" stroke-opacity="0.10"/><line x1="76.6" y1="126.4" x2="18.4" y2="206.0" stroke="#a78bfa" stroke-width="0.5" stroke-opacity="0.10"/><line x1="357.1" y1="55.2" x2="368.2" y2="152.9" stroke="#a78bfa" stroke-width="0.5" stroke-opacity="0.10"/><line x1="1132.6" y1="318.8" x2="1084.7" y2="268.9" stroke="#a78bfa" stroke-width="0.5" stroke-opacity="0.10"/><line x1="1132.6" y1="318.8" x2="1233.2" y2="288.0" stroke="#a78bfa" stroke-width="0.5" stroke-opacity="0.10"/><line x1="1132.6" y1="318.8" x2="1068.1" y2="303.6" stroke="#a78bfa" stroke-width="0.5" stroke-opacity="0.10"/><line x1="1132.6" y1="318.8" x2="1091.1" y2="228.2" stroke="#a78bfa" stroke-width="0.5" stroke-opacity="0.10"/><line x1="1542.9" y1="248.0" x2="1562.8" y2="226.0" stroke="#a78bfa" stroke-width="0.5" stroke-opacity="0.10"/><line x1="1542.9" y1="248.0" x2="1489.0" y2="302.5" stroke="#a78bfa" stroke-width="0.5" stroke-opacity="0.10"/><line x1="1542.9" y1="248.0" x2="1594.8" y2="195.0" stroke="#a78bfa" stroke-width="0.5" stroke-opacity="0.10"/><line x1="1542.9" y1="248.0" x2="1484.0" y2="198.1" stroke="#a78bfa" stroke-width="0.5" stroke-opacity="0.10"/><line x1="1542.9" y1="248.0" x2="1576.1" y2="309.0" stroke="#a78bfa" stroke-width="0.5" stroke-opacity="0.10"/><line x1="1542.9" y1="248.0" x2="1585.3" y2="212.9" stroke="#a78bfa" stroke-width="0.5" stroke-opacity="0.10"/><line x1="1542.9" y1="248.0" x2="1489.1" y2="144.4" stroke="#a78bfa" stroke-width="0.5" stroke-opacity="0.10"/><line x1="1542.9" y1="248.0" x2="1588.3" y2="340.3" stroke="#a78bfa" stroke-width="0.5" stroke-opacity="0.10"/><line x1="1542.9" y1="248.0" x2="1537.1" y2="179.4" stroke="#a78bfa" stroke-width="0.5" stroke-opacity="0.10"/><line x1="1369.1" y1="85.7" x2="1418.7" y2="64.7" stroke="#a78bfa" stroke-width="0.5" stroke-opacity="0.10"/><line x1="1369.1" y1="85.7" x2="1295.3" y2="119.2" stroke="#a78bfa" stroke-width="0.5" stroke-opacity="0.10"/><line x1="1369.1" y1="85.7" x2="1267.7" y2="144.4" stroke="#a78bfa" stroke-width="0.5" stroke-opacity="0.10"/><line x1="1353.7" y1="294.4" x2="1392.6" y2="213.7" stroke="#a78bfa" stroke-width="0.5" stroke-opacity="0.10"/><line x1="1392.6" y1="213.7" x2="1484.0" y2="198.1" stroke="#a78bfa" stroke-width="0.5" stroke-opacity="0.10"/><line x1="1392.6" y1="213.7" x2="1489.1" y2="144.4" stroke="#a78bfa" stroke-width="0.5" stroke-opacity="0.10"/><line x1="1520.5" y1="34.5" x2="1418.7" y2="64.7" stroke="#a78bfa" stroke-width="0.5" stroke-opacity="0.10"/><line x1="1520.5" y1="34.5" x2="1489.1" y2="144.4" stroke="#a78bfa" stroke-width="0.5" stroke-opacity="0.10"/><line x1="1418.7" y1="64.7" x2="1489.1" y2="144.4" stroke="#a78bfa" stroke-width="0.5" stroke-opacity="0.10"/><line x1="966.2" y1="353.2" x2="1068.1" y2="303.6" stroke="#a78bfa" stroke-width="0.5" stroke-opacity="0.10"/><line x1="1562.8" y1="226.0" x2="1489.0" y2="302.5" stroke="#a78bfa" stroke-width="0.5" stroke-opacity="0.10"/><line x1="1562.8" y1="226.0" x2="1594.8" y2="195.0" stroke="#a78bfa" stroke-width="0.5" stroke-opacity="0.10"/><line x1="1562.8" y1="226.0" x2="1484.0" y2="198.1" stroke="#a78bfa" stroke-width="0.5" stroke-opacity="0.10"/><line x1="1562.8" y1="226.0" x2="1576.1" y2="309.0" stroke="#a78bfa" stroke-width="0.5" stroke-opacity="0.10"/><line x1="1562.8" y1="226.0" x2="1585.3" y2="212.9" stroke="#a78bfa" stroke-width="0.5" stroke-opacity="0.10"/><line x1="1562.8" y1="226.0" x2="1489.1" y2="144.4" stroke="#a78bfa" stroke-width="0.5" stroke-opacity="0.10"/><line x1="1562.8" y1="226.0" x2="1588.3" y2="340.3" stroke="#a78bfa" stroke-width="0.5" stroke-opacity="0.10"/><line x1="1562.8" y1="226.0" x2="1537.1" y2="179.4" stroke="#a78bfa" stroke-width="0.5" stroke-opacity="0.10"/><line x1="346.2" y1="262.0" x2="286.9" y2="293.8" stroke="#a78bfa" stroke-width="0.5" stroke-opacity="0.10"/><line x1="346.2" y1="262.0" x2="368.2" y2="152.9" stroke="#a78bfa" stroke-width="0.5" stroke-opacity="0.10"/><line x1="346.2" y1="262.0" x2="283.5" y2="310.7" stroke="#a78bfa" stroke-width="0.5" stroke-opacity="0.10"/><line x1="346.2" y1="262.0" x2="323.0" y2="274.9" stroke="#a78bfa" stroke-width="0.5" stroke-opacity="0.10"/><line x1="230.4" y1="322.8" x2="208.3" y2="273.5" stroke="#a78bfa" stroke-width="0.5" stroke-opacity="0.10"/><line x1="230.4" y1="322.8" x2="286.9" y2="293.8" stroke="#a78bfa" stroke-width="0.5" stroke-opacity="0.10"/><line x1="230.4" y1="322.8" x2="283.5" y2="310.7" stroke="#a78bfa" stroke-width="0.5" stroke-opacity="0.10"/><line x1="230.4" y1="322.8" x2="323.0" y2="274.9" stroke="#a78bfa" stroke-width="0.5" stroke-opacity="0.10"/><line x1="1489.0" y1="302.5" x2="1484.0" y2="198.1" stroke="#a78bfa" stroke-width="0.5" stroke-opacity="0.10"/><line x1="1489.0" y1="302.5" x2="1576.1" y2="309.0" stroke="#a78bfa" stroke-width="0.5" stroke-opacity="0.10"/><line x1="1489.0" y1="302.5" x2="1588.3" y2="340.3" stroke="#a78bfa" stroke-width="0.5" stroke-opacity="0.10"/><line x1="208.3" y1="273.5" x2="286.9" y2="293.8" stroke="#a78bfa" stroke-width="0.5" stroke-opacity="0.10"/><line x1="208.3" y1="273.5" x2="283.5" y2="310.7" stroke="#a78bfa" stroke-width="0.5" stroke-opacity="0.10"/><line x1="208.3" y1="273.5" x2="323.0" y2="274.9" stroke="#a78bfa" stroke-width="0.5" stroke-opacity="0.10"/><line x1="54.6" y1="306.9" x2="18.4" y2="206.0" stroke="#a78bfa" stroke-width="0.5" stroke-opacity="0.10"/><line x1="1189.7" y1="102.7" x2="1295.3" y2="119.2" stroke="#a78bfa" stroke-width="0.5" stroke-opacity="0.10"/><line x1="1189.7" y1="102.7" x2="1267.7" y2="144.4" stroke="#a78bfa" stroke-width="0.5" stroke-opacity="0.10"/><line x1="286.9" y1="293.8" x2="283.5" y2="310.7" stroke="#a78bfa" stroke-width="0.5" stroke-opacity="0.10"/><line x1="286.9" y1="293.8" x2="323.0" y2="274.9" stroke="#a78bfa" stroke-width="0.5" stroke-opacity="0.10"/><line x1="1594.8" y1="195.0" x2="1484.0" y2="198.1" stroke="#a78bfa" stroke-width="0.5" stroke-opacity="0.10"/><line x1="1594.8" y1="195.0" x2="1576.1" y2="309.0" stroke="#a78bfa" stroke-width="0.5" stroke-opacity="0.10"/><line x1="1594.8" y1="195.0" x2="1585.3" y2="212.9" stroke="#a78bfa" stroke-width="0.5" stroke-opacity="0.10"/><line x1="1594.8" y1="195.0" x2="1489.1" y2="144.4" stroke="#a78bfa" stroke-width="0.5" stroke-opacity="0.10"/><line x1="1594.8" y1="195.0" x2="1537.1" y2="179.4" stroke="#a78bfa" stroke-width="0.5" stroke-opacity="0.10"/><line x1="1484.0" y1="198.1" x2="1585.3" y2="212.9" stroke="#a78bfa" stroke-width="0.5" stroke-opacity="0.10"/><line x1="1484.0" y1="198.1" x2="1489.1" y2="144.4" stroke="#a78bfa" stroke-width="0.5" stroke-opacity="0.10"/><line x1="1484.0" y1="198.1" x2="1537.1" y2="179.4" stroke="#a78bfa" stroke-width="0.5" stroke-opacity="0.10"/><line x1="678.6" y1="251.5" x2="704.8" y2="161.3" stroke="#a78bfa" stroke-width="0.5" stroke-opacity="0.10"/><line x1="1576.1" y1="309.0" x2="1585.3" y2="212.9" stroke="#a78bfa" stroke-width="0.5" stroke-opacity="0.10"/><line x1="1576.1" y1="309.0" x2="1588.3" y2="340.3" stroke="#a78bfa" stroke-width="0.5" stroke-opacity="0.10"/><line x1="1084.7" y1="268.9" x2="1068.1" y2="303.6" stroke="#a78bfa" stroke-width="0.5" stroke-opacity="0.10"/><line x1="1084.7" y1="268.9" x2="1091.1" y2="228.2" stroke="#a78bfa" stroke-width="0.5" stroke-opacity="0.10"/><line x1="283.5" y1="310.7" x2="323.0" y2="274.9" stroke="#a78bfa" stroke-width="0.5" stroke-opacity="0.10"/><line x1="1068.1" y1="303.6" x2="1091.1" y2="228.2" stroke="#a78bfa" stroke-width="0.5" stroke-opacity="0.10"/><line x1="1585.3" y1="212.9" x2="1489.1" y2="144.4" stroke="#a78bfa" stroke-width="0.5" stroke-opacity="0.10"/><line x1="1585.3" y1="212.9" x2="1537.1" y2="179.4" stroke="#a78bfa" stroke-width="0.5" stroke-opacity="0.10"/><line x1="1489.1" y1="144.4" x2="1537.1" y2="179.4" stroke="#a78bfa" stroke-width="0.5" stroke-opacity="0.10"/><line x1="1295.3" y1="119.2" x2="1267.7" y2="144.4" stroke="#a78bfa" stroke-width="0.5" stroke-opacity="0.10"/><circle cx="81.6" cy="352.6" r="0.6" fill="#a78bfa" fill-opacity="0.32"/><circle cx="1152.2" cy="265.2" r="2.4" fill="#a78bfa" fill-opacity="0.32"/><circle cx="1413.0" cy="249.8" r="1.1" fill="#a78bfa" fill-opacity="0.48"/><circle cx="1216.6" cy="82.2" r="1.1" fill="#a78bfa" fill-opacity="0.47"/><circle cx="76.6" cy="126.4" r="1.4" fill="#a78bfa" fill-opacity="0.27"/><circle cx="357.1" cy="55.2" r="1.0" fill="#a78bfa" fill-opacity="0.58"/><circle cx="1132.6" cy="318.8" r="2.0" fill="#a78bfa" fill-opacity="0.32"/><circle cx="1542.9" cy="248.0" r="1.3" fill="#a78bfa" fill-opacity="0.49"/><circle cx="1369.1" cy="85.7" r="1.6" fill="#a78bfa" fill-opacity="0.36"/><circle cx="1353.7" cy="294.4" r="0.6" fill="#a78bfa" fill-opacity="0.54"/><circle cx="1392.6" cy="213.7" r="2.3" fill="#a78bfa" fill-opacity="0.17"/><circle cx="1520.5" cy="34.5" r="1.0" fill="#a78bfa" fill-opacity="0.44"/><circle cx="1418.7" cy="64.7" r="1.8" fill="#a78bfa" fill-opacity="0.58"/><circle cx="966.2" cy="353.2" r="1.1" fill="#a78bfa" fill-opacity="0.15"/><circle cx="1562.8" cy="226.0" r="1.3" fill="#a78bfa" fill-opacity="0.54"/><circle cx="346.2" cy="262.0" r="2.3" fill="#a78bfa" fill-opacity="0.34"/><circle cx="230.4" cy="322.8" r="2.4" fill="#a78bfa" fill-opacity="0.15"/><circle cx="1489.0" cy="302.5" r="2.0" fill="#a78bfa" fill-opacity="0.31"/><circle cx="208.3" cy="273.5" r="1.9" fill="#a78bfa" fill-opacity="0.26"/><circle cx="136.9" cy="32.9" r="0.7" fill="#a78bfa" fill-opacity="0.47"/><circle cx="54.6" cy="306.9" r="2.2" fill="#a78bfa" fill-opacity="0.61"/><circle cx="786.8" cy="36.6" r="1.3" fill="#a78bfa" fill-opacity="0.40"/><circle cx="1189.7" cy="102.7" r="2.1" fill="#a78bfa" fill-opacity="0.47"/><circle cx="830.3" cy="173.7" r="2.1" fill="#a78bfa" fill-opacity="0.35"/><circle cx="286.9" cy="293.8" r="1.0" fill="#a78bfa" fill-opacity="0.33"/><circle cx="1594.8" cy="195.0" r="1.5" fill="#a78bfa" fill-opacity="0.35"/><circle cx="562.8" cy="211.4" r="1.3" fill="#a78bfa" fill-opacity="0.64"/><circle cx="1484.0" cy="198.1" r="1.8" fill="#a78bfa" fill-opacity="0.31"/><circle cx="368.2" cy="152.9" r="1.6" fill="#a78bfa" fill-opacity="0.53"/><circle cx="18.4" cy="206.0" r="0.8" fill="#a78bfa" fill-opacity="0.64"/><circle cx="678.6" cy="251.5" r="2.1" fill="#a78bfa" fill-opacity="0.62"/><circle cx="1576.1" cy="309.0" r="1.4" fill="#a78bfa" fill-opacity="0.48"/><circle cx="1084.7" cy="268.9" r="1.8" fill="#a78bfa" fill-opacity="0.31"/><circle cx="1233.2" cy="288.0" r="1.3" fill="#a78bfa" fill-opacity="0.33"/><circle cx="283.5" cy="310.7" r="2.2" fill="#a78bfa" fill-opacity="0.16"/><circle cx="704.8" cy="161.3" r="1.7" fill="#a78bfa" fill-opacity="0.34"/><circle cx="1068.1" cy="303.6" r="1.8" fill="#a78bfa" fill-opacity="0.23"/><circle cx="1585.3" cy="212.9" r="1.9" fill="#a78bfa" fill-opacity="0.58"/><circle cx="619.3" cy="35.8" r="2.4" fill="#a78bfa" fill-opacity="0.48"/><circle cx="1489.1" cy="144.4" r="1.7" fill="#a78bfa" fill-opacity="0.29"/><circle cx="1295.3" cy="119.2" r="1.4" fill="#a78bfa" fill-opacity="0.26"/><circle cx="1091.1" cy="228.2" r="1.1" fill="#a78bfa" fill-opacity="0.24"/><circle cx="323.0" cy="274.9" r="1.1" fill="#a78bfa" fill-opacity="0.22"/><circle cx="1267.7" cy="144.4" r="1.4" fill="#a78bfa" fill-opacity="0.59"/><circle cx="1588.3" cy="340.3" r="2.0" fill="#a78bfa" fill-opacity="0.38"/><circle cx="1537.1" cy="179.4" r="1.0" fill="#a78bfa" fill-opacity="0.29"/></g>
  <g opacity="0.95"><path d="M1330 96 L1384 160 L1360 258 L1300 258 L1276 160 Z" fill="none" stroke="#a78bfa" stroke-width="2.4" stroke-opacity="0.85"/><path d="M1330 96 L1330 258 M1276 160 L1384 160 M1330 96 L1300 258 M1330 96 L1360 258" stroke="#a78bfa" stroke-width="1.2" stroke-opacity="0.5"/></g>
  <g font-family="'Segoe UI', system-ui, sans-serif">
    <text x="130" y="150" fill="#a78bfa" font-size="22" font-weight="700" letter-spacing="6">24/7 INTELLIGENCE DOMAIN</text>
    <text x="126" y="238" fill="url(#title)" font-size="92" font-weight="800" letter-spacing="1">Materials</text>
    <rect x="132" y="262" width="150" height="5" rx="2.5" fill="#a78bfa"/>
  </g>
  <rect x="0" y="0" width="1600" height="360" fill="none" stroke="#a78bfa" stroke-opacity="0.18" stroke-width="2"/>
</svg>
