<svg xmlns="http://www.w3.org/2000/svg" viewBox="0 0 1600 360" width="1600" height="360" role="img" aria-label="3D Printing domain banner">
  <defs>
    <linearGradient id="bg" x1="0" y1="0" x2="1" y2="1">
      <stop offset="0" stop-color="#060b18"/>
      <stop offset="0.55" stop-color="#0a1428"/>
      <stop offset="1" stop-color="#0c1a33"/>
    </linearGradient>
    <radialGradient id="glowA" cx="0.82" cy="0.5" r="0.5">
      <stop offset="0" stop-color="#f59e0b" stop-opacity="0.35"/>
      <stop offset="1" stop-color="#f59e0b" stop-opacity="0"/>
    </radialGradient>
    <radialGradient id="glowB" cx="0.1" cy="0.9" r="0.6">
      <stop offset="0" stop-color="#fb923c" stop-opacity="0.22"/>
      <stop offset="1" stop-color="#fb923c" stop-opacity="0"/>
    </radialGradient>
    <linearGradient id="title" x1="0" y1="0" x2="1" y2="0">
      <stop offset="0" stop-color="#ffffff"/>
      <stop offset="1" stop-color="#f59e0b"/>
    </linearGradient>
  </defs>
  <rect width="1600" height="360" fill="url(#bg)"/>
  <rect width="1600" height="360" fill="url(#glowA)"/>
  <rect width="1600" height="360" fill="url(#glowB)"/>
  <g><line x1="774.5" y1="146.1" x2="863.0" y2="134.9" stroke="#f59e0b" stroke-width="0.5" stroke-opacity="0.10"/><line x1="774.5" y1="146.1" x2="772.5" y2="37.6" stroke="#f59e0b" stroke-width="0.5" stroke-opacity="0.10"/><line x1="863.0" y1="134.9" x2="958.2" y2="110.3" stroke="#f59e0b" stroke-width="0.5" stroke-opacity="0.10"/><line x1="631.5" y1="267.3" x2="655.0" y2="190.6" stroke="#f59e0b" stroke-width="0.5" stroke-opacity="0.10"/><line x1="631.5" y1="267.3" x2="724.8" y2="317.6" stroke="#f59e0b" stroke-width="0.5" stroke-opacity="0.10"/><line x1="631.5" y1="267.3" x2="678.8" y2="225.8" stroke="#f59e0b" stroke-width="0.5" stroke-opacity="0.10"/><line x1="631.5" y1="267.3" x2="652.0" y2="193.8" stroke="#f59e0b" stroke-width="0.5" stroke-opacity="0.10"/><line x1="631.5" y1="267.3" x2="667.7" y2="250.4" stroke="#f59e0b" stroke-width="0.5" stroke-opacity="0.10"/><line x1="631.5" y1="267.3" x2="667.4" y2="293.0" stroke="#f59e0b" stroke-width="0.5" stroke-opacity="0.10"/><line x1="655.0" y1="190.6" x2="678.8" y2="225.8" stroke="#f59e0b" stroke-width="0.5" stroke-opacity="0.10"/><line x1="655.0" y1="190.6" x2="652.0" y2="193.8" stroke="#f59e0b" stroke-width="0.5" stroke-opacity="0.10"/><line x1="655.0" y1="190.6" x2="667.7" y2="250.4" stroke="#f59e0b" stroke-width="0.5" stroke-opacity="0.10"/><line x1="655.0" y1="190.6" x2="667.4" y2="293.0" stroke="#f59e0b" stroke-width="0.5" stroke-opacity="0.10"/><line x1="270.6" y1="168.9" x2="264.8" y2="286.8" stroke="#f59e0b" stroke-width="0.5" stroke-opacity="0.10"/><line x1="270.6" y1="168.9" x2="279.9" y2="265.3" stroke="#f59e0b" stroke-width="0.5" stroke-opacity="0.10"/><line x1="270.6" y1="168.9" x2="364.0" y2="224.6" stroke="#f59e0b" stroke-width="0.5" stroke-opacity="0.10"/><line x1="1477.8" y1="104.9" x2="1455.8" y2="206.9" stroke="#f59e0b" stroke-width="0.5" stroke-opacity="0.10"/><line x1="1027.3" y1="194.5" x2="1115.3" y2="233.3" stroke="#f59e0b" stroke-width="0.5" stroke-opacity="0.10"/><line x1="1027.3" y1="194.5" x2="1124.2" y2="164.6" stroke="#f59e0b" stroke-width="0.5" stroke-opacity="0.10"/><line x1="1027.3" y1="194.5" x2="1090.3" y2="155.7" stroke="#f59e0b" stroke-width="0.5" stroke-opacity="0.10"/><line x1="1027.3" y1="194.5" x2="958.2" y2="110.3" stroke="#f59e0b" stroke-width="0.5" stroke-opacity="0.10"/><line x1="724.8" y1="317.6" x2="678.8" y2="225.8" stroke="#f59e0b" stroke-width="0.5" stroke-opacity="0.10"/><line x1="724.8" y1="317.6" x2="667.7" y2="250.4" stroke="#f59e0b" stroke-width="0.5" stroke-opacity="0.10"/><line x1="724.8" y1="317.6" x2="667.4" y2="293.0" stroke="#f59e0b" stroke-width="0.5" stroke-opacity="0.10"/><line x1="576.1" y1="94.1" x2="560.2" y2="13.7" stroke="#f59e0b" stroke-width="0.5" stroke-opacity="0.10"/><line x1="576.1" y1="94.1" x2="642.1" y2="54.4" stroke="#f59e0b" stroke-width="0.5" stroke-opacity="0.10"/><line x1="576.1" y1="94.1" x2="565.2" y2="33.5" stroke="#f59e0b" stroke-width="0.5" stroke-opacity="0.10"/><line x1="1440.1" y1="240.5" x2="1455.8" y2="206.9" stroke="#f59e0b" stroke-width="0.5" stroke-opacity="0.10"/><line x1="1440.1" y1="240.5" x2="1486.0" y2="288.2" stroke="#f59e0b" stroke-width="0.5" stroke-opacity="0.10"/><line x1="1440.1" y1="240.5" x2="1519.1" y2="271.4" stroke="#f59e0b" stroke-width="0.5" stroke-opacity="0.10"/><line x1="1176.9" y1="250.6" x2="1115.3" y2="233.3" stroke="#f59e0b" stroke-width="0.5" stroke-opacity="0.10"/><line x1="1176.9" y1="250.6" x2="1141.5" y2="149.1" stroke="#f59e0b" stroke-width="0.5" stroke-opacity="0.10"/><line x1="1176.9" y1="250.6" x2="1124.2" y2="164.6" stroke="#f59e0b" stroke-width="0.5" stroke-opacity="0.10"/><line x1="1176.9" y1="250.6" x2="1089.4" y2="309.8" stroke="#f59e0b" stroke-width="0.5" stroke-opacity="0.10"/><line x1="1176.9" y1="250.6" x2="1201.2" y2="293.4" stroke="#f59e0b" stroke-width="0.5" stroke-opacity="0.10"/><line x1="1455.8" y1="206.9" x2="1486.0" y2="288.2" stroke="#f59e0b" stroke-width="0.5" stroke-opacity="0.10"/><line x1="1455.8" y1="206.9" x2="1519.1" y2="271.4" stroke="#f59e0b" stroke-width="0.5" stroke-opacity="0.10"/><line x1="1115.3" y1="233.3" x2="1141.5" y2="149.1" stroke="#f59e0b" stroke-width="0.5" stroke-opacity="0.10"/><line x1="1115.3" y1="233.3" x2="1124.2" y2="164.6" stroke="#f59e0b" stroke-width="0.5" stroke-opacity="0.10"/><line x1="1115.3" y1="233.3" x2="1089.4" y2="309.8" stroke="#f59e0b" stroke-width="0.5" stroke-opacity="0.10"/><line x1="1115.3" y1="233.3" x2="1090.3" y2="155.7" stroke="#f59e0b" stroke-width="0.5" stroke-opacity="0.10"/><line x1="1115.3" y1="233.3" x2="1201.2" y2="293.4" stroke="#f59e0b" stroke-width="0.5" stroke-opacity="0.10"/><line x1="264.8" y1="286.8" x2="279.9" y2="265.3" stroke="#f59e0b" stroke-width="0.5" stroke-opacity="0.10"/><line x1="264.8" y1="286.8" x2="364.0" y2="224.6" stroke="#f59e0b" stroke-width="0.5" stroke-opacity="0.10"/><line x1="264.8" y1="286.8" x2="361.3" y2="347.7" stroke="#f59e0b" stroke-width="0.5" stroke-opacity="0.10"/><line x1="264.8" y1="286.8" x2="271.6" y2="306.2" stroke="#f59e0b" stroke-width="0.5" stroke-opacity="0.10"/><line x1="400.6" y1="349.1" x2="511.3" y2="334.6" stroke="#f59e0b" stroke-width="0.5" stroke-opacity="0.10"/><line x1="400.6" y1="349.1" x2="424.5" y2="298.8" stroke="#f59e0b" stroke-width="0.5" stroke-opacity="0.10"/><line x1="400.6" y1="349.1" x2="361.3" y2="347.7" stroke="#f59e0b" stroke-width="0.5" stroke-opacity="0.10"/><line x1="400.6" y1="349.1" x2="435.0" y2="319.7" stroke="#f59e0b" stroke-width="0.5" stroke-opacity="0.10"/><line x1="560.2" y1="13.7" x2="642.1" y2="54.4" stroke="#f59e0b" stroke-width="0.5" stroke-opacity="0.10"/><line x1="560.2" y1="13.7" x2="565.2" y2="33.5" stroke="#f59e0b" stroke-width="0.5" stroke-opacity="0.10"/><line x1="1141.5" y1="149.1" x2="1124.2" y2="164.6" stroke="#f59e0b" stroke-width="0.5" stroke-opacity="0.10"/><line x1="1141.5" y1="149.1" x2="1090.3" y2="155.7" stroke="#f59e0b" stroke-width="0.5" stroke-opacity="0.10"/><line x1="1141.5" y1="149.1" x2="1123.3" y2="43.0" stroke="#f59e0b" stroke-width="0.5" stroke-opacity="0.10"/><line x1="1124.2" y1="164.6" x2="1090.3" y2="155.7" stroke="#f59e0b" stroke-width="0.5" stroke-opacity="0.10"/><line x1="1089.4" y1="309.8" x2="1201.2" y2="293.4" stroke="#f59e0b" stroke-width="0.5" stroke-opacity="0.10"/><line x1="1090.3" y1="155.7" x2="1123.3" y2="43.0" stroke="#f59e0b" stroke-width="0.5" stroke-opacity="0.10"/><line x1="1201.2" y1="293.4" x2="1257.7" y2="347.1" stroke="#f59e0b" stroke-width="0.5" stroke-opacity="0.10"/><line x1="115.2" y1="352.5" x2="73.6" y2="339.0" stroke="#f59e0b" stroke-width="0.5" stroke-opacity="0.10"/><line x1="511.3" y1="334.6" x2="424.5" y2="298.8" stroke="#f59e0b" stroke-width="0.5" stroke-opacity="0.10"/><line x1="511.3" y1="334.6" x2="435.0" y2="319.7" stroke="#f59e0b" stroke-width="0.5" stroke-opacity="0.10"/><line x1="1486.0" y1="288.2" x2="1519.1" y2="271.4" stroke="#f59e0b" stroke-width="0.5" stroke-opacity="0.10"/><line x1="1273.4" y1="20.3" x2="1182.9" y2="29.9" stroke="#f59e0b" stroke-width="0.5" stroke-opacity="0.10"/><line x1="279.9" y1="265.3" x2="364.0" y2="224.6" stroke="#f59e0b" stroke-width="0.5" stroke-opacity="0.10"/><line x1="279.9" y1="265.3" x2="361.3" y2="347.7" stroke="#f59e0b" stroke-width="0.5" stroke-opacity="0.10"/><line x1="279.9" y1="265.3" x2="271.6" y2="306.2" stroke="#f59e0b" stroke-width="0.5" stroke-opacity="0.10"/><line x1="642.1" y1="54.4" x2="565.2" y2="33.5" stroke="#f59e0b" stroke-width="0.5" stroke-opacity="0.10"/><line x1="678.8" y1="225.8" x2="652.0" y2="193.8" stroke="#f59e0b" stroke-width="0.5" stroke-opacity="0.10"/><line x1="678.8" y1="225.8" x2="667.7" y2="250.4" stroke="#f59e0b" stroke-width="0.5" stroke-opacity="0.10"/><line x1="678.8" y1="225.8" x2="667.4" y2="293.0" stroke="#f59e0b" stroke-width="0.5" stroke-opacity="0.10"/><line x1="364.0" y1="224.6" x2="424.5" y2="298.8" stroke="#f59e0b" stroke-width="0.5" stroke-opacity="0.10"/><line x1="364.0" y1="224.6" x2="435.0" y2="319.7" stroke="#f59e0b" stroke-width="0.5" stroke-opacity="0.10"/><line x1="424.5" y1="298.8" x2="361.3" y2="347.7" stroke="#f59e0b" stroke-width="0.5" stroke-opacity="0.10"/><line x1="424.5" y1="298.8" x2="435.0" y2="319.7" stroke="#f59e0b" stroke-width="0.5" stroke-opacity="0.10"/><line x1="361.3" y1="347.7" x2="271.6" y2="306.2" stroke="#f59e0b" stroke-width="0.5" stroke-opacity="0.10"/><line x1="361.3" y1="347.7" x2="435.0" y2="319.7" stroke="#f59e0b" stroke-width="0.5" stroke-opacity="0.10"/><line x1="1182.9" y1="29.9" x2="1123.3" y2="43.0" stroke="#f59e0b" stroke-width="0.5" stroke-opacity="0.10"/><line x1="1182.9" y1="29.9" x2="1144.1" y2="12.3" stroke="#f59e0b" stroke-width="0.5" stroke-opacity="0.10"/><line x1="652.0" y1="193.8" x2="667.7" y2="250.4" stroke="#f59e0b" stroke-width="0.5" stroke-opacity="0.10"/><line x1="652.0" y1="193.8" x2="667.4" y2="293.0" stroke="#f59e0b" stroke-width="0.5" stroke-opacity="0.10"/><line x1="667.7" y1="250.4" x2="667.4" y2="293.0" stroke="#f59e0b" stroke-width="0.5" stroke-opacity="0.10"/><line x1="1123.3" y1="43.0" x2="1144.1" y2="12.3" stroke="#f59e0b" stroke-width="0.5" stroke-opacity="0.10"/><circle cx="774.5" cy="146.1" r="1.8" fill="#f59e0b" fill-opacity="0.36"/><circle cx="863.0" cy="134.9" r="1.0" fill="#f59e0b" fill-opacity="0.32"/><circle cx="631.5" cy="267.3" r="2.2" fill="#f59e0b" fill-opacity="0.42"/><circle cx="655.0" cy="190.6" r="0.8" fill="#f59e0b" fill-opacity="0.60"/><circle cx="270.6" cy="168.9" r="1.6" fill="#f59e0b" fill-opacity="0.54"/><circle cx="1477.8" cy="104.9" r="1.4" fill="#f59e0b" fill-opacity="0.30"/><circle cx="1027.3" cy="194.5" r="2.1" fill="#f59e0b" fill-opacity="0.34"/><circle cx="724.8" cy="317.6" r="2.1" fill="#f59e0b" fill-opacity="0.29"/><circle cx="772.5" cy="37.6" r="0.7" fill="#f59e0b" fill-opacity="0.33"/><circle cx="576.1" cy="94.1" r="1.2" fill="#f59e0b" fill-opacity="0.27"/><circle cx="1440.1" cy="240.5" r="1.7" fill="#f59e0b" fill-opacity="0.42"/><circle cx="1176.9" cy="250.6" r="0.9" fill="#f59e0b" fill-opacity="0.64"/><circle cx="1455.8" cy="206.9" r="1.0" fill="#f59e0b" fill-opacity="0.35"/><circle cx="1115.3" cy="233.3" r="2.3" fill="#f59e0b" fill-opacity="0.23"/><circle cx="264.8" cy="286.8" r="1.0" fill="#f59e0b" fill-opacity="0.54"/><circle cx="400.6" cy="349.1" r="1.2" fill="#f59e0b" fill-opacity="0.55"/><circle cx="560.2" cy="13.7" r="0.6" fill="#f59e0b" fill-opacity="0.35"/><circle cx="1141.5" cy="149.1" r="1.7" fill="#f59e0b" fill-opacity="0.27"/><circle cx="210.8" cy="54.0" r="1.2" fill="#f59e0b" fill-opacity="0.22"/><circle cx="1124.2" cy="164.6" r="1.7" fill="#f59e0b" fill-opacity="0.25"/><circle cx="1089.4" cy="309.8" r="1.9" fill="#f59e0b" fill-opacity="0.20"/><circle cx="1090.3" cy="155.7" r="0.8" fill="#f59e0b" fill-opacity="0.44"/><circle cx="1201.2" cy="293.4" r="1.0" fill="#f59e0b" fill-opacity="0.49"/><circle cx="115.2" cy="352.5" r="2.3" fill="#f59e0b" fill-opacity="0.65"/><circle cx="511.3" cy="334.6" r="2.2" fill="#f59e0b" fill-opacity="0.23"/><circle cx="1486.0" cy="288.2" r="1.6" fill="#f59e0b" fill-opacity="0.23"/><circle cx="1273.4" cy="20.3" r="1.0" fill="#f59e0b" fill-opacity="0.33"/><circle cx="279.9" cy="265.3" r="1.4" fill="#f59e0b" fill-opacity="0.25"/><circle cx="1257.7" cy="347.1" r="1.1" fill="#f59e0b" fill-opacity="0.15"/><circle cx="642.1" cy="54.4" r="1.6" fill="#f59e0b" fill-opacity="0.41"/><circle cx="678.8" cy="225.8" r="1.0" fill="#f59e0b" fill-opacity="0.57"/><circle cx="364.0" cy="224.6" r="2.2" fill="#f59e0b" fill-opacity="0.57"/><circle cx="424.5" cy="298.8" r="1.0" fill="#f59e0b" fill-opacity="0.49"/><circle cx="361.3" cy="347.7" r="1.0" fill="#f59e0b" fill-opacity="0.47"/><circle cx="1182.9" cy="29.9" r="1.1" fill="#f59e0b" fill-opacity="0.26"/><circle cx="652.0" cy="193.8" r="1.6" fill="#f59e0b" fill-opacity="0.53"/><circle cx="271.6" cy="306.2" r="1.2" fill="#f59e0b" fill-opacity="0.46"/><circle cx="435.0" cy="319.7" r="1.1" fill="#f59e0b" fill-opacity="0.49"/><circle cx="565.2" cy="33.5" r="1.1" fill="#f59e0b" fill-opacity="0.63"/><circle cx="667.7" cy="250.4" r="1.3" fill="#f59e0b" fill-opacity="0.39"/><circle cx="1123.3" cy="43.0" r="2.3" fill="#f59e0b" fill-opacity="0.39"/><circle cx="1144.1" cy="12.3" r="0.7" fill="#f59e0b" fill-opacity="0.59"/><circle cx="1519.1" cy="271.4" r="1.1" fill="#f59e0b" fill-opacity="0.46"/><circle cx="73.6" cy="339.0" r="2.4" fill="#f59e0b" fill-opacity="0.61"/><circle cx="667.4" cy="293.0" r="1.9" fill="#f59e0b" fill-opacity="0.62"/><circle cx="958.2" cy="110.3" r="2.0" fill="#f59e0b" fill-opacity="0.34"/></g>
  <g opacity="0.95"><path d="M1330 96 L1384 160 L1360 258 L1300 258 L1276 160 Z" fill="none" stroke="#f59e0b" stroke-width="2.4" stroke-opacity="0.85"/><path d="M1330 96 L1330 258 M1276 160 L1384 160 M1330 96 L1300 258 M1330 96 L1360 258" stroke="#f59e0b" stroke-width="1.2" stroke-opacity="0.5"/></g>
  <g font-family="'Segoe UI', system-ui, sans-serif">
    <text x="130" y="150" fill="#f59e0b" font-size="22" font-weight="700" letter-spacing="6">24/7 INTELLIGENCE DOMAIN</text>
    <text x="126" y="238" fill="url(#title)" font-size="92" font-weight="800" letter-spacing="1">3D Printing</text>
    <rect x="132" y="262" width="150" height="5" rx="2.5" fill="#f59e0b"/>
  </g>
  <rect x="0" y="0" width="1600" height="360" fill="none" stroke="#f59e0b" stroke-opacity="0.18" stroke-width="2"/>
</svg>
