<svg xmlns="http://www.w3.org/2000/svg" viewBox="0 0 1600 360" width="1600" height="360" role="img" aria-label="Robotics domain banner">
  <defs>
    <linearGradient id="bg" x1="0" y1="0" x2="1" y2="1">
      <stop offset="0" stop-color="#060b18"/>
      <stop offset="0.55" stop-color="#0a1428"/>
      <stop offset="1" stop-color="#0c1a33"/>
    </linearGradient>
    <radialGradient id="glowA" cx="0.82" cy="0.5" r="0.5">
      <stop offset="0" stop-color="#38bdf8" stop-opacity="0.35"/>
      <stop offset="1" stop-color="#38bdf8" stop-opacity="0"/>
    </radialGradient>
    <radialGradient id="glowB" cx="0.1" cy="0.9" r="0.6">
      <stop offset="0" stop-color="#818cf8" stop-opacity="0.22"/>
      <stop offset="1" stop-color="#818cf8" stop-opacity="0"/>
    </radialGradient>
    <linearGradient id="title" x1="0" y1="0" x2="1" y2="0">
      <stop offset="0" stop-color="#ffffff"/>
      <stop offset="1" stop-color="#38bdf8"/>
    </linearGradient>
  </defs>
  <rect width="1600" height="360" fill="url(#bg)"/>
  <rect width="1600" height="360" fill="url(#glowA)"/>
  <rect width="1600" height="360" fill="url(#glowB)"/>
  <g><line x1="848.1" y1="48.0" x2="876.4" y2="47.2" stroke="#38bdf8" stroke-width="0.5" stroke-opacity="0.10"/><line x1="1267.8" y1="160.4" x2="1238.1" y2="192.1" stroke="#38bdf8" stroke-width="0.5" stroke-opacity="0.10"/><line x1="1267.8" y1="160.4" x2="1263.4" y2="185.7" stroke="#38bdf8" stroke-width="0.5" stroke-opacity="0.10"/><line x1="1267.8" y1="160.4" x2="1251.3" y2="121.6" stroke="#38bdf8" stroke-width="0.5" stroke-opacity="0.10"/><line x1="1267.8" y1="160.4" x2="1207.4" y2="192.4" stroke="#38bdf8" stroke-width="0.5" stroke-opacity="0.10"/><line x1="716.1" y1="65.0" x2="686.7" y2="134.2" stroke="#38bdf8" stroke-width="0.5" stroke-opacity="0.10"/><line x1="816.1" y1="314.1" x2="790.4" y2="240.4" stroke="#38bdf8" stroke-width="0.5" stroke-opacity="0.10"/><line x1="816.1" y1="314.1" x2="794.2" y2="264.3" stroke="#38bdf8" stroke-width="0.5" stroke-opacity="0.10"/><line x1="816.1" y1="314.1" x2="893.9" y2="302.4" stroke="#38bdf8" stroke-width="0.5" stroke-opacity="0.10"/><line x1="816.1" y1="314.1" x2="786.1" y2="260.9" stroke="#38bdf8" stroke-width="0.5" stroke-opacity="0.10"/><line x1="816.1" y1="314.1" x2="743.8" y2="241.1" stroke="#38bdf8" stroke-width="0.5" stroke-opacity="0.10"/><line x1="816.1" y1="314.1" x2="804.0" y2="282.0" stroke="#38bdf8" stroke-width="0.5" stroke-opacity="0.10"/><line x1="82.3" y1="284.7" x2="84.5" y2="220.9" stroke="#38bdf8" stroke-width="0.5" stroke-opacity="0.10"/><line x1="39.4" y1="150.0" x2="9.1" y2="113.6" stroke="#38bdf8" stroke-width="0.5" stroke-opacity="0.10"/><line x1="39.4" y1="150.0" x2="96.7" y2="107.9" stroke="#38bdf8" stroke-width="0.5" stroke-opacity="0.10"/><line x1="39.4" y1="150.0" x2="73.6" y2="150.8" stroke="#38bdf8" stroke-width="0.5" stroke-opacity="0.10"/><line x1="39.4" y1="150.0" x2="84.5" y2="220.9" stroke="#38bdf8" stroke-width="0.5" stroke-opacity="0.10"/><line x1="39.4" y1="150.0" x2="149.5" y2="137.7" stroke="#38bdf8" stroke-width="0.5" stroke-opacity="0.10"/><line x1="292.8" y1="88.6" x2="332.9" y2="140.9" stroke="#38bdf8" stroke-width="0.5" stroke-opacity="0.10"/><line x1="292.8" y1="88.6" x2="311.0" y2="183.6" stroke="#38bdf8" stroke-width="0.5" stroke-opacity="0.10"/><line x1="521.0" y1="138.7" x2="580.1" y2="203.7" stroke="#38bdf8" stroke-width="0.5" stroke-opacity="0.10"/><line x1="521.0" y1="138.7" x2="491.7" y2="224.4" stroke="#38bdf8" stroke-width="0.5" stroke-opacity="0.10"/><line x1="521.0" y1="138.7" x2="476.5" y2="195.3" stroke="#38bdf8" stroke-width="0.5" stroke-opacity="0.10"/><line x1="521.0" y1="138.7" x2="542.0" y2="59.9" stroke="#38bdf8" stroke-width="0.5" stroke-opacity="0.10"/><line x1="332.9" y1="140.9" x2="311.0" y2="183.6" stroke="#38bdf8" stroke-width="0.5" stroke-opacity="0.10"/><line x1="790.4" y1="240.4" x2="794.2" y2="264.3" stroke="#38bdf8" stroke-width="0.5" stroke-opacity="0.10"/><line x1="790.4" y1="240.4" x2="786.1" y2="260.9" stroke="#38bdf8" stroke-width="0.5" stroke-opacity="0.10"/><line x1="790.4" y1="240.4" x2="743.8" y2="241.1" stroke="#38bdf8" stroke-width="0.5" stroke-opacity="0.10"/><line x1="790.4" y1="240.4" x2="804.0" y2="282.0" stroke="#38bdf8" stroke-width="0.5" stroke-opacity="0.10"/><line x1="790.4" y1="240.4" x2="821.5" y2="194.0" stroke="#38bdf8" stroke-width="0.5" stroke-opacity="0.10"/><line x1="1061.2" y1="36.1" x2="1110.5" y2="35.2" stroke="#38bdf8" stroke-width="0.5" stroke-opacity="0.10"/><line x1="477.9" y1="321.2" x2="481.1" y2="254.0" stroke="#38bdf8" stroke-width="0.5" stroke-opacity="0.10"/><line x1="477.9" y1="321.2" x2="491.7" y2="224.4" stroke="#38bdf8" stroke-width="0.5" stroke-opacity="0.10"/><line x1="477.9" y1="321.2" x2="365.4" y2="354.2" stroke="#38bdf8" stroke-width="0.5" stroke-opacity="0.10"/><line x1="794.2" y1="264.3" x2="893.9" y2="302.4" stroke="#38bdf8" stroke-width="0.5" stroke-opacity="0.10"/><line x1="794.2" y1="264.3" x2="786.1" y2="260.9" stroke="#38bdf8" stroke-width="0.5" stroke-opacity="0.10"/><line x1="794.2" y1="264.3" x2="743.8" y2="241.1" stroke="#38bdf8" stroke-width="0.5" stroke-opacity="0.10"/><line x1="794.2" y1="264.3" x2="804.0" y2="282.0" stroke="#38bdf8" stroke-width="0.5" stroke-opacity="0.10"/><line x1="794.2" y1="264.3" x2="821.5" y2="194.0" stroke="#38bdf8" stroke-width="0.5" stroke-opacity="0.10"/><line x1="16.5" y1="12.1" x2="9.1" y2="113.6" stroke="#38bdf8" stroke-width="0.5" stroke-opacity="0.10"/><line x1="1238.1" y1="192.1" x2="1263.4" y2="185.7" stroke="#38bdf8" stroke-width="0.5" stroke-opacity="0.10"/><line x1="1238.1" y1="192.1" x2="1251.3" y2="121.6" stroke="#38bdf8" stroke-width="0.5" stroke-opacity="0.10"/><line x1="1238.1" y1="192.1" x2="1207.4" y2="192.4" stroke="#38bdf8" stroke-width="0.5" stroke-opacity="0.10"/><line x1="1297.6" y1="25.8" x2="1251.3" y2="121.6" stroke="#38bdf8" stroke-width="0.5" stroke-opacity="0.10"/><line x1="1297.6" y1="25.8" x2="1307.1" y2="19.1" stroke="#38bdf8" stroke-width="0.5" stroke-opacity="0.10"/><line x1="580.1" y1="203.7" x2="481.1" y2="254.0" stroke="#38bdf8" stroke-width="0.5" stroke-opacity="0.10"/><line x1="580.1" y1="203.7" x2="491.7" y2="224.4" stroke="#38bdf8" stroke-width="0.5" stroke-opacity="0.10"/><line x1="580.1" y1="203.7" x2="476.5" y2="195.3" stroke="#38bdf8" stroke-width="0.5" stroke-opacity="0.10"/><line x1="481.1" y1="254.0" x2="491.7" y2="224.4" stroke="#38bdf8" stroke-width="0.5" stroke-opacity="0.10"/><line x1="481.1" y1="254.0" x2="476.5" y2="195.3" stroke="#38bdf8" stroke-width="0.5" stroke-opacity="0.10"/><line x1="893.9" y1="302.4" x2="786.1" y2="260.9" stroke="#38bdf8" stroke-width="0.5" stroke-opacity="0.10"/><line x1="893.9" y1="302.4" x2="804.0" y2="282.0" stroke="#38bdf8" stroke-width="0.5" stroke-opacity="0.10"/><line x1="491.7" y1="224.4" x2="476.5" y2="195.3" stroke="#38bdf8" stroke-width="0.5" stroke-opacity="0.10"/><line x1="173.5" y1="66.0" x2="96.7" y2="107.9" stroke="#38bdf8" stroke-width="0.5" stroke-opacity="0.10"/><line x1="173.5" y1="66.0" x2="149.5" y2="137.7" stroke="#38bdf8" stroke-width="0.5" stroke-opacity="0.10"/><line x1="1263.4" y1="185.7" x2="1251.3" y2="121.6" stroke="#38bdf8" stroke-width="0.5" stroke-opacity="0.10"/><line x1="1263.4" y1="185.7" x2="1207.4" y2="192.4" stroke="#38bdf8" stroke-width="0.5" stroke-opacity="0.10"/><line x1="1251.3" y1="121.6" x2="1207.4" y2="192.4" stroke="#38bdf8" stroke-width="0.5" stroke-opacity="0.10"/><line x1="1251.3" y1="121.6" x2="1307.1" y2="19.1" stroke="#38bdf8" stroke-width="0.5" stroke-opacity="0.10"/><line x1="9.1" y1="113.6" x2="96.7" y2="107.9" stroke="#38bdf8" stroke-width="0.5" stroke-opacity="0.10"/><line x1="9.1" y1="113.6" x2="73.6" y2="150.8" stroke="#38bdf8" stroke-width="0.5" stroke-opacity="0.10"/><line x1="786.1" y1="260.9" x2="743.8" y2="241.1" stroke="#38bdf8" stroke-width="0.5" stroke-opacity="0.10"/><line x1="786.1" y1="260.9" x2="804.0" y2="282.0" stroke="#38bdf8" stroke-width="0.5" stroke-opacity="0.10"/><line x1="786.1" y1="260.9" x2="821.5" y2="194.0" stroke="#38bdf8" stroke-width="0.5" stroke-opacity="0.10"/><line x1="96.7" y1="107.9" x2="73.6" y2="150.8" stroke="#38bdf8" stroke-width="0.5" stroke-opacity="0.10"/><line x1="96.7" y1="107.9" x2="84.5" y2="220.9" stroke="#38bdf8" stroke-width="0.5" stroke-opacity="0.10"/><line x1="96.7" y1="107.9" x2="149.5" y2="137.7" stroke="#38bdf8" stroke-width="0.5" stroke-opacity="0.10"/><line x1="743.8" y1="241.1" x2="804.0" y2="282.0" stroke="#38bdf8" stroke-width="0.5" stroke-opacity="0.10"/><line x1="743.8" y1="241.1" x2="821.5" y2="194.0" stroke="#38bdf8" stroke-width="0.5" stroke-opacity="0.10"/><line x1="73.6" y1="150.8" x2="84.5" y2="220.9" stroke="#38bdf8" stroke-width="0.5" stroke-opacity="0.10"/><line x1="73.6" y1="150.8" x2="149.5" y2="137.7" stroke="#38bdf8" stroke-width="0.5" stroke-opacity="0.10"/><line x1="804.0" y1="282.0" x2="821.5" y2="194.0" stroke="#38bdf8" stroke-width="0.5" stroke-opacity="0.10"/><line x1="84.5" y1="220.9" x2="149.5" y2="137.7" stroke="#38bdf8" stroke-width="0.5" stroke-opacity="0.10"/><circle cx="848.1" cy="48.0" r="1.4" fill="#38bdf8" fill-opacity="0.15"/><circle cx="1267.8" cy="160.4" r="1.3" fill="#38bdf8" fill-opacity="0.32"/><circle cx="716.1" cy="65.0" r="1.5" fill="#38bdf8" fill-opacity="0.30"/><circle cx="816.1" cy="314.1" r="1.4" fill="#38bdf8" fill-opacity="0.60"/><circle cx="876.4" cy="47.2" r="0.7" fill="#38bdf8" fill-opacity="0.46"/><circle cx="82.3" cy="284.7" r="1.0" fill="#38bdf8" fill-opacity="0.58"/><circle cx="39.4" cy="150.0" r="0.7" fill="#38bdf8" fill-opacity="0.48"/><circle cx="292.8" cy="88.6" r="2.1" fill="#38bdf8" fill-opacity="0.60"/><circle cx="648.4" cy="321.0" r="0.8" fill="#38bdf8" fill-opacity="0.32"/><circle cx="521.0" cy="138.7" r="1.6" fill="#38bdf8" fill-opacity="0.33"/><circle cx="332.9" cy="140.9" r="2.2" fill="#38bdf8" fill-opacity="0.16"/><circle cx="790.4" cy="240.4" r="1.0" fill="#38bdf8" fill-opacity="0.26"/><circle cx="1061.2" cy="36.1" r="1.9" fill="#38bdf8" fill-opacity="0.52"/><circle cx="477.9" cy="321.2" r="0.7" fill="#38bdf8" fill-opacity="0.35"/><circle cx="794.2" cy="264.3" r="0.8" fill="#38bdf8" fill-opacity="0.64"/><circle cx="16.5" cy="12.1" r="0.7" fill="#38bdf8" fill-opacity="0.30"/><circle cx="1238.1" cy="192.1" r="1.7" fill="#38bdf8" fill-opacity="0.50"/><circle cx="1098.8" cy="322.0" r="2.1" fill="#38bdf8" fill-opacity="0.56"/><circle cx="1297.6" cy="25.8" r="1.1" fill="#38bdf8" fill-opacity="0.45"/><circle cx="580.1" cy="203.7" r="1.5" fill="#38bdf8" fill-opacity="0.41"/><circle cx="229.1" cy="313.8" r="2.1" fill="#38bdf8" fill-opacity="0.55"/><circle cx="481.1" cy="254.0" r="0.8" fill="#38bdf8" fill-opacity="0.22"/><circle cx="893.9" cy="302.4" r="0.8" fill="#38bdf8" fill-opacity="0.54"/><circle cx="491.7" cy="224.4" r="0.6" fill="#38bdf8" fill-opacity="0.41"/><circle cx="311.0" cy="183.6" r="1.0" fill="#38bdf8" fill-opacity="0.45"/><circle cx="173.5" cy="66.0" r="1.5" fill="#38bdf8" fill-opacity="0.51"/><circle cx="1110.5" cy="35.2" r="1.8" fill="#38bdf8" fill-opacity="0.42"/><circle cx="1263.4" cy="185.7" r="2.3" fill="#38bdf8" fill-opacity="0.41"/><circle cx="686.7" cy="134.2" r="2.4" fill="#38bdf8" fill-opacity="0.62"/><circle cx="476.5" cy="195.3" r="2.1" fill="#38bdf8" fill-opacity="0.26"/><circle cx="1251.3" cy="121.6" r="1.1" fill="#38bdf8" fill-opacity="0.33"/><circle cx="9.1" cy="113.6" r="0.6" fill="#38bdf8" fill-opacity="0.49"/><circle cx="786.1" cy="260.9" r="1.0" fill="#38bdf8" fill-opacity="0.26"/><circle cx="542.0" cy="59.9" r="1.9" fill="#38bdf8" fill-opacity="0.56"/><circle cx="96.7" cy="107.9" r="0.8" fill="#38bdf8" fill-opacity="0.38"/><circle cx="743.8" cy="241.1" r="2.4" fill="#38bdf8" fill-opacity="0.30"/><circle cx="365.4" cy="354.2" r="1.6" fill="#38bdf8" fill-opacity="0.55"/><circle cx="73.6" cy="150.8" r="2.2" fill="#38bdf8" fill-opacity="0.44"/><circle cx="804.0" cy="282.0" r="1.3" fill="#38bdf8" fill-opacity="0.21"/><circle cx="84.5" cy="220.9" r="0.8" fill="#38bdf8" fill-opacity="0.28"/><circle cx="1207.4" cy="192.4" r="1.7" fill="#38bdf8" fill-opacity="0.28"/><circle cx="1026.4" cy="165.4" r="0.7" fill="#38bdf8" fill-opacity="0.53"/><circle cx="1406.6" cy="165.7" r="1.2" fill="#38bdf8" fill-opacity="0.16"/><circle cx="149.5" cy="137.7" r="1.9" fill="#38bdf8" fill-opacity="0.27"/><circle cx="821.5" cy="194.0" r="1.9" fill="#38bdf8" fill-opacity="0.48"/><circle cx="1307.1" cy="19.1" r="0.8" fill="#38bdf8" fill-opacity="0.17"/></g>
  <g opacity="0.95"><rect x="1314" y="164" width="32" height="32" rx="6" fill="#38bdf8" fill-opacity="0.9"/><line x1="1330" y1="180" x2="1330.0" y2="106.0" stroke="#38bdf8" stroke-width="1.4" stroke-opacity="0.55"/><circle cx="1330.0" cy="106.0" r="6" fill="#38bdf8"/><line x1="1330" y1="180" x2="1400.4" y2="157.1" stroke="#38bdf8" stroke-width="1.4" stroke-opacity="0.55"/><circle cx="1400.4" cy="157.1" r="6" fill="#38bdf8"/><line x1="1330" y1="180" x2="1373.5" y2="239.9" stroke="#38bdf8" stroke-width="1.4" stroke-opacity="0.55"/><circle cx="1373.5" cy="239.9" r="6" fill="#38bdf8"/><line x1="1330" y1="180" x2="1286.5" y2="239.9" stroke="#38bdf8" stroke-width="1.4" stroke-opacity="0.55"/><circle cx="1286.5" cy="239.9" r="6" fill="#38bdf8"/><line x1="1330" y1="180" x2="1259.6" y2="157.1" stroke="#38bdf8" stroke-width="1.4" stroke-opacity="0.55"/><circle cx="1259.6" cy="157.1" r="6" fill="#38bdf8"/></g>
  <g font-family="'Segoe UI', system-ui, sans-serif">
    <text x="130" y="150" fill="#38bdf8" font-size="22" font-weight="700" letter-spacing="6">24/7 INTELLIGENCE DOMAIN</text>
    <text x="126" y="238" fill="url(#title)" font-size="92" font-weight="800" letter-spacing="1">Robotics</text>
    <rect x="132" y="262" width="150" height="5" rx="2.5" fill="#38bdf8"/>
  </g>
  <rect x="0" y="0" width="1600" height="360" fill="none" stroke="#38bdf8" stroke-opacity="0.18" stroke-width="2"/>
</svg>
