<svg xmlns="http://www.w3.org/2000/svg" viewBox="0 0 1600 360" width="1600" height="360" role="img" aria-label="Synthetic Bio domain banner">
  <defs>
    <linearGradient id="bg" x1="0" y1="0" x2="1" y2="1">
      <stop offset="0" stop-color="#060b18"/>
      <stop offset="0.55" stop-color="#0a1428"/>
      <stop offset="1" stop-color="#0c1a33"/>
    </linearGradient>
    <radialGradient id="glowA" cx="0.82" cy="0.5" r="0.5">
      <stop offset="0" stop-color="#34d399" stop-opacity="0.35"/>
      <stop offset="1" stop-color="#34d399" stop-opacity="0"/>
    </radialGradient>
    <radialGradient id="glowB" cx="0.1" cy="0.9" r="0.6">
      <stop offset="0" stop-color="#a78bfa" stop-opacity="0.22"/>
      <stop offset="1" stop-color="#a78bfa" stop-opacity="0"/>
    </radialGradient>
    <linearGradient id="title" x1="0" y1="0" x2="1" y2="0">
      <stop offset="0" stop-color="#ffffff"/>
      <stop offset="1" stop-color="#34d399"/>
    </linearGradient>
  </defs>
  <rect width="1600" height="360" fill="url(#bg)"/>
  <rect width="1600" height="360" fill="url(#glowA)"/>
  <rect width="1600" height="360" fill="url(#glowB)"/>
  <g><line x1="914.6" y1="330.1" x2="999.2" y2="263.7" stroke="#34d399" stroke-width="0.5" stroke-opacity="0.10"/><line x1="914.6" y1="330.1" x2="997.0" y2="297.3" stroke="#34d399" stroke-width="0.5" stroke-opacity="0.10"/><line x1="666.7" y1="305.3" x2="592.9" y2="273.0" stroke="#34d399" stroke-width="0.5" stroke-opacity="0.10"/><line x1="906.2" y1="122.0" x2="857.4" y2="30.2" stroke="#34d399" stroke-width="0.5" stroke-opacity="0.10"/><line x1="906.2" y1="122.0" x2="898.1" y2="120.9" stroke="#34d399" stroke-width="0.5" stroke-opacity="0.10"/><line x1="906.2" y1="122.0" x2="893.5" y2="28.3" stroke="#34d399" stroke-width="0.5" stroke-opacity="0.10"/><line x1="425.4" y1="306.1" x2="397.5" y2="247.5" stroke="#34d399" stroke-width="0.5" stroke-opacity="0.10"/><line x1="425.4" y1="306.1" x2="542.7" y2="290.1" stroke="#34d399" stroke-width="0.5" stroke-opacity="0.10"/><line x1="425.4" y1="306.1" x2="538.6" y2="299.3" stroke="#34d399" stroke-width="0.5" stroke-opacity="0.10"/><line x1="425.4" y1="306.1" x2="353.0" y2="265.1" stroke="#34d399" stroke-width="0.5" stroke-opacity="0.10"/><line x1="260.6" y1="77.1" x2="337.4" y2="58.9" stroke="#34d399" stroke-width="0.5" stroke-opacity="0.10"/><line x1="260.6" y1="77.1" x2="219.6" y2="53.5" stroke="#34d399" stroke-width="0.5" stroke-opacity="0.10"/><line x1="260.6" y1="77.1" x2="195.5" y2="139.9" stroke="#34d399" stroke-width="0.5" stroke-opacity="0.10"/><line x1="260.6" y1="77.1" x2="299.3" y2="56.1" stroke="#34d399" stroke-width="0.5" stroke-opacity="0.10"/><line x1="84.7" y1="285.1" x2="95.1" y2="265.0" stroke="#34d399" stroke-width="0.5" stroke-opacity="0.10"/><line x1="84.7" y1="285.1" x2="68.9" y2="211.5" stroke="#34d399" stroke-width="0.5" stroke-opacity="0.10"/><line x1="420.2" y1="153.0" x2="397.5" y2="247.5" stroke="#34d399" stroke-width="0.5" stroke-opacity="0.10"/><line x1="420.2" y1="153.0" x2="383.4" y2="77.3" stroke="#34d399" stroke-width="0.5" stroke-opacity="0.10"/><line x1="420.2" y1="153.0" x2="498.7" y2="170.3" stroke="#34d399" stroke-width="0.5" stroke-opacity="0.10"/><line x1="420.2" y1="153.0" x2="455.1" y2="169.6" stroke="#34d399" stroke-width="0.5" stroke-opacity="0.10"/><line x1="397.5" y1="247.5" x2="455.1" y2="169.6" stroke="#34d399" stroke-width="0.5" stroke-opacity="0.10"/><line x1="397.5" y1="247.5" x2="353.0" y2="265.1" stroke="#34d399" stroke-width="0.5" stroke-opacity="0.10"/><line x1="383.4" y1="77.3" x2="337.4" y2="58.9" stroke="#34d399" stroke-width="0.5" stroke-opacity="0.10"/><line x1="383.4" y1="77.3" x2="299.3" y2="56.1" stroke="#34d399" stroke-width="0.5" stroke-opacity="0.10"/><line x1="383.4" y1="77.3" x2="455.1" y2="169.6" stroke="#34d399" stroke-width="0.5" stroke-opacity="0.10"/><line x1="5.3" y1="41.4" x2="55.8" y2="138.0" stroke="#34d399" stroke-width="0.5" stroke-opacity="0.10"/><line x1="95.1" y1="265.0" x2="68.9" y2="211.5" stroke="#34d399" stroke-width="0.5" stroke-opacity="0.10"/><line x1="1479.0" y1="107.5" x2="1430.0" y2="142.7" stroke="#34d399" stroke-width="0.5" stroke-opacity="0.10"/><line x1="337.4" y1="58.9" x2="219.6" y2="53.5" stroke="#34d399" stroke-width="0.5" stroke-opacity="0.10"/><line x1="337.4" y1="58.9" x2="299.3" y2="56.1" stroke="#34d399" stroke-width="0.5" stroke-opacity="0.10"/><line x1="1059.6" y1="270.0" x2="999.2" y2="263.7" stroke="#34d399" stroke-width="0.5" stroke-opacity="0.10"/><line x1="1059.6" y1="270.0" x2="1031.9" y2="228.9" stroke="#34d399" stroke-width="0.5" stroke-opacity="0.10"/><line x1="1059.6" y1="270.0" x2="1104.8" y2="219.2" stroke="#34d399" stroke-width="0.5" stroke-opacity="0.10"/><line x1="1059.6" y1="270.0" x2="1141.5" y2="277.3" stroke="#34d399" stroke-width="0.5" stroke-opacity="0.10"/><line x1="1059.6" y1="270.0" x2="1069.8" y2="269.7" stroke="#34d399" stroke-width="0.5" stroke-opacity="0.10"/><line x1="1059.6" y1="270.0" x2="997.0" y2="297.3" stroke="#34d399" stroke-width="0.5" stroke-opacity="0.10"/><line x1="720.2" y1="131.8" x2="723.7" y2="38.8" stroke="#34d399" stroke-width="0.5" stroke-opacity="0.10"/><line x1="720.2" y1="131.8" x2="647.1" y2="141.4" stroke="#34d399" stroke-width="0.5" stroke-opacity="0.10"/><line x1="498.7" y1="170.3" x2="548.8" y2="169.9" stroke="#34d399" stroke-width="0.5" stroke-opacity="0.10"/><line x1="498.7" y1="170.3" x2="455.1" y2="169.6" stroke="#34d399" stroke-width="0.5" stroke-opacity="0.10"/><line x1="571.9" y1="51.7" x2="647.1" y2="141.4" stroke="#34d399" stroke-width="0.5" stroke-opacity="0.10"/><line x1="999.2" y1="263.7" x2="1031.9" y2="228.9" stroke="#34d399" stroke-width="0.5" stroke-opacity="0.10"/><line x1="999.2" y1="263.7" x2="1104.8" y2="219.2" stroke="#34d399" stroke-width="0.5" stroke-opacity="0.10"/><line x1="999.2" y1="263.7" x2="1069.8" y2="269.7" stroke="#34d399" stroke-width="0.5" stroke-opacity="0.10"/><line x1="999.2" y1="263.7" x2="997.0" y2="297.3" stroke="#34d399" stroke-width="0.5" stroke-opacity="0.10"/><line x1="55.8" y1="138.0" x2="68.9" y2="211.5" stroke="#34d399" stroke-width="0.5" stroke-opacity="0.10"/><line x1="1031.9" y1="228.9" x2="1104.8" y2="219.2" stroke="#34d399" stroke-width="0.5" stroke-opacity="0.10"/><line x1="1031.9" y1="228.9" x2="1141.5" y2="277.3" stroke="#34d399" stroke-width="0.5" stroke-opacity="0.10"/><line x1="1031.9" y1="228.9" x2="1069.8" y2="269.7" stroke="#34d399" stroke-width="0.5" stroke-opacity="0.10"/><line x1="1031.9" y1="228.9" x2="997.0" y2="297.3" stroke="#34d399" stroke-width="0.5" stroke-opacity="0.10"/><line x1="795.8" y1="274.8" x2="801.1" y2="277.3" stroke="#34d399" stroke-width="0.5" stroke-opacity="0.10"/><line x1="1104.8" y1="219.2" x2="1141.5" y2="277.3" stroke="#34d399" stroke-width="0.5" stroke-opacity="0.10"/><line x1="1104.8" y1="219.2" x2="1069.8" y2="269.7" stroke="#34d399" stroke-width="0.5" stroke-opacity="0.10"/><line x1="219.6" y1="53.5" x2="195.5" y2="139.9" stroke="#34d399" stroke-width="0.5" stroke-opacity="0.10"/><line x1="219.6" y1="53.5" x2="299.3" y2="56.1" stroke="#34d399" stroke-width="0.5" stroke-opacity="0.10"/><line x1="857.4" y1="30.2" x2="898.1" y2="120.9" stroke="#34d399" stroke-width="0.5" stroke-opacity="0.10"/><line x1="857.4" y1="30.2" x2="893.5" y2="28.3" stroke="#34d399" stroke-width="0.5" stroke-opacity="0.10"/><line x1="1141.5" y1="277.3" x2="1069.8" y2="269.7" stroke="#34d399" stroke-width="0.5" stroke-opacity="0.10"/><line x1="1069.8" y1="269.7" x2="997.0" y2="297.3" stroke="#34d399" stroke-width="0.5" stroke-opacity="0.10"/><line x1="548.8" y1="169.9" x2="592.9" y2="273.0" stroke="#34d399" stroke-width="0.5" stroke-opacity="0.10"/><line x1="548.8" y1="169.9" x2="455.1" y2="169.6" stroke="#34d399" stroke-width="0.5" stroke-opacity="0.10"/><line x1="548.8" y1="169.9" x2="647.1" y2="141.4" stroke="#34d399" stroke-width="0.5" stroke-opacity="0.10"/><line x1="542.7" y1="290.1" x2="538.6" y2="299.3" stroke="#34d399" stroke-width="0.5" stroke-opacity="0.10"/><line x1="542.7" y1="290.1" x2="592.9" y2="273.0" stroke="#34d399" stroke-width="0.5" stroke-opacity="0.10"/><line x1="1450.3" y1="337.8" x2="1559.2" y2="302.0" stroke="#34d399" stroke-width="0.5" stroke-opacity="0.10"/><line x1="898.1" y1="120.9" x2="893.5" y2="28.3" stroke="#34d399" stroke-width="0.5" stroke-opacity="0.10"/><line x1="538.6" y1="299.3" x2="592.9" y2="273.0" stroke="#34d399" stroke-width="0.5" stroke-opacity="0.10"/><circle cx="914.6" cy="330.1" r="1.3" fill="#34d399" fill-opacity="0.20"/><circle cx="666.7" cy="305.3" r="1.4" fill="#34d399" fill-opacity="0.15"/><circle cx="906.2" cy="122.0" r="1.2" fill="#34d399" fill-opacity="0.48"/><circle cx="425.4" cy="306.1" r="1.2" fill="#34d399" fill-opacity="0.21"/><circle cx="260.6" cy="77.1" r="1.4" fill="#34d399" fill-opacity="0.58"/><circle cx="84.7" cy="285.1" r="1.4" fill="#34d399" fill-opacity="0.28"/><circle cx="420.2" cy="153.0" r="2.1" fill="#34d399" fill-opacity="0.35"/><circle cx="397.5" cy="247.5" r="0.9" fill="#34d399" fill-opacity="0.45"/><circle cx="383.4" cy="77.3" r="0.7" fill="#34d399" fill-opacity="0.64"/><circle cx="5.3" cy="41.4" r="1.5" fill="#34d399" fill-opacity="0.52"/><circle cx="95.1" cy="265.0" r="1.5" fill="#34d399" fill-opacity="0.63"/><circle cx="1479.0" cy="107.5" r="1.1" fill="#34d399" fill-opacity="0.25"/><circle cx="337.4" cy="58.9" r="1.5" fill="#34d399" fill-opacity="0.23"/><circle cx="1059.6" cy="270.0" r="1.1" fill="#34d399" fill-opacity="0.20"/><circle cx="720.2" cy="131.8" r="1.3" fill="#34d399" fill-opacity="0.57"/><circle cx="498.7" cy="170.3" r="0.8" fill="#34d399" fill-opacity="0.51"/><circle cx="571.9" cy="51.7" r="1.3" fill="#34d399" fill-opacity="0.41"/><circle cx="999.2" cy="263.7" r="0.8" fill="#34d399" fill-opacity="0.31"/><circle cx="1130.1" cy="9.5" r="0.8" fill="#34d399" fill-opacity="0.17"/><circle cx="55.8" cy="138.0" r="1.7" fill="#34d399" fill-opacity="0.57"/><circle cx="1031.9" cy="228.9" r="0.9" fill="#34d399" fill-opacity="0.48"/><circle cx="795.8" cy="274.8" r="1.7" fill="#34d399" fill-opacity="0.55"/><circle cx="1104.8" cy="219.2" r="0.8" fill="#34d399" fill-opacity="0.20"/><circle cx="219.6" cy="53.5" r="1.7" fill="#34d399" fill-opacity="0.23"/><circle cx="857.4" cy="30.2" r="0.7" fill="#34d399" fill-opacity="0.54"/><circle cx="1141.5" cy="277.3" r="2.1" fill="#34d399" fill-opacity="0.33"/><circle cx="1069.8" cy="269.7" r="2.3" fill="#34d399" fill-opacity="0.21"/><circle cx="1430.0" cy="142.7" r="2.2" fill="#34d399" fill-opacity="0.29"/><circle cx="1284.1" cy="164.0" r="2.0" fill="#34d399" fill-opacity="0.50"/><circle cx="548.8" cy="169.9" r="1.5" fill="#34d399" fill-opacity="0.34"/><circle cx="195.5" cy="139.9" r="1.9" fill="#34d399" fill-opacity="0.58"/><circle cx="997.0" cy="297.3" r="2.0" fill="#34d399" fill-opacity="0.56"/><circle cx="542.7" cy="290.1" r="1.8" fill="#34d399" fill-opacity="0.61"/><circle cx="1450.3" cy="337.8" r="1.6" fill="#34d399" fill-opacity="0.52"/><circle cx="898.1" cy="120.9" r="1.1" fill="#34d399" fill-opacity="0.56"/><circle cx="801.1" cy="277.3" r="1.2" fill="#34d399" fill-opacity="0.41"/><circle cx="1559.2" cy="302.0" r="2.3" fill="#34d399" fill-opacity="0.48"/><circle cx="299.3" cy="56.1" r="1.1" fill="#34d399" fill-opacity="0.19"/><circle cx="538.6" cy="299.3" r="1.6" fill="#34d399" fill-opacity="0.29"/><circle cx="592.9" cy="273.0" r="1.8" fill="#34d399" fill-opacity="0.31"/><circle cx="455.1" cy="169.6" r="0.7" fill="#34d399" fill-opacity="0.16"/><circle cx="68.9" cy="211.5" r="1.7" fill="#34d399" fill-opacity="0.46"/><circle cx="723.7" cy="38.8" r="2.2" fill="#34d399" fill-opacity="0.34"/><circle cx="893.5" cy="28.3" r="0.9" fill="#34d399" fill-opacity="0.32"/><circle cx="647.1" cy="141.4" r="0.9" fill="#34d399" fill-opacity="0.61"/><circle cx="353.0" cy="265.1" r="1.7" fill="#34d399" fill-opacity="0.37"/></g>
  <g opacity="0.95"><line x1="1330.0" y1="100.0" x2="1330.0" y2="100.0" stroke="#34d399" stroke-width="1.2" stroke-opacity="0.5"/><circle cx="1330.0" cy="100.0" r="4.5" fill="#34d399"/><circle cx="1330.0" cy="100.0" r="4.5" fill="#34d399" fill-opacity="0.7"/><line x1="1357.5" y1="116.0" x2="1302.5" y2="116.0" stroke="#34d399" stroke-width="1.2" stroke-opacity="0.5"/><circle cx="1357.5" cy="116.0" r="4.5" fill="#34d399"/><circle cx="1302.5" cy="116.0" r="4.5" fill="#34d399" fill-opacity="0.7"/><line x1="1362.3" y1="132.0" x2="1297.7" y2="132.0" stroke="#34d399" stroke-width="1.2" stroke-opacity="0.5"/><circle cx="1362.3" cy="132.0" r="4.5" fill="#34d399"/><circle cx="1297.7" cy="132.0" r="4.5" fill="#34d399" fill-opacity="0.7"/><line x1="1340.5" y1="148.0" x2="1319.5" y2="148.0" stroke="#34d399" stroke-width="1.2" stroke-opacity="0.5"/><circle cx="1340.5" cy="148.0" r="4.5" fill="#34d399"/><circle cx="1319.5" cy="148.0" r="4.5" fill="#34d399" fill-opacity="0.7"/><line x1="1310.0" y1="164.0" x2="1350.0" y2="164.0" stroke="#34d399" stroke-width="1.2" stroke-opacity="0.5"/><circle cx="1310.0" cy="164.0" r="4.5" fill="#34d399"/><circle cx="1350.0" cy="164.0" r="4.5" fill="#34d399" fill-opacity="0.7"/><line x1="1296.0" y1="180.0" x2="1364.0" y2="180.0" stroke="#34d399" stroke-width="1.2" stroke-opacity="0.5"/><circle cx="1296.0" cy="180.0" r="4.5" fill="#34d399"/><circle cx="1364.0" cy="180.0" r="4.5" fill="#34d399" fill-opacity="0.7"/><line x1="1310.0" y1="196.0" x2="1350.0" y2="196.0" stroke="#34d399" stroke-width="1.2" stroke-opacity="0.5"/><circle cx="1310.0" cy="196.0" r="4.5" fill="#34d399"/><circle cx="1350.0" cy="196.0" r="4.5" fill="#34d399" fill-opacity="0.7"/><line x1="1340.5" y1="212.0" x2="1319.5" y2="212.0" stroke="#34d399" stroke-width="1.2" stroke-opacity="0.5"/><circle cx="1340.5" cy="212.0" r="4.5" fill="#34d399"/><circle cx="1319.5" cy="212.0" r="4.5" fill="#34d399" fill-opacity="0.7"/><line x1="1362.3" y1="228.0" x2="1297.7" y2="228.0" stroke="#34d399" stroke-width="1.2" stroke-opacity="0.5"/><circle cx="1362.3" cy="228.0" r="4.5" fill="#34d399"/><circle cx="1297.7" cy="228.0" r="4.5" fill="#34d399" fill-opacity="0.7"/><line x1="1357.5" y1="244.0" x2="1302.5" y2="244.0" stroke="#34d399" stroke-width="1.2" stroke-opacity="0.5"/><circle cx="1357.5" cy="244.0" r="4.5" fill="#34d399"/><circle cx="1302.5" cy="244.0" r="4.5" fill="#34d399" fill-opacity="0.7"/><line x1="1330.0" y1="260.0" x2="1330.0" y2="260.0" stroke="#34d399" stroke-width="1.2" stroke-opacity="0.5"/><circle cx="1330.0" cy="260.0" r="4.5" fill="#34d399"/><circle cx="1330.0" cy="260.0" r="4.5" fill="#34d399" fill-opacity="0.7"/></g>
  <g font-family="'Segoe UI', system-ui, sans-serif">
    <text x="130" y="150" fill="#34d399" font-size="22" font-weight="700" letter-spacing="6">24/7 INTELLIGENCE DOMAIN</text>
    <text x="126" y="238" fill="url(#title)" font-size="92" font-weight="800" letter-spacing="1">Synthetic Bio</text>
    <rect x="132" y="262" width="150" height="5" rx="2.5" fill="#34d399"/>
  </g>
  <rect x="0" y="0" width="1600" height="360" fill="none" stroke="#34d399" stroke-opacity="0.18" stroke-width="2"/>
</svg>
