<svg xmlns="http://www.w3.org/2000/svg" viewBox="0 0 1600 360" width="1600" height="360" role="img" aria-label="Agriculture domain banner">
  <defs>
    <linearGradient id="bg" x1="0" y1="0" x2="1" y2="1">
      <stop offset="0" stop-color="#060b18"/>
      <stop offset="0.55" stop-color="#0a1428"/>
      <stop offset="1" stop-color="#0c1a33"/>
    </linearGradient>
    <radialGradient id="glowA" cx="0.82" cy="0.5" r="0.5">
      <stop offset="0" stop-color="#4ade80" stop-opacity="0.35"/>
      <stop offset="1" stop-color="#4ade80" stop-opacity="0"/>
    </radialGradient>
    <radialGradient id="glowB" cx="0.1" cy="0.9" r="0.6">
      <stop offset="0" stop-color="#22d3ee" stop-opacity="0.22"/>
      <stop offset="1" stop-color="#22d3ee" stop-opacity="0"/>
    </radialGradient>
    <linearGradient id="title" x1="0" y1="0" x2="1" y2="0">
      <stop offset="0" stop-color="#ffffff"/>
      <stop offset="1" stop-color="#4ade80"/>
    </linearGradient>
  </defs>
  <rect width="1600" height="360" fill="url(#bg)"/>
  <rect width="1600" height="360" fill="url(#glowA)"/>
  <rect width="1600" height="360" fill="url(#glowB)"/>
  <g><line x1="324.1" y1="13.1" x2="310.9" y2="24.5" stroke="#4ade80" stroke-width="0.5" stroke-opacity="0.10"/><line x1="324.1" y1="13.1" x2="216.1" y2="39.6" stroke="#4ade80" stroke-width="0.5" stroke-opacity="0.10"/><line x1="1518.6" y1="353.0" x2="1495.9" y2="248.7" stroke="#4ade80" stroke-width="0.5" stroke-opacity="0.10"/><line x1="1086.9" y1="142.5" x2="1065.3" y2="161.7" stroke="#4ade80" stroke-width="0.5" stroke-opacity="0.10"/><line x1="1086.9" y1="142.5" x2="1007.7" y2="59.9" stroke="#4ade80" stroke-width="0.5" stroke-opacity="0.10"/><line x1="1086.9" y1="142.5" x2="1069.9" y2="177.5" stroke="#4ade80" stroke-width="0.5" stroke-opacity="0.10"/><line x1="1086.9" y1="142.5" x2="983.2" y2="99.4" stroke="#4ade80" stroke-width="0.5" stroke-opacity="0.10"/><line x1="1065.3" y1="161.7" x2="1007.7" y2="59.9" stroke="#4ade80" stroke-width="0.5" stroke-opacity="0.10"/><line x1="1065.3" y1="161.7" x2="1069.9" y2="177.5" stroke="#4ade80" stroke-width="0.5" stroke-opacity="0.10"/><line x1="1065.3" y1="161.7" x2="983.2" y2="99.4" stroke="#4ade80" stroke-width="0.5" stroke-opacity="0.10"/><line x1="830.9" y1="304.7" x2="846.2" y2="336.3" stroke="#4ade80" stroke-width="0.5" stroke-opacity="0.10"/><line x1="830.9" y1="304.7" x2="760.5" y2="268.9" stroke="#4ade80" stroke-width="0.5" stroke-opacity="0.10"/><line x1="830.9" y1="304.7" x2="878.5" y2="243.8" stroke="#4ade80" stroke-width="0.5" stroke-opacity="0.10"/><line x1="830.9" y1="304.7" x2="844.5" y2="252.1" stroke="#4ade80" stroke-width="0.5" stroke-opacity="0.10"/><line x1="1007.7" y1="59.9" x2="1029.3" y2="1.1" stroke="#4ade80" stroke-width="0.5" stroke-opacity="0.10"/><line x1="1007.7" y1="59.9" x2="1019.9" y2="40.3" stroke="#4ade80" stroke-width="0.5" stroke-opacity="0.10"/><line x1="1007.7" y1="59.9" x2="983.2" y2="99.4" stroke="#4ade80" stroke-width="0.5" stroke-opacity="0.10"/><line x1="1262.2" y1="14.9" x2="1212.7" y2="50.6" stroke="#4ade80" stroke-width="0.5" stroke-opacity="0.10"/><line x1="1262.2" y1="14.9" x2="1278.1" y2="57.0" stroke="#4ade80" stroke-width="0.5" stroke-opacity="0.10"/><line x1="1262.2" y1="14.9" x2="1225.5" y2="6.7" stroke="#4ade80" stroke-width="0.5" stroke-opacity="0.10"/><line x1="1212.7" y1="50.6" x2="1278.1" y2="57.0" stroke="#4ade80" stroke-width="0.5" stroke-opacity="0.10"/><line x1="1212.7" y1="50.6" x2="1249.1" y2="154.5" stroke="#4ade80" stroke-width="0.5" stroke-opacity="0.10"/><line x1="1212.7" y1="50.6" x2="1225.5" y2="6.7" stroke="#4ade80" stroke-width="0.5" stroke-opacity="0.10"/><line x1="1278.1" y1="57.0" x2="1289.8" y2="160.5" stroke="#4ade80" stroke-width="0.5" stroke-opacity="0.10"/><line x1="1278.1" y1="57.0" x2="1249.1" y2="154.5" stroke="#4ade80" stroke-width="0.5" stroke-opacity="0.10"/><line x1="1278.1" y1="57.0" x2="1225.5" y2="6.7" stroke="#4ade80" stroke-width="0.5" stroke-opacity="0.10"/><line x1="690.4" y1="93.7" x2="672.4" y2="176.1" stroke="#4ade80" stroke-width="0.5" stroke-opacity="0.10"/><line x1="1495.9" y1="248.7" x2="1496.8" y2="201.9" stroke="#4ade80" stroke-width="0.5" stroke-opacity="0.10"/><line x1="1495.9" y1="248.7" x2="1415.0" y2="289.8" stroke="#4ade80" stroke-width="0.5" stroke-opacity="0.10"/><line x1="571.9" y1="177.7" x2="672.4" y2="176.1" stroke="#4ade80" stroke-width="0.5" stroke-opacity="0.10"/><line x1="80.4" y1="198.6" x2="100.2" y2="280.6" stroke="#4ade80" stroke-width="0.5" stroke-opacity="0.10"/><line x1="1587.9" y1="142.6" x2="1529.3" y2="92.4" stroke="#4ade80" stroke-width="0.5" stroke-opacity="0.10"/><line x1="1587.9" y1="142.6" x2="1558.0" y2="71.3" stroke="#4ade80" stroke-width="0.5" stroke-opacity="0.10"/><line x1="1587.9" y1="142.6" x2="1576.1" y2="139.7" stroke="#4ade80" stroke-width="0.5" stroke-opacity="0.10"/><line x1="1587.9" y1="142.6" x2="1496.8" y2="201.9" stroke="#4ade80" stroke-width="0.5" stroke-opacity="0.10"/><line x1="672.4" y1="176.1" x2="710.6" y2="222.8" stroke="#4ade80" stroke-width="0.5" stroke-opacity="0.10"/><line x1="846.2" y1="336.3" x2="760.5" y2="268.9" stroke="#4ade80" stroke-width="0.5" stroke-opacity="0.10"/><line x1="846.2" y1="336.3" x2="878.5" y2="243.8" stroke="#4ade80" stroke-width="0.5" stroke-opacity="0.10"/><line x1="846.2" y1="336.3" x2="844.5" y2="252.1" stroke="#4ade80" stroke-width="0.5" stroke-opacity="0.10"/><line x1="710.6" y1="222.8" x2="760.5" y2="268.9" stroke="#4ade80" stroke-width="0.5" stroke-opacity="0.10"/><line x1="1289.8" y1="160.5" x2="1249.1" y2="154.5" stroke="#4ade80" stroke-width="0.5" stroke-opacity="0.10"/><line x1="1289.8" y1="160.5" x2="1324.5" y2="272.7" stroke="#4ade80" stroke-width="0.5" stroke-opacity="0.10"/><line x1="1289.8" y1="160.5" x2="1329.3" y2="245.4" stroke="#4ade80" stroke-width="0.5" stroke-opacity="0.10"/><line x1="978.2" y1="343.8" x2="979.6" y2="331.8" stroke="#4ade80" stroke-width="0.5" stroke-opacity="0.10"/><line x1="978.2" y1="343.8" x2="1081.4" y2="318.9" stroke="#4ade80" stroke-width="0.5" stroke-opacity="0.10"/><line x1="1529.3" y1="92.4" x2="1558.0" y2="71.3" stroke="#4ade80" stroke-width="0.5" stroke-opacity="0.10"/><line x1="1529.3" y1="92.4" x2="1576.1" y2="139.7" stroke="#4ade80" stroke-width="0.5" stroke-opacity="0.10"/><line x1="1529.3" y1="92.4" x2="1496.8" y2="201.9" stroke="#4ade80" stroke-width="0.5" stroke-opacity="0.10"/><line x1="1558.0" y1="71.3" x2="1576.1" y2="139.7" stroke="#4ade80" stroke-width="0.5" stroke-opacity="0.10"/><line x1="760.5" y1="268.9" x2="844.5" y2="252.1" stroke="#4ade80" stroke-width="0.5" stroke-opacity="0.10"/><line x1="310.9" y1="24.5" x2="216.1" y2="39.6" stroke="#4ade80" stroke-width="0.5" stroke-opacity="0.10"/><line x1="979.6" y1="331.8" x2="1081.4" y2="318.9" stroke="#4ade80" stroke-width="0.5" stroke-opacity="0.10"/><line x1="1576.1" y1="139.7" x2="1496.8" y2="201.9" stroke="#4ade80" stroke-width="0.5" stroke-opacity="0.10"/><line x1="1069.9" y1="177.5" x2="983.2" y2="99.4" stroke="#4ade80" stroke-width="0.5" stroke-opacity="0.10"/><line x1="1029.3" y1="1.1" x2="1019.9" y2="40.3" stroke="#4ade80" stroke-width="0.5" stroke-opacity="0.10"/><line x1="1029.3" y1="1.1" x2="983.2" y2="99.4" stroke="#4ade80" stroke-width="0.5" stroke-opacity="0.10"/><line x1="878.5" y1="243.8" x2="844.5" y2="252.1" stroke="#4ade80" stroke-width="0.5" stroke-opacity="0.10"/><line x1="226.6" y1="285.2" x2="179.8" y2="314.7" stroke="#4ade80" stroke-width="0.5" stroke-opacity="0.10"/><line x1="100.2" y1="280.6" x2="179.8" y2="314.7" stroke="#4ade80" stroke-width="0.5" stroke-opacity="0.10"/><line x1="1415.0" y1="289.8" x2="1324.5" y2="272.7" stroke="#4ade80" stroke-width="0.5" stroke-opacity="0.10"/><line x1="1415.0" y1="289.8" x2="1329.3" y2="245.4" stroke="#4ade80" stroke-width="0.5" stroke-opacity="0.10"/><line x1="1019.9" y1="40.3" x2="983.2" y2="99.4" stroke="#4ade80" stroke-width="0.5" stroke-opacity="0.10"/><line x1="1324.5" y1="272.7" x2="1329.3" y2="245.4" stroke="#4ade80" stroke-width="0.5" stroke-opacity="0.10"/><circle cx="324.1" cy="13.1" r="2.2" fill="#4ade80" fill-opacity="0.43"/><circle cx="1518.6" cy="353.0" r="0.7" fill="#4ade80" fill-opacity="0.16"/><circle cx="1086.9" cy="142.5" r="1.6" fill="#4ade80" fill-opacity="0.27"/><circle cx="1065.3" cy="161.7" r="0.7" fill="#4ade80" fill-opacity="0.33"/><circle cx="830.9" cy="304.7" r="1.4" fill="#4ade80" fill-opacity="0.27"/><circle cx="1007.7" cy="59.9" r="1.1" fill="#4ade80" fill-opacity="0.32"/><circle cx="1262.2" cy="14.9" r="2.2" fill="#4ade80" fill-opacity="0.20"/><circle cx="1212.7" cy="50.6" r="1.4" fill="#4ade80" fill-opacity="0.56"/><circle cx="1278.1" cy="57.0" r="1.3" fill="#4ade80" fill-opacity="0.29"/><circle cx="690.4" cy="93.7" r="1.9" fill="#4ade80" fill-opacity="0.57"/><circle cx="1495.9" cy="248.7" r="0.9" fill="#4ade80" fill-opacity="0.53"/><circle cx="571.9" cy="177.7" r="1.2" fill="#4ade80" fill-opacity="0.55"/><circle cx="80.4" cy="198.6" r="1.1" fill="#4ade80" fill-opacity="0.42"/><circle cx="1587.9" cy="142.6" r="0.6" fill="#4ade80" fill-opacity="0.53"/><circle cx="672.4" cy="176.1" r="0.8" fill="#4ade80" fill-opacity="0.16"/><circle cx="846.2" cy="336.3" r="2.2" fill="#4ade80" fill-opacity="0.29"/><circle cx="416.6" cy="293.4" r="2.1" fill="#4ade80" fill-opacity="0.16"/><circle cx="710.6" cy="222.8" r="0.7" fill="#4ade80" fill-opacity="0.30"/><circle cx="1289.8" cy="160.5" r="0.6" fill="#4ade80" fill-opacity="0.54"/><circle cx="978.2" cy="343.8" r="1.7" fill="#4ade80" fill-opacity="0.46"/><circle cx="1529.3" cy="92.4" r="0.8" fill="#4ade80" fill-opacity="0.48"/><circle cx="1558.0" cy="71.3" r="1.1" fill="#4ade80" fill-opacity="0.36"/><circle cx="760.5" cy="268.9" r="0.7" fill="#4ade80" fill-opacity="0.53"/><circle cx="1249.1" cy="154.5" r="1.6" fill="#4ade80" fill-opacity="0.34"/><circle cx="1225.5" cy="6.7" r="1.2" fill="#4ade80" fill-opacity="0.26"/><circle cx="618.6" cy="337.7" r="1.5" fill="#4ade80" fill-opacity="0.51"/><circle cx="310.9" cy="24.5" r="1.1" fill="#4ade80" fill-opacity="0.36"/><circle cx="979.6" cy="331.8" r="0.7" fill="#4ade80" fill-opacity="0.21"/><circle cx="1576.1" cy="139.7" r="1.2" fill="#4ade80" fill-opacity="0.16"/><circle cx="1069.9" cy="177.5" r="0.7" fill="#4ade80" fill-opacity="0.27"/><circle cx="1081.4" cy="318.9" r="1.7" fill="#4ade80" fill-opacity="0.49"/><circle cx="1029.3" cy="1.1" r="1.1" fill="#4ade80" fill-opacity="0.28"/><circle cx="216.1" cy="39.6" r="1.0" fill="#4ade80" fill-opacity="0.55"/><circle cx="878.5" cy="243.8" r="2.2" fill="#4ade80" fill-opacity="0.24"/><circle cx="226.6" cy="285.2" r="2.3" fill="#4ade80" fill-opacity="0.55"/><circle cx="1496.8" cy="201.9" r="2.0" fill="#4ade80" fill-opacity="0.57"/><circle cx="844.5" cy="252.1" r="1.9" fill="#4ade80" fill-opacity="0.40"/><circle cx="100.2" cy="280.6" r="1.9" fill="#4ade80" fill-opacity="0.58"/><circle cx="1415.0" cy="289.8" r="1.2" fill="#4ade80" fill-opacity="0.20"/><circle cx="1019.9" cy="40.3" r="2.3" fill="#4ade80" fill-opacity="0.33"/><circle cx="1324.5" cy="272.7" r="0.8" fill="#4ade80" fill-opacity="0.20"/><circle cx="179.8" cy="314.7" r="2.0" fill="#4ade80" fill-opacity="0.36"/><circle cx="1329.3" cy="245.4" r="2.0" fill="#4ade80" fill-opacity="0.61"/><circle cx="875.2" cy="41.9" r="2.1" fill="#4ade80" fill-opacity="0.42"/><circle cx="983.2" cy="99.4" r="1.1" fill="#4ade80" fill-opacity="0.37"/><circle cx="50.9" cy="48.3" r="0.9" fill="#4ade80" fill-opacity="0.49"/></g>
  <g opacity="0.95"><circle cx="1330" cy="180" r="20" fill="#4ade80" fill-opacity="0.9"/><path d="M1330 180 Q1336.6224992093262 133.0439931162011 1323.2 106.1" fill="none" stroke="#4ade80" stroke-width="1.4" stroke-opacity="0.5"/><circle cx="1323.2" cy="106.1" r="3.5" fill="#4ade80"/><path d="M1330 180 Q1351.6661754890908 210.3610089681353 1353.3 260.7" fill="none" stroke="#4ade80" stroke-width="1.4" stroke-opacity="0.5"/><circle cx="1353.3" cy="260.7" r="3.5" fill="#4ade80"/><path d="M1330 180 Q1346.1283423258337 134.76219910144303 1342.3 109.5" fill="none" stroke="#4ade80" stroke-width="1.4" stroke-opacity="0.5"/><circle cx="1342.3" cy="109.5" r="3.5" fill="#4ade80"/><path d="M1330 180 Q1379.7708822493164 183.23432821798383 1409.5 206.5" fill="none" stroke="#4ade80" stroke-width="1.4" stroke-opacity="0.5"/><circle cx="1409.5" cy="206.5" r="3.5" fill="#4ade80"/><path d="M1330 180 Q1305.482843207777 164.67335492837293 1261.0 169.3" fill="none" stroke="#4ade80" stroke-width="1.4" stroke-opacity="0.5"/><circle cx="1261.0" cy="169.3" r="3.5" fill="#4ade80"/><path d="M1330 180 Q1331.3698577277196 203.06804422414152 1312.7 246.1" fill="none" stroke="#4ade80" stroke-width="1.4" stroke-opacity="0.5"/><circle cx="1312.7" cy="246.1" r="3.5" fill="#4ade80"/><path d="M1330 180 Q1368.0215334355667 169.31252974193285 1386.0 178.6" fill="none" stroke="#4ade80" stroke-width="1.4" stroke-opacity="0.5"/><circle cx="1386.0" cy="178.6" r="3.5" fill="#4ade80"/><path d="M1330 180 Q1366.2399761425922 145.58864500092608 1382.5 131.2" fill="none" stroke="#4ade80" stroke-width="1.4" stroke-opacity="0.5"/><circle cx="1382.5" cy="131.2" r="3.5" fill="#4ade80"/><path d="M1330 180 Q1373.8245580053222 153.28416473341252 1397.6 146.6" fill="none" stroke="#4ade80" stroke-width="1.4" stroke-opacity="0.5"/><circle cx="1397.6" cy="146.6" r="3.5" fill="#4ade80"/></g>
  <g font-family="'Segoe UI', system-ui, sans-serif">
    <text x="130" y="150" fill="#4ade80" font-size="22" font-weight="700" letter-spacing="6">24/7 INTELLIGENCE DOMAIN</text>
    <text x="126" y="238" fill="url(#title)" font-size="92" font-weight="800" letter-spacing="1">Agriculture</text>
    <rect x="132" y="262" width="150" height="5" rx="2.5" fill="#4ade80"/>
  </g>
  <rect x="0" y="0" width="1600" height="360" fill="none" stroke="#4ade80" stroke-opacity="0.18" stroke-width="2"/>
</svg>
