<svg xmlns="http://www.w3.org/2000/svg" viewBox="0 0 1600 360" width="1600" height="360" role="img" aria-label="Energy domain banner">
  <defs>
    <linearGradient id="bg" x1="0" y1="0" x2="1" y2="1">
      <stop offset="0" stop-color="#060b18"/>
      <stop offset="0.55" stop-color="#0a1428"/>
      <stop offset="1" stop-color="#0c1a33"/>
    </linearGradient>
    <radialGradient id="glowA" cx="0.82" cy="0.5" r="0.5">
      <stop offset="0" stop-color="#f59e0b" stop-opacity="0.35"/>
      <stop offset="1" stop-color="#f59e0b" stop-opacity="0"/>
    </radialGradient>
    <radialGradient id="glowB" cx="0.1" cy="0.9" r="0.6">
      <stop offset="0" stop-color="#f43f5e" stop-opacity="0.22"/>
      <stop offset="1" stop-color="#f43f5e" stop-opacity="0"/>
    </radialGradient>
    <linearGradient id="title" x1="0" y1="0" x2="1" y2="0">
      <stop offset="0" stop-color="#ffffff"/>
      <stop offset="1" stop-color="#f59e0b"/>
    </linearGradient>
  </defs>
  <rect width="1600" height="360" fill="url(#bg)"/>
  <rect width="1600" height="360" fill="url(#glowA)"/>
  <rect width="1600" height="360" fill="url(#glowB)"/>
  <g><line x1="772.0" y1="282.7" x2="791.7" y2="272.9" stroke="#f59e0b" stroke-width="0.5" stroke-opacity="0.10"/><line x1="1421.9" y1="190.7" x2="1347.9" y2="150.2" stroke="#f59e0b" stroke-width="0.5" stroke-opacity="0.10"/><line x1="1421.9" y1="190.7" x2="1437.9" y2="264.5" stroke="#f59e0b" stroke-width="0.5" stroke-opacity="0.10"/><line x1="1421.9" y1="190.7" x2="1436.5" y2="187.8" stroke="#f59e0b" stroke-width="0.5" stroke-opacity="0.10"/><line x1="1421.9" y1="190.7" x2="1402.8" y2="192.8" stroke="#f59e0b" stroke-width="0.5" stroke-opacity="0.10"/><line x1="1501.3" y1="39.2" x2="1432.7" y2="28.0" stroke="#f59e0b" stroke-width="0.5" stroke-opacity="0.10"/><line x1="1501.3" y1="39.2" x2="1405.8" y2="29.0" stroke="#f59e0b" stroke-width="0.5" stroke-opacity="0.10"/><line x1="1172.1" y1="94.0" x2="1193.0" y2="40.6" stroke="#f59e0b" stroke-width="0.5" stroke-opacity="0.10"/><line x1="1172.1" y1="94.0" x2="1160.7" y2="85.3" stroke="#f59e0b" stroke-width="0.5" stroke-opacity="0.10"/><line x1="254.3" y1="208.9" x2="268.7" y2="96.8" stroke="#f59e0b" stroke-width="0.5" stroke-opacity="0.10"/><line x1="1269.6" y1="11.1" x2="1307.5" y2="39.1" stroke="#f59e0b" stroke-width="0.5" stroke-opacity="0.10"/><line x1="1269.6" y1="11.1" x2="1193.0" y2="40.6" stroke="#f59e0b" stroke-width="0.5" stroke-opacity="0.10"/><line x1="1432.7" y1="28.0" x2="1405.8" y2="29.0" stroke="#f59e0b" stroke-width="0.5" stroke-opacity="0.10"/><line x1="1405.8" y1="29.0" x2="1307.5" y2="39.1" stroke="#f59e0b" stroke-width="0.5" stroke-opacity="0.10"/><line x1="490.8" y1="205.0" x2="444.7" y2="249.3" stroke="#f59e0b" stroke-width="0.5" stroke-opacity="0.10"/><line x1="490.8" y1="205.0" x2="491.0" y2="143.0" stroke="#f59e0b" stroke-width="0.5" stroke-opacity="0.10"/><line x1="490.8" y1="205.0" x2="420.3" y2="203.0" stroke="#f59e0b" stroke-width="0.5" stroke-opacity="0.10"/><line x1="172.2" y1="315.4" x2="209.4" y2="322.8" stroke="#f59e0b" stroke-width="0.5" stroke-opacity="0.10"/><line x1="172.2" y1="315.4" x2="179.1" y2="340.7" stroke="#f59e0b" stroke-width="0.5" stroke-opacity="0.10"/><line x1="172.2" y1="315.4" x2="139.1" y2="353.3" stroke="#f59e0b" stroke-width="0.5" stroke-opacity="0.10"/><line x1="636.4" y1="71.6" x2="724.2" y2="120.8" stroke="#f59e0b" stroke-width="0.5" stroke-opacity="0.10"/><line x1="636.4" y1="71.6" x2="711.6" y2="116.2" stroke="#f59e0b" stroke-width="0.5" stroke-opacity="0.10"/><line x1="893.4" y1="155.7" x2="916.2" y2="138.7" stroke="#f59e0b" stroke-width="0.5" stroke-opacity="0.10"/><line x1="724.2" y1="120.8" x2="711.6" y2="116.2" stroke="#f59e0b" stroke-width="0.5" stroke-opacity="0.10"/><line x1="1480.1" y1="313.2" x2="1558.8" y2="283.2" stroke="#f59e0b" stroke-width="0.5" stroke-opacity="0.10"/><line x1="1480.1" y1="313.2" x2="1437.9" y2="264.5" stroke="#f59e0b" stroke-width="0.5" stroke-opacity="0.10"/><line x1="1480.1" y1="313.2" x2="1474.0" y2="351.2" stroke="#f59e0b" stroke-width="0.5" stroke-opacity="0.10"/><line x1="1558.8" y1="283.2" x2="1581.8" y2="223.0" stroke="#f59e0b" stroke-width="0.5" stroke-opacity="0.10"/><line x1="1558.8" y1="283.2" x2="1474.0" y2="351.2" stroke="#f59e0b" stroke-width="0.5" stroke-opacity="0.10"/><line x1="381.9" y1="282.2" x2="444.7" y2="249.3" stroke="#f59e0b" stroke-width="0.5" stroke-opacity="0.10"/><line x1="381.9" y1="282.2" x2="420.3" y2="203.0" stroke="#f59e0b" stroke-width="0.5" stroke-opacity="0.10"/><line x1="1098.5" y1="296.4" x2="995.3" y2="235.3" stroke="#f59e0b" stroke-width="0.5" stroke-opacity="0.10"/><line x1="1098.5" y1="296.4" x2="1119.9" y2="267.1" stroke="#f59e0b" stroke-width="0.5" stroke-opacity="0.10"/><line x1="1098.5" y1="296.4" x2="1082.0" y2="260.6" stroke="#f59e0b" stroke-width="0.5" stroke-opacity="0.10"/><line x1="1098.5" y1="296.4" x2="1103.9" y2="306.3" stroke="#f59e0b" stroke-width="0.5" stroke-opacity="0.10"/><line x1="1041.0" y1="152.7" x2="995.3" y2="235.3" stroke="#f59e0b" stroke-width="0.5" stroke-opacity="0.10"/><line x1="1041.0" y1="152.7" x2="1082.0" y2="260.6" stroke="#f59e0b" stroke-width="0.5" stroke-opacity="0.10"/><line x1="444.7" y1="249.3" x2="491.0" y2="143.0" stroke="#f59e0b" stroke-width="0.5" stroke-opacity="0.10"/><line x1="444.7" y1="249.3" x2="420.3" y2="203.0" stroke="#f59e0b" stroke-width="0.5" stroke-opacity="0.10"/><line x1="209.4" y1="322.8" x2="179.1" y2="340.7" stroke="#f59e0b" stroke-width="0.5" stroke-opacity="0.10"/><line x1="209.4" y1="322.8" x2="139.1" y2="353.3" stroke="#f59e0b" stroke-width="0.5" stroke-opacity="0.10"/><line x1="179.1" y1="340.7" x2="139.1" y2="353.3" stroke="#f59e0b" stroke-width="0.5" stroke-opacity="0.10"/><line x1="491.0" y1="143.0" x2="420.3" y2="203.0" stroke="#f59e0b" stroke-width="0.5" stroke-opacity="0.10"/><line x1="4.3" y1="54.1" x2="66.9" y2="139.0" stroke="#f59e0b" stroke-width="0.5" stroke-opacity="0.10"/><line x1="995.3" y1="235.3" x2="1082.0" y2="260.6" stroke="#f59e0b" stroke-width="0.5" stroke-opacity="0.10"/><line x1="1119.9" y1="267.1" x2="1082.0" y2="260.6" stroke="#f59e0b" stroke-width="0.5" stroke-opacity="0.10"/><line x1="1119.9" y1="267.1" x2="1103.9" y2="306.3" stroke="#f59e0b" stroke-width="0.5" stroke-opacity="0.10"/><line x1="1082.0" y1="260.6" x2="1103.9" y2="306.3" stroke="#f59e0b" stroke-width="0.5" stroke-opacity="0.10"/><line x1="1307.5" y1="39.1" x2="1193.0" y2="40.6" stroke="#f59e0b" stroke-width="0.5" stroke-opacity="0.10"/><line x1="1307.5" y1="39.1" x2="1347.9" y2="150.2" stroke="#f59e0b" stroke-width="0.5" stroke-opacity="0.10"/><line x1="1193.0" y1="40.6" x2="1160.7" y2="85.3" stroke="#f59e0b" stroke-width="0.5" stroke-opacity="0.10"/><line x1="1347.9" y1="150.2" x2="1436.5" y2="187.8" stroke="#f59e0b" stroke-width="0.5" stroke-opacity="0.10"/><line x1="1347.9" y1="150.2" x2="1402.8" y2="192.8" stroke="#f59e0b" stroke-width="0.5" stroke-opacity="0.10"/><line x1="1437.9" y1="264.5" x2="1474.0" y2="351.2" stroke="#f59e0b" stroke-width="0.5" stroke-opacity="0.10"/><line x1="1437.9" y1="264.5" x2="1436.5" y2="187.8" stroke="#f59e0b" stroke-width="0.5" stroke-opacity="0.10"/><line x1="1437.9" y1="264.5" x2="1402.8" y2="192.8" stroke="#f59e0b" stroke-width="0.5" stroke-opacity="0.10"/><line x1="268.7" y1="96.8" x2="342.7" y2="100.1" stroke="#f59e0b" stroke-width="0.5" stroke-opacity="0.10"/><line x1="1436.5" y1="187.8" x2="1402.8" y2="192.8" stroke="#f59e0b" stroke-width="0.5" stroke-opacity="0.10"/><circle cx="772.0" cy="282.7" r="0.7" fill="#f59e0b" fill-opacity="0.61"/><circle cx="1421.9" cy="190.7" r="1.2" fill="#f59e0b" fill-opacity="0.16"/><circle cx="1501.3" cy="39.2" r="0.6" fill="#f59e0b" fill-opacity="0.62"/><circle cx="791.7" cy="272.9" r="1.2" fill="#f59e0b" fill-opacity="0.46"/><circle cx="1172.1" cy="94.0" r="1.0" fill="#f59e0b" fill-opacity="0.49"/><circle cx="254.3" cy="208.9" r="0.7" fill="#f59e0b" fill-opacity="0.21"/><circle cx="1269.6" cy="11.1" r="2.1" fill="#f59e0b" fill-opacity="0.62"/><circle cx="1432.7" cy="28.0" r="2.0" fill="#f59e0b" fill-opacity="0.57"/><circle cx="1405.8" cy="29.0" r="1.5" fill="#f59e0b" fill-opacity="0.47"/><circle cx="490.8" cy="205.0" r="1.4" fill="#f59e0b" fill-opacity="0.56"/><circle cx="172.2" cy="315.4" r="1.7" fill="#f59e0b" fill-opacity="0.36"/><circle cx="636.4" cy="71.6" r="1.5" fill="#f59e0b" fill-opacity="0.29"/><circle cx="893.4" cy="155.7" r="2.3" fill="#f59e0b" fill-opacity="0.31"/><circle cx="724.2" cy="120.8" r="2.3" fill="#f59e0b" fill-opacity="0.25"/><circle cx="1480.1" cy="313.2" r="2.0" fill="#f59e0b" fill-opacity="0.56"/><circle cx="1558.8" cy="283.2" r="1.2" fill="#f59e0b" fill-opacity="0.30"/><circle cx="381.9" cy="282.2" r="2.2" fill="#f59e0b" fill-opacity="0.31"/><circle cx="1098.5" cy="296.4" r="2.2" fill="#f59e0b" fill-opacity="0.33"/><circle cx="1041.0" cy="152.7" r="1.7" fill="#f59e0b" fill-opacity="0.52"/><circle cx="957.4" cy="6.6" r="1.4" fill="#f59e0b" fill-opacity="0.56"/><circle cx="444.7" cy="249.3" r="0.9" fill="#f59e0b" fill-opacity="0.45"/><circle cx="209.4" cy="322.8" r="0.6" fill="#f59e0b" fill-opacity="0.49"/><circle cx="179.1" cy="340.7" r="2.1" fill="#f59e0b" fill-opacity="0.29"/><circle cx="491.0" cy="143.0" r="1.8" fill="#f59e0b" fill-opacity="0.52"/><circle cx="1581.8" cy="223.0" r="0.7" fill="#f59e0b" fill-opacity="0.52"/><circle cx="4.3" cy="54.1" r="0.9" fill="#f59e0b" fill-opacity="0.24"/><circle cx="995.3" cy="235.3" r="0.9" fill="#f59e0b" fill-opacity="0.34"/><circle cx="420.3" cy="203.0" r="0.9" fill="#f59e0b" fill-opacity="0.29"/><circle cx="1119.9" cy="267.1" r="1.5" fill="#f59e0b" fill-opacity="0.33"/><circle cx="1082.0" cy="260.6" r="1.9" fill="#f59e0b" fill-opacity="0.53"/><circle cx="66.9" cy="139.0" r="0.6" fill="#f59e0b" fill-opacity="0.20"/><circle cx="1307.5" cy="39.1" r="2.1" fill="#f59e0b" fill-opacity="0.23"/><circle cx="1312.0" cy="275.4" r="2.1" fill="#f59e0b" fill-opacity="0.29"/><circle cx="1193.0" cy="40.6" r="0.8" fill="#f59e0b" fill-opacity="0.47"/><circle cx="1347.9" cy="150.2" r="2.1" fill="#f59e0b" fill-opacity="0.61"/><circle cx="916.2" cy="138.7" r="0.9" fill="#f59e0b" fill-opacity="0.18"/><circle cx="1437.9" cy="264.5" r="1.1" fill="#f59e0b" fill-opacity="0.63"/><circle cx="139.1" cy="353.3" r="1.7" fill="#f59e0b" fill-opacity="0.40"/><circle cx="268.7" cy="96.8" r="2.0" fill="#f59e0b" fill-opacity="0.20"/><circle cx="711.6" cy="116.2" r="1.6" fill="#f59e0b" fill-opacity="0.58"/><circle cx="1103.9" cy="306.3" r="1.9" fill="#f59e0b" fill-opacity="0.56"/><circle cx="1474.0" cy="351.2" r="1.7" fill="#f59e0b" fill-opacity="0.63"/><circle cx="1436.5" cy="187.8" r="1.4" fill="#f59e0b" fill-opacity="0.63"/><circle cx="1160.7" cy="85.3" r="2.0" fill="#f59e0b" fill-opacity="0.60"/><circle cx="342.7" cy="100.1" r="2.3" fill="#f59e0b" fill-opacity="0.35"/><circle cx="1402.8" cy="192.8" r="1.3" fill="#f59e0b" fill-opacity="0.53"/></g>
  <g opacity="0.95"><path d="M1344 98 L1300 188 L1328 188 L1314 262 L1364 166 L1334 166 Z" fill="#f59e0b" fill-opacity="0.92" stroke="#f59e0b" stroke-width="2"/></g>
  <g font-family="'Segoe UI', system-ui, sans-serif">
    <text x="130" y="150" fill="#f59e0b" font-size="22" font-weight="700" letter-spacing="6">24/7 INTELLIGENCE DOMAIN</text>
    <text x="126" y="238" fill="url(#title)" font-size="92" font-weight="800" letter-spacing="1">Energy</text>
    <rect x="132" y="262" width="150" height="5" rx="2.5" fill="#f59e0b"/>
  </g>
  <rect x="0" y="0" width="1600" height="360" fill="none" stroke="#f59e0b" stroke-opacity="0.18" stroke-width="2"/>
</svg>
