<svg xmlns="http://www.w3.org/2000/svg" viewBox="0 0 1600 360" width="1600" height="360" role="img" aria-label="Govern domain banner">
  <defs>
    <linearGradient id="bg" x1="0" y1="0" x2="1" y2="1">
      <stop offset="0" stop-color="#060b18"/>
      <stop offset="0.55" stop-color="#0a1428"/>
      <stop offset="1" stop-color="#0c1a33"/>
    </linearGradient>
    <radialGradient id="glowA" cx="0.82" cy="0.5" r="0.5">
      <stop offset="0" stop-color="#60a5fa" stop-opacity="0.35"/>
      <stop offset="1" stop-color="#60a5fa" stop-opacity="0"/>
    </radialGradient>
    <radialGradient id="glowB" cx="0.1" cy="0.9" r="0.6">
      <stop offset="0" stop-color="#22d3ee" stop-opacity="0.22"/>
      <stop offset="1" stop-color="#22d3ee" stop-opacity="0"/>
    </radialGradient>
    <linearGradient id="title" x1="0" y1="0" x2="1" y2="0">
      <stop offset="0" stop-color="#ffffff"/>
      <stop offset="1" stop-color="#60a5fa"/>
    </linearGradient>
  </defs>
  <rect width="1600" height="360" fill="url(#bg)"/>
  <rect width="1600" height="360" fill="url(#glowA)"/>
  <rect width="1600" height="360" fill="url(#glowB)"/>
  <g><line x1="880.3" y1="221.5" x2="842.1" y2="187.4" stroke="#60a5fa" stroke-width="0.5" stroke-opacity="0.10"/><line x1="880.3" y1="221.5" x2="829.8" y2="242.6" stroke="#60a5fa" stroke-width="0.5" stroke-opacity="0.10"/><line x1="880.3" y1="221.5" x2="904.0" y2="127.7" stroke="#60a5fa" stroke-width="0.5" stroke-opacity="0.10"/><line x1="880.3" y1="221.5" x2="935.5" y2="135.0" stroke="#60a5fa" stroke-width="0.5" stroke-opacity="0.10"/><line x1="880.3" y1="221.5" x2="958.7" y2="257.5" stroke="#60a5fa" stroke-width="0.5" stroke-opacity="0.10"/><line x1="546.2" y1="133.9" x2="623.1" y2="175.7" stroke="#60a5fa" stroke-width="0.5" stroke-opacity="0.10"/><line x1="862.6" y1="22.8" x2="916.3" y2="25.0" stroke="#60a5fa" stroke-width="0.5" stroke-opacity="0.10"/><line x1="862.6" y1="22.8" x2="968.5" y2="36.2" stroke="#60a5fa" stroke-width="0.5" stroke-opacity="0.10"/><line x1="862.6" y1="22.8" x2="904.0" y2="127.7" stroke="#60a5fa" stroke-width="0.5" stroke-opacity="0.10"/><line x1="862.6" y1="22.8" x2="758.1" y2="33.7" stroke="#60a5fa" stroke-width="0.5" stroke-opacity="0.10"/><line x1="11.2" y1="154.3" x2="9.8" y2="235.5" stroke="#60a5fa" stroke-width="0.5" stroke-opacity="0.10"/><line x1="11.2" y1="154.3" x2="66.8" y2="229.1" stroke="#60a5fa" stroke-width="0.5" stroke-opacity="0.10"/><line x1="11.2" y1="154.3" x2="44.7" y2="253.2" stroke="#60a5fa" stroke-width="0.5" stroke-opacity="0.10"/><line x1="11.2" y1="154.3" x2="78.5" y2="212.7" stroke="#60a5fa" stroke-width="0.5" stroke-opacity="0.10"/><line x1="11.2" y1="154.3" x2="72.9" y2="244.7" stroke="#60a5fa" stroke-width="0.5" stroke-opacity="0.10"/><line x1="1088.0" y1="132.5" x2="1149.8" y2="37.2" stroke="#60a5fa" stroke-width="0.5" stroke-opacity="0.10"/><line x1="1088.0" y1="132.5" x2="1047.9" y2="185.5" stroke="#60a5fa" stroke-width="0.5" stroke-opacity="0.10"/><line x1="1088.0" y1="132.5" x2="1170.3" y2="83.3" stroke="#60a5fa" stroke-width="0.5" stroke-opacity="0.10"/><line x1="9.8" y1="235.5" x2="66.8" y2="229.1" stroke="#60a5fa" stroke-width="0.5" stroke-opacity="0.10"/><line x1="9.8" y1="235.5" x2="44.7" y2="253.2" stroke="#60a5fa" stroke-width="0.5" stroke-opacity="0.10"/><line x1="9.8" y1="235.5" x2="78.5" y2="212.7" stroke="#60a5fa" stroke-width="0.5" stroke-opacity="0.10"/><line x1="9.8" y1="235.5" x2="72.9" y2="244.7" stroke="#60a5fa" stroke-width="0.5" stroke-opacity="0.10"/><line x1="66.8" y1="229.1" x2="44.7" y2="253.2" stroke="#60a5fa" stroke-width="0.5" stroke-opacity="0.10"/><line x1="66.8" y1="229.1" x2="176.9" y2="275.8" stroke="#60a5fa" stroke-width="0.5" stroke-opacity="0.10"/><line x1="66.8" y1="229.1" x2="78.5" y2="212.7" stroke="#60a5fa" stroke-width="0.5" stroke-opacity="0.10"/><line x1="66.8" y1="229.1" x2="72.9" y2="244.7" stroke="#60a5fa" stroke-width="0.5" stroke-opacity="0.10"/><line x1="44.7" y1="253.2" x2="78.5" y2="212.7" stroke="#60a5fa" stroke-width="0.5" stroke-opacity="0.10"/><line x1="44.7" y1="253.2" x2="72.9" y2="244.7" stroke="#60a5fa" stroke-width="0.5" stroke-opacity="0.10"/><line x1="842.1" y1="187.4" x2="829.8" y2="242.6" stroke="#60a5fa" stroke-width="0.5" stroke-opacity="0.10"/><line x1="842.1" y1="187.4" x2="904.0" y2="127.7" stroke="#60a5fa" stroke-width="0.5" stroke-opacity="0.10"/><line x1="842.1" y1="187.4" x2="935.5" y2="135.0" stroke="#60a5fa" stroke-width="0.5" stroke-opacity="0.10"/><line x1="709.0" y1="111.0" x2="623.1" y2="175.7" stroke="#60a5fa" stroke-width="0.5" stroke-opacity="0.10"/><line x1="709.0" y1="111.0" x2="758.1" y2="33.7" stroke="#60a5fa" stroke-width="0.5" stroke-opacity="0.10"/><line x1="176.9" y1="275.8" x2="78.5" y2="212.7" stroke="#60a5fa" stroke-width="0.5" stroke-opacity="0.10"/><line x1="176.9" y1="275.8" x2="72.9" y2="244.7" stroke="#60a5fa" stroke-width="0.5" stroke-opacity="0.10"/><line x1="176.9" y1="275.8" x2="219.3" y2="173.6" stroke="#60a5fa" stroke-width="0.5" stroke-opacity="0.10"/><line x1="176.9" y1="275.8" x2="137.0" y2="357.1" stroke="#60a5fa" stroke-width="0.5" stroke-opacity="0.10"/><line x1="559.8" y1="276.1" x2="623.1" y2="175.7" stroke="#60a5fa" stroke-width="0.5" stroke-opacity="0.10"/><line x1="559.8" y1="276.1" x2="664.8" y2="239.8" stroke="#60a5fa" stroke-width="0.5" stroke-opacity="0.10"/><line x1="1594.1" y1="354.8" x2="1556.0" y2="298.3" stroke="#60a5fa" stroke-width="0.5" stroke-opacity="0.10"/><line x1="916.3" y1="25.0" x2="968.5" y2="36.2" stroke="#60a5fa" stroke-width="0.5" stroke-opacity="0.10"/><line x1="916.3" y1="25.0" x2="904.0" y2="127.7" stroke="#60a5fa" stroke-width="0.5" stroke-opacity="0.10"/><line x1="916.3" y1="25.0" x2="935.5" y2="135.0" stroke="#60a5fa" stroke-width="0.5" stroke-opacity="0.10"/><line x1="968.5" y1="36.2" x2="904.0" y2="127.7" stroke="#60a5fa" stroke-width="0.5" stroke-opacity="0.10"/><line x1="968.5" y1="36.2" x2="935.5" y2="135.0" stroke="#60a5fa" stroke-width="0.5" stroke-opacity="0.10"/><line x1="78.5" y1="212.7" x2="72.9" y2="244.7" stroke="#60a5fa" stroke-width="0.5" stroke-opacity="0.10"/><line x1="360.7" y1="231.2" x2="353.8" y2="146.5" stroke="#60a5fa" stroke-width="0.5" stroke-opacity="0.10"/><line x1="360.7" y1="231.2" x2="347.6" y2="341.3" stroke="#60a5fa" stroke-width="0.5" stroke-opacity="0.10"/><line x1="1361.4" y1="283.5" x2="1447.6" y2="224.8" stroke="#60a5fa" stroke-width="0.5" stroke-opacity="0.10"/><line x1="1149.8" y1="37.2" x2="1170.3" y2="83.3" stroke="#60a5fa" stroke-width="0.5" stroke-opacity="0.10"/><line x1="1149.8" y1="37.2" x2="1233.3" y2="89.1" stroke="#60a5fa" stroke-width="0.5" stroke-opacity="0.10"/><line x1="1370.5" y1="153.6" x2="1447.6" y2="224.8" stroke="#60a5fa" stroke-width="0.5" stroke-opacity="0.10"/><line x1="1370.5" y1="153.6" x2="1385.7" y2="163.5" stroke="#60a5fa" stroke-width="0.5" stroke-opacity="0.10"/><line x1="1047.9" y1="185.5" x2="958.7" y2="257.5" stroke="#60a5fa" stroke-width="0.5" stroke-opacity="0.10"/><line x1="1170.3" y1="83.3" x2="1233.3" y2="89.1" stroke="#60a5fa" stroke-width="0.5" stroke-opacity="0.10"/><line x1="1447.6" y1="224.8" x2="1385.7" y2="163.5" stroke="#60a5fa" stroke-width="0.5" stroke-opacity="0.10"/><line x1="1219.3" y1="281.6" x2="1115.6" y2="305.7" stroke="#60a5fa" stroke-width="0.5" stroke-opacity="0.10"/><line x1="1219.3" y1="281.6" x2="1186.5" y2="226.8" stroke="#60a5fa" stroke-width="0.5" stroke-opacity="0.10"/><line x1="19.8" y1="10.1" x2="67.6" y2="17.2" stroke="#60a5fa" stroke-width="0.5" stroke-opacity="0.10"/><line x1="353.8" y1="146.5" x2="240.9" y2="142.9" stroke="#60a5fa" stroke-width="0.5" stroke-opacity="0.10"/><line x1="353.8" y1="146.5" x2="290.4" y2="63.6" stroke="#60a5fa" stroke-width="0.5" stroke-opacity="0.10"/><line x1="623.1" y1="175.7" x2="664.8" y2="239.8" stroke="#60a5fa" stroke-width="0.5" stroke-opacity="0.10"/><line x1="240.9" y1="142.9" x2="290.4" y2="63.6" stroke="#60a5fa" stroke-width="0.5" stroke-opacity="0.10"/><line x1="240.9" y1="142.9" x2="219.3" y2="173.6" stroke="#60a5fa" stroke-width="0.5" stroke-opacity="0.10"/><line x1="904.0" y1="127.7" x2="935.5" y2="135.0" stroke="#60a5fa" stroke-width="0.5" stroke-opacity="0.10"/><line x1="1115.6" y1="305.7" x2="1186.5" y2="226.8" stroke="#60a5fa" stroke-width="0.5" stroke-opacity="0.10"/><circle cx="880.3" cy="221.5" r="2.2" fill="#60a5fa" fill-opacity="0.23"/><circle cx="546.2" cy="133.9" r="1.3" fill="#60a5fa" fill-opacity="0.27"/><circle cx="862.6" cy="22.8" r="1.9" fill="#60a5fa" fill-opacity="0.19"/><circle cx="11.2" cy="154.3" r="2.4" fill="#60a5fa" fill-opacity="0.59"/><circle cx="1088.0" cy="132.5" r="1.4" fill="#60a5fa" fill-opacity="0.43"/><circle cx="9.8" cy="235.5" r="1.0" fill="#60a5fa" fill-opacity="0.43"/><circle cx="66.8" cy="229.1" r="1.9" fill="#60a5fa" fill-opacity="0.21"/><circle cx="44.7" cy="253.2" r="0.8" fill="#60a5fa" fill-opacity="0.20"/><circle cx="842.1" cy="187.4" r="1.7" fill="#60a5fa" fill-opacity="0.36"/><circle cx="709.0" cy="111.0" r="1.6" fill="#60a5fa" fill-opacity="0.37"/><circle cx="829.8" cy="242.6" r="1.5" fill="#60a5fa" fill-opacity="0.22"/><circle cx="176.9" cy="275.8" r="1.7" fill="#60a5fa" fill-opacity="0.51"/><circle cx="559.8" cy="276.1" r="1.3" fill="#60a5fa" fill-opacity="0.63"/><circle cx="1594.1" cy="354.8" r="0.9" fill="#60a5fa" fill-opacity="0.46"/><circle cx="916.3" cy="25.0" r="1.2" fill="#60a5fa" fill-opacity="0.45"/><circle cx="968.5" cy="36.2" r="2.1" fill="#60a5fa" fill-opacity="0.48"/><circle cx="78.5" cy="212.7" r="1.5" fill="#60a5fa" fill-opacity="0.61"/><circle cx="360.7" cy="231.2" r="1.2" fill="#60a5fa" fill-opacity="0.41"/><circle cx="1361.4" cy="283.5" r="2.4" fill="#60a5fa" fill-opacity="0.18"/><circle cx="1575.1" cy="99.7" r="2.1" fill="#60a5fa" fill-opacity="0.44"/><circle cx="1556.0" cy="298.3" r="2.0" fill="#60a5fa" fill-opacity="0.47"/><circle cx="1149.8" cy="37.2" r="0.8" fill="#60a5fa" fill-opacity="0.29"/><circle cx="1370.5" cy="153.6" r="2.4" fill="#60a5fa" fill-opacity="0.21"/><circle cx="1047.9" cy="185.5" r="1.5" fill="#60a5fa" fill-opacity="0.58"/><circle cx="1170.3" cy="83.3" r="1.4" fill="#60a5fa" fill-opacity="0.18"/><circle cx="1447.6" cy="224.8" r="1.7" fill="#60a5fa" fill-opacity="0.56"/><circle cx="1219.3" cy="281.6" r="2.1" fill="#60a5fa" fill-opacity="0.45"/><circle cx="1233.3" cy="89.1" r="0.6" fill="#60a5fa" fill-opacity="0.51"/><circle cx="19.8" cy="10.1" r="1.4" fill="#60a5fa" fill-opacity="0.59"/><circle cx="1385.7" cy="163.5" r="1.4" fill="#60a5fa" fill-opacity="0.59"/><circle cx="353.8" cy="146.5" r="1.4" fill="#60a5fa" fill-opacity="0.43"/><circle cx="72.9" cy="244.7" r="1.0" fill="#60a5fa" fill-opacity="0.27"/><circle cx="623.1" cy="175.7" r="2.0" fill="#60a5fa" fill-opacity="0.40"/><circle cx="240.9" cy="142.9" r="2.3" fill="#60a5fa" fill-opacity="0.23"/><circle cx="290.4" cy="63.6" r="1.3" fill="#60a5fa" fill-opacity="0.31"/><circle cx="904.0" cy="127.7" r="1.9" fill="#60a5fa" fill-opacity="0.36"/><circle cx="219.3" cy="173.6" r="1.9" fill="#60a5fa" fill-opacity="0.25"/><circle cx="935.5" cy="135.0" r="1.3" fill="#60a5fa" fill-opacity="0.27"/><circle cx="1115.6" cy="305.7" r="1.1" fill="#60a5fa" fill-opacity="0.45"/><circle cx="958.7" cy="257.5" r="1.2" fill="#60a5fa" fill-opacity="0.30"/><circle cx="67.6" cy="17.2" r="0.9" fill="#60a5fa" fill-opacity="0.22"/><circle cx="137.0" cy="357.1" r="1.4" fill="#60a5fa" fill-opacity="0.58"/><circle cx="1186.5" cy="226.8" r="2.3" fill="#60a5fa" fill-opacity="0.41"/><circle cx="664.8" cy="239.8" r="1.3" fill="#60a5fa" fill-opacity="0.63"/><circle cx="347.6" cy="341.3" r="0.6" fill="#60a5fa" fill-opacity="0.37"/><circle cx="758.1" cy="33.7" r="1.4" fill="#60a5fa" fill-opacity="0.51"/></g>
  <g opacity="0.95"><path d="M1252 140 L1330 106 L1408 140 Z" fill="#60a5fa" fill-opacity="0.85"/><rect x="1273" y="150" width="10" height="66" fill="#60a5fa" fill-opacity="0.75"/><rect x="1299" y="150" width="10" height="66" fill="#60a5fa" fill-opacity="0.75"/><rect x="1325" y="150" width="10" height="66" fill="#60a5fa" fill-opacity="0.75"/><rect x="1351" y="150" width="10" height="66" fill="#60a5fa" fill-opacity="0.75"/><rect x="1377" y="150" width="10" height="66" fill="#60a5fa" fill-opacity="0.75"/><rect x="1248" y="220" width="164" height="12" fill="#60a5fa" fill-opacity="0.8"/></g>
  <g font-family="'Segoe UI', system-ui, sans-serif">
    <text x="130" y="150" fill="#60a5fa" font-size="22" font-weight="700" letter-spacing="6">24/7 INTELLIGENCE DOMAIN</text>
    <text x="126" y="238" fill="url(#title)" font-size="92" font-weight="800" letter-spacing="1">Govern</text>
    <rect x="132" y="262" width="150" height="5" rx="2.5" fill="#60a5fa"/>
  </g>
  <rect x="0" y="0" width="1600" height="360" fill="none" stroke="#60a5fa" stroke-opacity="0.18" stroke-width="2"/>
</svg>
