<svg xmlns="http://www.w3.org/2000/svg" viewBox="0 0 1600 360" width="1600" height="360" role="img" aria-label="Intel domain banner">
  <defs>
    <linearGradient id="bg" x1="0" y1="0" x2="1" y2="1">
      <stop offset="0" stop-color="#060b18"/>
      <stop offset="0.55" stop-color="#0a1428"/>
      <stop offset="1" stop-color="#0c1a33"/>
    </linearGradient>
    <radialGradient id="glowA" cx="0.82" cy="0.5" r="0.5">
      <stop offset="0" stop-color="#38bdf8" stop-opacity="0.35"/>
      <stop offset="1" stop-color="#38bdf8" stop-opacity="0"/>
    </radialGradient>
    <radialGradient id="glowB" cx="0.1" cy="0.9" r="0.6">
      <stop offset="0" stop-color="#818cf8" stop-opacity="0.22"/>
      <stop offset="1" stop-color="#818cf8" stop-opacity="0"/>
    </radialGradient>
    <linearGradient id="title" x1="0" y1="0" x2="1" y2="0">
      <stop offset="0" stop-color="#ffffff"/>
      <stop offset="1" stop-color="#38bdf8"/>
    </linearGradient>
  </defs>
  <rect width="1600" height="360" fill="url(#bg)"/>
  <rect width="1600" height="360" fill="url(#glowA)"/>
  <rect width="1600" height="360" fill="url(#glowB)"/>
  <g><line x1="883.0" y1="308.4" x2="974.1" y2="232.8" stroke="#38bdf8" stroke-width="0.5" stroke-opacity="0.10"/><line x1="96.6" y1="168.9" x2="20.6" y2="92.7" stroke="#38bdf8" stroke-width="0.5" stroke-opacity="0.10"/><line x1="96.6" y1="168.9" x2="31.5" y2="121.7" stroke="#38bdf8" stroke-width="0.5" stroke-opacity="0.10"/><line x1="96.6" y1="168.9" x2="184.1" y2="243.3" stroke="#38bdf8" stroke-width="0.5" stroke-opacity="0.10"/><line x1="558.6" y1="213.3" x2="598.0" y2="165.3" stroke="#38bdf8" stroke-width="0.5" stroke-opacity="0.10"/><line x1="558.6" y1="213.3" x2="569.9" y2="162.1" stroke="#38bdf8" stroke-width="0.5" stroke-opacity="0.10"/><line x1="558.6" y1="213.3" x2="509.1" y2="281.1" stroke="#38bdf8" stroke-width="0.5" stroke-opacity="0.10"/><line x1="558.6" y1="213.3" x2="486.5" y2="169.1" stroke="#38bdf8" stroke-width="0.5" stroke-opacity="0.10"/><line x1="740.8" y1="113.5" x2="734.5" y2="110.0" stroke="#38bdf8" stroke-width="0.5" stroke-opacity="0.10"/><line x1="740.8" y1="113.5" x2="685.6" y2="96.4" stroke="#38bdf8" stroke-width="0.5" stroke-opacity="0.10"/><line x1="740.8" y1="113.5" x2="813.2" y2="110.5" stroke="#38bdf8" stroke-width="0.5" stroke-opacity="0.10"/><line x1="865.4" y1="175.6" x2="813.2" y2="110.5" stroke="#38bdf8" stroke-width="0.5" stroke-opacity="0.10"/><line x1="298.6" y1="263.1" x2="184.1" y2="243.3" stroke="#38bdf8" stroke-width="0.5" stroke-opacity="0.10"/><line x1="298.6" y1="263.1" x2="212.9" y2="239.1" stroke="#38bdf8" stroke-width="0.5" stroke-opacity="0.10"/><line x1="298.6" y1="263.1" x2="337.8" y2="222.3" stroke="#38bdf8" stroke-width="0.5" stroke-opacity="0.10"/><line x1="653.5" y1="26.5" x2="734.5" y2="110.0" stroke="#38bdf8" stroke-width="0.5" stroke-opacity="0.10"/><line x1="653.5" y1="26.5" x2="685.6" y2="96.4" stroke="#38bdf8" stroke-width="0.5" stroke-opacity="0.10"/><line x1="359.9" y1="82.9" x2="351.8" y2="59.9" stroke="#38bdf8" stroke-width="0.5" stroke-opacity="0.10"/><line x1="20.6" y1="92.7" x2="31.5" y2="121.7" stroke="#38bdf8" stroke-width="0.5" stroke-opacity="0.10"/><line x1="20.6" y1="92.7" x2="14.0" y2="15.7" stroke="#38bdf8" stroke-width="0.5" stroke-opacity="0.10"/><line x1="734.5" y1="110.0" x2="685.6" y2="96.4" stroke="#38bdf8" stroke-width="0.5" stroke-opacity="0.10"/><line x1="734.5" y1="110.0" x2="813.2" y2="110.5" stroke="#38bdf8" stroke-width="0.5" stroke-opacity="0.10"/><line x1="984.2" y1="203.8" x2="974.1" y2="232.8" stroke="#38bdf8" stroke-width="0.5" stroke-opacity="0.10"/><line x1="984.2" y1="203.8" x2="1065.1" y2="192.1" stroke="#38bdf8" stroke-width="0.5" stroke-opacity="0.10"/><line x1="984.2" y1="203.8" x2="1054.8" y2="250.8" stroke="#38bdf8" stroke-width="0.5" stroke-opacity="0.10"/><line x1="974.1" y1="232.8" x2="1065.1" y2="192.1" stroke="#38bdf8" stroke-width="0.5" stroke-opacity="0.10"/><line x1="974.1" y1="232.8" x2="1054.8" y2="250.8" stroke="#38bdf8" stroke-width="0.5" stroke-opacity="0.10"/><line x1="1517.9" y1="264.9" x2="1481.3" y2="152.6" stroke="#38bdf8" stroke-width="0.5" stroke-opacity="0.10"/><line x1="1517.9" y1="264.9" x2="1443.5" y2="226.9" stroke="#38bdf8" stroke-width="0.5" stroke-opacity="0.10"/><line x1="598.0" y1="165.3" x2="685.6" y2="96.4" stroke="#38bdf8" stroke-width="0.5" stroke-opacity="0.10"/><line x1="598.0" y1="165.3" x2="569.9" y2="162.1" stroke="#38bdf8" stroke-width="0.5" stroke-opacity="0.10"/><line x1="598.0" y1="165.3" x2="486.5" y2="169.1" stroke="#38bdf8" stroke-width="0.5" stroke-opacity="0.10"/><line x1="31.5" y1="121.7" x2="14.0" y2="15.7" stroke="#38bdf8" stroke-width="0.5" stroke-opacity="0.10"/><line x1="1465.2" y1="124.7" x2="1435.6" y2="90.1" stroke="#38bdf8" stroke-width="0.5" stroke-opacity="0.10"/><line x1="1465.2" y1="124.7" x2="1481.3" y2="152.6" stroke="#38bdf8" stroke-width="0.5" stroke-opacity="0.10"/><line x1="1465.2" y1="124.7" x2="1443.5" y2="226.9" stroke="#38bdf8" stroke-width="0.5" stroke-opacity="0.10"/><line x1="1066.9" y1="21.7" x2="1031.7" y2="82.3" stroke="#38bdf8" stroke-width="0.5" stroke-opacity="0.10"/><line x1="184.1" y1="243.3" x2="212.9" y2="239.1" stroke="#38bdf8" stroke-width="0.5" stroke-opacity="0.10"/><line x1="1065.1" y1="192.1" x2="1031.7" y2="82.3" stroke="#38bdf8" stroke-width="0.5" stroke-opacity="0.10"/><line x1="1065.1" y1="192.1" x2="1054.8" y2="250.8" stroke="#38bdf8" stroke-width="0.5" stroke-opacity="0.10"/><line x1="1054.7" y1="351.8" x2="1170.4" y2="325.0" stroke="#38bdf8" stroke-width="0.5" stroke-opacity="0.10"/><line x1="1054.7" y1="351.8" x2="1143.2" y2="331.5" stroke="#38bdf8" stroke-width="0.5" stroke-opacity="0.10"/><line x1="1054.7" y1="351.8" x2="1054.8" y2="250.8" stroke="#38bdf8" stroke-width="0.5" stroke-opacity="0.10"/><line x1="569.9" y1="162.1" x2="486.5" y2="169.1" stroke="#38bdf8" stroke-width="0.5" stroke-opacity="0.10"/><line x1="479.3" y1="313.3" x2="509.1" y2="281.1" stroke="#38bdf8" stroke-width="0.5" stroke-opacity="0.10"/><line x1="479.3" y1="313.3" x2="438.9" y2="278.8" stroke="#38bdf8" stroke-width="0.5" stroke-opacity="0.10"/><line x1="1435.6" y1="90.1" x2="1481.3" y2="152.6" stroke="#38bdf8" stroke-width="0.5" stroke-opacity="0.10"/><line x1="232.3" y1="74.5" x2="228.4" y2="52.2" stroke="#38bdf8" stroke-width="0.5" stroke-opacity="0.10"/><line x1="1031.7" y1="82.3" x2="919.0" y2="51.4" stroke="#38bdf8" stroke-width="0.5" stroke-opacity="0.10"/><line x1="1170.4" y1="325.0" x2="1143.2" y2="331.5" stroke="#38bdf8" stroke-width="0.5" stroke-opacity="0.10"/><line x1="1143.2" y1="331.5" x2="1054.8" y2="250.8" stroke="#38bdf8" stroke-width="0.5" stroke-opacity="0.10"/><line x1="509.1" y1="281.1" x2="486.5" y2="169.1" stroke="#38bdf8" stroke-width="0.5" stroke-opacity="0.10"/><line x1="509.1" y1="281.1" x2="438.9" y2="278.8" stroke="#38bdf8" stroke-width="0.5" stroke-opacity="0.10"/><line x1="1481.3" y1="152.6" x2="1443.5" y2="226.9" stroke="#38bdf8" stroke-width="0.5" stroke-opacity="0.10"/><line x1="486.5" y1="169.1" x2="438.9" y2="278.8" stroke="#38bdf8" stroke-width="0.5" stroke-opacity="0.10"/><line x1="438.9" y1="278.8" x2="337.8" y2="222.3" stroke="#38bdf8" stroke-width="0.5" stroke-opacity="0.10"/><circle cx="883.0" cy="308.4" r="0.9" fill="#38bdf8" fill-opacity="0.19"/><circle cx="96.6" cy="168.9" r="1.1" fill="#38bdf8" fill-opacity="0.64"/><circle cx="1216.0" cy="196.5" r="1.8" fill="#38bdf8" fill-opacity="0.34"/><circle cx="558.6" cy="213.3" r="0.7" fill="#38bdf8" fill-opacity="0.52"/><circle cx="740.8" cy="113.5" r="2.3" fill="#38bdf8" fill-opacity="0.45"/><circle cx="865.4" cy="175.6" r="2.1" fill="#38bdf8" fill-opacity="0.59"/><circle cx="298.6" cy="263.1" r="1.1" fill="#38bdf8" fill-opacity="0.32"/><circle cx="1260.1" cy="55.9" r="1.3" fill="#38bdf8" fill-opacity="0.60"/><circle cx="653.5" cy="26.5" r="2.0" fill="#38bdf8" fill-opacity="0.38"/><circle cx="359.9" cy="82.9" r="2.0" fill="#38bdf8" fill-opacity="0.52"/><circle cx="20.6" cy="92.7" r="1.1" fill="#38bdf8" fill-opacity="0.54"/><circle cx="734.5" cy="110.0" r="1.7" fill="#38bdf8" fill-opacity="0.34"/><circle cx="493.8" cy="20.3" r="0.9" fill="#38bdf8" fill-opacity="0.55"/><circle cx="984.2" cy="203.8" r="2.3" fill="#38bdf8" fill-opacity="0.17"/><circle cx="974.1" cy="232.8" r="1.8" fill="#38bdf8" fill-opacity="0.17"/><circle cx="1517.9" cy="264.9" r="2.3" fill="#38bdf8" fill-opacity="0.27"/><circle cx="598.0" cy="165.3" r="1.8" fill="#38bdf8" fill-opacity="0.35"/><circle cx="31.5" cy="121.7" r="0.7" fill="#38bdf8" fill-opacity="0.55"/><circle cx="1465.2" cy="124.7" r="0.7" fill="#38bdf8" fill-opacity="0.20"/><circle cx="685.6" cy="96.4" r="1.8" fill="#38bdf8" fill-opacity="0.38"/><circle cx="1066.9" cy="21.7" r="2.2" fill="#38bdf8" fill-opacity="0.47"/><circle cx="184.1" cy="243.3" r="1.0" fill="#38bdf8" fill-opacity="0.37"/><circle cx="14.0" cy="15.7" r="1.7" fill="#38bdf8" fill-opacity="0.34"/><circle cx="351.8" cy="59.9" r="1.1" fill="#38bdf8" fill-opacity="0.53"/><circle cx="1065.1" cy="192.1" r="1.5" fill="#38bdf8" fill-opacity="0.24"/><circle cx="813.2" cy="110.5" r="1.9" fill="#38bdf8" fill-opacity="0.38"/><circle cx="1054.7" cy="351.8" r="0.8" fill="#38bdf8" fill-opacity="0.43"/><circle cx="569.9" cy="162.1" r="1.9" fill="#38bdf8" fill-opacity="0.39"/><circle cx="1321.4" cy="273.9" r="1.7" fill="#38bdf8" fill-opacity="0.59"/><circle cx="479.3" cy="313.3" r="1.1" fill="#38bdf8" fill-opacity="0.38"/><circle cx="1435.6" cy="90.1" r="1.1" fill="#38bdf8" fill-opacity="0.31"/><circle cx="232.3" cy="74.5" r="0.9" fill="#38bdf8" fill-opacity="0.31"/><circle cx="228.4" cy="52.2" r="1.1" fill="#38bdf8" fill-opacity="0.42"/><circle cx="1031.7" cy="82.3" r="2.2" fill="#38bdf8" fill-opacity="0.51"/><circle cx="919.0" cy="51.4" r="1.2" fill="#38bdf8" fill-opacity="0.29"/><circle cx="1170.4" cy="325.0" r="1.3" fill="#38bdf8" fill-opacity="0.24"/><circle cx="1143.2" cy="331.5" r="1.0" fill="#38bdf8" fill-opacity="0.52"/><circle cx="509.1" cy="281.1" r="1.0" fill="#38bdf8" fill-opacity="0.25"/><circle cx="1481.3" cy="152.6" r="1.7" fill="#38bdf8" fill-opacity="0.51"/><circle cx="1054.8" cy="250.8" r="1.5" fill="#38bdf8" fill-opacity="0.65"/><circle cx="486.5" cy="169.1" r="1.0" fill="#38bdf8" fill-opacity="0.48"/><circle cx="438.9" cy="278.8" r="1.0" fill="#38bdf8" fill-opacity="0.27"/><circle cx="212.9" cy="239.1" r="1.1" fill="#38bdf8" fill-opacity="0.35"/><circle cx="695.1" cy="270.9" r="1.1" fill="#38bdf8" fill-opacity="0.40"/><circle cx="1443.5" cy="226.9" r="2.0" fill="#38bdf8" fill-opacity="0.59"/><circle cx="337.8" cy="222.3" r="1.9" fill="#38bdf8" fill-opacity="0.38"/></g>
  <g opacity="0.95"><circle cx="1330" cy="180" r="80" fill="none" stroke="#38bdf8" stroke-width="2.2" stroke-opacity="0.8"/><ellipse cx="1330" cy="180" rx="30" ry="80" fill="none" stroke="#38bdf8" stroke-width="1.3" stroke-opacity="0.5"/><ellipse cx="1330" cy="180" rx="62" ry="80" fill="none" stroke="#38bdf8" stroke-width="1.1" stroke-opacity="0.35"/><line x1="1250" y1="180" x2="1410" y2="180" stroke="#38bdf8" stroke-width="1.3" stroke-opacity="0.5"/><line x1="1260" y1="140" x2="1400" y2="140" stroke="#38bdf8" stroke-width="1" stroke-opacity="0.35"/><line x1="1260" y1="220" x2="1400" y2="220" stroke="#38bdf8" stroke-width="1" stroke-opacity="0.35"/></g>
  <g font-family="'Segoe UI', system-ui, sans-serif">
    <text x="130" y="150" fill="#38bdf8" font-size="22" font-weight="700" letter-spacing="6">24/7 INTELLIGENCE DOMAIN</text>
    <text x="126" y="238" fill="url(#title)" font-size="92" font-weight="800" letter-spacing="1">Intel</text>
    <rect x="132" y="262" width="150" height="5" rx="2.5" fill="#38bdf8"/>
  </g>
  <rect x="0" y="0" width="1600" height="360" fill="none" stroke="#38bdf8" stroke-opacity="0.18" stroke-width="2"/>
</svg>
