<svg xmlns="http://www.w3.org/2000/svg" viewBox="0 0 1600 360" width="1600" height="360" role="img" aria-label="Materials domain banner">
  <defs>
    <linearGradient id="bg" x1="0" y1="0" x2="1" y2="1">
      <stop offset="0" stop-color="#060b18"/>
      <stop offset="0.55" stop-color="#0a1428"/>
      <stop offset="1" stop-color="#0c1a33"/>
    </linearGradient>
    <radialGradient id="glowA" cx="0.82" cy="0.5" r="0.5">
      <stop offset="0" stop-color="#a78bfa" stop-opacity="0.35"/>
      <stop offset="1" stop-color="#a78bfa" stop-opacity="0"/>
    </radialGradient>
    <radialGradient id="glowB" cx="0.1" cy="0.9" r="0.6">
      <stop offset="0" stop-color="#6366f1" stop-opacity="0.22"/>
      <stop offset="1" stop-color="#6366f1" stop-opacity="0"/>
    </radialGradient>
    <linearGradient id="title" x1="0" y1="0" x2="1" y2="0">
      <stop offset="0" stop-color="#ffffff"/>
      <stop offset="1" stop-color="#a78bfa"/>
    </linearGradient>
  </defs>
  <rect width="1600" height="360" fill="url(#bg)"/>
  <rect width="1600" height="360" fill="url(#glowA)"/>
  <rect width="1600" height="360" fill="url(#glowB)"/>
  <g><line x1="1000.5" y1="52.3" x2="1106.9" y2="28.3" stroke="#a78bfa" stroke-width="0.5" stroke-opacity="0.10"/><line x1="1000.5" y1="52.3" x2="933.2" y2="121.2" stroke="#a78bfa" stroke-width="0.5" stroke-opacity="0.10"/><line x1="194.2" y1="276.5" x2="121.5" y2="216.0" stroke="#a78bfa" stroke-width="0.5" stroke-opacity="0.10"/><line x1="194.2" y1="276.5" x2="147.1" y2="333.0" stroke="#a78bfa" stroke-width="0.5" stroke-opacity="0.10"/><line x1="194.2" y1="276.5" x2="259.7" y2="253.5" stroke="#a78bfa" stroke-width="0.5" stroke-opacity="0.10"/><line x1="677.9" y1="92.3" x2="748.2" y2="60.5" stroke="#a78bfa" stroke-width="0.5" stroke-opacity="0.10"/><line x1="677.9" y1="92.3" x2="739.8" y2="58.2" stroke="#a78bfa" stroke-width="0.5" stroke-opacity="0.10"/><line x1="677.9" y1="92.3" x2="585.2" y2="51.7" stroke="#a78bfa" stroke-width="0.5" stroke-opacity="0.10"/><line x1="677.9" y1="92.3" x2="664.5" y2="33.3" stroke="#a78bfa" stroke-width="0.5" stroke-opacity="0.10"/><line x1="748.2" y1="60.5" x2="844.2" y2="102.4" stroke="#a78bfa" stroke-width="0.5" stroke-opacity="0.10"/><line x1="748.2" y1="60.5" x2="739.8" y2="58.2" stroke="#a78bfa" stroke-width="0.5" stroke-opacity="0.10"/><line x1="748.2" y1="60.5" x2="866.3" y2="73.3" stroke="#a78bfa" stroke-width="0.5" stroke-opacity="0.10"/><line x1="748.2" y1="60.5" x2="664.5" y2="33.3" stroke="#a78bfa" stroke-width="0.5" stroke-opacity="0.10"/><line x1="429.1" y1="26.7" x2="477.3" y2="113.1" stroke="#a78bfa" stroke-width="0.5" stroke-opacity="0.10"/><line x1="1528.1" y1="307.2" x2="1458.4" y2="320.3" stroke="#a78bfa" stroke-width="0.5" stroke-opacity="0.10"/><line x1="1528.1" y1="307.2" x2="1536.9" y2="201.1" stroke="#a78bfa" stroke-width="0.5" stroke-opacity="0.10"/><line x1="868.3" y1="16.7" x2="844.2" y2="102.4" stroke="#a78bfa" stroke-width="0.5" stroke-opacity="0.10"/><line x1="868.3" y1="16.7" x2="866.3" y2="73.3" stroke="#a78bfa" stroke-width="0.5" stroke-opacity="0.10"/><line x1="121.5" y1="216.0" x2="69.3" y2="206.3" stroke="#a78bfa" stroke-width="0.5" stroke-opacity="0.10"/><line x1="121.5" y1="216.0" x2="146.1" y2="132.7" stroke="#a78bfa" stroke-width="0.5" stroke-opacity="0.10"/><line x1="121.5" y1="216.0" x2="213.5" y2="157.3" stroke="#a78bfa" stroke-width="0.5" stroke-opacity="0.10"/><line x1="121.5" y1="216.0" x2="147.1" y2="333.0" stroke="#a78bfa" stroke-width="0.5" stroke-opacity="0.10"/><line x1="69.3" y1="206.3" x2="146.1" y2="132.7" stroke="#a78bfa" stroke-width="0.5" stroke-opacity="0.10"/><line x1="69.3" y1="206.3" x2="57.8" y2="88.7" stroke="#a78bfa" stroke-width="0.5" stroke-opacity="0.10"/><line x1="69.3" y1="206.3" x2="39.9" y2="313.9" stroke="#a78bfa" stroke-width="0.5" stroke-opacity="0.10"/><line x1="314.3" y1="230.6" x2="268.7" y2="168.5" stroke="#a78bfa" stroke-width="0.5" stroke-opacity="0.10"/><line x1="314.3" y1="230.6" x2="242.8" y2="143.6" stroke="#a78bfa" stroke-width="0.5" stroke-opacity="0.10"/><line x1="314.3" y1="230.6" x2="306.5" y2="146.9" stroke="#a78bfa" stroke-width="0.5" stroke-opacity="0.10"/><line x1="314.3" y1="230.6" x2="259.7" y2="253.5" stroke="#a78bfa" stroke-width="0.5" stroke-opacity="0.10"/><line x1="268.7" y1="168.5" x2="268.5" y2="85.2" stroke="#a78bfa" stroke-width="0.5" stroke-opacity="0.10"/><line x1="268.7" y1="168.5" x2="253.6" y2="125.2" stroke="#a78bfa" stroke-width="0.5" stroke-opacity="0.10"/><line x1="268.7" y1="168.5" x2="242.8" y2="143.6" stroke="#a78bfa" stroke-width="0.5" stroke-opacity="0.10"/><line x1="268.7" y1="168.5" x2="306.5" y2="146.9" stroke="#a78bfa" stroke-width="0.5" stroke-opacity="0.10"/><line x1="268.7" y1="168.5" x2="213.5" y2="157.3" stroke="#a78bfa" stroke-width="0.5" stroke-opacity="0.10"/><line x1="268.7" y1="168.5" x2="259.7" y2="253.5" stroke="#a78bfa" stroke-width="0.5" stroke-opacity="0.10"/><line x1="844.2" y1="102.4" x2="739.8" y2="58.2" stroke="#a78bfa" stroke-width="0.5" stroke-opacity="0.10"/><line x1="844.2" y1="102.4" x2="866.3" y2="73.3" stroke="#a78bfa" stroke-width="0.5" stroke-opacity="0.10"/><line x1="844.2" y1="102.4" x2="933.2" y2="121.2" stroke="#a78bfa" stroke-width="0.5" stroke-opacity="0.10"/><line x1="268.5" y1="85.2" x2="253.6" y2="125.2" stroke="#a78bfa" stroke-width="0.5" stroke-opacity="0.10"/><line x1="268.5" y1="85.2" x2="242.8" y2="143.6" stroke="#a78bfa" stroke-width="0.5" stroke-opacity="0.10"/><line x1="268.5" y1="85.2" x2="306.5" y2="146.9" stroke="#a78bfa" stroke-width="0.5" stroke-opacity="0.10"/><line x1="268.5" y1="85.2" x2="213.5" y2="157.3" stroke="#a78bfa" stroke-width="0.5" stroke-opacity="0.10"/><line x1="253.6" y1="125.2" x2="242.8" y2="143.6" stroke="#a78bfa" stroke-width="0.5" stroke-opacity="0.10"/><line x1="253.6" y1="125.2" x2="146.1" y2="132.7" stroke="#a78bfa" stroke-width="0.5" stroke-opacity="0.10"/><line x1="253.6" y1="125.2" x2="306.5" y2="146.9" stroke="#a78bfa" stroke-width="0.5" stroke-opacity="0.10"/><line x1="253.6" y1="125.2" x2="213.5" y2="157.3" stroke="#a78bfa" stroke-width="0.5" stroke-opacity="0.10"/><line x1="739.8" y1="58.2" x2="664.5" y2="33.3" stroke="#a78bfa" stroke-width="0.5" stroke-opacity="0.10"/><line x1="242.8" y1="143.6" x2="146.1" y2="132.7" stroke="#a78bfa" stroke-width="0.5" stroke-opacity="0.10"/><line x1="242.8" y1="143.6" x2="306.5" y2="146.9" stroke="#a78bfa" stroke-width="0.5" stroke-opacity="0.10"/><line x1="242.8" y1="143.6" x2="213.5" y2="157.3" stroke="#a78bfa" stroke-width="0.5" stroke-opacity="0.10"/><line x1="242.8" y1="143.6" x2="259.7" y2="253.5" stroke="#a78bfa" stroke-width="0.5" stroke-opacity="0.10"/><line x1="25.6" y1="73.6" x2="57.8" y2="88.7" stroke="#a78bfa" stroke-width="0.5" stroke-opacity="0.10"/><line x1="25.6" y1="73.6" x2="40.0" y2="2.6" stroke="#a78bfa" stroke-width="0.5" stroke-opacity="0.10"/><line x1="1123.2" y1="293.1" x2="1144.3" y2="176.6" stroke="#a78bfa" stroke-width="0.5" stroke-opacity="0.10"/><line x1="1243.8" y1="258.5" x2="1264.5" y2="346.4" stroke="#a78bfa" stroke-width="0.5" stroke-opacity="0.10"/><line x1="1243.8" y1="258.5" x2="1314.4" y2="170.9" stroke="#a78bfa" stroke-width="0.5" stroke-opacity="0.10"/><line x1="570.5" y1="233.4" x2="505.5" y2="196.3" stroke="#a78bfa" stroke-width="0.5" stroke-opacity="0.10"/><line x1="570.5" y1="233.4" x2="570.2" y2="285.6" stroke="#a78bfa" stroke-width="0.5" stroke-opacity="0.10"/><line x1="290.8" y1="349.9" x2="259.7" y2="253.5" stroke="#a78bfa" stroke-width="0.5" stroke-opacity="0.10"/><line x1="477.3" y1="113.1" x2="505.5" y2="196.3" stroke="#a78bfa" stroke-width="0.5" stroke-opacity="0.10"/><line x1="866.3" y1="73.3" x2="933.2" y2="121.2" stroke="#a78bfa" stroke-width="0.5" stroke-opacity="0.10"/><line x1="146.1" y1="132.7" x2="57.8" y2="88.7" stroke="#a78bfa" stroke-width="0.5" stroke-opacity="0.10"/><line x1="146.1" y1="132.7" x2="213.5" y2="157.3" stroke="#a78bfa" stroke-width="0.5" stroke-opacity="0.10"/><line x1="306.5" y1="146.9" x2="213.5" y2="157.3" stroke="#a78bfa" stroke-width="0.5" stroke-opacity="0.10"/><line x1="306.5" y1="146.9" x2="259.7" y2="253.5" stroke="#a78bfa" stroke-width="0.5" stroke-opacity="0.10"/><line x1="505.5" y1="196.3" x2="433.2" y2="263.7" stroke="#a78bfa" stroke-width="0.5" stroke-opacity="0.10"/><line x1="505.5" y1="196.3" x2="570.2" y2="285.6" stroke="#a78bfa" stroke-width="0.5" stroke-opacity="0.10"/><line x1="797.4" y1="283.3" x2="795.3" y2="302.5" stroke="#a78bfa" stroke-width="0.5" stroke-opacity="0.10"/><line x1="797.4" y1="283.3" x2="875.2" y2="281.7" stroke="#a78bfa" stroke-width="0.5" stroke-opacity="0.10"/><line x1="57.8" y1="88.7" x2="40.0" y2="2.6" stroke="#a78bfa" stroke-width="0.5" stroke-opacity="0.10"/><line x1="213.5" y1="157.3" x2="259.7" y2="253.5" stroke="#a78bfa" stroke-width="0.5" stroke-opacity="0.10"/><line x1="585.2" y1="51.7" x2="664.5" y2="33.3" stroke="#a78bfa" stroke-width="0.5" stroke-opacity="0.10"/><line x1="147.1" y1="333.0" x2="39.9" y2="313.9" stroke="#a78bfa" stroke-width="0.5" stroke-opacity="0.10"/><line x1="795.3" y1="302.5" x2="875.2" y2="281.7" stroke="#a78bfa" stroke-width="0.5" stroke-opacity="0.10"/><circle cx="1000.5" cy="52.3" r="2.1" fill="#a78bfa" fill-opacity="0.56"/><circle cx="194.2" cy="276.5" r="2.4" fill="#a78bfa" fill-opacity="0.37"/><circle cx="677.9" cy="92.3" r="1.7" fill="#a78bfa" fill-opacity="0.45"/><circle cx="748.2" cy="60.5" r="0.9" fill="#a78bfa" fill-opacity="0.26"/><circle cx="429.1" cy="26.7" r="0.8" fill="#a78bfa" fill-opacity="0.54"/><circle cx="1528.1" cy="307.2" r="1.2" fill="#a78bfa" fill-opacity="0.32"/><circle cx="868.3" cy="16.7" r="1.7" fill="#a78bfa" fill-opacity="0.51"/><circle cx="121.5" cy="216.0" r="2.3" fill="#a78bfa" fill-opacity="0.24"/><circle cx="69.3" cy="206.3" r="1.3" fill="#a78bfa" fill-opacity="0.29"/><circle cx="314.3" cy="230.6" r="1.7" fill="#a78bfa" fill-opacity="0.64"/><circle cx="268.7" cy="168.5" r="2.4" fill="#a78bfa" fill-opacity="0.21"/><circle cx="844.2" cy="102.4" r="1.1" fill="#a78bfa" fill-opacity="0.45"/><circle cx="268.5" cy="85.2" r="1.5" fill="#a78bfa" fill-opacity="0.30"/><circle cx="253.6" cy="125.2" r="1.6" fill="#a78bfa" fill-opacity="0.30"/><circle cx="739.8" cy="58.2" r="2.3" fill="#a78bfa" fill-opacity="0.64"/><circle cx="242.8" cy="143.6" r="1.0" fill="#a78bfa" fill-opacity="0.20"/><circle cx="25.6" cy="73.6" r="2.1" fill="#a78bfa" fill-opacity="0.53"/><circle cx="1123.2" cy="293.1" r="1.6" fill="#a78bfa" fill-opacity="0.31"/><circle cx="1243.8" cy="258.5" r="1.4" fill="#a78bfa" fill-opacity="0.18"/><circle cx="570.5" cy="233.4" r="0.8" fill="#a78bfa" fill-opacity="0.41"/><circle cx="290.8" cy="349.9" r="2.0" fill="#a78bfa" fill-opacity="0.59"/><circle cx="477.3" cy="113.1" r="0.8" fill="#a78bfa" fill-opacity="0.43"/><circle cx="1144.3" cy="176.6" r="2.1" fill="#a78bfa" fill-opacity="0.16"/><circle cx="1106.9" cy="28.3" r="1.0" fill="#a78bfa" fill-opacity="0.31"/><circle cx="866.3" cy="73.3" r="1.7" fill="#a78bfa" fill-opacity="0.33"/><circle cx="146.1" cy="132.7" r="1.2" fill="#a78bfa" fill-opacity="0.29"/><circle cx="306.5" cy="146.9" r="1.6" fill="#a78bfa" fill-opacity="0.50"/><circle cx="1458.4" cy="320.3" r="1.1" fill="#a78bfa" fill-opacity="0.59"/><circle cx="505.5" cy="196.3" r="1.9" fill="#a78bfa" fill-opacity="0.53"/><circle cx="1536.9" cy="201.1" r="2.0" fill="#a78bfa" fill-opacity="0.55"/><circle cx="797.4" cy="283.3" r="1.5" fill="#a78bfa" fill-opacity="0.41"/><circle cx="57.8" cy="88.7" r="1.0" fill="#a78bfa" fill-opacity="0.55"/><circle cx="213.5" cy="157.3" r="1.4" fill="#a78bfa" fill-opacity="0.60"/><circle cx="933.2" cy="121.2" r="2.0" fill="#a78bfa" fill-opacity="0.55"/><circle cx="585.2" cy="51.7" r="1.8" fill="#a78bfa" fill-opacity="0.50"/><circle cx="664.5" cy="33.3" r="1.3" fill="#a78bfa" fill-opacity="0.25"/><circle cx="147.1" cy="333.0" r="1.4" fill="#a78bfa" fill-opacity="0.64"/><circle cx="795.3" cy="302.5" r="2.4" fill="#a78bfa" fill-opacity="0.49"/><circle cx="40.0" cy="2.6" r="1.9" fill="#a78bfa" fill-opacity="0.44"/><circle cx="1264.5" cy="346.4" r="1.4" fill="#a78bfa" fill-opacity="0.20"/><circle cx="1314.4" cy="170.9" r="1.1" fill="#a78bfa" fill-opacity="0.19"/><circle cx="259.7" cy="253.5" r="0.8" fill="#a78bfa" fill-opacity="0.58"/><circle cx="433.2" cy="263.7" r="1.8" fill="#a78bfa" fill-opacity="0.15"/><circle cx="570.2" cy="285.6" r="2.0" fill="#a78bfa" fill-opacity="0.45"/><circle cx="875.2" cy="281.7" r="0.7" fill="#a78bfa" fill-opacity="0.34"/><circle cx="39.9" cy="313.9" r="1.2" fill="#a78bfa" fill-opacity="0.17"/></g>
  <g opacity="0.95"><path d="M1330 96 L1384 160 L1360 258 L1300 258 L1276 160 Z" fill="none" stroke="#a78bfa" stroke-width="2.4" stroke-opacity="0.85"/><path d="M1330 96 L1330 258 M1276 160 L1384 160 M1330 96 L1300 258 M1330 96 L1360 258" stroke="#a78bfa" stroke-width="1.2" stroke-opacity="0.5"/></g>
  <g font-family="'Segoe UI', system-ui, sans-serif">
    <text x="130" y="150" fill="#a78bfa" font-size="22" font-weight="700" letter-spacing="6">24/7 INTELLIGENCE DOMAIN</text>
    <text x="126" y="238" fill="url(#title)" font-size="92" font-weight="800" letter-spacing="1">Materials</text>
    <rect x="132" y="262" width="150" height="5" rx="2.5" fill="#a78bfa"/>
  </g>
  <rect x="0" y="0" width="1600" height="360" fill="none" stroke="#a78bfa" stroke-opacity="0.18" stroke-width="2"/>
</svg>
