<svg xmlns="http://www.w3.org/2000/svg" viewBox="0 0 1600 360" width="1600" height="360" role="img" aria-label="Matrix domain banner">
  <defs>
    <linearGradient id="bg" x1="0" y1="0" x2="1" y2="1">
      <stop offset="0" stop-color="#060b18"/>
      <stop offset="0.55" stop-color="#0a1428"/>
      <stop offset="1" stop-color="#0c1a33"/>
    </linearGradient>
    <radialGradient id="glowA" cx="0.82" cy="0.5" r="0.5">
      <stop offset="0" stop-color="#38bdf8" stop-opacity="0.35"/>
      <stop offset="1" stop-color="#38bdf8" stop-opacity="0"/>
    </radialGradient>
    <radialGradient id="glowB" cx="0.1" cy="0.9" r="0.6">
      <stop offset="0" stop-color="#818cf8" stop-opacity="0.22"/>
      <stop offset="1" stop-color="#818cf8" stop-opacity="0"/>
    </radialGradient>
    <linearGradient id="title" x1="0" y1="0" x2="1" y2="0">
      <stop offset="0" stop-color="#ffffff"/>
      <stop offset="1" stop-color="#38bdf8"/>
    </linearGradient>
  </defs>
  <rect width="1600" height="360" fill="url(#bg)"/>
  <rect width="1600" height="360" fill="url(#glowA)"/>
  <rect width="1600" height="360" fill="url(#glowB)"/>
  <g><line x1="318.3" y1="55.6" x2="293.2" y2="108.9" stroke="#38bdf8" stroke-width="0.5" stroke-opacity="0.10"/><line x1="814.2" y1="192.2" x2="803.9" y2="108.6" stroke="#38bdf8" stroke-width="0.5" stroke-opacity="0.10"/><line x1="814.2" y1="192.2" x2="843.2" y2="269.7" stroke="#38bdf8" stroke-width="0.5" stroke-opacity="0.10"/><line x1="1547.1" y1="11.0" x2="1481.2" y2="90.8" stroke="#38bdf8" stroke-width="0.5" stroke-opacity="0.10"/><line x1="1547.1" y1="11.0" x2="1509.7" y2="86.2" stroke="#38bdf8" stroke-width="0.5" stroke-opacity="0.10"/><line x1="1547.1" y1="11.0" x2="1555.9" y2="18.8" stroke="#38bdf8" stroke-width="0.5" stroke-opacity="0.10"/><line x1="293.2" y1="108.9" x2="241.3" y2="208.1" stroke="#38bdf8" stroke-width="0.5" stroke-opacity="0.10"/><line x1="803.9" y1="108.6" x2="867.0" y2="12.9" stroke="#38bdf8" stroke-width="0.5" stroke-opacity="0.10"/><line x1="803.9" y1="108.6" x2="734.2" y2="84.9" stroke="#38bdf8" stroke-width="0.5" stroke-opacity="0.10"/><line x1="803.9" y1="108.6" x2="804.2" y2="51.3" stroke="#38bdf8" stroke-width="0.5" stroke-opacity="0.10"/><line x1="296.5" y1="296.9" x2="330.5" y2="228.6" stroke="#38bdf8" stroke-width="0.5" stroke-opacity="0.10"/><line x1="296.5" y1="296.9" x2="241.3" y2="208.1" stroke="#38bdf8" stroke-width="0.5" stroke-opacity="0.10"/><line x1="296.5" y1="296.9" x2="392.4" y2="296.8" stroke="#38bdf8" stroke-width="0.5" stroke-opacity="0.10"/><line x1="296.5" y1="296.9" x2="214.2" y2="274.0" stroke="#38bdf8" stroke-width="0.5" stroke-opacity="0.10"/><line x1="296.5" y1="296.9" x2="228.5" y2="335.3" stroke="#38bdf8" stroke-width="0.5" stroke-opacity="0.10"/><line x1="691.1" y1="12.9" x2="654.2" y2="6.6" stroke="#38bdf8" stroke-width="0.5" stroke-opacity="0.10"/><line x1="691.1" y1="12.9" x2="734.2" y2="84.9" stroke="#38bdf8" stroke-width="0.5" stroke-opacity="0.10"/><line x1="691.1" y1="12.9" x2="589.9" y2="24.6" stroke="#38bdf8" stroke-width="0.5" stroke-opacity="0.10"/><line x1="691.1" y1="12.9" x2="804.2" y2="51.3" stroke="#38bdf8" stroke-width="0.5" stroke-opacity="0.10"/><line x1="691.1" y1="12.9" x2="636.0" y2="33.0" stroke="#38bdf8" stroke-width="0.5" stroke-opacity="0.10"/><line x1="1481.2" y1="90.8" x2="1509.7" y2="86.2" stroke="#38bdf8" stroke-width="0.5" stroke-opacity="0.10"/><line x1="1481.2" y1="90.8" x2="1506.1" y2="169.5" stroke="#38bdf8" stroke-width="0.5" stroke-opacity="0.10"/><line x1="1481.2" y1="90.8" x2="1555.9" y2="18.8" stroke="#38bdf8" stroke-width="0.5" stroke-opacity="0.10"/><line x1="961.0" y1="51.1" x2="1041.0" y2="123.6" stroke="#38bdf8" stroke-width="0.5" stroke-opacity="0.10"/><line x1="961.0" y1="51.1" x2="867.0" y2="12.9" stroke="#38bdf8" stroke-width="0.5" stroke-opacity="0.10"/><line x1="961.0" y1="51.1" x2="1004.0" y2="61.6" stroke="#38bdf8" stroke-width="0.5" stroke-opacity="0.10"/><line x1="936.4" y1="256.8" x2="843.2" y2="269.7" stroke="#38bdf8" stroke-width="0.5" stroke-opacity="0.10"/><line x1="936.4" y1="256.8" x2="877.9" y2="331.9" stroke="#38bdf8" stroke-width="0.5" stroke-opacity="0.10"/><line x1="936.4" y1="256.8" x2="949.9" y2="304.2" stroke="#38bdf8" stroke-width="0.5" stroke-opacity="0.10"/><line x1="936.4" y1="256.8" x2="968.2" y2="272.8" stroke="#38bdf8" stroke-width="0.5" stroke-opacity="0.10"/><line x1="843.2" y1="269.7" x2="877.9" y2="331.9" stroke="#38bdf8" stroke-width="0.5" stroke-opacity="0.10"/><line x1="843.2" y1="269.7" x2="949.9" y2="304.2" stroke="#38bdf8" stroke-width="0.5" stroke-opacity="0.10"/><line x1="1198.5" y1="203.3" x2="1276.9" y2="252.8" stroke="#38bdf8" stroke-width="0.5" stroke-opacity="0.10"/><line x1="1509.7" y1="86.2" x2="1506.1" y2="169.5" stroke="#38bdf8" stroke-width="0.5" stroke-opacity="0.10"/><line x1="1509.7" y1="86.2" x2="1555.9" y2="18.8" stroke="#38bdf8" stroke-width="0.5" stroke-opacity="0.10"/><line x1="1041.0" y1="123.6" x2="1091.4" y2="107.5" stroke="#38bdf8" stroke-width="0.5" stroke-opacity="0.10"/><line x1="1041.0" y1="123.6" x2="1004.0" y2="61.6" stroke="#38bdf8" stroke-width="0.5" stroke-opacity="0.10"/><line x1="1091.4" y1="107.5" x2="1004.0" y2="61.6" stroke="#38bdf8" stroke-width="0.5" stroke-opacity="0.10"/><line x1="427.4" y1="179.4" x2="330.5" y2="228.6" stroke="#38bdf8" stroke-width="0.5" stroke-opacity="0.10"/><line x1="427.4" y1="179.4" x2="479.3" y2="165.4" stroke="#38bdf8" stroke-width="0.5" stroke-opacity="0.10"/><line x1="1254.9" y1="25.4" x2="1288.2" y2="116.7" stroke="#38bdf8" stroke-width="0.5" stroke-opacity="0.10"/><line x1="174.3" y1="132.8" x2="241.3" y2="208.1" stroke="#38bdf8" stroke-width="0.5" stroke-opacity="0.10"/><line x1="330.5" y1="228.6" x2="241.3" y2="208.1" stroke="#38bdf8" stroke-width="0.5" stroke-opacity="0.10"/><line x1="330.5" y1="228.6" x2="392.4" y2="296.8" stroke="#38bdf8" stroke-width="0.5" stroke-opacity="0.10"/><line x1="867.0" y1="12.9" x2="804.2" y2="51.3" stroke="#38bdf8" stroke-width="0.5" stroke-opacity="0.10"/><line x1="654.2" y1="6.6" x2="734.2" y2="84.9" stroke="#38bdf8" stroke-width="0.5" stroke-opacity="0.10"/><line x1="654.2" y1="6.6" x2="589.9" y2="24.6" stroke="#38bdf8" stroke-width="0.5" stroke-opacity="0.10"/><line x1="654.2" y1="6.6" x2="636.0" y2="33.0" stroke="#38bdf8" stroke-width="0.5" stroke-opacity="0.10"/><line x1="734.2" y1="84.9" x2="804.2" y2="51.3" stroke="#38bdf8" stroke-width="0.5" stroke-opacity="0.10"/><line x1="734.2" y1="84.9" x2="636.0" y2="33.0" stroke="#38bdf8" stroke-width="0.5" stroke-opacity="0.10"/><line x1="241.3" y1="208.1" x2="214.2" y2="274.0" stroke="#38bdf8" stroke-width="0.5" stroke-opacity="0.10"/><line x1="1276.9" y1="252.8" x2="1346.3" y2="327.5" stroke="#38bdf8" stroke-width="0.5" stroke-opacity="0.10"/><line x1="1506.1" y1="169.5" x2="1457.3" y2="237.0" stroke="#38bdf8" stroke-width="0.5" stroke-opacity="0.10"/><line x1="1506.1" y1="169.5" x2="1529.0" y2="221.9" stroke="#38bdf8" stroke-width="0.5" stroke-opacity="0.10"/><line x1="214.2" y1="274.0" x2="228.5" y2="335.3" stroke="#38bdf8" stroke-width="0.5" stroke-opacity="0.10"/><line x1="214.2" y1="274.0" x2="134.3" y2="279.8" stroke="#38bdf8" stroke-width="0.5" stroke-opacity="0.10"/><line x1="589.9" y1="24.6" x2="636.0" y2="33.0" stroke="#38bdf8" stroke-width="0.5" stroke-opacity="0.10"/><line x1="35.1" y1="251.4" x2="134.3" y2="279.8" stroke="#38bdf8" stroke-width="0.5" stroke-opacity="0.10"/><line x1="877.9" y1="331.9" x2="949.9" y2="304.2" stroke="#38bdf8" stroke-width="0.5" stroke-opacity="0.10"/><line x1="877.9" y1="331.9" x2="968.2" y2="272.8" stroke="#38bdf8" stroke-width="0.5" stroke-opacity="0.10"/><line x1="1457.3" y1="237.0" x2="1529.0" y2="221.9" stroke="#38bdf8" stroke-width="0.5" stroke-opacity="0.10"/><line x1="949.9" y1="304.2" x2="968.2" y2="272.8" stroke="#38bdf8" stroke-width="0.5" stroke-opacity="0.10"/><line x1="228.5" y1="335.3" x2="134.3" y2="279.8" stroke="#38bdf8" stroke-width="0.5" stroke-opacity="0.10"/><circle cx="318.3" cy="55.6" r="0.7" fill="#38bdf8" fill-opacity="0.37"/><circle cx="679.7" cy="202.3" r="1.5" fill="#38bdf8" fill-opacity="0.63"/><circle cx="814.2" cy="192.2" r="1.4" fill="#38bdf8" fill-opacity="0.63"/><circle cx="1547.1" cy="11.0" r="0.7" fill="#38bdf8" fill-opacity="0.49"/><circle cx="293.2" cy="108.9" r="0.8" fill="#38bdf8" fill-opacity="0.57"/><circle cx="803.9" cy="108.6" r="1.5" fill="#38bdf8" fill-opacity="0.54"/><circle cx="296.5" cy="296.9" r="0.9" fill="#38bdf8" fill-opacity="0.65"/><circle cx="691.1" cy="12.9" r="2.2" fill="#38bdf8" fill-opacity="0.21"/><circle cx="1481.2" cy="90.8" r="1.9" fill="#38bdf8" fill-opacity="0.59"/><circle cx="961.0" cy="51.1" r="1.4" fill="#38bdf8" fill-opacity="0.21"/><circle cx="936.4" cy="256.8" r="2.3" fill="#38bdf8" fill-opacity="0.34"/><circle cx="843.2" cy="269.7" r="1.4" fill="#38bdf8" fill-opacity="0.54"/><circle cx="1198.5" cy="203.3" r="2.2" fill="#38bdf8" fill-opacity="0.38"/><circle cx="1509.7" cy="86.2" r="1.6" fill="#38bdf8" fill-opacity="0.31"/><circle cx="566.6" cy="254.2" r="2.3" fill="#38bdf8" fill-opacity="0.31"/><circle cx="1041.0" cy="123.6" r="2.3" fill="#38bdf8" fill-opacity="0.30"/><circle cx="1518.9" cy="344.7" r="1.0" fill="#38bdf8" fill-opacity="0.17"/><circle cx="1091.4" cy="107.5" r="1.7" fill="#38bdf8" fill-opacity="0.33"/><circle cx="427.4" cy="179.4" r="0.8" fill="#38bdf8" fill-opacity="0.61"/><circle cx="1254.9" cy="25.4" r="2.4" fill="#38bdf8" fill-opacity="0.43"/><circle cx="174.3" cy="132.8" r="2.0" fill="#38bdf8" fill-opacity="0.26"/><circle cx="330.5" cy="228.6" r="2.1" fill="#38bdf8" fill-opacity="0.29"/><circle cx="867.0" cy="12.9" r="1.3" fill="#38bdf8" fill-opacity="0.47"/><circle cx="1288.2" cy="116.7" r="1.7" fill="#38bdf8" fill-opacity="0.39"/><circle cx="654.2" cy="6.6" r="1.6" fill="#38bdf8" fill-opacity="0.28"/><circle cx="734.2" cy="84.9" r="2.0" fill="#38bdf8" fill-opacity="0.59"/><circle cx="241.3" cy="208.1" r="0.8" fill="#38bdf8" fill-opacity="0.64"/><circle cx="1276.9" cy="252.8" r="2.4" fill="#38bdf8" fill-opacity="0.35"/><circle cx="1506.1" cy="169.5" r="2.0" fill="#38bdf8" fill-opacity="0.51"/><circle cx="392.4" cy="296.8" r="2.3" fill="#38bdf8" fill-opacity="0.29"/><circle cx="214.2" cy="274.0" r="0.7" fill="#38bdf8" fill-opacity="0.62"/><circle cx="589.9" cy="24.6" r="1.0" fill="#38bdf8" fill-opacity="0.53"/><circle cx="35.1" cy="251.4" r="1.2" fill="#38bdf8" fill-opacity="0.63"/><circle cx="877.9" cy="331.9" r="2.0" fill="#38bdf8" fill-opacity="0.32"/><circle cx="1457.3" cy="237.0" r="1.1" fill="#38bdf8" fill-opacity="0.47"/><circle cx="1529.0" cy="221.9" r="1.1" fill="#38bdf8" fill-opacity="0.44"/><circle cx="804.2" cy="51.3" r="1.9" fill="#38bdf8" fill-opacity="0.53"/><circle cx="1346.3" cy="327.5" r="1.3" fill="#38bdf8" fill-opacity="0.35"/><circle cx="949.9" cy="304.2" r="1.8" fill="#38bdf8" fill-opacity="0.58"/><circle cx="228.5" cy="335.3" r="1.7" fill="#38bdf8" fill-opacity="0.19"/><circle cx="134.3" cy="279.8" r="2.1" fill="#38bdf8" fill-opacity="0.54"/><circle cx="636.0" cy="33.0" r="1.2" fill="#38bdf8" fill-opacity="0.51"/><circle cx="479.3" cy="165.4" r="0.8" fill="#38bdf8" fill-opacity="0.45"/><circle cx="1555.9" cy="18.8" r="0.9" fill="#38bdf8" fill-opacity="0.28"/><circle cx="1004.0" cy="61.6" r="2.2" fill="#38bdf8" fill-opacity="0.27"/><circle cx="968.2" cy="272.8" r="1.7" fill="#38bdf8" fill-opacity="0.20"/></g>
  <g opacity="0.95"><circle cx="1330" cy="180" r="18" fill="#38bdf8" fill-opacity="0.9"/><line x1="1330" y1="180" x2="1330.0" y2="102.0" stroke="#38bdf8" stroke-width="1.4" stroke-opacity="0.55"/><circle cx="1330.0" cy="102.0" r="6" fill="#38bdf8"/><line x1="1330" y1="180" x2="1397.5" y2="141.0" stroke="#38bdf8" stroke-width="1.4" stroke-opacity="0.55"/><circle cx="1397.5" cy="141.0" r="6" fill="#38bdf8"/><line x1="1330" y1="180" x2="1397.5" y2="219.0" stroke="#38bdf8" stroke-width="1.4" stroke-opacity="0.55"/><circle cx="1397.5" cy="219.0" r="6" fill="#38bdf8"/><line x1="1330" y1="180" x2="1330.0" y2="258.0" stroke="#38bdf8" stroke-width="1.4" stroke-opacity="0.55"/><circle cx="1330.0" cy="258.0" r="6" fill="#38bdf8"/><line x1="1330" y1="180" x2="1262.5" y2="219.0" stroke="#38bdf8" stroke-width="1.4" stroke-opacity="0.55"/><circle cx="1262.5" cy="219.0" r="6" fill="#38bdf8"/><line x1="1330" y1="180" x2="1262.5" y2="141.0" stroke="#38bdf8" stroke-width="1.4" stroke-opacity="0.55"/><circle cx="1262.5" cy="141.0" r="6" fill="#38bdf8"/><circle cx="1330" cy="180" r="80" fill="none" stroke="#38bdf8" stroke-opacity="0.3" stroke-width="1.5"/></g>
  <g font-family="'Segoe UI', system-ui, sans-serif">
    <text x="130" y="150" fill="#38bdf8" font-size="22" font-weight="700" letter-spacing="6">24/7 INTELLIGENCE DOMAIN</text>
    <text x="126" y="238" fill="url(#title)" font-size="92" font-weight="800" letter-spacing="1">Matrix</text>
    <rect x="132" y="262" width="150" height="5" rx="2.5" fill="#38bdf8"/>
  </g>
  <rect x="0" y="0" width="1600" height="360" fill="none" stroke="#38bdf8" stroke-opacity="0.18" stroke-width="2"/>
</svg>
