<svg xmlns="http://www.w3.org/2000/svg" viewBox="0 0 1600 360" width="1600" height="360" role="img" aria-label="Medicine domain banner">
  <defs>
    <linearGradient id="bg" x1="0" y1="0" x2="1" y2="1">
      <stop offset="0" stop-color="#060b18"/>
      <stop offset="0.55" stop-color="#0a1428"/>
      <stop offset="1" stop-color="#0c1a33"/>
    </linearGradient>
    <radialGradient id="glowA" cx="0.82" cy="0.5" r="0.5">
      <stop offset="0" stop-color="#34d399" stop-opacity="0.35"/>
      <stop offset="1" stop-color="#34d399" stop-opacity="0"/>
    </radialGradient>
    <radialGradient id="glowB" cx="0.1" cy="0.9" r="0.6">
      <stop offset="0" stop-color="#22d3ee" stop-opacity="0.22"/>
      <stop offset="1" stop-color="#22d3ee" stop-opacity="0"/>
    </radialGradient>
    <linearGradient id="title" x1="0" y1="0" x2="1" y2="0">
      <stop offset="0" stop-color="#ffffff"/>
      <stop offset="1" stop-color="#34d399"/>
    </linearGradient>
  </defs>
  <rect width="1600" height="360" fill="url(#bg)"/>
  <rect width="1600" height="360" fill="url(#glowA)"/>
  <rect width="1600" height="360" fill="url(#glowB)"/>
  <g><line x1="1503.3" y1="281.3" x2="1530.5" y2="330.8" stroke="#34d399" stroke-width="0.5" stroke-opacity="0.10"/><line x1="1503.3" y1="281.3" x2="1438.1" y2="290.3" stroke="#34d399" stroke-width="0.5" stroke-opacity="0.10"/><line x1="1503.3" y1="281.3" x2="1523.6" y2="204.5" stroke="#34d399" stroke-width="0.5" stroke-opacity="0.10"/><line x1="1530.5" y1="330.8" x2="1438.1" y2="290.3" stroke="#34d399" stroke-width="0.5" stroke-opacity="0.10"/><line x1="1267.4" y1="309.3" x2="1354.4" y2="291.0" stroke="#34d399" stroke-width="0.5" stroke-opacity="0.10"/><line x1="1267.4" y1="309.3" x2="1358.0" y2="259.4" stroke="#34d399" stroke-width="0.5" stroke-opacity="0.10"/><line x1="1164.7" y1="40.1" x2="1105.0" y2="123.6" stroke="#34d399" stroke-width="0.5" stroke-opacity="0.10"/><line x1="1164.7" y1="40.1" x2="1080.7" y2="73.9" stroke="#34d399" stroke-width="0.5" stroke-opacity="0.10"/><line x1="557.0" y1="37.6" x2="552.0" y2="89.0" stroke="#34d399" stroke-width="0.5" stroke-opacity="0.10"/><line x1="557.0" y1="37.6" x2="535.9" y2="115.3" stroke="#34d399" stroke-width="0.5" stroke-opacity="0.10"/><line x1="557.0" y1="37.6" x2="456.4" y2="93.7" stroke="#34d399" stroke-width="0.5" stroke-opacity="0.10"/><line x1="557.0" y1="37.6" x2="598.6" y2="50.7" stroke="#34d399" stroke-width="0.5" stroke-opacity="0.10"/><line x1="945.5" y1="344.2" x2="1042.3" y2="275.4" stroke="#34d399" stroke-width="0.5" stroke-opacity="0.10"/><line x1="945.5" y1="344.2" x2="959.3" y2="272.4" stroke="#34d399" stroke-width="0.5" stroke-opacity="0.10"/><line x1="945.5" y1="344.2" x2="884.4" y2="313.2" stroke="#34d399" stroke-width="0.5" stroke-opacity="0.10"/><line x1="945.5" y1="344.2" x2="853.9" y2="316.8" stroke="#34d399" stroke-width="0.5" stroke-opacity="0.10"/><line x1="945.5" y1="344.2" x2="866.5" y2="279.9" stroke="#34d399" stroke-width="0.5" stroke-opacity="0.10"/><line x1="994.9" y1="149.7" x2="1105.0" y2="123.6" stroke="#34d399" stroke-width="0.5" stroke-opacity="0.10"/><line x1="994.9" y1="149.7" x2="1080.7" y2="73.9" stroke="#34d399" stroke-width="0.5" stroke-opacity="0.10"/><line x1="869.9" y1="68.5" x2="786.6" y2="134.0" stroke="#34d399" stroke-width="0.5" stroke-opacity="0.10"/><line x1="334.6" y1="35.3" x2="304.7" y2="79.5" stroke="#34d399" stroke-width="0.5" stroke-opacity="0.10"/><line x1="334.6" y1="35.3" x2="246.8" y2="50.8" stroke="#34d399" stroke-width="0.5" stroke-opacity="0.10"/><line x1="1042.3" y1="275.4" x2="1111.5" y2="227.4" stroke="#34d399" stroke-width="0.5" stroke-opacity="0.10"/><line x1="1042.3" y1="275.4" x2="1113.4" y2="300.2" stroke="#34d399" stroke-width="0.5" stroke-opacity="0.10"/><line x1="1042.3" y1="275.4" x2="959.3" y2="272.4" stroke="#34d399" stroke-width="0.5" stroke-opacity="0.10"/><line x1="1042.3" y1="275.4" x2="1103.3" y2="356.6" stroke="#34d399" stroke-width="0.5" stroke-opacity="0.10"/><line x1="1438.1" y1="290.3" x2="1354.4" y2="291.0" stroke="#34d399" stroke-width="0.5" stroke-opacity="0.10"/><line x1="1438.1" y1="290.3" x2="1358.0" y2="259.4" stroke="#34d399" stroke-width="0.5" stroke-opacity="0.10"/><line x1="1438.1" y1="290.3" x2="1377.4" y2="223.8" stroke="#34d399" stroke-width="0.5" stroke-opacity="0.10"/><line x1="302.0" y1="252.0" x2="203.1" y2="231.7" stroke="#34d399" stroke-width="0.5" stroke-opacity="0.10"/><line x1="1354.4" y1="291.0" x2="1358.0" y2="259.4" stroke="#34d399" stroke-width="0.5" stroke-opacity="0.10"/><line x1="1354.4" y1="291.0" x2="1377.4" y2="223.8" stroke="#34d399" stroke-width="0.5" stroke-opacity="0.10"/><line x1="552.0" y1="89.0" x2="535.9" y2="115.3" stroke="#34d399" stroke-width="0.5" stroke-opacity="0.10"/><line x1="552.0" y1="89.0" x2="456.4" y2="93.7" stroke="#34d399" stroke-width="0.5" stroke-opacity="0.10"/><line x1="552.0" y1="89.0" x2="598.6" y2="50.7" stroke="#34d399" stroke-width="0.5" stroke-opacity="0.10"/><line x1="497.2" y1="200.0" x2="535.9" y2="115.3" stroke="#34d399" stroke-width="0.5" stroke-opacity="0.10"/><line x1="497.2" y1="200.0" x2="456.4" y2="93.7" stroke="#34d399" stroke-width="0.5" stroke-opacity="0.10"/><line x1="497.2" y1="200.0" x2="503.9" y2="206.5" stroke="#34d399" stroke-width="0.5" stroke-opacity="0.10"/><line x1="1111.5" y1="227.4" x2="1113.4" y2="300.2" stroke="#34d399" stroke-width="0.5" stroke-opacity="0.10"/><line x1="1111.5" y1="227.4" x2="1105.0" y2="123.6" stroke="#34d399" stroke-width="0.5" stroke-opacity="0.10"/><line x1="1113.4" y1="300.2" x2="1103.3" y2="356.6" stroke="#34d399" stroke-width="0.5" stroke-opacity="0.10"/><line x1="238.4" y1="110.9" x2="304.7" y2="79.5" stroke="#34d399" stroke-width="0.5" stroke-opacity="0.10"/><line x1="238.4" y1="110.9" x2="194.9" y2="89.4" stroke="#34d399" stroke-width="0.5" stroke-opacity="0.10"/><line x1="238.4" y1="110.9" x2="246.8" y2="50.8" stroke="#34d399" stroke-width="0.5" stroke-opacity="0.10"/><line x1="1105.0" y1="123.6" x2="1080.7" y2="73.9" stroke="#34d399" stroke-width="0.5" stroke-opacity="0.10"/><line x1="959.3" y1="272.4" x2="884.4" y2="313.2" stroke="#34d399" stroke-width="0.5" stroke-opacity="0.10"/><line x1="959.3" y1="272.4" x2="853.9" y2="316.8" stroke="#34d399" stroke-width="0.5" stroke-opacity="0.10"/><line x1="959.3" y1="272.4" x2="866.5" y2="279.9" stroke="#34d399" stroke-width="0.5" stroke-opacity="0.10"/><line x1="36.2" y1="331.2" x2="134.3" y2="310.2" stroke="#34d399" stroke-width="0.5" stroke-opacity="0.10"/><line x1="884.4" y1="313.2" x2="853.9" y2="316.8" stroke="#34d399" stroke-width="0.5" stroke-opacity="0.10"/><line x1="884.4" y1="313.2" x2="866.5" y2="279.9" stroke="#34d399" stroke-width="0.5" stroke-opacity="0.10"/><line x1="1358.0" y1="259.4" x2="1377.4" y2="223.8" stroke="#34d399" stroke-width="0.5" stroke-opacity="0.10"/><line x1="535.9" y1="115.3" x2="456.4" y2="93.7" stroke="#34d399" stroke-width="0.5" stroke-opacity="0.10"/><line x1="535.9" y1="115.3" x2="598.6" y2="50.7" stroke="#34d399" stroke-width="0.5" stroke-opacity="0.10"/><line x1="535.9" y1="115.3" x2="503.9" y2="206.5" stroke="#34d399" stroke-width="0.5" stroke-opacity="0.10"/><line x1="134.3" y1="310.2" x2="164.1" y2="249.6" stroke="#34d399" stroke-width="0.5" stroke-opacity="0.10"/><line x1="134.3" y1="310.2" x2="203.1" y2="231.7" stroke="#34d399" stroke-width="0.5" stroke-opacity="0.10"/><line x1="164.1" y1="249.6" x2="203.1" y2="231.7" stroke="#34d399" stroke-width="0.5" stroke-opacity="0.10"/><line x1="304.7" y1="79.5" x2="194.9" y2="89.4" stroke="#34d399" stroke-width="0.5" stroke-opacity="0.10"/><line x1="304.7" y1="79.5" x2="246.8" y2="50.8" stroke="#34d399" stroke-width="0.5" stroke-opacity="0.10"/><line x1="667.2" y1="192.5" x2="673.1" y2="193.2" stroke="#34d399" stroke-width="0.5" stroke-opacity="0.10"/><line x1="194.9" y1="89.4" x2="246.8" y2="50.8" stroke="#34d399" stroke-width="0.5" stroke-opacity="0.10"/><line x1="853.9" y1="316.8" x2="866.5" y2="279.9" stroke="#34d399" stroke-width="0.5" stroke-opacity="0.10"/><circle cx="1503.3" cy="281.3" r="2.3" fill="#34d399" fill-opacity="0.42"/><circle cx="1530.5" cy="330.8" r="0.9" fill="#34d399" fill-opacity="0.59"/><circle cx="1267.4" cy="309.3" r="1.1" fill="#34d399" fill-opacity="0.64"/><circle cx="1164.7" cy="40.1" r="1.3" fill="#34d399" fill-opacity="0.51"/><circle cx="557.0" cy="37.6" r="1.7" fill="#34d399" fill-opacity="0.30"/><circle cx="945.5" cy="344.2" r="2.2" fill="#34d399" fill-opacity="0.43"/><circle cx="994.9" cy="149.7" r="1.3" fill="#34d399" fill-opacity="0.30"/><circle cx="869.9" cy="68.5" r="1.6" fill="#34d399" fill-opacity="0.47"/><circle cx="334.6" cy="35.3" r="1.1" fill="#34d399" fill-opacity="0.31"/><circle cx="1042.3" cy="275.4" r="1.9" fill="#34d399" fill-opacity="0.41"/><circle cx="1438.1" cy="290.3" r="1.7" fill="#34d399" fill-opacity="0.33"/><circle cx="302.0" cy="252.0" r="2.1" fill="#34d399" fill-opacity="0.37"/><circle cx="1354.4" cy="291.0" r="1.4" fill="#34d399" fill-opacity="0.64"/><circle cx="552.0" cy="89.0" r="0.8" fill="#34d399" fill-opacity="0.30"/><circle cx="497.2" cy="200.0" r="1.3" fill="#34d399" fill-opacity="0.64"/><circle cx="786.6" cy="134.0" r="1.0" fill="#34d399" fill-opacity="0.43"/><circle cx="1523.6" cy="204.5" r="2.1" fill="#34d399" fill-opacity="0.63"/><circle cx="19.9" cy="195.4" r="0.8" fill="#34d399" fill-opacity="0.60"/><circle cx="1111.5" cy="227.4" r="1.5" fill="#34d399" fill-opacity="0.50"/><circle cx="1113.4" cy="300.2" r="2.2" fill="#34d399" fill-opacity="0.53"/><circle cx="238.4" cy="110.9" r="1.2" fill="#34d399" fill-opacity="0.24"/><circle cx="1105.0" cy="123.6" r="1.5" fill="#34d399" fill-opacity="0.43"/><circle cx="959.3" cy="272.4" r="2.3" fill="#34d399" fill-opacity="0.50"/><circle cx="36.2" cy="331.2" r="0.8" fill="#34d399" fill-opacity="0.62"/><circle cx="884.4" cy="313.2" r="1.2" fill="#34d399" fill-opacity="0.40"/><circle cx="1080.7" cy="73.9" r="1.9" fill="#34d399" fill-opacity="0.44"/><circle cx="1358.0" cy="259.4" r="0.6" fill="#34d399" fill-opacity="0.39"/><circle cx="372.6" cy="355.0" r="1.6" fill="#34d399" fill-opacity="0.65"/><circle cx="535.9" cy="115.3" r="1.6" fill="#34d399" fill-opacity="0.43"/><circle cx="134.3" cy="310.2" r="0.7" fill="#34d399" fill-opacity="0.21"/><circle cx="164.1" cy="249.6" r="1.7" fill="#34d399" fill-opacity="0.56"/><circle cx="304.7" cy="79.5" r="1.0" fill="#34d399" fill-opacity="0.45"/><circle cx="456.4" cy="93.7" r="0.8" fill="#34d399" fill-opacity="0.46"/><circle cx="667.2" cy="192.5" r="1.8" fill="#34d399" fill-opacity="0.17"/><circle cx="673.1" cy="193.2" r="0.7" fill="#34d399" fill-opacity="0.36"/><circle cx="678.2" cy="345.0" r="1.2" fill="#34d399" fill-opacity="0.65"/><circle cx="598.6" cy="50.7" r="2.0" fill="#34d399" fill-opacity="0.35"/><circle cx="194.9" cy="89.4" r="1.6" fill="#34d399" fill-opacity="0.51"/><circle cx="1319.7" cy="42.5" r="1.0" fill="#34d399" fill-opacity="0.60"/><circle cx="1103.3" cy="356.6" r="1.9" fill="#34d399" fill-opacity="0.57"/><circle cx="503.9" cy="206.5" r="2.2" fill="#34d399" fill-opacity="0.54"/><circle cx="246.8" cy="50.8" r="2.0" fill="#34d399" fill-opacity="0.54"/><circle cx="1377.4" cy="223.8" r="1.7" fill="#34d399" fill-opacity="0.37"/><circle cx="853.9" cy="316.8" r="1.9" fill="#34d399" fill-opacity="0.15"/><circle cx="203.1" cy="231.7" r="1.3" fill="#34d399" fill-opacity="0.52"/><circle cx="866.5" cy="279.9" r="1.3" fill="#34d399" fill-opacity="0.17"/></g>
  <g opacity="0.95"><line x1="1330.0" y1="100.0" x2="1330.0" y2="100.0" stroke="#34d399" stroke-width="1.2" stroke-opacity="0.5"/><circle cx="1330.0" cy="100.0" r="4.5" fill="#34d399"/><circle cx="1330.0" cy="100.0" r="4.5" fill="#34d399" fill-opacity="0.7"/><line x1="1357.5" y1="116.0" x2="1302.5" y2="116.0" stroke="#34d399" stroke-width="1.2" stroke-opacity="0.5"/><circle cx="1357.5" cy="116.0" r="4.5" fill="#34d399"/><circle cx="1302.5" cy="116.0" r="4.5" fill="#34d399" fill-opacity="0.7"/><line x1="1362.3" y1="132.0" x2="1297.7" y2="132.0" stroke="#34d399" stroke-width="1.2" stroke-opacity="0.5"/><circle cx="1362.3" cy="132.0" r="4.5" fill="#34d399"/><circle cx="1297.7" cy="132.0" r="4.5" fill="#34d399" fill-opacity="0.7"/><line x1="1340.5" y1="148.0" x2="1319.5" y2="148.0" stroke="#34d399" stroke-width="1.2" stroke-opacity="0.5"/><circle cx="1340.5" cy="148.0" r="4.5" fill="#34d399"/><circle cx="1319.5" cy="148.0" r="4.5" fill="#34d399" fill-opacity="0.7"/><line x1="1310.0" y1="164.0" x2="1350.0" y2="164.0" stroke="#34d399" stroke-width="1.2" stroke-opacity="0.5"/><circle cx="1310.0" cy="164.0" r="4.5" fill="#34d399"/><circle cx="1350.0" cy="164.0" r="4.5" fill="#34d399" fill-opacity="0.7"/><line x1="1296.0" y1="180.0" x2="1364.0" y2="180.0" stroke="#34d399" stroke-width="1.2" stroke-opacity="0.5"/><circle cx="1296.0" cy="180.0" r="4.5" fill="#34d399"/><circle cx="1364.0" cy="180.0" r="4.5" fill="#34d399" fill-opacity="0.7"/><line x1="1310.0" y1="196.0" x2="1350.0" y2="196.0" stroke="#34d399" stroke-width="1.2" stroke-opacity="0.5"/><circle cx="1310.0" cy="196.0" r="4.5" fill="#34d399"/><circle cx="1350.0" cy="196.0" r="4.5" fill="#34d399" fill-opacity="0.7"/><line x1="1340.5" y1="212.0" x2="1319.5" y2="212.0" stroke="#34d399" stroke-width="1.2" stroke-opacity="0.5"/><circle cx="1340.5" cy="212.0" r="4.5" fill="#34d399"/><circle cx="1319.5" cy="212.0" r="4.5" fill="#34d399" fill-opacity="0.7"/><line x1="1362.3" y1="228.0" x2="1297.7" y2="228.0" stroke="#34d399" stroke-width="1.2" stroke-opacity="0.5"/><circle cx="1362.3" cy="228.0" r="4.5" fill="#34d399"/><circle cx="1297.7" cy="228.0" r="4.5" fill="#34d399" fill-opacity="0.7"/><line x1="1357.5" y1="244.0" x2="1302.5" y2="244.0" stroke="#34d399" stroke-width="1.2" stroke-opacity="0.5"/><circle cx="1357.5" cy="244.0" r="4.5" fill="#34d399"/><circle cx="1302.5" cy="244.0" r="4.5" fill="#34d399" fill-opacity="0.7"/><line x1="1330.0" y1="260.0" x2="1330.0" y2="260.0" stroke="#34d399" stroke-width="1.2" stroke-opacity="0.5"/><circle cx="1330.0" cy="260.0" r="4.5" fill="#34d399"/><circle cx="1330.0" cy="260.0" r="4.5" fill="#34d399" fill-opacity="0.7"/></g>
  <g font-family="'Segoe UI', system-ui, sans-serif">
    <text x="130" y="150" fill="#34d399" font-size="22" font-weight="700" letter-spacing="6">24/7 INTELLIGENCE DOMAIN</text>
    <text x="126" y="238" fill="url(#title)" font-size="92" font-weight="800" letter-spacing="1">Medicine</text>
    <rect x="132" y="262" width="150" height="5" rx="2.5" fill="#34d399"/>
  </g>
  <rect x="0" y="0" width="1600" height="360" fill="none" stroke="#34d399" stroke-opacity="0.18" stroke-width="2"/>
</svg>
