<svg xmlns="http://www.w3.org/2000/svg" viewBox="0 0 1600 360" width="1600" height="360" role="img" aria-label="Neuro domain banner">
  <defs>
    <linearGradient id="bg" x1="0" y1="0" x2="1" y2="1">
      <stop offset="0" stop-color="#060b18"/>
      <stop offset="0.55" stop-color="#0a1428"/>
      <stop offset="1" stop-color="#0c1a33"/>
    </linearGradient>
    <radialGradient id="glowA" cx="0.82" cy="0.5" r="0.5">
      <stop offset="0" stop-color="#f472b6" stop-opacity="0.35"/>
      <stop offset="1" stop-color="#f472b6" stop-opacity="0"/>
    </radialGradient>
    <radialGradient id="glowB" cx="0.1" cy="0.9" r="0.6">
      <stop offset="0" stop-color="#a78bfa" stop-opacity="0.22"/>
      <stop offset="1" stop-color="#a78bfa" stop-opacity="0"/>
    </radialGradient>
    <linearGradient id="title" x1="0" y1="0" x2="1" y2="0">
      <stop offset="0" stop-color="#ffffff"/>
      <stop offset="1" stop-color="#f472b6"/>
    </linearGradient>
  </defs>
  <rect width="1600" height="360" fill="url(#bg)"/>
  <rect width="1600" height="360" fill="url(#glowA)"/>
  <rect width="1600" height="360" fill="url(#glowB)"/>
  <g><line x1="1176.8" y1="218.0" x2="1243.8" y2="193.8" stroke="#f472b6" stroke-width="0.5" stroke-opacity="0.10"/><line x1="1176.8" y1="218.0" x2="1187.9" y2="192.6" stroke="#f472b6" stroke-width="0.5" stroke-opacity="0.10"/><line x1="1176.8" y1="218.0" x2="1221.5" y2="309.6" stroke="#f472b6" stroke-width="0.5" stroke-opacity="0.10"/><line x1="1176.8" y1="218.0" x2="1110.9" y2="181.0" stroke="#f472b6" stroke-width="0.5" stroke-opacity="0.10"/><line x1="1176.8" y1="218.0" x2="1227.5" y2="137.7" stroke="#f472b6" stroke-width="0.5" stroke-opacity="0.10"/><line x1="1176.8" y1="218.0" x2="1231.8" y2="150.0" stroke="#f472b6" stroke-width="0.5" stroke-opacity="0.10"/><line x1="1243.8" y1="193.8" x2="1187.9" y2="192.6" stroke="#f472b6" stroke-width="0.5" stroke-opacity="0.10"/><line x1="1243.8" y1="193.8" x2="1221.5" y2="309.6" stroke="#f472b6" stroke-width="0.5" stroke-opacity="0.10"/><line x1="1243.8" y1="193.8" x2="1280.9" y2="278.8" stroke="#f472b6" stroke-width="0.5" stroke-opacity="0.10"/><line x1="1243.8" y1="193.8" x2="1227.5" y2="137.7" stroke="#f472b6" stroke-width="0.5" stroke-opacity="0.10"/><line x1="1243.8" y1="193.8" x2="1234.7" y2="85.5" stroke="#f472b6" stroke-width="0.5" stroke-opacity="0.10"/><line x1="1243.8" y1="193.8" x2="1231.8" y2="150.0" stroke="#f472b6" stroke-width="0.5" stroke-opacity="0.10"/><line x1="839.0" y1="178.7" x2="878.3" y2="84.4" stroke="#f472b6" stroke-width="0.5" stroke-opacity="0.10"/><line x1="839.0" y1="178.7" x2="879.7" y2="98.2" stroke="#f472b6" stroke-width="0.5" stroke-opacity="0.10"/><line x1="1593.8" y1="54.5" x2="1542.9" y2="152.3" stroke="#f472b6" stroke-width="0.5" stroke-opacity="0.10"/><line x1="1593.8" y1="54.5" x2="1493.0" y2="117.1" stroke="#f472b6" stroke-width="0.5" stroke-opacity="0.10"/><line x1="1593.8" y1="54.5" x2="1515.9" y2="107.4" stroke="#f472b6" stroke-width="0.5" stroke-opacity="0.10"/><line x1="1483.1" y1="229.1" x2="1542.9" y2="152.3" stroke="#f472b6" stroke-width="0.5" stroke-opacity="0.10"/><line x1="1483.1" y1="229.1" x2="1493.0" y2="117.1" stroke="#f472b6" stroke-width="0.5" stroke-opacity="0.10"/><line x1="1483.1" y1="229.1" x2="1534.1" y2="239.8" stroke="#f472b6" stroke-width="0.5" stroke-opacity="0.10"/><line x1="672.9" y1="8.2" x2="631.9" y2="113.0" stroke="#f472b6" stroke-width="0.5" stroke-opacity="0.10"/><line x1="662.2" y1="296.4" x2="638.3" y2="199.7" stroke="#f472b6" stroke-width="0.5" stroke-opacity="0.10"/><line x1="662.2" y1="296.4" x2="649.7" y2="323.4" stroke="#f472b6" stroke-width="0.5" stroke-opacity="0.10"/><line x1="447.0" y1="283.4" x2="485.3" y2="354.6" stroke="#f472b6" stroke-width="0.5" stroke-opacity="0.10"/><line x1="447.0" y1="283.4" x2="392.5" y2="276.1" stroke="#f472b6" stroke-width="0.5" stroke-opacity="0.10"/><line x1="227.6" y1="178.5" x2="341.9" y2="143.6" stroke="#f472b6" stroke-width="0.5" stroke-opacity="0.10"/><line x1="227.6" y1="178.5" x2="201.6" y2="224.5" stroke="#f472b6" stroke-width="0.5" stroke-opacity="0.10"/><line x1="227.6" y1="178.5" x2="222.2" y2="275.6" stroke="#f472b6" stroke-width="0.5" stroke-opacity="0.10"/><line x1="227.6" y1="178.5" x2="194.3" y2="193.8" stroke="#f472b6" stroke-width="0.5" stroke-opacity="0.10"/><line x1="227.6" y1="178.5" x2="244.4" y2="123.4" stroke="#f472b6" stroke-width="0.5" stroke-opacity="0.10"/><line x1="227.6" y1="178.5" x2="140.6" y2="247.1" stroke="#f472b6" stroke-width="0.5" stroke-opacity="0.10"/><line x1="1187.9" y1="192.6" x2="1110.9" y2="181.0" stroke="#f472b6" stroke-width="0.5" stroke-opacity="0.10"/><line x1="1187.9" y1="192.6" x2="1227.5" y2="137.7" stroke="#f472b6" stroke-width="0.5" stroke-opacity="0.10"/><line x1="1187.9" y1="192.6" x2="1234.7" y2="85.5" stroke="#f472b6" stroke-width="0.5" stroke-opacity="0.10"/><line x1="1187.9" y1="192.6" x2="1231.8" y2="150.0" stroke="#f472b6" stroke-width="0.5" stroke-opacity="0.10"/><line x1="1469.1" y1="90.3" x2="1542.9" y2="152.3" stroke="#f472b6" stroke-width="0.5" stroke-opacity="0.10"/><line x1="1469.1" y1="90.3" x2="1493.0" y2="117.1" stroke="#f472b6" stroke-width="0.5" stroke-opacity="0.10"/><line x1="1469.1" y1="90.3" x2="1515.9" y2="107.4" stroke="#f472b6" stroke-width="0.5" stroke-opacity="0.10"/><line x1="63.9" y1="129.4" x2="33.9" y2="55.8" stroke="#f472b6" stroke-width="0.5" stroke-opacity="0.10"/><line x1="1556.2" y1="332.8" x2="1534.1" y2="239.8" stroke="#f472b6" stroke-width="0.5" stroke-opacity="0.10"/><line x1="630.7" y1="168.8" x2="638.3" y2="199.7" stroke="#f472b6" stroke-width="0.5" stroke-opacity="0.10"/><line x1="630.7" y1="168.8" x2="561.9" y2="83.7" stroke="#f472b6" stroke-width="0.5" stroke-opacity="0.10"/><line x1="630.7" y1="168.8" x2="631.9" y2="113.0" stroke="#f472b6" stroke-width="0.5" stroke-opacity="0.10"/><line x1="878.3" y1="84.4" x2="879.7" y2="98.2" stroke="#f472b6" stroke-width="0.5" stroke-opacity="0.10"/><line x1="878.3" y1="84.4" x2="993.7" y2="76.8" stroke="#f472b6" stroke-width="0.5" stroke-opacity="0.10"/><line x1="1221.5" y1="309.6" x2="1281.3" y2="335.2" stroke="#f472b6" stroke-width="0.5" stroke-opacity="0.10"/><line x1="1221.5" y1="309.6" x2="1280.9" y2="278.8" stroke="#f472b6" stroke-width="0.5" stroke-opacity="0.10"/><line x1="638.3" y1="199.7" x2="631.9" y2="113.0" stroke="#f472b6" stroke-width="0.5" stroke-opacity="0.10"/><line x1="341.9" y1="143.6" x2="386.5" y2="65.0" stroke="#f472b6" stroke-width="0.5" stroke-opacity="0.10"/><line x1="341.9" y1="143.6" x2="244.4" y2="123.4" stroke="#f472b6" stroke-width="0.5" stroke-opacity="0.10"/><line x1="341.9" y1="143.6" x2="440.9" y2="118.3" stroke="#f472b6" stroke-width="0.5" stroke-opacity="0.10"/><line x1="201.6" y1="224.5" x2="222.2" y2="275.6" stroke="#f472b6" stroke-width="0.5" stroke-opacity="0.10"/><line x1="201.6" y1="224.5" x2="194.3" y2="193.8" stroke="#f472b6" stroke-width="0.5" stroke-opacity="0.10"/><line x1="201.6" y1="224.5" x2="244.4" y2="123.4" stroke="#f472b6" stroke-width="0.5" stroke-opacity="0.10"/><line x1="201.6" y1="224.5" x2="140.6" y2="247.1" stroke="#f472b6" stroke-width="0.5" stroke-opacity="0.10"/><line x1="1542.9" y1="152.3" x2="1493.0" y2="117.1" stroke="#f472b6" stroke-width="0.5" stroke-opacity="0.10"/><line x1="1542.9" y1="152.3" x2="1515.9" y2="107.4" stroke="#f472b6" stroke-width="0.5" stroke-opacity="0.10"/><line x1="1542.9" y1="152.3" x2="1534.1" y2="239.8" stroke="#f472b6" stroke-width="0.5" stroke-opacity="0.10"/><line x1="879.7" y1="98.2" x2="993.7" y2="76.8" stroke="#f472b6" stroke-width="0.5" stroke-opacity="0.10"/><line x1="561.9" y1="83.7" x2="472.4" y2="59.6" stroke="#f472b6" stroke-width="0.5" stroke-opacity="0.10"/><line x1="561.9" y1="83.7" x2="631.9" y2="113.0" stroke="#f472b6" stroke-width="0.5" stroke-opacity="0.10"/><line x1="472.4" y1="59.6" x2="386.5" y2="65.0" stroke="#f472b6" stroke-width="0.5" stroke-opacity="0.10"/><line x1="472.4" y1="59.6" x2="440.9" y2="118.3" stroke="#f472b6" stroke-width="0.5" stroke-opacity="0.10"/><line x1="222.2" y1="275.6" x2="194.3" y2="193.8" stroke="#f472b6" stroke-width="0.5" stroke-opacity="0.10"/><line x1="222.2" y1="275.6" x2="140.6" y2="247.1" stroke="#f472b6" stroke-width="0.5" stroke-opacity="0.10"/><line x1="1281.3" y1="335.2" x2="1280.9" y2="278.8" stroke="#f472b6" stroke-width="0.5" stroke-opacity="0.10"/><line x1="194.3" y1="193.8" x2="244.4" y2="123.4" stroke="#f472b6" stroke-width="0.5" stroke-opacity="0.10"/><line x1="194.3" y1="193.8" x2="140.6" y2="247.1" stroke="#f472b6" stroke-width="0.5" stroke-opacity="0.10"/><line x1="1493.0" y1="117.1" x2="1515.9" y2="107.4" stroke="#f472b6" stroke-width="0.5" stroke-opacity="0.10"/><line x1="386.5" y1="65.0" x2="440.9" y2="118.3" stroke="#f472b6" stroke-width="0.5" stroke-opacity="0.10"/><line x1="1227.5" y1="137.7" x2="1234.7" y2="85.5" stroke="#f472b6" stroke-width="0.5" stroke-opacity="0.10"/><line x1="1227.5" y1="137.7" x2="1231.8" y2="150.0" stroke="#f472b6" stroke-width="0.5" stroke-opacity="0.10"/><line x1="1234.7" y1="85.5" x2="1231.8" y2="150.0" stroke="#f472b6" stroke-width="0.5" stroke-opacity="0.10"/><circle cx="1176.8" cy="218.0" r="1.0" fill="#f472b6" fill-opacity="0.58"/><circle cx="1243.8" cy="193.8" r="0.7" fill="#f472b6" fill-opacity="0.57"/><circle cx="839.0" cy="178.7" r="1.1" fill="#f472b6" fill-opacity="0.38"/><circle cx="1593.8" cy="54.5" r="2.2" fill="#f472b6" fill-opacity="0.42"/><circle cx="1483.1" cy="229.1" r="2.3" fill="#f472b6" fill-opacity="0.24"/><circle cx="672.9" cy="8.2" r="1.9" fill="#f472b6" fill-opacity="0.16"/><circle cx="662.2" cy="296.4" r="2.3" fill="#f472b6" fill-opacity="0.49"/><circle cx="447.0" cy="283.4" r="2.3" fill="#f472b6" fill-opacity="0.28"/><circle cx="227.6" cy="178.5" r="1.6" fill="#f472b6" fill-opacity="0.61"/><circle cx="1187.9" cy="192.6" r="1.9" fill="#f472b6" fill-opacity="0.17"/><circle cx="1469.1" cy="90.3" r="1.7" fill="#f472b6" fill-opacity="0.46"/><circle cx="63.9" cy="129.4" r="0.7" fill="#f472b6" fill-opacity="0.47"/><circle cx="1556.2" cy="332.8" r="1.2" fill="#f472b6" fill-opacity="0.54"/><circle cx="630.7" cy="168.8" r="1.1" fill="#f472b6" fill-opacity="0.49"/><circle cx="878.3" cy="84.4" r="1.9" fill="#f472b6" fill-opacity="0.33"/><circle cx="1221.5" cy="309.6" r="2.1" fill="#f472b6" fill-opacity="0.16"/><circle cx="485.3" cy="354.6" r="1.1" fill="#f472b6" fill-opacity="0.56"/><circle cx="638.3" cy="199.7" r="1.3" fill="#f472b6" fill-opacity="0.47"/><circle cx="828.7" cy="300.2" r="2.3" fill="#f472b6" fill-opacity="0.60"/><circle cx="341.9" cy="143.6" r="0.8" fill="#f472b6" fill-opacity="0.51"/><circle cx="201.6" cy="224.5" r="1.3" fill="#f472b6" fill-opacity="0.35"/><circle cx="1542.9" cy="152.3" r="1.4" fill="#f472b6" fill-opacity="0.47"/><circle cx="879.7" cy="98.2" r="1.8" fill="#f472b6" fill-opacity="0.17"/><circle cx="392.5" cy="276.1" r="0.6" fill="#f472b6" fill-opacity="0.21"/><circle cx="561.9" cy="83.7" r="0.7" fill="#f472b6" fill-opacity="0.33"/><circle cx="472.4" cy="59.6" r="0.9" fill="#f472b6" fill-opacity="0.36"/><circle cx="1110.9" cy="181.0" r="1.1" fill="#f472b6" fill-opacity="0.46"/><circle cx="986.3" cy="359.2" r="1.1" fill="#f472b6" fill-opacity="0.47"/><circle cx="993.7" cy="76.8" r="0.8" fill="#f472b6" fill-opacity="0.63"/><circle cx="649.7" cy="323.4" r="0.8" fill="#f472b6" fill-opacity="0.61"/><circle cx="222.2" cy="275.6" r="1.2" fill="#f472b6" fill-opacity="0.36"/><circle cx="1281.3" cy="335.2" r="1.9" fill="#f472b6" fill-opacity="0.61"/><circle cx="194.3" cy="193.8" r="1.5" fill="#f472b6" fill-opacity="0.19"/><circle cx="1493.0" cy="117.1" r="0.8" fill="#f472b6" fill-opacity="0.25"/><circle cx="33.9" cy="55.8" r="2.4" fill="#f472b6" fill-opacity="0.32"/><circle cx="1280.9" cy="278.8" r="1.1" fill="#f472b6" fill-opacity="0.54"/><circle cx="631.9" cy="113.0" r="1.1" fill="#f472b6" fill-opacity="0.23"/><circle cx="1515.9" cy="107.4" r="1.1" fill="#f472b6" fill-opacity="0.46"/><circle cx="386.5" cy="65.0" r="1.3" fill="#f472b6" fill-opacity="0.36"/><circle cx="1534.1" cy="239.8" r="1.8" fill="#f472b6" fill-opacity="0.31"/><circle cx="244.4" cy="123.4" r="0.8" fill="#f472b6" fill-opacity="0.32"/><circle cx="1227.5" cy="137.7" r="1.5" fill="#f472b6" fill-opacity="0.55"/><circle cx="440.9" cy="118.3" r="2.0" fill="#f472b6" fill-opacity="0.60"/><circle cx="1234.7" cy="85.5" r="1.3" fill="#f472b6" fill-opacity="0.65"/><circle cx="140.6" cy="247.1" r="1.4" fill="#f472b6" fill-opacity="0.38"/><circle cx="1231.8" cy="150.0" r="2.1" fill="#f472b6" fill-opacity="0.53"/></g>
  <g opacity="0.95"><circle cx="1330" cy="180" r="20" fill="#f472b6" fill-opacity="0.9"/><path d="M1330 180 Q1336.6224992093262 133.0439931162011 1323.2 106.1" fill="none" stroke="#f472b6" stroke-width="1.4" stroke-opacity="0.5"/><circle cx="1323.2" cy="106.1" r="3.5" fill="#f472b6"/><path d="M1330 180 Q1351.6661754890908 210.3610089681353 1353.3 260.7" fill="none" stroke="#f472b6" stroke-width="1.4" stroke-opacity="0.5"/><circle cx="1353.3" cy="260.7" r="3.5" fill="#f472b6"/><path d="M1330 180 Q1346.1283423258337 134.76219910144303 1342.3 109.5" fill="none" stroke="#f472b6" stroke-width="1.4" stroke-opacity="0.5"/><circle cx="1342.3" cy="109.5" r="3.5" fill="#f472b6"/><path d="M1330 180 Q1379.7708822493164 183.23432821798383 1409.5 206.5" fill="none" stroke="#f472b6" stroke-width="1.4" stroke-opacity="0.5"/><circle cx="1409.5" cy="206.5" r="3.5" fill="#f472b6"/><path d="M1330 180 Q1305.482843207777 164.67335492837293 1261.0 169.3" fill="none" stroke="#f472b6" stroke-width="1.4" stroke-opacity="0.5"/><circle cx="1261.0" cy="169.3" r="3.5" fill="#f472b6"/><path d="M1330 180 Q1331.3698577277196 203.06804422414152 1312.7 246.1" fill="none" stroke="#f472b6" stroke-width="1.4" stroke-opacity="0.5"/><circle cx="1312.7" cy="246.1" r="3.5" fill="#f472b6"/><path d="M1330 180 Q1368.0215334355667 169.31252974193285 1386.0 178.6" fill="none" stroke="#f472b6" stroke-width="1.4" stroke-opacity="0.5"/><circle cx="1386.0" cy="178.6" r="3.5" fill="#f472b6"/><path d="M1330 180 Q1366.2399761425922 145.58864500092608 1382.5 131.2" fill="none" stroke="#f472b6" stroke-width="1.4" stroke-opacity="0.5"/><circle cx="1382.5" cy="131.2" r="3.5" fill="#f472b6"/><path d="M1330 180 Q1373.8245580053222 153.28416473341252 1397.6 146.6" fill="none" stroke="#f472b6" stroke-width="1.4" stroke-opacity="0.5"/><circle cx="1397.6" cy="146.6" r="3.5" fill="#f472b6"/></g>
  <g font-family="'Segoe UI', system-ui, sans-serif">
    <text x="130" y="150" fill="#f472b6" font-size="22" font-weight="700" letter-spacing="6">24/7 INTELLIGENCE DOMAIN</text>
    <text x="126" y="238" fill="url(#title)" font-size="92" font-weight="800" letter-spacing="1">Neuro</text>
    <rect x="132" y="262" width="150" height="5" rx="2.5" fill="#f472b6"/>
  </g>
  <rect x="0" y="0" width="1600" height="360" fill="none" stroke="#f472b6" stroke-opacity="0.18" stroke-width="2"/>
</svg>
