<svg xmlns="http://www.w3.org/2000/svg" viewBox="0 0 1600 360" width="1600" height="360" role="img" aria-label="Security domain banner">
  <defs>
    <linearGradient id="bg" x1="0" y1="0" x2="1" y2="1">
      <stop offset="0" stop-color="#060b18"/>
      <stop offset="0.55" stop-color="#0a1428"/>
      <stop offset="1" stop-color="#0c1a33"/>
    </linearGradient>
    <radialGradient id="glowA" cx="0.82" cy="0.5" r="0.5">
      <stop offset="0" stop-color="#f87171" stop-opacity="0.35"/>
      <stop offset="1" stop-color="#f87171" stop-opacity="0"/>
    </radialGradient>
    <radialGradient id="glowB" cx="0.1" cy="0.9" r="0.6">
      <stop offset="0" stop-color="#fb923c" stop-opacity="0.22"/>
      <stop offset="1" stop-color="#fb923c" stop-opacity="0"/>
    </radialGradient>
    <linearGradient id="title" x1="0" y1="0" x2="1" y2="0">
      <stop offset="0" stop-color="#ffffff"/>
      <stop offset="1" stop-color="#f87171"/>
    </linearGradient>
  </defs>
  <rect width="1600" height="360" fill="url(#bg)"/>
  <rect width="1600" height="360" fill="url(#glowA)"/>
  <rect width="1600" height="360" fill="url(#glowB)"/>
  <g><line x1="179.0" y1="35.0" x2="189.2" y2="21.1" stroke="#f87171" stroke-width="0.5" stroke-opacity="0.10"/><line x1="607.1" y1="71.3" x2="667.6" y2="58.5" stroke="#f87171" stroke-width="0.5" stroke-opacity="0.10"/><line x1="607.1" y1="71.3" x2="539.9" y2="89.8" stroke="#f87171" stroke-width="0.5" stroke-opacity="0.10"/><line x1="55.5" y1="83.3" x2="98.4" y2="186.7" stroke="#f87171" stroke-width="0.5" stroke-opacity="0.10"/><line x1="55.5" y1="83.3" x2="22.1" y2="59.5" stroke="#f87171" stroke-width="0.5" stroke-opacity="0.10"/><line x1="55.5" y1="83.3" x2="26.0" y2="190.4" stroke="#f87171" stroke-width="0.5" stroke-opacity="0.10"/><line x1="1563.2" y1="43.6" x2="1525.9" y2="119.1" stroke="#f87171" stroke-width="0.5" stroke-opacity="0.10"/><line x1="1206.2" y1="283.6" x2="1191.0" y2="296.2" stroke="#f87171" stroke-width="0.5" stroke-opacity="0.10"/><line x1="1206.2" y1="283.6" x2="1211.3" y2="239.1" stroke="#f87171" stroke-width="0.5" stroke-opacity="0.10"/><line x1="1206.2" y1="283.6" x2="1288.6" y2="233.9" stroke="#f87171" stroke-width="0.5" stroke-opacity="0.10"/><line x1="892.4" y1="161.2" x2="987.3" y2="213.1" stroke="#f87171" stroke-width="0.5" stroke-opacity="0.10"/><line x1="892.4" y1="161.2" x2="794.4" y2="157.8" stroke="#f87171" stroke-width="0.5" stroke-opacity="0.10"/><line x1="892.4" y1="161.2" x2="896.5" y2="153.4" stroke="#f87171" stroke-width="0.5" stroke-opacity="0.10"/><line x1="892.4" y1="161.2" x2="940.8" y2="219.8" stroke="#f87171" stroke-width="0.5" stroke-opacity="0.10"/><line x1="892.4" y1="161.2" x2="854.2" y2="217.5" stroke="#f87171" stroke-width="0.5" stroke-opacity="0.10"/><line x1="357.9" y1="153.2" x2="320.9" y2="108.1" stroke="#f87171" stroke-width="0.5" stroke-opacity="0.10"/><line x1="357.9" y1="153.2" x2="339.3" y2="228.4" stroke="#f87171" stroke-width="0.5" stroke-opacity="0.10"/><line x1="357.9" y1="153.2" x2="432.0" y2="204.6" stroke="#f87171" stroke-width="0.5" stroke-opacity="0.10"/><line x1="357.9" y1="153.2" x2="380.1" y2="108.2" stroke="#f87171" stroke-width="0.5" stroke-opacity="0.10"/><line x1="98.4" y1="186.7" x2="158.8" y2="281.2" stroke="#f87171" stroke-width="0.5" stroke-opacity="0.10"/><line x1="98.4" y1="186.7" x2="26.0" y2="190.4" stroke="#f87171" stroke-width="0.5" stroke-opacity="0.10"/><line x1="1073.3" y1="227.5" x2="987.3" y2="213.1" stroke="#f87171" stroke-width="0.5" stroke-opacity="0.10"/><line x1="1230.1" y1="8.7" x2="1192.4" y2="60.7" stroke="#f87171" stroke-width="0.5" stroke-opacity="0.10"/><line x1="1230.1" y1="8.7" x2="1220.2" y2="126.2" stroke="#f87171" stroke-width="0.5" stroke-opacity="0.10"/><line x1="1230.1" y1="8.7" x2="1199.3" y2="114.8" stroke="#f87171" stroke-width="0.5" stroke-opacity="0.10"/><line x1="1192.4" y1="60.7" x2="1220.2" y2="126.2" stroke="#f87171" stroke-width="0.5" stroke-opacity="0.10"/><line x1="1192.4" y1="60.7" x2="1112.2" y2="92.4" stroke="#f87171" stroke-width="0.5" stroke-opacity="0.10"/><line x1="1192.4" y1="60.7" x2="1199.3" y2="114.8" stroke="#f87171" stroke-width="0.5" stroke-opacity="0.10"/><line x1="1564.4" y1="332.8" x2="1585.1" y2="225.8" stroke="#f87171" stroke-width="0.5" stroke-opacity="0.10"/><line x1="987.3" y1="213.1" x2="896.5" y2="153.4" stroke="#f87171" stroke-width="0.5" stroke-opacity="0.10"/><line x1="987.3" y1="213.1" x2="940.8" y2="219.8" stroke="#f87171" stroke-width="0.5" stroke-opacity="0.10"/><line x1="1220.2" y1="126.2" x2="1112.2" y2="92.4" stroke="#f87171" stroke-width="0.5" stroke-opacity="0.10"/><line x1="1220.2" y1="126.2" x2="1199.3" y2="114.8" stroke="#f87171" stroke-width="0.5" stroke-opacity="0.10"/><line x1="1220.2" y1="126.2" x2="1211.3" y2="239.1" stroke="#f87171" stroke-width="0.5" stroke-opacity="0.10"/><line x1="727.9" y1="71.8" x2="667.6" y2="58.5" stroke="#f87171" stroke-width="0.5" stroke-opacity="0.10"/><line x1="727.9" y1="71.8" x2="794.4" y2="157.8" stroke="#f87171" stroke-width="0.5" stroke-opacity="0.10"/><line x1="727.9" y1="71.8" x2="767.3" y2="10.4" stroke="#f87171" stroke-width="0.5" stroke-opacity="0.10"/><line x1="727.9" y1="71.8" x2="761.6" y2="11.9" stroke="#f87171" stroke-width="0.5" stroke-opacity="0.10"/><line x1="1379.5" y1="243.9" x2="1352.3" y2="197.2" stroke="#f87171" stroke-width="0.5" stroke-opacity="0.10"/><line x1="1379.5" y1="243.9" x2="1288.6" y2="233.9" stroke="#f87171" stroke-width="0.5" stroke-opacity="0.10"/><line x1="1112.2" y1="92.4" x2="1199.3" y2="114.8" stroke="#f87171" stroke-width="0.5" stroke-opacity="0.10"/><line x1="320.9" y1="108.1" x2="380.1" y2="108.2" stroke="#f87171" stroke-width="0.5" stroke-opacity="0.10"/><line x1="667.6" y1="58.5" x2="767.3" y2="10.4" stroke="#f87171" stroke-width="0.5" stroke-opacity="0.10"/><line x1="667.6" y1="58.5" x2="761.6" y2="11.9" stroke="#f87171" stroke-width="0.5" stroke-opacity="0.10"/><line x1="794.4" y1="157.8" x2="896.5" y2="153.4" stroke="#f87171" stroke-width="0.5" stroke-opacity="0.10"/><line x1="794.4" y1="157.8" x2="854.2" y2="217.5" stroke="#f87171" stroke-width="0.5" stroke-opacity="0.10"/><line x1="960.5" y1="31.6" x2="977.4" y2="55.2" stroke="#f87171" stroke-width="0.5" stroke-opacity="0.10"/><line x1="339.3" y1="228.4" x2="432.0" y2="204.6" stroke="#f87171" stroke-width="0.5" stroke-opacity="0.10"/><line x1="432.0" y1="204.6" x2="496.3" y2="209.0" stroke="#f87171" stroke-width="0.5" stroke-opacity="0.10"/><line x1="432.0" y1="204.6" x2="380.1" y2="108.2" stroke="#f87171" stroke-width="0.5" stroke-opacity="0.10"/><line x1="896.5" y1="153.4" x2="940.8" y2="219.8" stroke="#f87171" stroke-width="0.5" stroke-opacity="0.10"/><line x1="896.5" y1="153.4" x2="854.2" y2="217.5" stroke="#f87171" stroke-width="0.5" stroke-opacity="0.10"/><line x1="940.8" y1="219.8" x2="854.2" y2="217.5" stroke="#f87171" stroke-width="0.5" stroke-opacity="0.10"/><line x1="1352.3" y1="197.2" x2="1288.6" y2="233.9" stroke="#f87171" stroke-width="0.5" stroke-opacity="0.10"/><line x1="1352.3" y1="197.2" x2="1387.5" y2="88.0" stroke="#f87171" stroke-width="0.5" stroke-opacity="0.10"/><line x1="1191.0" y1="296.2" x2="1211.3" y2="239.1" stroke="#f87171" stroke-width="0.5" stroke-opacity="0.10"/><line x1="1191.0" y1="296.2" x2="1288.6" y2="233.9" stroke="#f87171" stroke-width="0.5" stroke-opacity="0.10"/><line x1="1211.3" y1="239.1" x2="1288.6" y2="233.9" stroke="#f87171" stroke-width="0.5" stroke-opacity="0.10"/><line x1="767.3" y1="10.4" x2="761.6" y2="11.9" stroke="#f87171" stroke-width="0.5" stroke-opacity="0.10"/><circle cx="179.0" cy="35.0" r="1.0" fill="#f87171" fill-opacity="0.39"/><circle cx="607.1" cy="71.3" r="2.1" fill="#f87171" fill-opacity="0.27"/><circle cx="55.5" cy="83.3" r="2.2" fill="#f87171" fill-opacity="0.43"/><circle cx="1563.2" cy="43.6" r="1.6" fill="#f87171" fill-opacity="0.21"/><circle cx="1206.2" cy="283.6" r="1.2" fill="#f87171" fill-opacity="0.16"/><circle cx="892.4" cy="161.2" r="1.2" fill="#f87171" fill-opacity="0.49"/><circle cx="357.9" cy="153.2" r="2.3" fill="#f87171" fill-opacity="0.29"/><circle cx="189.2" cy="21.1" r="0.7" fill="#f87171" fill-opacity="0.54"/><circle cx="98.4" cy="186.7" r="1.6" fill="#f87171" fill-opacity="0.21"/><circle cx="1073.3" cy="227.5" r="2.0" fill="#f87171" fill-opacity="0.57"/><circle cx="1230.1" cy="8.7" r="2.2" fill="#f87171" fill-opacity="0.54"/><circle cx="1192.4" cy="60.7" r="1.4" fill="#f87171" fill-opacity="0.38"/><circle cx="22.1" cy="59.5" r="1.0" fill="#f87171" fill-opacity="0.63"/><circle cx="1525.9" cy="119.1" r="1.4" fill="#f87171" fill-opacity="0.50"/><circle cx="1564.4" cy="332.8" r="0.7" fill="#f87171" fill-opacity="0.37"/><circle cx="987.3" cy="213.1" r="1.0" fill="#f87171" fill-opacity="0.34"/><circle cx="1220.2" cy="126.2" r="2.2" fill="#f87171" fill-opacity="0.61"/><circle cx="727.9" cy="71.8" r="0.9" fill="#f87171" fill-opacity="0.60"/><circle cx="1379.5" cy="243.9" r="2.0" fill="#f87171" fill-opacity="0.19"/><circle cx="539.8" cy="342.4" r="1.5" fill="#f87171" fill-opacity="0.24"/><circle cx="1112.2" cy="92.4" r="1.9" fill="#f87171" fill-opacity="0.16"/><circle cx="158.8" cy="281.2" r="2.1" fill="#f87171" fill-opacity="0.21"/><circle cx="320.9" cy="108.1" r="0.6" fill="#f87171" fill-opacity="0.23"/><circle cx="667.6" cy="58.5" r="1.8" fill="#f87171" fill-opacity="0.23"/><circle cx="794.4" cy="157.8" r="1.5" fill="#f87171" fill-opacity="0.21"/><circle cx="1199.3" cy="114.8" r="2.2" fill="#f87171" fill-opacity="0.34"/><circle cx="960.5" cy="31.6" r="1.8" fill="#f87171" fill-opacity="0.28"/><circle cx="539.9" cy="89.8" r="1.0" fill="#f87171" fill-opacity="0.47"/><circle cx="339.3" cy="228.4" r="1.9" fill="#f87171" fill-opacity="0.28"/><circle cx="432.0" cy="204.6" r="0.6" fill="#f87171" fill-opacity="0.31"/><circle cx="896.5" cy="153.4" r="1.6" fill="#f87171" fill-opacity="0.28"/><circle cx="977.4" cy="55.2" r="2.1" fill="#f87171" fill-opacity="0.23"/><circle cx="496.3" cy="209.0" r="1.2" fill="#f87171" fill-opacity="0.16"/><circle cx="940.8" cy="219.8" r="1.5" fill="#f87171" fill-opacity="0.42"/><circle cx="854.2" cy="217.5" r="1.6" fill="#f87171" fill-opacity="0.51"/><circle cx="1352.3" cy="197.2" r="1.3" fill="#f87171" fill-opacity="0.64"/><circle cx="1191.0" cy="296.2" r="1.4" fill="#f87171" fill-opacity="0.54"/><circle cx="1211.3" cy="239.1" r="2.4" fill="#f87171" fill-opacity="0.63"/><circle cx="1585.1" cy="225.8" r="1.3" fill="#f87171" fill-opacity="0.24"/><circle cx="1288.6" cy="233.9" r="1.0" fill="#f87171" fill-opacity="0.25"/><circle cx="26.0" cy="190.4" r="1.6" fill="#f87171" fill-opacity="0.17"/><circle cx="30.6" cy="323.4" r="0.6" fill="#f87171" fill-opacity="0.17"/><circle cx="767.3" cy="10.4" r="1.0" fill="#f87171" fill-opacity="0.38"/><circle cx="761.6" cy="11.9" r="2.2" fill="#f87171" fill-opacity="0.26"/><circle cx="380.1" cy="108.2" r="1.5" fill="#f87171" fill-opacity="0.53"/><circle cx="1387.5" cy="88.0" r="1.5" fill="#f87171" fill-opacity="0.20"/></g>
  <g opacity="0.95"><path d="M1330 96 L1388 124 L1388 186 Q1388 242 1330 268 Q1272 242 1272 186 L1272 124 Z" fill="none" stroke="#f87171" stroke-width="2.6" stroke-opacity="0.85"/><path d="M1308 180 L1324 200 L1356 158" fill="none" stroke="#f87171" stroke-width="3" stroke-opacity="0.8"/></g>
  <g font-family="'Segoe UI', system-ui, sans-serif">
    <text x="130" y="150" fill="#f87171" font-size="22" font-weight="700" letter-spacing="6">24/7 INTELLIGENCE DOMAIN</text>
    <text x="126" y="238" fill="url(#title)" font-size="92" font-weight="800" letter-spacing="1">Security</text>
    <rect x="132" y="262" width="150" height="5" rx="2.5" fill="#f87171"/>
  </g>
  <rect x="0" y="0" width="1600" height="360" fill="none" stroke="#f87171" stroke-opacity="0.18" stroke-width="2"/>
</svg>
