<svg xmlns="http://www.w3.org/2000/svg" viewBox="0 0 1600 360" width="1600" height="360" role="img" aria-label="Smart Systems domain banner">
  <defs>
    <linearGradient id="bg" x1="0" y1="0" x2="1" y2="1">
      <stop offset="0" stop-color="#060b18"/>
      <stop offset="0.55" stop-color="#0a1428"/>
      <stop offset="1" stop-color="#0c1a33"/>
    </linearGradient>
    <radialGradient id="glowA" cx="0.82" cy="0.5" r="0.5">
      <stop offset="0" stop-color="#4ade80" stop-opacity="0.35"/>
      <stop offset="1" stop-color="#4ade80" stop-opacity="0"/>
    </radialGradient>
    <radialGradient id="glowB" cx="0.1" cy="0.9" r="0.6">
      <stop offset="0" stop-color="#22d3ee" stop-opacity="0.22"/>
      <stop offset="1" stop-color="#22d3ee" stop-opacity="0"/>
    </radialGradient>
    <linearGradient id="title" x1="0" y1="0" x2="1" y2="0">
      <stop offset="0" stop-color="#ffffff"/>
      <stop offset="1" stop-color="#4ade80"/>
    </linearGradient>
  </defs>
  <rect width="1600" height="360" fill="url(#bg)"/>
  <rect width="1600" height="360" fill="url(#glowA)"/>
  <rect width="1600" height="360" fill="url(#glowB)"/>
  <g><line x1="283.9" y1="54.6" x2="387.0" y2="97.7" stroke="#4ade80" stroke-width="0.5" stroke-opacity="0.10"/><line x1="283.9" y1="54.6" x2="226.0" y2="157.1" stroke="#4ade80" stroke-width="0.5" stroke-opacity="0.10"/><line x1="283.9" y1="54.6" x2="289.2" y2="21.8" stroke="#4ade80" stroke-width="0.5" stroke-opacity="0.10"/><line x1="283.9" y1="54.6" x2="220.6" y2="90.3" stroke="#4ade80" stroke-width="0.5" stroke-opacity="0.10"/><line x1="916.5" y1="99.6" x2="976.0" y2="33.9" stroke="#4ade80" stroke-width="0.5" stroke-opacity="0.10"/><line x1="916.5" y1="99.6" x2="1033.5" y2="115.0" stroke="#4ade80" stroke-width="0.5" stroke-opacity="0.10"/><line x1="916.5" y1="99.6" x2="982.7" y2="44.6" stroke="#4ade80" stroke-width="0.5" stroke-opacity="0.10"/><line x1="916.5" y1="99.6" x2="920.4" y2="67.8" stroke="#4ade80" stroke-width="0.5" stroke-opacity="0.10"/><line x1="734.0" y1="236.4" x2="694.7" y2="310.5" stroke="#4ade80" stroke-width="0.5" stroke-opacity="0.10"/><line x1="924.8" y1="295.6" x2="862.8" y2="293.8" stroke="#4ade80" stroke-width="0.5" stroke-opacity="0.10"/><line x1="924.8" y1="295.6" x2="931.0" y2="220.6" stroke="#4ade80" stroke-width="0.5" stroke-opacity="0.10"/><line x1="924.8" y1="295.6" x2="1007.5" y2="281.7" stroke="#4ade80" stroke-width="0.5" stroke-opacity="0.10"/><line x1="485.5" y1="111.5" x2="387.0" y2="97.7" stroke="#4ade80" stroke-width="0.5" stroke-opacity="0.10"/><line x1="485.5" y1="111.5" x2="445.8" y2="37.8" stroke="#4ade80" stroke-width="0.5" stroke-opacity="0.10"/><line x1="1052.9" y1="99.9" x2="1138.2" y2="175.7" stroke="#4ade80" stroke-width="0.5" stroke-opacity="0.10"/><line x1="1052.9" y1="99.9" x2="976.0" y2="33.9" stroke="#4ade80" stroke-width="0.5" stroke-opacity="0.10"/><line x1="1052.9" y1="99.9" x2="1046.4" y2="64.8" stroke="#4ade80" stroke-width="0.5" stroke-opacity="0.10"/><line x1="1052.9" y1="99.9" x2="1033.5" y2="115.0" stroke="#4ade80" stroke-width="0.5" stroke-opacity="0.10"/><line x1="1052.9" y1="99.9" x2="1114.9" y2="12.7" stroke="#4ade80" stroke-width="0.5" stroke-opacity="0.10"/><line x1="1052.9" y1="99.9" x2="982.7" y2="44.6" stroke="#4ade80" stroke-width="0.5" stroke-opacity="0.10"/><line x1="1138.2" y1="175.7" x2="1192.6" y2="264.6" stroke="#4ade80" stroke-width="0.5" stroke-opacity="0.10"/><line x1="387.0" y1="97.7" x2="445.8" y2="37.8" stroke="#4ade80" stroke-width="0.5" stroke-opacity="0.10"/><line x1="1290.8" y1="99.4" x2="1293.4" y2="30.5" stroke="#4ade80" stroke-width="0.5" stroke-opacity="0.10"/><line x1="1290.8" y1="99.4" x2="1336.4" y2="186.1" stroke="#4ade80" stroke-width="0.5" stroke-opacity="0.10"/><line x1="976.0" y1="33.9" x2="1046.4" y2="64.8" stroke="#4ade80" stroke-width="0.5" stroke-opacity="0.10"/><line x1="976.0" y1="33.9" x2="1033.5" y2="115.0" stroke="#4ade80" stroke-width="0.5" stroke-opacity="0.10"/><line x1="976.0" y1="33.9" x2="982.7" y2="44.6" stroke="#4ade80" stroke-width="0.5" stroke-opacity="0.10"/><line x1="976.0" y1="33.9" x2="920.4" y2="67.8" stroke="#4ade80" stroke-width="0.5" stroke-opacity="0.10"/><line x1="234.6" y1="351.8" x2="326.1" y2="337.8" stroke="#4ade80" stroke-width="0.5" stroke-opacity="0.10"/><line x1="234.6" y1="351.8" x2="149.8" y2="294.4" stroke="#4ade80" stroke-width="0.5" stroke-opacity="0.10"/><line x1="1046.4" y1="64.8" x2="1033.5" y2="115.0" stroke="#4ade80" stroke-width="0.5" stroke-opacity="0.10"/><line x1="1046.4" y1="64.8" x2="1114.9" y2="12.7" stroke="#4ade80" stroke-width="0.5" stroke-opacity="0.10"/><line x1="1046.4" y1="64.8" x2="982.7" y2="44.6" stroke="#4ade80" stroke-width="0.5" stroke-opacity="0.10"/><line x1="226.0" y1="157.1" x2="220.6" y2="90.3" stroke="#4ade80" stroke-width="0.5" stroke-opacity="0.10"/><line x1="226.0" y1="157.1" x2="266.5" y2="214.3" stroke="#4ade80" stroke-width="0.5" stroke-opacity="0.10"/><line x1="226.0" y1="157.1" x2="141.2" y2="227.4" stroke="#4ade80" stroke-width="0.5" stroke-opacity="0.10"/><line x1="1166.7" y1="320.6" x2="1192.6" y2="264.6" stroke="#4ade80" stroke-width="0.5" stroke-opacity="0.10"/><line x1="1592.7" y1="135.9" x2="1561.8" y2="117.3" stroke="#4ade80" stroke-width="0.5" stroke-opacity="0.10"/><line x1="289.2" y1="21.8" x2="220.6" y2="90.3" stroke="#4ade80" stroke-width="0.5" stroke-opacity="0.10"/><line x1="1033.5" y1="115.0" x2="982.7" y2="44.6" stroke="#4ade80" stroke-width="0.5" stroke-opacity="0.10"/><line x1="1479.0" y1="192.5" x2="1561.8" y2="117.3" stroke="#4ade80" stroke-width="0.5" stroke-opacity="0.10"/><line x1="862.8" y1="293.8" x2="931.0" y2="220.6" stroke="#4ade80" stroke-width="0.5" stroke-opacity="0.10"/><line x1="1337.1" y1="266.6" x2="1270.2" y2="255.9" stroke="#4ade80" stroke-width="0.5" stroke-opacity="0.10"/><line x1="1337.1" y1="266.6" x2="1336.4" y2="186.1" stroke="#4ade80" stroke-width="0.5" stroke-opacity="0.10"/><line x1="1337.1" y1="266.6" x2="1384.5" y2="270.9" stroke="#4ade80" stroke-width="0.5" stroke-opacity="0.10"/><line x1="1337.1" y1="266.6" x2="1278.2" y2="239.3" stroke="#4ade80" stroke-width="0.5" stroke-opacity="0.10"/><line x1="1270.2" y1="255.9" x2="1192.6" y2="264.6" stroke="#4ade80" stroke-width="0.5" stroke-opacity="0.10"/><line x1="1270.2" y1="255.9" x2="1336.4" y2="186.1" stroke="#4ade80" stroke-width="0.5" stroke-opacity="0.10"/><line x1="1270.2" y1="255.9" x2="1384.5" y2="270.9" stroke="#4ade80" stroke-width="0.5" stroke-opacity="0.10"/><line x1="1270.2" y1="255.9" x2="1278.2" y2="239.3" stroke="#4ade80" stroke-width="0.5" stroke-opacity="0.10"/><line x1="53.0" y1="257.4" x2="141.2" y2="227.4" stroke="#4ade80" stroke-width="0.5" stroke-opacity="0.10"/><line x1="53.0" y1="257.4" x2="149.8" y2="294.4" stroke="#4ade80" stroke-width="0.5" stroke-opacity="0.10"/><line x1="931.0" y1="220.6" x2="1007.5" y2="281.7" stroke="#4ade80" stroke-width="0.5" stroke-opacity="0.10"/><line x1="982.7" y1="44.6" x2="920.4" y2="67.8" stroke="#4ade80" stroke-width="0.5" stroke-opacity="0.10"/><line x1="1192.6" y1="264.6" x2="1278.2" y2="239.3" stroke="#4ade80" stroke-width="0.5" stroke-opacity="0.10"/><line x1="1336.4" y1="186.1" x2="1384.5" y2="270.9" stroke="#4ade80" stroke-width="0.5" stroke-opacity="0.10"/><line x1="1336.4" y1="186.1" x2="1278.2" y2="239.3" stroke="#4ade80" stroke-width="0.5" stroke-opacity="0.10"/><line x1="141.2" y1="227.4" x2="149.8" y2="294.4" stroke="#4ade80" stroke-width="0.5" stroke-opacity="0.10"/><line x1="549.6" y1="345.7" x2="535.2" y2="305.0" stroke="#4ade80" stroke-width="0.5" stroke-opacity="0.10"/><line x1="1384.5" y1="270.9" x2="1278.2" y2="239.3" stroke="#4ade80" stroke-width="0.5" stroke-opacity="0.10"/><line x1="535.2" y1="305.0" x2="585.3" y2="226.9" stroke="#4ade80" stroke-width="0.5" stroke-opacity="0.10"/><circle cx="283.9" cy="54.6" r="0.7" fill="#4ade80" fill-opacity="0.39"/><circle cx="916.5" cy="99.6" r="1.5" fill="#4ade80" fill-opacity="0.55"/><circle cx="734.0" cy="236.4" r="2.3" fill="#4ade80" fill-opacity="0.59"/><circle cx="924.8" cy="295.6" r="1.9" fill="#4ade80" fill-opacity="0.17"/><circle cx="485.5" cy="111.5" r="2.2" fill="#4ade80" fill-opacity="0.20"/><circle cx="1052.9" cy="99.9" r="1.8" fill="#4ade80" fill-opacity="0.50"/><circle cx="1138.2" cy="175.7" r="0.9" fill="#4ade80" fill-opacity="0.27"/><circle cx="387.0" cy="97.7" r="1.6" fill="#4ade80" fill-opacity="0.64"/><circle cx="1290.8" cy="99.4" r="1.6" fill="#4ade80" fill-opacity="0.37"/><circle cx="976.0" cy="33.9" r="0.8" fill="#4ade80" fill-opacity="0.19"/><circle cx="1293.4" cy="30.5" r="1.0" fill="#4ade80" fill-opacity="0.51"/><circle cx="234.6" cy="351.8" r="2.2" fill="#4ade80" fill-opacity="0.55"/><circle cx="100.8" cy="29.3" r="1.2" fill="#4ade80" fill-opacity="0.53"/><circle cx="1046.4" cy="64.8" r="1.7" fill="#4ade80" fill-opacity="0.35"/><circle cx="226.0" cy="157.1" r="1.6" fill="#4ade80" fill-opacity="0.27"/><circle cx="1166.7" cy="320.6" r="1.8" fill="#4ade80" fill-opacity="0.52"/><circle cx="1592.7" cy="135.9" r="0.9" fill="#4ade80" fill-opacity="0.35"/><circle cx="326.1" cy="337.8" r="1.8" fill="#4ade80" fill-opacity="0.53"/><circle cx="289.2" cy="21.8" r="0.8" fill="#4ade80" fill-opacity="0.62"/><circle cx="1033.5" cy="115.0" r="2.2" fill="#4ade80" fill-opacity="0.29"/><circle cx="220.6" cy="90.3" r="0.8" fill="#4ade80" fill-opacity="0.24"/><circle cx="1479.0" cy="192.5" r="0.9" fill="#4ade80" fill-opacity="0.21"/><circle cx="862.8" cy="293.8" r="1.9" fill="#4ade80" fill-opacity="0.46"/><circle cx="1337.1" cy="266.6" r="1.3" fill="#4ade80" fill-opacity="0.39"/><circle cx="1114.9" cy="12.7" r="2.2" fill="#4ade80" fill-opacity="0.49"/><circle cx="1270.2" cy="255.9" r="0.9" fill="#4ade80" fill-opacity="0.49"/><circle cx="53.0" cy="257.4" r="2.0" fill="#4ade80" fill-opacity="0.62"/><circle cx="931.0" cy="220.6" r="0.8" fill="#4ade80" fill-opacity="0.26"/><circle cx="982.7" cy="44.6" r="1.7" fill="#4ade80" fill-opacity="0.41"/><circle cx="266.5" cy="214.3" r="0.8" fill="#4ade80" fill-opacity="0.21"/><circle cx="1192.6" cy="264.6" r="1.7" fill="#4ade80" fill-opacity="0.57"/><circle cx="920.4" cy="67.8" r="2.2" fill="#4ade80" fill-opacity="0.44"/><circle cx="1007.5" cy="281.7" r="0.7" fill="#4ade80" fill-opacity="0.51"/><circle cx="1336.4" cy="186.1" r="1.6" fill="#4ade80" fill-opacity="0.63"/><circle cx="141.2" cy="227.4" r="1.0" fill="#4ade80" fill-opacity="0.53"/><circle cx="1561.8" cy="117.3" r="0.6" fill="#4ade80" fill-opacity="0.21"/><circle cx="549.6" cy="345.7" r="1.7" fill="#4ade80" fill-opacity="0.64"/><circle cx="149.8" cy="294.4" r="2.0" fill="#4ade80" fill-opacity="0.61"/><circle cx="1384.5" cy="270.9" r="2.2" fill="#4ade80" fill-opacity="0.63"/><circle cx="763.5" cy="109.3" r="1.7" fill="#4ade80" fill-opacity="0.26"/><circle cx="445.8" cy="37.8" r="1.4" fill="#4ade80" fill-opacity="0.16"/><circle cx="1278.2" cy="239.3" r="1.0" fill="#4ade80" fill-opacity="0.20"/><circle cx="535.2" cy="305.0" r="1.4" fill="#4ade80" fill-opacity="0.62"/><circle cx="585.3" cy="226.9" r="1.1" fill="#4ade80" fill-opacity="0.32"/><circle cx="1509.2" cy="350.1" r="1.2" fill="#4ade80" fill-opacity="0.58"/><circle cx="694.7" cy="310.5" r="1.0" fill="#4ade80" fill-opacity="0.35"/></g>
  <g opacity="0.95"><rect x="1314" y="164" width="32" height="32" rx="6" fill="#4ade80" fill-opacity="0.9"/><line x1="1330" y1="180" x2="1330.0" y2="106.0" stroke="#4ade80" stroke-width="1.4" stroke-opacity="0.55"/><circle cx="1330.0" cy="106.0" r="6" fill="#4ade80"/><line x1="1330" y1="180" x2="1400.4" y2="157.1" stroke="#4ade80" stroke-width="1.4" stroke-opacity="0.55"/><circle cx="1400.4" cy="157.1" r="6" fill="#4ade80"/><line x1="1330" y1="180" x2="1373.5" y2="239.9" stroke="#4ade80" stroke-width="1.4" stroke-opacity="0.55"/><circle cx="1373.5" cy="239.9" r="6" fill="#4ade80"/><line x1="1330" y1="180" x2="1286.5" y2="239.9" stroke="#4ade80" stroke-width="1.4" stroke-opacity="0.55"/><circle cx="1286.5" cy="239.9" r="6" fill="#4ade80"/><line x1="1330" y1="180" x2="1259.6" y2="157.1" stroke="#4ade80" stroke-width="1.4" stroke-opacity="0.55"/><circle cx="1259.6" cy="157.1" r="6" fill="#4ade80"/></g>
  <g font-family="'Segoe UI', system-ui, sans-serif">
    <text x="130" y="150" fill="#4ade80" font-size="22" font-weight="700" letter-spacing="6">24/7 INTELLIGENCE DOMAIN</text>
    <text x="126" y="238" fill="url(#title)" font-size="92" font-weight="800" letter-spacing="1">Smart Systems</text>
    <rect x="132" y="262" width="150" height="5" rx="2.5" fill="#4ade80"/>
  </g>
  <rect x="0" y="0" width="1600" height="360" fill="none" stroke="#4ade80" stroke-opacity="0.18" stroke-width="2"/>
</svg>
