<svg xmlns="http://www.w3.org/2000/svg" viewBox="0 0 1600 360" width="1600" height="360" role="img" aria-label="Space domain banner">
  <defs>
    <linearGradient id="bg" x1="0" y1="0" x2="1" y2="1">
      <stop offset="0" stop-color="#060b18"/>
      <stop offset="0.55" stop-color="#0a1428"/>
      <stop offset="1" stop-color="#0c1a33"/>
    </linearGradient>
    <radialGradient id="glowA" cx="0.82" cy="0.5" r="0.5">
      <stop offset="0" stop-color="#818cf8" stop-opacity="0.35"/>
      <stop offset="1" stop-color="#818cf8" stop-opacity="0"/>
    </radialGradient>
    <radialGradient id="glowB" cx="0.1" cy="0.9" r="0.6">
      <stop offset="0" stop-color="#22d3ee" stop-opacity="0.22"/>
      <stop offset="1" stop-color="#22d3ee" stop-opacity="0"/>
    </radialGradient>
    <linearGradient id="title" x1="0" y1="0" x2="1" y2="0">
      <stop offset="0" stop-color="#ffffff"/>
      <stop offset="1" stop-color="#818cf8"/>
    </linearGradient>
  </defs>
  <rect width="1600" height="360" fill="url(#bg)"/>
  <rect width="1600" height="360" fill="url(#glowA)"/>
  <rect width="1600" height="360" fill="url(#glowB)"/>
  <g><line x1="1068.8" y1="24.8" x2="1098.8" y2="41.1" stroke="#818cf8" stroke-width="0.5" stroke-opacity="0.10"/><line x1="492.5" y1="147.6" x2="610.2" y2="154.1" stroke="#818cf8" stroke-width="0.5" stroke-opacity="0.10"/><line x1="492.5" y1="147.6" x2="447.8" y2="195.7" stroke="#818cf8" stroke-width="0.5" stroke-opacity="0.10"/><line x1="492.5" y1="147.6" x2="553.6" y2="147.9" stroke="#818cf8" stroke-width="0.5" stroke-opacity="0.10"/><line x1="610.2" y1="154.1" x2="727.0" y2="181.3" stroke="#818cf8" stroke-width="0.5" stroke-opacity="0.10"/><line x1="610.2" y1="154.1" x2="638.9" y2="45.8" stroke="#818cf8" stroke-width="0.5" stroke-opacity="0.10"/><line x1="610.2" y1="154.1" x2="580.1" y2="236.6" stroke="#818cf8" stroke-width="0.5" stroke-opacity="0.10"/><line x1="610.2" y1="154.1" x2="634.2" y2="234.5" stroke="#818cf8" stroke-width="0.5" stroke-opacity="0.10"/><line x1="610.2" y1="154.1" x2="553.6" y2="147.9" stroke="#818cf8" stroke-width="0.5" stroke-opacity="0.10"/><line x1="727.0" y1="181.3" x2="634.2" y2="234.5" stroke="#818cf8" stroke-width="0.5" stroke-opacity="0.10"/><line x1="117.1" y1="336.3" x2="10.8" y2="352.3" stroke="#818cf8" stroke-width="0.5" stroke-opacity="0.10"/><line x1="117.1" y1="336.3" x2="113.4" y2="350.6" stroke="#818cf8" stroke-width="0.5" stroke-opacity="0.10"/><line x1="1473.0" y1="134.2" x2="1379.3" y2="83.2" stroke="#818cf8" stroke-width="0.5" stroke-opacity="0.10"/><line x1="1473.0" y1="134.2" x2="1462.6" y2="66.9" stroke="#818cf8" stroke-width="0.5" stroke-opacity="0.10"/><line x1="447.8" y1="195.7" x2="553.6" y2="147.9" stroke="#818cf8" stroke-width="0.5" stroke-opacity="0.10"/><line x1="633.7" y1="299.2" x2="636.1" y2="312.2" stroke="#818cf8" stroke-width="0.5" stroke-opacity="0.10"/><line x1="633.7" y1="299.2" x2="580.1" y2="236.6" stroke="#818cf8" stroke-width="0.5" stroke-opacity="0.10"/><line x1="633.7" y1="299.2" x2="634.2" y2="234.5" stroke="#818cf8" stroke-width="0.5" stroke-opacity="0.10"/><line x1="22.0" y1="261.5" x2="10.8" y2="352.3" stroke="#818cf8" stroke-width="0.5" stroke-opacity="0.10"/><line x1="22.0" y1="261.5" x2="81.5" y2="216.0" stroke="#818cf8" stroke-width="0.5" stroke-opacity="0.10"/><line x1="1379.3" y1="83.2" x2="1330.0" y2="112.0" stroke="#818cf8" stroke-width="0.5" stroke-opacity="0.10"/><line x1="1379.3" y1="83.2" x2="1321.4" y2="84.1" stroke="#818cf8" stroke-width="0.5" stroke-opacity="0.10"/><line x1="1379.3" y1="83.2" x2="1462.6" y2="66.9" stroke="#818cf8" stroke-width="0.5" stroke-opacity="0.10"/><line x1="1379.3" y1="83.2" x2="1353.2" y2="174.3" stroke="#818cf8" stroke-width="0.5" stroke-opacity="0.10"/><line x1="638.9" y1="45.8" x2="557.1" y2="23.9" stroke="#818cf8" stroke-width="0.5" stroke-opacity="0.10"/><line x1="638.9" y1="45.8" x2="687.5" y2="26.7" stroke="#818cf8" stroke-width="0.5" stroke-opacity="0.10"/><line x1="1330.0" y1="112.0" x2="1321.4" y2="84.1" stroke="#818cf8" stroke-width="0.5" stroke-opacity="0.10"/><line x1="1330.0" y1="112.0" x2="1353.2" y2="174.3" stroke="#818cf8" stroke-width="0.5" stroke-opacity="0.10"/><line x1="1072.0" y1="234.3" x2="1047.4" y2="282.6" stroke="#818cf8" stroke-width="0.5" stroke-opacity="0.10"/><line x1="1072.0" y1="234.3" x2="1000.3" y2="305.1" stroke="#818cf8" stroke-width="0.5" stroke-opacity="0.10"/><line x1="1072.0" y1="234.3" x2="1146.0" y2="307.1" stroke="#818cf8" stroke-width="0.5" stroke-opacity="0.10"/><line x1="1072.0" y1="234.3" x2="1134.6" y2="179.4" stroke="#818cf8" stroke-width="0.5" stroke-opacity="0.10"/><line x1="1072.0" y1="234.3" x2="1033.6" y2="178.1" stroke="#818cf8" stroke-width="0.5" stroke-opacity="0.10"/><line x1="1072.0" y1="234.3" x2="1062.8" y2="321.8" stroke="#818cf8" stroke-width="0.5" stroke-opacity="0.10"/><line x1="1047.4" y1="282.6" x2="1000.3" y2="305.1" stroke="#818cf8" stroke-width="0.5" stroke-opacity="0.10"/><line x1="1047.4" y1="282.6" x2="1146.0" y2="307.1" stroke="#818cf8" stroke-width="0.5" stroke-opacity="0.10"/><line x1="1047.4" y1="282.6" x2="943.0" y2="240.3" stroke="#818cf8" stroke-width="0.5" stroke-opacity="0.10"/><line x1="1047.4" y1="282.6" x2="1033.6" y2="178.1" stroke="#818cf8" stroke-width="0.5" stroke-opacity="0.10"/><line x1="1047.4" y1="282.6" x2="1062.8" y2="321.8" stroke="#818cf8" stroke-width="0.5" stroke-opacity="0.10"/><line x1="10.8" y1="352.3" x2="113.4" y2="350.6" stroke="#818cf8" stroke-width="0.5" stroke-opacity="0.10"/><line x1="1321.4" y1="84.1" x2="1353.2" y2="174.3" stroke="#818cf8" stroke-width="0.5" stroke-opacity="0.10"/><line x1="848.4" y1="200.1" x2="943.0" y2="240.3" stroke="#818cf8" stroke-width="0.5" stroke-opacity="0.10"/><line x1="848.4" y1="200.1" x2="905.1" y2="109.9" stroke="#818cf8" stroke-width="0.5" stroke-opacity="0.10"/><line x1="848.4" y1="200.1" x2="884.2" y2="102.8" stroke="#818cf8" stroke-width="0.5" stroke-opacity="0.10"/><line x1="209.4" y1="109.2" x2="170.9" y2="65.3" stroke="#818cf8" stroke-width="0.5" stroke-opacity="0.10"/><line x1="209.4" y1="109.2" x2="212.3" y2="108.0" stroke="#818cf8" stroke-width="0.5" stroke-opacity="0.10"/><line x1="209.4" y1="109.2" x2="223.0" y2="144.0" stroke="#818cf8" stroke-width="0.5" stroke-opacity="0.10"/><line x1="1000.3" y1="305.1" x2="943.0" y2="240.3" stroke="#818cf8" stroke-width="0.5" stroke-opacity="0.10"/><line x1="1000.3" y1="305.1" x2="1062.8" y2="321.8" stroke="#818cf8" stroke-width="0.5" stroke-opacity="0.10"/><line x1="636.1" y1="312.2" x2="580.1" y2="236.6" stroke="#818cf8" stroke-width="0.5" stroke-opacity="0.10"/><line x1="636.1" y1="312.2" x2="634.2" y2="234.5" stroke="#818cf8" stroke-width="0.5" stroke-opacity="0.10"/><line x1="580.1" y1="236.6" x2="634.2" y2="234.5" stroke="#818cf8" stroke-width="0.5" stroke-opacity="0.10"/><line x1="580.1" y1="236.6" x2="553.6" y2="147.9" stroke="#818cf8" stroke-width="0.5" stroke-opacity="0.10"/><line x1="634.2" y1="234.5" x2="553.6" y2="147.9" stroke="#818cf8" stroke-width="0.5" stroke-opacity="0.10"/><line x1="1146.0" y1="307.1" x2="1062.8" y2="321.8" stroke="#818cf8" stroke-width="0.5" stroke-opacity="0.10"/><line x1="943.0" y1="240.3" x2="1033.6" y2="178.1" stroke="#818cf8" stroke-width="0.5" stroke-opacity="0.10"/><line x1="1134.6" y1="179.4" x2="1033.6" y2="178.1" stroke="#818cf8" stroke-width="0.5" stroke-opacity="0.10"/><line x1="170.9" y1="65.3" x2="212.3" y2="108.0" stroke="#818cf8" stroke-width="0.5" stroke-opacity="0.10"/><line x1="170.9" y1="65.3" x2="223.0" y2="144.0" stroke="#818cf8" stroke-width="0.5" stroke-opacity="0.10"/><line x1="212.3" y1="108.0" x2="223.0" y2="144.0" stroke="#818cf8" stroke-width="0.5" stroke-opacity="0.10"/><line x1="857.2" y1="15.9" x2="905.1" y2="109.9" stroke="#818cf8" stroke-width="0.5" stroke-opacity="0.10"/><line x1="857.2" y1="15.9" x2="884.2" y2="102.8" stroke="#818cf8" stroke-width="0.5" stroke-opacity="0.10"/><line x1="905.1" y1="109.9" x2="884.2" y2="102.8" stroke="#818cf8" stroke-width="0.5" stroke-opacity="0.10"/><circle cx="1068.8" cy="24.8" r="2.0" fill="#818cf8" fill-opacity="0.18"/><circle cx="492.5" cy="147.6" r="2.0" fill="#818cf8" fill-opacity="0.63"/><circle cx="610.2" cy="154.1" r="1.2" fill="#818cf8" fill-opacity="0.56"/><circle cx="727.0" cy="181.3" r="1.1" fill="#818cf8" fill-opacity="0.30"/><circle cx="1599.5" cy="165.0" r="1.8" fill="#818cf8" fill-opacity="0.20"/><circle cx="117.1" cy="336.3" r="1.0" fill="#818cf8" fill-opacity="0.51"/><circle cx="1473.0" cy="134.2" r="1.6" fill="#818cf8" fill-opacity="0.46"/><circle cx="447.8" cy="195.7" r="1.5" fill="#818cf8" fill-opacity="0.36"/><circle cx="633.7" cy="299.2" r="1.0" fill="#818cf8" fill-opacity="0.54"/><circle cx="22.0" cy="261.5" r="0.8" fill="#818cf8" fill-opacity="0.32"/><circle cx="1379.3" cy="83.2" r="1.8" fill="#818cf8" fill-opacity="0.54"/><circle cx="638.9" cy="45.8" r="1.1" fill="#818cf8" fill-opacity="0.57"/><circle cx="1330.0" cy="112.0" r="0.7" fill="#818cf8" fill-opacity="0.51"/><circle cx="1072.0" cy="234.3" r="1.6" fill="#818cf8" fill-opacity="0.39"/><circle cx="557.1" cy="23.9" r="0.9" fill="#818cf8" fill-opacity="0.29"/><circle cx="1047.4" cy="282.6" r="0.7" fill="#818cf8" fill-opacity="0.34"/><circle cx="10.8" cy="352.3" r="1.9" fill="#818cf8" fill-opacity="0.37"/><circle cx="1321.4" cy="84.1" r="1.9" fill="#818cf8" fill-opacity="0.42"/><circle cx="848.4" cy="200.1" r="0.8" fill="#818cf8" fill-opacity="0.58"/><circle cx="1459.4" cy="311.6" r="1.6" fill="#818cf8" fill-opacity="0.63"/><circle cx="1462.6" cy="66.9" r="2.0" fill="#818cf8" fill-opacity="0.23"/><circle cx="113.4" cy="350.6" r="2.4" fill="#818cf8" fill-opacity="0.38"/><circle cx="209.4" cy="109.2" r="0.8" fill="#818cf8" fill-opacity="0.61"/><circle cx="1000.3" cy="305.1" r="1.5" fill="#818cf8" fill-opacity="0.38"/><circle cx="636.1" cy="312.2" r="2.2" fill="#818cf8" fill-opacity="0.46"/><circle cx="580.1" cy="236.6" r="2.3" fill="#818cf8" fill-opacity="0.41"/><circle cx="10.0" cy="54.9" r="1.3" fill="#818cf8" fill-opacity="0.28"/><circle cx="634.2" cy="234.5" r="0.8" fill="#818cf8" fill-opacity="0.43"/><circle cx="1146.0" cy="307.1" r="2.1" fill="#818cf8" fill-opacity="0.61"/><circle cx="943.0" cy="240.3" r="1.4" fill="#818cf8" fill-opacity="0.24"/><circle cx="1134.6" cy="179.4" r="2.0" fill="#818cf8" fill-opacity="0.64"/><circle cx="864.5" cy="343.0" r="1.8" fill="#818cf8" fill-opacity="0.38"/><circle cx="170.9" cy="65.3" r="1.6" fill="#818cf8" fill-opacity="0.31"/><circle cx="212.3" cy="108.0" r="1.8" fill="#818cf8" fill-opacity="0.59"/><circle cx="81.5" cy="216.0" r="2.2" fill="#818cf8" fill-opacity="0.25"/><circle cx="1033.6" cy="178.1" r="0.7" fill="#818cf8" fill-opacity="0.55"/><circle cx="553.6" cy="147.9" r="1.3" fill="#818cf8" fill-opacity="0.16"/><circle cx="687.5" cy="26.7" r="1.1" fill="#818cf8" fill-opacity="0.59"/><circle cx="1062.8" cy="321.8" r="1.0" fill="#818cf8" fill-opacity="0.59"/><circle cx="223.0" cy="144.0" r="1.4" fill="#818cf8" fill-opacity="0.33"/><circle cx="501.1" cy="335.9" r="2.2" fill="#818cf8" fill-opacity="0.65"/><circle cx="857.2" cy="15.9" r="1.2" fill="#818cf8" fill-opacity="0.15"/><circle cx="905.1" cy="109.9" r="2.3" fill="#818cf8" fill-opacity="0.53"/><circle cx="1353.2" cy="174.3" r="1.5" fill="#818cf8" fill-opacity="0.65"/><circle cx="884.2" cy="102.8" r="2.3" fill="#818cf8" fill-opacity="0.58"/><circle cx="1098.8" cy="41.1" r="1.3" fill="#818cf8" fill-opacity="0.41"/></g>
  <g opacity="0.95"><circle cx="1330" cy="180" r="26" fill="#818cf8" fill-opacity="0.9"/><ellipse cx="1330" cy="180" rx="82" ry="30" fill="none" stroke="#818cf8" stroke-width="2" stroke-opacity="0.6" transform="rotate(-20 1330 180)"/><ellipse cx="1330" cy="180" rx="82" ry="30" fill="none" stroke="#818cf8" stroke-width="1.4" stroke-opacity="0.4" transform="rotate(35 1330 180)"/><circle cx="1407" cy="158" r="6" fill="#818cf8"/></g>
  <g font-family="'Segoe UI', system-ui, sans-serif">
    <text x="130" y="150" fill="#818cf8" font-size="22" font-weight="700" letter-spacing="6">24/7 INTELLIGENCE DOMAIN</text>
    <text x="126" y="238" fill="url(#title)" font-size="92" font-weight="800" letter-spacing="1">Space</text>
    <rect x="132" y="262" width="150" height="5" rx="2.5" fill="#818cf8"/>
  </g>
  <rect x="0" y="0" width="1600" height="360" fill="none" stroke="#818cf8" stroke-opacity="0.18" stroke-width="2"/>
</svg>
